<svg version="1.1" viewBox="0.0 0.0 944.8818897637796 944.8818897637796" fill="none" stroke="none" stroke-linecap="square" stroke-miterlimit="10" xmlns:xlink="http://www.w3.org/1999/xlink" xmlns="http://www.w3.org/2000/svg"><clipPath id="g31a61edbf9d_0_57.0"><path d="m0 0l944.8819 0l0 944.8819l-944.8819 0l0 -944.8819z" clip-rule="nonzero"/></clipPath><g clip-path="url(#g31a61edbf9d_0_57.0)"><path fill="#ffffff" d="m0 0l944.8819 0l0 944.8819l-944.8819 0z" fill-rule="evenodd"/><path fill="#3f51b4" d="m186.68591 279.564l0 0c0 -31.762894 25.748901 -57.51181 57.51181 -57.51181l0 0c15.253082 0 29.88144 6.059265 40.666992 16.844833c10.785553 10.785553 16.844818 25.413895 16.844818 40.666977l0 0c0 31.762909 -25.748932 57.51181 -57.51181 57.51181l0 0c-31.762909 0 -57.51181 -25.748901 -57.51181 -57.51181z" fill-rule="evenodd"/><path stroke="#3f51b4" stroke-width="12.0" stroke-linejoin="round" stroke-linecap="butt" d="m186.68591 279.564l0 0c0 -31.762894 25.748901 -57.51181 57.51181 -57.51181l0 0c15.253082 0 29.88144 6.059265 40.666992 16.844833c10.785553 10.785553 16.844818 25.413895 16.844818 40.666977l0 0c0 31.762909 -25.748932 57.51181 -57.51181 57.51181l0 0c-31.762909 0 -57.51181 -25.748901 -57.51181 -57.51181z" fill-rule="evenodd"/><path fill="#3f51b4" d="m152.39868 505.7462l0 -82.31497l0 0c0 -45.461304 41.098145 -82.31497 91.79527 -82.31497c50.69713 0 91.79527 36.85367 91.79527 82.31497l0 82.31497z" fill-rule="evenodd"/><path stroke="#3f51b4" stroke-width="12.0" stroke-linejoin="round" stroke-linecap="butt" d="m152.39868 505.7462l0 -82.31497l0 0c0 -45.461304 41.098145 -82.31497 91.79527 -82.31497c50.69713 0 91.79527 36.85367 91.79527 82.31497l0 82.31497z" fill-rule="evenodd"/><path fill="#3f51b4" d="m643.1023 279.564l0 0c0 -31.762894 25.748962 -57.51181 57.51184 -57.51181l0 0c15.253052 0 29.881409 6.059265 40.666992 16.844833c10.785522 10.785553 16.844788 25.413895 16.844788 40.666977l0 0c0 31.762909 -25.748901 57.51181 -57.51178 57.51181l0 0c-31.762878 0 -57.51184 -25.748901 -57.51184 -57.51181z" fill-rule="evenodd"/><path stroke="#3f51b4" stroke-width="12.0" stroke-linejoin="round" stroke-linecap="butt" d="m643.1023 279.564l0 0c0 -31.762894 25.748962 -57.51181 57.51184 -57.51181l0 0c15.253052 0 29.881409 6.059265 40.666992 16.844833c10.785522 10.785553 16.844788 25.413895 16.844788 40.666977l0 0c0 31.762909 -25.748901 57.51181 -57.51178 57.51181l0 0c-31.762878 0 -57.51184 -25.748901 -57.51184 -57.51181z" fill-rule="evenodd"/><path fill="#3f51b4" d="m608.8151 505.7462l0 -82.31497l0 0c0 -45.461304 41.098145 -82.31497 91.79523 -82.31497c50.697144 0 91.79529 36.85367 91.79529 82.31497l0 82.31497z" fill-rule="evenodd"/><path stroke="#3f51b4" stroke-width="12.0" stroke-linejoin="round" stroke-linecap="butt" d="m608.8151 505.7462l0 -82.31497l0 0c0 -45.461304 41.098145 -82.31497 91.79523 -82.31497c50.697144 0 91.79529 36.85367 91.79529 82.31497l0 82.31497z" fill-rule="evenodd"/><path fill="#3f51b4" d="m414.8941 352.59558l0 0c0 -31.762878 25.748932 -57.51181 57.51181 -57.51181l0 0c15.253082 0 29.88144 6.059265 40.667023 16.844818c10.785522 10.785553 16.844788 25.41391 16.844788 40.666992l0 0c0 31.762909 -25.748901 57.51181 -57.51181 57.51181l0 0c-31.762878 0 -57.51181 -25.748901 -57.51181 -57.51181z" fill-rule="evenodd"/><path stroke="#3f51b4" stroke-width="12.0" stroke-linejoin="round" stroke-linecap="butt" d="m414.8941 352.59558l0 0c0 -31.762878 25.748932 -57.51181 57.51181 -57.51181l0 0c15.253082 0 29.88144 6.059265 40.667023 16.844818c10.785522 10.785553 16.844788 25.41391 16.844788 40.666992l0 0c0 31.762909 -25.748901 57.51181 -57.51181 57.51181l0 0c-31.762878 0 -57.51181 -25.748901 -57.51181 -57.51181z" fill-rule="evenodd"/><path fill="#3f51b4" d="m380.6069 578.7778l0 -82.31497l0 0c0 -45.461304 41.098145 -82.31497 91.79526 -82.31497c50.697144 0 91.79529 36.85367 91.79529 82.31497l0 82.31497z" fill-rule="evenodd"/><path stroke="#3f51b4" stroke-width="12.0" stroke-linejoin="round" stroke-linecap="butt" d="m380.6069 578.7778l0 -82.31497l0 0c0 -45.461304 41.098145 -82.31497 91.79526 -82.31497c50.697144 0 91.79529 36.85367 91.79529 82.31497l0 82.31497z" fill-rule="evenodd"/><path fill="#000000" fill-opacity="0.0" d="m3.1338582 709.12286l944.8819 0l0 164.81891l-944.8819 0z" fill-rule="evenodd"/><path fill="#3f51b4" d="m316.58456 755.5729l-23.328125 77.75l-11.015625 0l27.484375 -85.3125l6.921875 0l-0.0625 7.5625zm18.859375 77.75l-23.3125 -77.75l-0.125 -7.5625l6.984375 0l27.46875 85.3125l-11.015625 0zm0 -31.578125l0 9.25l-41.125 0l0 -9.25l41.125 0zm48.527344 -8.328125l-17.34375 0l-0.125 -9.078125l16.109375 0q3.640625 0 6.453125 -1.640625q2.8125 -1.640625 4.421875 -4.71875q1.609375 -3.078125 1.609375 -7.359375q0 -4.6875 -1.375 -7.640625q-1.375 -2.953125 -4.15625 -4.328125q-2.78125 -1.390625 -7.0625 -1.390625l-13.59375 0l0 76.0625l-10.78125 0l0 -85.3125l24.375 0q5.5 0 9.828125 1.328125q4.34375 1.3125 7.359375 4.09375q3.03125 2.78125 4.609375 7.0625q1.578125 4.265625 1.578125 10.25q0 5.265625 -2.375 9.515625q-2.375 4.25 -6.59375 6.953125q-4.21875 2.6875 -9.71875 3.453125l-3.21875 2.75zm-0.421875 39.90625l-21.375 0l6.265625 -9.203125l15.109375 0q4.21875 0 7.140625 -1.875q2.9375 -1.875 4.484375 -5.296875q1.5625 -3.4375 1.5625 -8.125q0 -4.734375 -1.296875 -8.1875q-1.28125 -3.46875 -4.09375 -5.34375q-2.8125 -1.875 -7.375 -1.875l-13.890625 0l0.109375 -9.078125l18.75 0l2.40625 3.28125q5.28125 0.53125 8.875 3.484375q3.609375 2.953125 5.453125 7.53125q1.84375 4.5625 1.84375 10.078125q0 7.96875 -2.96875 13.453125q-2.953125 5.46875 -8.34375 8.3125q-5.390625 2.84375 -12.65625 2.84375zm77.41406 -21.5625q0 -2.984375 -0.703125 -5.296875q-0.703125 -2.328125 -2.46875 -4.203125q-1.75 -1.875 -4.921875 -3.5625q-3.15625 -1.703125 -8.03125 -3.46875q-5.265625 -1.875 -9.546875 -4.1875q-4.28125 -2.3125 -7.296875 -5.296875q-3.015625 -2.984375 -4.65625 -6.84375q-1.640625 -3.875 -1.640625 -8.859375q0 -4.984375 1.71875 -9.203125q1.734375 -4.21875 4.921875 -7.34375q3.203125 -3.140625 7.71875 -4.890625q4.515625 -1.765625 10.078125 -1.765625q8.3125 0 14.03125 3.671875q5.71875 3.65625 8.640625 9.546875q2.9375 5.875 2.9375 12.5625l-10.78125 0q0 -4.8125 -1.5625 -8.53125q-1.546875 -3.71875 -4.796875 -5.859375q-3.25 -2.140625 -8.46875 -2.140625q-4.6875 0 -7.703125 1.828125q-3.015625 1.8125 -4.453125 4.921875q-1.4375 3.09375 -1.4375 7.078125q0 2.703125 0.9375 4.90625q0.9375 2.1875 2.890625 4.0625q1.96875 1.875 4.921875 3.46875q2.96875 1.578125 7.015625 3.03125q6.265625 2.0625 10.71875 4.578125q4.453125 2.515625 7.265625 5.65625q2.8125 3.125 4.125 7.09375q1.328125 3.953125 1.328125 8.921875q0 5.21875 -1.734375 9.4375q-1.734375 4.21875 -5.015625 7.21875q-3.28125 2.984375 -7.90625 4.59375q-4.625 1.609375 -10.421875 1.609375q-5.046875 0 -9.890625 -1.640625q-4.828125 -1.640625 -8.75 -4.921875q-3.921875 -3.28125 -6.265625 -8.109375q-2.34375 -4.84375 -2.34375 -11.234375l10.78125 0q0 4.40625 1.28125 7.546875q1.296875 3.125 3.578125 5.171875q2.28125 2.046875 5.234375 3.015625q2.96875 0.96875 6.375 0.96875q4.6875 0 7.875 -1.640625q3.1875 -1.640625 4.796875 -4.6875q1.625 -3.046875 1.625 -7.203125zm70.77341 12.359375l0 9.203125l-37.03122 0l0 -9.203125l37.03122 0zm-35.09372 -76.109375l0 85.3125l-10.78125 0l0 -85.3125l10.78125 0zm30.109344 36.671875l0 9.203125l-32.046844 0l0 -9.203125l32.046844 0zm4.40625 -36.671875l0 9.25l-36.453094 0l0 -9.25l36.453094 0zm70.13281 0l0 85.3125l-10.84375 0l-34.15625 -65.796875l0 65.796875l-10.78125 0l0 -85.3125l10.78125 0l34.328125 65.96875l0 -65.96875l10.671875 0zm44.296875 0l0 85.3125l-10.671875 0l0 -85.3125l10.671875 0zm22.4375 0l0 9.25l-55.484375 0l0 -9.25l55.484375 0z" fill-rule="nonzero"/></g></svg>