<svg version="1.1" viewBox="0.0 0.0 944.8818897637796 944.8818897637796" fill="none" stroke="none" stroke-linecap="square" stroke-miterlimit="10" xmlns:xlink="http://www.w3.org/1999/xlink" xmlns="http://www.w3.org/2000/svg"><clipPath id="g31a624ce75d_0_143.0"><path d="m0 0l944.8819 0l0 944.8819l-944.8819 0l0 -944.8819z" clip-rule="nonzero"/></clipPath><g clip-path="url(#g31a624ce75d_0_143.0)"><path fill="#000000" fill-opacity="0.0" d="m0 0l944.8819 0l0 944.8819l-944.8819 0z" fill-rule="evenodd"/><path fill="#ffffff" d="m251.8482 421.8288l194.17322 0l0 194.17322l-194.17322 0z" fill-rule="evenodd"/><path stroke="#3f51b4" stroke-width="12.0" stroke-linejoin="round" stroke-linecap="butt" d="m251.8482 421.8288l194.17322 0l0 194.17322l-194.17322 0z" fill-rule="evenodd"/><path fill="#ffffff" d="m248.87675 174.81546l194.17323 0l0 194.17322l-194.17323 0z" fill-rule="evenodd"/><path stroke="#3f51b4" stroke-width="12.0" stroke-linejoin="round" stroke-linecap="butt" d="m248.87675 174.81546l194.17323 0l0 194.17322l-194.17323 0z" fill-rule="evenodd"/><path fill="#ffffff" d="m498.86047 421.8288l194.17322 0l0 194.17322l-194.17322 0z" fill-rule="evenodd"/><path stroke="#3f51b4" stroke-width="12.0" stroke-linejoin="round" stroke-linecap="butt" d="m498.86047 421.8288l194.17322 0l0 194.17322l-194.17322 0z" fill-rule="evenodd"/><path fill="#ffffff" d="m555.7133 127.21259l181.95276 67.77953l-67.77948 181.95276l-181.95279 -67.77954z" fill-rule="evenodd"/><path stroke="#3f51b4" stroke-width="12.0" stroke-linejoin="round" stroke-linecap="butt" d="m555.7133 127.21259l181.95276 67.77953l-67.77948 181.95276l-181.95279 -67.77954z" fill-rule="evenodd"/><path fill="#000000" fill-opacity="0.0" d="m3.1338582 701.12286l944.8819 0l0 164.81891l-944.8819 0z" fill-rule="evenodd"/><path fill="#3f51b4" d="m380.21738 747.5729l-23.328125 77.75l-11.015625 0l27.484375 -85.3125l6.921875 0l-0.0625 7.5625zm18.859375 77.75l-23.3125 -77.75l-0.125 -7.5625l6.984375 0l27.46875 85.3125l-11.015625 0zm0 -31.578125l0 9.25l-41.125 0l0 -9.25l41.125 0zm49.871094 -1.875l-18.640625 0l0 -9.203125l18.640625 0q5.265625 0 8.515625 -2.109375q3.265625 -2.109375 4.75 -5.859375q1.5 -3.75 1.5 -8.5625q0 -4.390625 -1.5 -8.25q-1.484375 -3.875 -4.75 -6.25q-3.25 -2.375 -8.515625 -2.375l-16.40625 0l0 76.0625l-10.78125 0l0 -85.3125l27.1875 0q8.265625 0 13.9375 3.34375q5.6875 3.328125 8.640625 9.21875q2.96875 5.890625 2.96875 13.453125q0 8.203125 -2.96875 14.0q-2.953125 5.796875 -8.640625 8.828125q-5.671875 3.015625 -13.9375 3.015625zm66.503876 0l-18.640594 0l0 -9.203125l18.640594 0q5.265625 0 8.515625 -2.109375q3.265625 -2.109375 4.75 -5.859375q1.5 -3.75 1.5 -8.5625q0 -4.390625 -1.5 -8.25q-1.484375 -3.875 -4.75 -6.25q-3.25 -2.375 -8.515625 -2.375l-16.40622 0l0 76.0625l-10.78125 0l0 -85.3125l27.18747 0q8.265625 0 13.9375 3.34375q5.6875 3.328125 8.640625 9.21875q2.96875 5.890625 2.96875 13.453125q0 8.203125 -2.96875 14.0q-2.953125 5.796875 -8.640625 8.828125q-5.671875 3.015625 -13.9375 3.015625zm76.64453 11.890625q0 -2.984375 -0.703125 -5.296875q-0.703125 -2.328125 -2.46875 -4.203125q-1.75 -1.875 -4.921875 -3.5625q-3.15625 -1.703125 -8.03125 -3.46875q-5.265625 -1.875 -9.546875 -4.1875q-4.28125 -2.3125 -7.296875 -5.296875q-3.015625 -2.984375 -4.65625 -6.84375q-1.640625 -3.875 -1.640625 -8.859375q0 -4.984375 1.71875 -9.203125q1.734375 -4.21875 4.921875 -7.34375q3.203125 -3.140625 7.71875 -4.890625q4.515625 -1.765625 10.078125 -1.765625q8.3125 0 14.03125 3.671875q5.71875 3.65625 8.640625 9.546875q2.9375 5.875 2.9375 12.5625l-10.78125 0q0 -4.8125 -1.5625 -8.53125q-1.546875 -3.71875 -4.796875 -5.859375q-3.25 -2.140625 -8.46875 -2.140625q-4.6875 0 -7.703125 1.828125q-3.015625 1.8125 -4.453125 4.921875q-1.4375 3.09375 -1.4375 7.078125q0 2.703125 0.9375 4.90625q0.9375 2.1875 2.890625 4.0625q1.96875 1.875 4.921875 3.46875q2.96875 1.578125 7.015625 3.03125q6.265625 2.0625 10.71875 4.578125q4.453125 2.515625 7.265625 5.65625q2.8125 3.125 4.125 7.09375q1.328125 3.953125 1.328125 8.921875q0 5.21875 -1.734375 9.4375q-1.734375 4.21875 -5.015625 7.21875q-3.28125 2.984375 -7.90625 4.59375q-4.625 1.609375 -10.421875 1.609375q-5.046875 0 -9.890625 -1.640625q-4.828125 -1.640625 -8.75 -4.921875q-3.921875 -3.28125 -6.265625 -8.109375q-2.34375 -4.84375 -2.34375 -11.234375l10.78125 0q0 4.40625 1.28125 7.546875q1.296875 3.125 3.578125 5.171875q2.28125 2.046875 5.234375 3.015625q2.96875 0.96875 6.375 0.96875q4.6875 0 7.875 -1.640625q3.1875 -1.640625 4.796875 -4.6875q1.625 -3.046875 1.625 -7.203125z" fill-rule="nonzero"/></g></svg>