<svg version="1.1" viewBox="0.0 0.0 944.8818897637796 944.8818897637796" fill="none" stroke="none" stroke-linecap="square" stroke-miterlimit="10" xmlns:xlink="http://www.w3.org/1999/xlink" xmlns="http://www.w3.org/2000/svg"><clipPath id="g31a624ce75d_0_21.0"><path d="m0 0l944.8819 0l0 944.8819l-944.8819 0l0 -944.8819z" clip-rule="nonzero"/></clipPath><g clip-path="url(#g31a624ce75d_0_21.0)"><path fill="#ffffff" d="m0 0l944.8819 0l0 944.8819l-944.8819 0z" fill-rule="evenodd"/><path fill="#000000" fill-opacity="0.0" d="m3.1338582 701.12286l944.8819 0l0 187.4646l-944.8819 0z" fill-rule="evenodd"/><path fill="#3f51b4" d="m299.6407 753.3991l-26.9375 89.84375l-12.734375 0l31.765625 -98.578125l7.984375 0l-0.078125 8.734375zm21.8125 89.84375l-26.953125 -89.84375l-0.140625 -8.734375l8.0625 0l31.75 98.578125l-12.71875 0zm0 -36.484375l0 10.6875l-47.53125 0l0 -10.6875l47.53125 0zm69.316895 11.5625q0 -3.453125 -0.8125 -6.125q-0.8125 -2.671875 -2.84375 -4.828125q-2.03125 -2.171875 -5.6875 -4.125q-3.65625 -1.96875 -9.265625 -4.0q-6.09375 -2.171875 -11.046875 -4.84375q-4.9375 -2.671875 -8.421875 -6.125q-3.484375 -3.453125 -5.390625 -7.921875q-1.890625 -4.46875 -1.890625 -10.234375q0 -5.75 2.0 -10.625q2.0 -4.875 5.6875 -8.5q3.6875 -3.625 8.90625 -5.65625q5.21875 -2.03125 11.640625 -2.03125q9.609375 0 16.203125 4.234375q6.609375 4.234375 10.0 11.046875q3.390625 6.796875 3.390625 14.515625l-12.46875 0q0 -5.546875 -1.796875 -9.84375q-1.78125 -4.3125 -5.546875 -6.78125q-3.75 -2.46875 -9.78125 -2.46875q-5.40625 0 -8.90625 2.109375q-3.484375 2.09375 -5.140625 5.6875q-1.65625 3.578125 -1.65625 8.1875q0 3.109375 1.078125 5.65625q1.09375 2.53125 3.359375 4.703125q2.265625 2.15625 5.6875 3.984375q3.421875 1.828125 8.078125 3.53125q7.25 2.359375 12.390625 5.28125q5.15625 2.90625 8.40625 6.53125q3.25 3.625 4.765625 8.1875q1.53125 4.5625 1.53125 10.328125q0 6.015625 -2.0 10.890625q-2.0 4.875 -5.796875 8.328125q-3.78125 3.453125 -9.140625 5.328125q-5.34375 1.859375 -12.046875 1.859375q-5.8125 0 -11.40625 -1.890625q-5.578125 -1.90625 -10.125 -5.6875q-4.53125 -3.796875 -7.25 -9.375q-2.703125 -5.59375 -2.703125 -12.984375l12.46875 0q0 5.078125 1.484375 8.703125q1.484375 3.625 4.125 6.0q2.640625 2.359375 6.0625 3.484375q3.421875 1.109375 7.34375 1.109375q5.421875 0 9.109375 -1.890625q3.6875 -1.890625 5.546875 -5.40625q1.859375 -3.53125 1.859375 -8.34375zm71.90085 0q0 -3.453125 -0.8125 -6.125q-0.8125 -2.671875 -2.84375 -4.828125q-2.03125 -2.171875 -5.6875 -4.125q-3.65625 -1.96875 -9.265625 -4.0q-6.09375 -2.171875 -11.046875 -4.84375q-4.9375 -2.671875 -8.421875 -6.125q-3.484375 -3.453125 -5.390625 -7.921875q-1.890625 -4.46875 -1.890625 -10.234375q0 -5.75 2.0 -10.625q2.0 -4.875 5.6875 -8.5q3.6875 -3.625 8.90625 -5.65625q5.21875 -2.03125 11.640625 -2.03125q9.609375 0 16.203125 4.234375q6.609375 4.234375 10.0 11.046875q3.390625 6.796875 3.390625 14.515625l-12.46875 0q0 -5.546875 -1.796875 -9.84375q-1.78125 -4.3125 -5.546875 -6.78125q-3.75 -2.46875 -9.78125 -2.46875q-5.40625 0 -8.90625 2.109375q-3.484375 2.09375 -5.140625 5.6875q-1.65625 3.578125 -1.65625 8.1875q0 3.109375 1.078125 5.65625q1.09375 2.53125 3.359375 4.703125q2.265625 2.15625 5.6875 3.984375q3.421875 1.828125 8.078125 3.53125q7.25 2.359375 12.390625 5.28125q5.15625 2.90625 8.40625 6.53125q3.25 3.625 4.765625 8.1875q1.53125 4.5625 1.53125 10.328125q0 6.015625 -2.0 10.890625q-2.0 4.875 -5.796875 8.328125q-3.78125 3.453125 -9.140625 5.328125q-5.34375 1.859375 -12.046875 1.859375q-5.8125 0 -11.40625 -1.890625q-5.578125 -1.90625 -10.125 -5.6875q-4.53125 -3.796875 -7.25 -9.375q-2.703125 -5.59375 -2.703125 -12.984375l12.46875 0q0 5.078125 1.484375 8.703125q1.484375 3.625 4.125 6.0q2.640625 2.359375 6.0625 3.484375q3.421875 1.109375 7.34375 1.109375q5.421875 0 9.109375 -1.890625q3.6875 -1.890625 5.546875 -5.40625q1.859375 -3.53125 1.859375 -8.34375zm81.79147 14.296875l0 10.625l-42.78125 0l0 -10.625l42.78125 0zm-40.546875 -87.953125l0 98.578125l-12.46875 0l0 -98.578125l12.46875 0zm34.796875 42.390625l0 10.625l-37.03125 0l0 -10.625l37.03125 0zm5.078125 -42.390625l0 10.703125l-42.109375 0l0 -10.703125l42.109375 0zm49.619812 0l0 98.578125l-12.3125 0l0 -98.578125l12.3125 0zm25.9375 0l0 10.703125l-64.125 0l0 -10.703125l64.125 0zm56.58838 73.65625q0 -3.453125 -0.8125 -6.125q-0.8125 -2.671875 -2.84375 -4.828125q-2.03125 -2.171875 -5.6875 -4.125q-3.65625 -1.96875 -9.265625 -4.0q-6.09375 -2.171875 -11.046875 -4.84375q-4.9375 -2.671875 -8.421875 -6.125q-3.484375 -3.453125 -5.390625 -7.921875q-1.890625 -4.46875 -1.890625 -10.234375q0 -5.75 2.0 -10.625q2.0 -4.875 5.6875 -8.5q3.6875 -3.625 8.90625 -5.65625q5.21875 -2.03125 11.640625 -2.03125q9.609375 0 16.203125 4.234375q6.609375 4.234375 10.0 11.046875q3.390625 6.796875 3.390625 14.515625l-12.46875 0q0 -5.546875 -1.796875 -9.84375q-1.78125 -4.3125 -5.546875 -6.78125q-3.75 -2.46875 -9.78125 -2.46875q-5.40625 0 -8.90625 2.109375q-3.484375 2.09375 -5.140625 5.6875q-1.65625 3.578125 -1.65625 8.1875q0 3.109375 1.078125 5.65625q1.09375 2.53125 3.359375 4.703125q2.265625 2.15625 5.6875 3.984375q3.421875 1.828125 8.078125 3.53125q7.25 2.359375 12.390625 5.28125q5.15625 2.90625 8.40625 6.53125q3.25 3.625 4.765625 8.1875q1.53125 4.5625 1.53125 10.328125q0 6.015625 -2.0 10.890625q-2.0 4.875 -5.796875 8.328125q-3.78125 3.453125 -9.140625 5.328125q-5.34375 1.859375 -12.046875 1.859375q-5.8125 0 -11.40625 -1.890625q-5.578125 -1.90625 -10.125 -5.6875q-4.53125 -3.796875 -7.25 -9.375q-2.703125 -5.59375 -2.703125 -12.984375l12.46875 0q0 5.078125 1.484375 8.703125q1.484375 3.625 4.125 6.0q2.640625 2.359375 6.0625 3.484375q3.421875 1.109375 7.34375 1.109375q5.421875 0 9.109375 -1.890625q3.6875 -1.890625 5.546875 -5.40625q1.859375 -3.53125 1.859375 -8.34375z" fill-rule="nonzero"/><path fill="#ffffff" d="m375.19086 240.35585l0 0c0 -7.4873047 6.069641 -13.556961 13.556946 -13.556961l54.226196 0l0 0c3.59552 0 7.0437927 1.4283295 9.586212 3.970749c2.5424194 2.5424194 3.9707336 5.990677 3.9707336 9.586212l0 269.19153c0 7.4873047 -6.0696716 13.556946 -13.556946 13.556946l-54.226196 0c-7.4873047 0 -13.556946 -6.069641 -13.556946 -13.556946z" fill-rule="evenodd"/><path stroke="#3f51b4" stroke-width="8.0" stroke-linejoin="round" stroke-linecap="butt" d="m375.19086 240.35585l0 0c0 -7.4873047 6.069641 -13.556961 13.556946 -13.556961l54.226196 0l0 0c3.59552 0 7.0437927 1.4283295 9.586212 3.970749c2.5424194 2.5424194 3.9707336 5.990677 3.9707336 9.586212l0 269.19153c0 7.4873047 -6.0696716 13.556946 -13.556946 13.556946l-54.226196 0c-7.4873047 0 -13.556946 -6.069641 -13.556946 -13.556946z" fill-rule="evenodd"/><path fill="#ffffff" d="m399.1793 304.9866l0 0c0 -3.071045 2.489563 -5.5606384 5.5606384 -5.5606384l22.241913 0l0 0c1.4747925 0 2.8891602 0.58584595 3.9319763 1.6286621c1.0428467 1.0428162 1.6286926 2.4572144 1.6286926 3.9319763l0 128.29425c0 3.071045 -2.4895935 5.5606384 -5.560669 5.5606384l-22.241913 0c-3.0710754 0 -5.5606384 -2.4895935 -5.5606384 -5.5606384z" fill-rule="evenodd"/><path stroke="#3f51b4" stroke-width="8.0" stroke-linejoin="round" stroke-linecap="butt" d="m399.1793 304.9866l0 0c0 -3.071045 2.489563 -5.5606384 5.5606384 -5.5606384l22.241913 0l0 0c1.4747925 0 2.8891602 0.58584595 3.9319763 1.6286621c1.0428467 1.0428162 1.6286926 2.4572144 1.6286926 3.9319763l0 128.29425c0 3.071045 -2.4895935 5.5606384 -5.560669 5.5606384l-22.241913 0c-3.0710754 0 -5.5606384 -2.4895935 -5.5606384 -5.5606384z" fill-rule="evenodd"/><path fill="#ffffff" d="m401.33002 482.43427l0 0c0 -8.013763 6.5118713 -14.510223 14.544708 -14.510223l0 0c3.857483 0 7.5569763 1.5287476 10.284637 4.249939c2.7276917 2.7211914 4.260071 6.411957 4.260071 10.260284l0 0c0 8.013794 -6.511902 14.510254 -14.544708 14.510254l0 0c-8.032837 0 -14.544708 -6.49646 -14.544708 -14.510254z" fill-rule="evenodd"/><path stroke="#3f51b4" stroke-width="8.0" stroke-linejoin="round" stroke-linecap="butt" d="m401.33002 482.43427l0 0c0 -8.013763 6.5118713 -14.510223 14.544708 -14.510223l0 0c3.857483 0 7.5569763 1.5287476 10.284637 4.249939c2.7276917 2.7211914 4.260071 6.411957 4.260071 10.260284l0 0c0 8.013794 -6.511902 14.510254 -14.544708 14.510254l0 0c-8.032837 0 -14.544708 -6.49646 -14.544708 -14.510254z" fill-rule="evenodd"/><path fill="#ffffff" d="m282.25635 240.3501l0 0c0 -7.4841156 6.0670776 -13.5512085 13.5512085 -13.5512085l54.203217 0l0 0c3.5939941 0 7.040802 1.4277191 9.582153 3.9690552c2.5413513 2.5413513 3.9690552 5.988159 3.9690552 9.582153l0 269.203c0 7.484131 -6.0670776 13.5512085 -13.5512085 13.5512085l-54.203217 0c-7.484131 0 -13.5512085 -6.0670776 -13.5512085 -13.5512085z" fill-rule="evenodd"/><path stroke="#3f51b4" stroke-width="8.0" stroke-linejoin="round" stroke-linecap="butt" d="m282.25635 240.3501l0 0c0 -7.4841156 6.0670776 -13.5512085 13.5512085 -13.5512085l54.203217 0l0 0c3.5939941 0 7.040802 1.4277191 9.582153 3.9690552c2.5413513 2.5413513 3.9690552 5.988159 3.9690552 9.582153l0 269.203c0 7.484131 -6.0670776 13.5512085 -13.5512085 13.5512085l-54.203217 0c-7.484131 0 -13.5512085 -6.0670776 -13.5512085 -13.5512085z" fill-rule="evenodd"/><path fill="#ffffff" d="m306.20346 304.9981l0 0c0 -3.077423 2.4947205 -5.5721436 5.572113 -5.5721436l22.287903 0l0 0c1.4778137 0 2.895111 0.58706665 3.940094 1.632019c1.0449829 1.0449829 1.6320496 2.4622803 1.6320496 3.9401245l0 128.27124c0 3.077423 -2.494751 5.5721436 -5.5721436 5.5721436l-22.287903 0c-3.0773926 0 -5.572113 -2.4947205 -5.572113 -5.5721436z" fill-rule="evenodd"/><path stroke="#3f51b4" stroke-width="8.0" stroke-linejoin="round" stroke-linecap="butt" d="m306.20346 304.9981l0 0c0 -3.077423 2.4947205 -5.5721436 5.572113 -5.5721436l22.287903 0l0 0c1.4778137 0 2.895111 0.58706665 3.940094 1.632019c1.0449829 1.0449829 1.6320496 2.4622803 1.6320496 3.9401245l0 128.27124c0 3.077423 -2.494751 5.5721436 -5.5721436 5.5721436l-22.287903 0c-3.0773926 0 -5.572113 -2.4947205 -5.572113 -5.5721436z" fill-rule="evenodd"/><path fill="#ffffff" d="m308.39545 482.43427l0 0c0 -8.013763 6.49646 -14.510223 14.510254 -14.510223l0 0c3.8483582 0 7.539093 1.5287476 10.260284 4.249939c2.721222 2.7211914 4.2499695 6.411957 4.2499695 10.260284l0 0c0 8.013794 -6.49646 14.510254 -14.510254 14.510254l0 0c-8.013794 0 -14.510254 -6.49646 -14.510254 -14.510254z" fill-rule="evenodd"/><path stroke="#3f51b4" stroke-width="8.0" stroke-linejoin="round" stroke-linecap="butt" d="m308.39545 482.43427l0 0c0 -8.013763 6.49646 -14.510223 14.510254 -14.510223l0 0c3.8483582 0 7.539093 1.5287476 10.260284 4.249939c2.721222 2.7211914 4.2499695 6.411957 4.2499695 10.260284l0 0c0 8.013794 -6.49646 14.510254 -14.510254 14.510254l0 0c-8.013794 0 -14.510254 -6.49646 -14.510254 -14.510254z" fill-rule="evenodd"/><path fill="#ffffff" d="m189.2805 240.35585l0 0c0 -7.4873047 6.0696564 -13.556961 13.556946 -13.556961l54.22618 0l0 0c3.5955505 0 7.0437927 1.4283295 9.586212 3.970749c2.5424194 2.5424194 3.9707642 5.990677 3.9707642 9.586212l0 269.19153c0 7.4873047 -6.0696716 13.556946 -13.556976 13.556946l-54.22618 0c-7.4872894 0 -13.556946 -6.069641 -13.556946 -13.556946z" fill-rule="evenodd"/><path stroke="#3f51b4" stroke-width="8.0" stroke-linejoin="round" stroke-linecap="butt" d="m189.2805 240.35585l0 0c0 -7.4873047 6.0696564 -13.556961 13.556946 -13.556961l54.22618 0l0 0c3.5955505 0 7.0437927 1.4283295 9.586212 3.970749c2.5424194 2.5424194 3.9707642 5.990677 3.9707642 9.586212l0 269.19153c0 7.4873047 -6.0696716 13.556946 -13.556976 13.556946l-54.22618 0c-7.4872894 0 -13.556946 -6.069641 -13.556946 -13.556946z" fill-rule="evenodd"/><path fill="#ffffff" d="m213.22758 304.9981l0 0c0 -3.077423 2.4947205 -5.5721436 5.5721283 -5.5721436l22.287888 0l0 0c1.4778137 0 2.895111 0.58706665 3.940094 1.632019c1.0449829 1.0449829 1.6320343 2.4622803 1.6320343 3.9401245l0 128.27124c0 3.077423 -2.4947205 5.5721436 -5.5721283 5.5721436l-22.287888 0c-3.0774078 0 -5.5721283 -2.4947205 -5.5721283 -5.5721436z" fill-rule="evenodd"/><path stroke="#3f51b4" stroke-width="8.0" stroke-linejoin="round" stroke-linecap="butt" d="m213.22758 304.9981l0 0c0 -3.077423 2.4947205 -5.5721436 5.5721283 -5.5721436l22.287888 0l0 0c1.4778137 0 2.895111 0.58706665 3.940094 1.632019c1.0449829 1.0449829 1.6320343 2.4622803 1.6320343 3.9401245l0 128.27124c0 3.077423 -2.4947205 5.5721436 -5.5721283 5.5721436l-22.287888 0c-3.0774078 0 -5.5721283 -2.4947205 -5.5721283 -5.5721436z" fill-rule="evenodd"/><path fill="#ffffff" d="m215.41962 482.43427l0 0c0 -8.013763 6.4964447 -14.510223 14.510239 -14.510223l0 0c3.8483582 0 7.539093 1.5287476 10.2603 4.249939c2.7211914 2.7211914 4.249954 6.411957 4.249954 10.260284l0 0c0 8.013794 -6.49646 14.510254 -14.510254 14.510254l0 0c-8.013794 0 -14.510239 -6.49646 -14.510239 -14.510254z" fill-rule="evenodd"/><path stroke="#3f51b4" stroke-width="8.0" stroke-linejoin="round" stroke-linecap="butt" d="m215.41962 482.43427l0 0c0 -8.013763 6.4964447 -14.510223 14.510239 -14.510223l0 0c3.8483582 0 7.539093 1.5287476 10.2603 4.249939c2.7211914 2.7211914 4.249954 6.411957 4.249954 10.260284l0 0c0 8.013794 -6.49646 14.510254 -14.510254 14.510254l0 0c-8.013794 0 -14.510239 -6.49646 -14.510239 -14.510254z" fill-rule="evenodd"/><path fill="#ffffff" d="m461.62592 252.03348l0 0c-1.8889465 -7.2458496 2.4539185 -14.65004 9.700104 -16.537735l52.47989 -13.6714325l0 0c3.4797974 -0.90649414 7.177307 -0.39360046 10.279297 1.425827c3.1019897 1.8194427 5.354248 4.796402 6.2614136 8.275986l67.91644 260.51877c1.888977 7.2458496 -2.4538574 14.650024 -9.700073 16.53772l-52.47992 13.671417c-7.246155 1.8876953 -14.651672 -2.4559326 -16.54065 -9.701782z" fill-rule="evenodd"/><path stroke="#3f51b4" stroke-width="8.0" stroke-linejoin="round" stroke-linecap="butt" d="m461.62592 252.03348l0 0c-1.8889465 -7.2458496 2.4539185 -14.65004 9.700104 -16.537735l52.47989 -13.6714325l0 0c3.4797974 -0.90649414 7.177307 -0.39360046 10.279297 1.425827c3.1019897 1.8194427 5.354248 4.796402 6.2614136 8.275986l67.91644 260.51877c1.888977 7.2458496 -2.4538574 14.650024 -9.700073 16.53772l-52.47992 13.671417c-7.246155 1.8876953 -14.651672 -2.4559326 -16.54065 -9.701782z" fill-rule="evenodd"/><path fill="#ffffff" d="m501.1407 308.52472l0 0c-0.77349854 -2.979187 1.0144348 -6.021881 3.9934998 -6.79599l21.575592 -5.606415l0 0c1.430603 -0.37176514 2.9501343 -0.15994263 4.224365 0.58883667c1.274292 0.7487793 2.1987915 1.973175 2.5702515 3.403839l32.250916 124.21521c0.7735596 2.9792175 -1.0144043 6.021881 -3.9934692 6.79599l-21.575562 5.606415c-2.979065 0.7741089 -6.021118 -1.0134583 -6.7946777 -3.9926758z" fill-rule="evenodd"/><path stroke="#3f51b4" stroke-width="8.0" stroke-linejoin="round" stroke-linecap="butt" d="m501.1407 308.52472l0 0c-0.77349854 -2.979187 1.0144348 -6.021881 3.9934998 -6.79599l21.575592 -5.606415l0 0c1.430603 -0.37176514 2.9501343 -0.15994263 4.224365 0.58883667c1.274292 0.7487793 2.1987915 1.973175 2.5702515 3.403839l32.250916 124.21521c0.7735596 2.9792175 -1.0144043 6.021881 -3.9934692 6.79599l-21.575562 5.606415c-2.979065 0.7741089 -6.021118 -1.0134583 -6.7946777 -3.9926758z" fill-rule="evenodd"/><path fill="#ffffff" d="m548.0127 479.7064l0 0c-2.0272217 -7.766327 2.625183 -15.705597 10.391541 -17.73285l0 0c3.7295532 -0.97351074 7.693054 -0.42559814 11.018555 1.5231934c3.3255615 1.9487915 5.7407837 5.1388245 6.7142944 8.868347l0 0c2.0272217 7.7663574 -2.6252441 15.705597 -10.391541 17.73285l0 0c-7.7663574 2.0272217 -15.705627 -2.6252136 -17.73285 -10.391541z" fill-rule="evenodd"/><path stroke="#3f51b4" stroke-width="8.0" stroke-linejoin="round" stroke-linecap="butt" d="m548.0127 479.7064l0 0c-2.0272217 -7.766327 2.625183 -15.705597 10.391541 -17.73285l0 0c3.7295532 -0.97351074 7.693054 -0.42559814 11.018555 1.5231934c3.3255615 1.9487915 5.7407837 5.1388245 6.7142944 8.868347l0 0c2.0272217 7.7663574 -2.6252441 15.705597 -10.391541 17.73285l0 0c-7.7663574 2.0272217 -15.705627 -2.6252136 -17.73285 -10.391541z" fill-rule="evenodd"/><path fill="#ffffff" d="m556.38763 274.08224l0 0c-3.390625 -6.672394 -0.7305908 -14.83078 5.941345 -18.222275l48.321045 -24.562622l0 0c3.2039795 -1.6286621 6.923584 -1.9177399 10.340454 -0.80366516c3.41687 1.1140747 6.2512207 3.5400696 7.8793945 6.7442627l121.96716 240.02008c3.390625 6.672394 0.7305908 14.830811 -5.941345 18.22229l-48.321045 24.562653c-6.671997 3.3914795 -14.829285 0.7317505 -18.21991 -5.940613z" fill-rule="evenodd"/><path stroke="#3f51b4" stroke-width="8.0" stroke-linejoin="round" stroke-linecap="butt" d="m556.38763 274.08224l0 0c-3.390625 -6.672394 -0.7305908 -14.83078 5.941345 -18.222275l48.321045 -24.562622l0 0c3.2039795 -1.6286621 6.923584 -1.9177399 10.340454 -0.80366516c3.41687 1.1140747 6.2512207 3.5400696 7.8793945 6.7442627l121.96716 240.02008c3.390625 6.672394 0.7305908 14.830811 -5.941345 18.22229l-48.321045 24.562653c-6.671997 3.3914795 -14.829285 0.7317505 -18.21991 -5.940613z" fill-rule="evenodd"/><path fill="#ffffff" d="m607.04175 320.85748l0 0c-1.3935547 -2.7407227 -0.30114746 -6.0915527 2.4400024 -7.484314l19.852295 -10.087006l0 0c1.3162842 -0.66882324 2.8445435 -0.78741455 4.248535 -0.3297119c1.4039917 0.45773315 2.5686646 1.4542542 3.237854 2.7704163l58.16449 114.39435c1.3935547 2.7407227 0.30108643 6.0915527 -2.4400024 7.484314l-19.852295 10.087006c-2.7410889 1.3927612 -6.0928955 0.3000183 -7.48645 -2.4407043z" fill-rule="evenodd"/><path stroke="#3f51b4" stroke-width="8.0" stroke-linejoin="round" stroke-linecap="butt" d="m607.04175 320.85748l0 0c-1.3935547 -2.7407227 -0.30114746 -6.0915527 2.4400024 -7.484314l19.852295 -10.087006l0 0c1.3162842 -0.66882324 2.8445435 -0.78741455 4.248535 -0.3297119c1.4039917 0.45773315 2.5686646 1.4542542 3.237854 2.7704163l58.16449 114.39435c1.3935547 2.7407227 0.30108643 6.0915527 -2.4400024 7.484314l-19.852295 10.087006c-2.7410889 1.3927612 -6.0928955 0.3000183 -7.48645 -2.4407043z" fill-rule="evenodd"/><path fill="#ffffff" d="m689.3299 478.11l0 0c-3.6357422 -7.138153 -0.78100586 -15.879852 6.3762207 -19.525055l0 0c3.4370117 -1.7505188 7.426819 -2.0675964 11.091736 -0.88150024c3.664856 1.1860657 6.704651 3.7781677 8.450562 7.206024l0 0c3.6357422 7.1381836 0.78100586 15.879852 -6.3762207 19.525085l0 0c-7.1572266 3.6452026 -15.906616 0.81362915 -19.542297 -6.3245544z" fill-rule="evenodd"/><path stroke="#3f51b4" stroke-width="8.0" stroke-linejoin="round" stroke-linecap="butt" d="m689.3299 478.11l0 0c-3.6357422 -7.138153 -0.78100586 -15.879852 6.3762207 -19.525055l0 0c3.4370117 -1.7505188 7.426819 -2.0675964 11.091736 -0.88150024c3.664856 1.1860657 6.704651 3.7781677 8.450562 7.206024l0 0c3.6357422 7.1381836 0.78100586 15.879852 -6.3762207 19.525085l0 0c-7.1572266 3.6452026 -15.906616 0.81362915 -19.542297 -6.3245544z" fill-rule="evenodd"/><path fill="#ffffff" d="m144.16278 533.0704l656.56696 0l0 17.417297l-656.56696 0z" fill-rule="evenodd"/><path stroke="#3f51b4" stroke-width="8.0" stroke-linejoin="round" stroke-linecap="butt" d="m144.16278 533.0704l656.56696 0l0 17.417297l-656.56696 0z" fill-rule="evenodd"/></g></svg>