<svg version="1.1" viewBox="0.0 0.0 944.8818897637796 944.8818897637796" fill="none" stroke="none" stroke-linecap="square" stroke-miterlimit="10" xmlns:xlink="http://www.w3.org/1999/xlink" xmlns="http://www.w3.org/2000/svg"><clipPath id="g31a61edbf9d_0_18.0"><path d="m0 0l944.8819 0l0 944.8819l-944.8819 0l0 -944.8819z" clip-rule="nonzero"/></clipPath><g clip-path="url(#g31a61edbf9d_0_18.0)"><path fill="#ffffff" d="m0 0l944.8819 0l0 944.8819l-944.8819 0z" fill-rule="evenodd"/><path fill="#000000" fill-opacity="0.0" d="m3.1338582 709.12286l944.8819 0l0 164.81891l-944.8819 0z" fill-rule="evenodd"/><path fill="#3f51b4" d="m263.26816 806.1979l10.78125 0q-0.421875 8.78125 -3.5625 15.140625q-3.125 6.359375 -9.078125 9.765625q-5.9374847 3.390625 -14.843735 3.390625q-6.390625 0 -11.546875 -2.515625q-5.15625 -2.53125 -8.828125 -7.234375q-3.65625 -4.71875 -5.59375 -11.34375q-1.921875 -6.625 -1.921875 -14.890625l0 -15.75q0 -8.203125 1.953125 -14.828125q1.96875 -6.625 5.6875 -11.34375q3.71875 -4.71875 9.078125 -7.234375q5.375 -2.515625 12.171875 -2.515625q8.3125 0 14.07811 3.3125q5.78125 3.3125 8.90625 9.671875q3.140625 6.34375 3.5 15.546875l-10.78125 0q-0.421875 -6.734375 -2.125 -10.984375q-1.6875 -4.25 -5.0 -6.265625q-3.3124847 -2.03125 -8.57811 -2.03125q-4.6875 0 -8.125 1.875q-3.421875 1.875 -5.625 5.375q-2.1875 3.484375 -3.28125 8.375q-1.078125 4.890625 -1.078125 10.921875l0 15.875q0 5.625 0.90625 10.5q0.90625 4.859375 2.921875 8.53125q2.03125 3.65625 5.3125 5.703125q3.28125 2.046875 7.96875 2.046875q5.921875 0 9.375 -1.921875q3.4531097 -1.9375 5.1249847 -6.15625q1.671875 -4.21875 2.203125 -11.015625zm52.964844 -50.625l-23.328125 77.75l-11.015625 0l27.484375 -85.3125l6.921875 0l-0.0625 7.5625zm18.859375 77.75l-23.3125 -77.75l-0.125 -7.5625l6.984375 0l27.46875 85.3125l-11.015625 0zm0 -31.578125l0 9.25l-41.125 0l0 -9.25l41.125 0zm66.91797 22.375l0 9.203125l-35.390625 0l0 -9.203125l35.390625 0zm-33.453125 -76.109375l0 85.3125l-10.78125 0l0 -85.3125l10.78125 0zm92.16406 76.109375l0 9.203125l-37.03125 0l0 -9.203125l37.03125 0zm-35.09375 -76.109375l0 85.3125l-10.78125 0l0 -85.3125l10.78125 0zm30.109375 36.671875l0 9.203125l-32.046875 0l0 -9.203125l32.046875 0zm4.40625 -36.671875l0 9.25l-36.453125 0l0 -9.25l36.453125 0zm70.13278 0l0 85.3125l-10.84375 0l-34.15622 -65.796875l0 65.796875l-10.78125 0l0 -85.3125l10.78125 0l34.328094 65.96875l0 -65.96875l10.671875 0zm37.902344 85.3125l-14.53125 0l0.125 -9.203125l14.40625 0q7.6875 0 12.484375 -2.953125q4.8125 -2.96875 7.09375 -8.796875q2.28125 -5.828125 2.28125 -14.4375l0 -14.59375q0 -6.796875 -1.296875 -11.71875q-1.28125 -4.921875 -3.859375 -8.078125q-2.578125 -3.171875 -6.5 -4.71875q-3.921875 -1.5625 -9.203125 -1.5625l-15.8125 0l0 -9.25l15.8125 0q7.203125 0 13.0 2.265625q5.8125 2.25 9.96875 6.734375q4.15625 4.46875 6.359375 11.09375q2.203125 6.625 2.203125 15.359375l0 14.46875q0 8.734375 -2.203125 15.359375q-2.203125 6.609375 -6.421875 11.0625q-4.21875 4.453125 -10.21875 6.71875q-6.0 2.25 -13.6875 2.25zm-8.546875 -85.3125l0 85.3125l-10.78125 0l0 -85.3125l10.78125 0zm84.140625 7.5625l-23.328125 77.75l-11.015625 0l27.484375 -85.3125l6.921875 0l-0.0625 7.5625zm18.859375 77.75l-23.3125 -77.75l-0.125 -7.5625l6.984375 0l27.46875 85.3125l-11.015625 0zm0 -31.578125l0 9.25l-41.125 0l0 -9.25l41.125 0zm22.746094 -53.734375l23.84375 0q8.3125 0 13.96875 2.9375q5.65625 2.921875 8.546875 8.640625q2.90625 5.703125 2.90625 14.03125q0 5.859375 -1.9375 10.6875q-1.921875 4.828125 -5.625 8.203125q-3.6875 3.375 -8.953125 5.015625l-2.9375 1.21875l-21.265625 0l-0.109375 -9.1875l15.28125 0q4.921875 0 8.203125 -2.140625q3.28125 -2.140625 4.921875 -5.765625q1.640625 -3.640625 1.640625 -8.03125q0 -4.921875 -1.46875 -8.609375q-1.453125 -3.703125 -4.65625 -5.71875q-3.1875 -2.03125 -8.515625 -2.03125l-13.0625 0l0 76.0625l-10.78125 0l0 -85.3125zm40.953125 85.3125l-17.0 -38.671875l11.203125 -0.0625l17.34375 38.03125l0 0.703125l-11.546875 0z" fill-rule="nonzero"/><path fill="#3f51b4" d="m264.8803 511.3356l86.58267 0l0 86.58267l-86.58267 0z" fill-rule="evenodd"/><path stroke="#3f51b4" stroke-width="12.0" stroke-linejoin="round" stroke-linecap="butt" d="m264.8803 511.3356l86.58267 0l0 86.58267l-86.58267 0z" fill-rule="evenodd"/><path fill="#ffffff" d="m263.55536 401.1927l86.58267 0l0 86.58267l-86.58267 0z" fill-rule="evenodd"/><path stroke="#3f51b4" stroke-width="12.0" stroke-linejoin="round" stroke-linecap="butt" d="m263.55536 401.1927l86.58267 0l0 86.58267l-86.58267 0z" fill-rule="evenodd"/><path fill="#ffffff" d="m375.02243 511.3356l86.5827 0l0 86.58267l-86.5827 0z" fill-rule="evenodd"/><path stroke="#3f51b4" stroke-width="12.0" stroke-linejoin="round" stroke-linecap="butt" d="m375.02243 511.3356l86.5827 0l0 86.58267l-86.5827 0z" fill-rule="evenodd"/><path fill="#ffffff" d="m374.1379 401.1927l86.58267 0l0 86.58267l-86.58267 0z" fill-rule="evenodd"/><path stroke="#3f51b4" stroke-width="12.0" stroke-linejoin="round" stroke-linecap="butt" d="m374.1379 401.1927l86.58267 0l0 86.58267l-86.58267 0z" fill-rule="evenodd"/><path fill="#ffffff" d="m484.60175 511.3356l86.58264 0l0 86.58267l-86.58264 0z" fill-rule="evenodd"/><path stroke="#3f51b4" stroke-width="12.0" stroke-linejoin="round" stroke-linecap="butt" d="m484.60175 511.3356l86.58264 0l0 86.58267l-86.58264 0z" fill-rule="evenodd"/><path fill="#ffffff" d="m483.27676 401.1927l86.58267 0l0 86.58267l-86.58267 0z" fill-rule="evenodd"/><path stroke="#3f51b4" stroke-width="12.0" stroke-linejoin="round" stroke-linecap="butt" d="m483.27676 401.1927l86.58267 0l0 86.58267l-86.58267 0z" fill-rule="evenodd"/><path fill="#ffffff" d="m594.7439 511.3356l86.58264 0l0 86.58267l-86.58264 0z" fill-rule="evenodd"/><path stroke="#3f51b4" stroke-width="12.0" stroke-linejoin="round" stroke-linecap="butt" d="m594.7439 511.3356l86.58264 0l0 86.58267l-86.58264 0z" fill-rule="evenodd"/><path fill="#ffffff" d="m593.8593 401.1927l86.5827 0l0 86.58267l-86.5827 0z" fill-rule="evenodd"/><path stroke="#3f51b4" stroke-width="12.0" stroke-linejoin="round" stroke-linecap="butt" d="m593.8593 401.1927l86.5827 0l0 86.58267l-86.5827 0z" fill-rule="evenodd"/><path fill="#ffffff" d="m264.8803 297.1065l86.58267 0l0 86.5827l-86.58267 0z" fill-rule="evenodd"/><path stroke="#3f51b4" stroke-width="12.0" stroke-linejoin="round" stroke-linecap="butt" d="m264.8803 297.1065l86.58267 0l0 86.5827l-86.58267 0z" fill-rule="evenodd"/><path fill="#ffffff" d="m263.55536 186.96362l86.58267 0l0 86.58267l-86.58267 0z" fill-rule="evenodd"/><path stroke="#3f51b4" stroke-width="12.0" stroke-linejoin="round" stroke-linecap="butt" d="m263.55536 186.96362l86.58267 0l0 86.58267l-86.58267 0z" fill-rule="evenodd"/><path fill="#ffffff" d="m375.02243 297.1065l86.5827 0l0 86.5827l-86.5827 0z" fill-rule="evenodd"/><path stroke="#3f51b4" stroke-width="12.0" stroke-linejoin="round" stroke-linecap="butt" d="m375.02243 297.1065l86.5827 0l0 86.5827l-86.5827 0z" fill-rule="evenodd"/><path fill="#ffffff" d="m374.1379 186.96362l86.58267 0l0 86.58267l-86.58267 0z" fill-rule="evenodd"/><path stroke="#3f51b4" stroke-width="12.0" stroke-linejoin="round" stroke-linecap="butt" d="m374.1379 186.96362l86.58267 0l0 86.58267l-86.58267 0z" fill-rule="evenodd"/><path fill="#3f51b4" d="m484.60175 297.1065l86.58264 0l0 86.5827l-86.58264 0z" fill-rule="evenodd"/><path stroke="#3f51b4" stroke-width="12.0" stroke-linejoin="round" stroke-linecap="butt" d="m484.60175 297.1065l86.58264 0l0 86.5827l-86.58264 0z" fill-rule="evenodd"/><path fill="#ffffff" d="m483.27676 186.96362l86.58267 0l0 86.58267l-86.58267 0z" fill-rule="evenodd"/><path stroke="#3f51b4" stroke-width="12.0" stroke-linejoin="round" stroke-linecap="butt" d="m483.27676 186.96362l86.58267 0l0 86.58267l-86.58267 0z" fill-rule="evenodd"/><path fill="#ffffff" d="m594.7439 297.1065l86.58264 0l0 86.5827l-86.58264 0z" fill-rule="evenodd"/><path stroke="#3f51b4" stroke-width="12.0" stroke-linejoin="round" stroke-linecap="butt" d="m594.7439 297.1065l86.58264 0l0 86.5827l-86.58264 0z" fill-rule="evenodd"/><path fill="#ffffff" d="m593.8593 186.96362l86.5827 0l0 86.58267l-86.5827 0z" fill-rule="evenodd"/><path stroke="#3f51b4" stroke-width="12.0" stroke-linejoin="round" stroke-linecap="butt" d="m593.8593 186.96362l86.5827 0l0 86.58267l-86.5827 0z" fill-rule="evenodd"/></g></svg>