<svg version="1.1" viewBox="0.0 0.0 944.8818897637796 944.8818897637796" fill="none" stroke="none" stroke-linecap="square" stroke-miterlimit="10" xmlns:xlink="http://www.w3.org/1999/xlink" xmlns="http://www.w3.org/2000/svg"><clipPath id="g31a624ce75d_0_151.0"><path d="m0 0l944.8819 0l0 944.8819l-944.8819 0l0 -944.8819z" clip-rule="nonzero"/></clipPath><g clip-path="url(#g31a624ce75d_0_151.0)"><path fill="#ffffff" d="m0 0l944.8819 0l0 944.8819l-944.8819 0z" fill-rule="evenodd"/><path fill="#000000" fill-opacity="0.0" d="m3.1338582 701.12286l944.8819 0l0 164.81891l-944.8819 0z" fill-rule="evenodd"/><path fill="#3f51b4" d="m169.48888 798.1979l10.78125 0q-0.421875 8.78125 -3.5625 15.140625q-3.125 6.359375 -9.078125 9.765625q-5.9375 3.390625 -14.84375 3.390625q-6.390625 0 -11.546875 -2.515625q-5.15625 -2.53125 -8.828125 -7.234375q-3.65625 -4.71875 -5.5937576 -11.34375q-1.921875 -6.625 -1.921875 -14.890625l0 -15.75q0 -8.203125 1.953125 -14.828125q1.9687576 -6.625 5.6875076 -11.34375q3.71875 -4.71875 9.078125 -7.234375q5.375 -2.515625 12.171875 -2.515625q8.3125 0 14.078125 3.3125q5.78125 3.3125 8.90625 9.671875q3.140625 6.34375 3.5 15.546875l-10.78125 0q-0.421875 -6.734375 -2.125 -10.984375q-1.6875 -4.25 -5.0 -6.265625q-3.3125 -2.03125 -8.578125 -2.03125q-4.6875 0 -8.125 1.875q-3.421875 1.875 -5.625 5.375q-2.1875 3.484375 -3.28125 8.375q-1.078125 4.890625 -1.078125 10.921875l0 15.875q0 5.625 0.90625 10.5q0.90625 4.859375 2.921875 8.53125q2.03125 3.65625 5.3125 5.703125q3.28125 2.046875 7.96875 2.046875q5.921875 0 9.375 -1.921875q3.453125 -1.9375 5.125 -6.15625q1.671875 -4.21875 2.203125 -11.015625zm80.79297 -22.921875l0 14.828125q0 9.03125 -1.96875 15.859375q-1.953125 6.8125 -5.703125 11.390625q-3.75 4.5625 -9.03125 6.859375q-5.265625 2.28125 -11.890625 2.28125q-6.390625 0 -11.671875 -2.28125q-5.265625 -2.296875 -9.078125 -6.859375q-3.796875 -4.578125 -5.875 -11.390625q-2.078125 -6.828125 -2.078125 -15.859375l0 -14.828125q0 -9.015625 2.046875 -15.84375q2.046875 -6.828125 5.859375 -11.390625q3.8125 -4.578125 9.078125 -6.890625q5.28125 -2.3125 11.65625 -2.3125q6.625 0 11.921875 2.3125q5.3125 2.3125 9.03125 6.890625q3.71875 4.5625 5.703125 11.390625q2.0 6.828125 2.0 15.84375zm-10.65625 14.828125l0 -14.9375q0 -7.03125 -1.171875 -12.09375q-1.171875 -5.078125 -3.46875 -8.296875q-2.28125 -3.21875 -5.625 -4.765625q-3.328125 -1.5625 -7.734375 -1.5625q-4.15625 0 -7.46875 1.5625q-3.3125 1.546875 -5.65625 4.765625q-2.34375 3.21875 -3.609375 8.296875q-1.25 5.0625 -1.25 12.09375l0 14.9375q0 7.09375 1.25 12.171875q1.265625 5.0625 3.640625 8.3125q2.375 3.25 5.71875 4.8125q3.34375 1.546875 7.4375 1.546875q4.390625 0 7.765625 -1.546875q3.375 -1.5625 5.625 -4.8125q2.25 -3.25 3.390625 -8.3125q1.15625 -5.078125 1.15625 -12.171875zm83.082016 -50.09375l0 85.3125l-10.84375 0l-34.15625 -65.796875l0 65.796875l-10.78125 0l0 -85.3125l10.78125 0l34.328125 65.96875l0 -65.96875l10.671875 0zm74.35547 0l0 85.3125l-10.84375 0l-34.15625 -65.796875l0 65.796875l-10.78125 0l0 -85.3125l10.78125 0l34.328125 65.96875l0 -65.96875l10.671875 0zm64.44922 76.109375l0 9.203125l-37.03125 0l0 -9.203125l37.03125 0zm-35.09375 -76.109375l0 85.3125l-10.78125 0l0 -85.3125l10.78125 0zm30.109375 36.671875l0 9.203125l-32.046875 0l0 -9.203125l32.046875 0zm4.40625 -36.671875l0 9.25l-36.453125 0l0 -9.25l36.453125 0zm57.070282 58.1875l10.78125 0q-0.421875 8.78125 -3.5625 15.140625q-3.125 6.359375 -9.078125 9.765625q-5.9374695 3.390625 -14.8437195 3.390625q-6.390625 0 -11.546875 -2.515625q-5.15625 -2.53125 -8.828125 -7.234375q-3.65625 -4.71875 -5.59375 -11.34375q-1.921875 -6.625 -1.921875 -14.890625l0 -15.75q0 -8.203125 1.953125 -14.828125q1.96875 -6.625 5.6875 -11.34375q3.71875 -4.71875 9.078125 -7.234375q5.375 -2.515625 12.171875 -2.515625q8.3125 0 14.0780945 3.3125q5.78125 3.3125 8.90625 9.671875q3.140625 6.34375 3.5 15.546875l-10.78125 0q-0.421875 -6.734375 -2.125 -10.984375q-1.687439 -4.25 -4.9999695 -6.265625q-3.3125 -2.03125 -8.578125 -2.03125q-4.6875 0 -8.125 1.875q-3.421875 1.875 -5.625 5.375q-2.1875 3.484375 -3.28125 8.375q-1.078125 4.890625 -1.078125 10.921875l0 15.875q0 5.625 0.90625 10.5q0.90625 4.859375 2.921875 8.53125q2.03125 3.65625 5.3125 5.703125q3.28125 2.046875 7.96875 2.046875q5.921875 0 9.375 -1.921875q3.4531555 -1.9375 5.1249695 -6.15625q1.671875 -4.21875 2.203125 -11.015625zm51.03125 -58.1875l0 85.3125l-10.671875 0l0 -85.3125l10.671875 0zm22.4375 0l0 9.25l-55.484375 0l0 -9.25l55.484375 0zm23.851562 0l0 85.3125l-10.78125 0l0 -85.3125l10.78125 0zm74.234375 35.265625l0 14.828125q0 9.03125 -1.96875 15.859375q-1.953125 6.8125 -5.703125 11.390625q-3.75 4.5625 -9.03125 6.859375q-5.265625 2.28125 -11.890625 2.28125q-6.390625 0 -11.671875 -2.28125q-5.265625 -2.296875 -9.078125 -6.859375q-3.796875 -4.578125 -5.875 -11.390625q-2.078125 -6.828125 -2.078125 -15.859375l0 -14.828125q0 -9.015625 2.046875 -15.84375q2.046875 -6.828125 5.859375 -11.390625q3.8125 -4.578125 9.078125 -6.890625q5.28125 -2.3125 11.65625 -2.3125q6.625 0 11.921875 2.3125q5.3125 2.3125 9.03125 6.890625q3.71875 4.5625 5.703125 11.390625q2.0 6.828125 2.0 15.84375zm-10.65625 14.828125l0 -14.9375q0 -7.03125 -1.171875 -12.09375q-1.171875 -5.078125 -3.46875 -8.296875q-2.28125 -3.21875 -5.625 -4.765625q-3.328125 -1.5625 -7.734375 -1.5625q-4.15625 0 -7.46875 1.5625q-3.3125 1.546875 -5.65625 4.765625q-2.34375 3.21875 -3.609375 8.296875q-1.25 5.0625 -1.25 12.09375l0 14.9375q0 7.09375 1.25 12.171875q1.265625 5.0625 3.640625 8.3125q2.375 3.25 5.71875 4.8125q3.34375 1.546875 7.4375 1.546875q4.390625 0 7.765625 -1.546875q3.375 -1.5625 5.625 -4.8125q2.25 -3.25 3.390625 -8.3125q1.15625 -5.078125 1.15625 -12.171875zm83.08203 -50.09375l0 85.3125l-10.84375 0l-34.15625 -65.796875l0 65.796875l-10.78125 0l0 -85.3125l10.78125 0l34.328125 65.96875l0 -65.96875l10.671875 0zm55.902344 63.75q0 -2.984375 -0.703125 -5.296875q-0.703125 -2.328125 -2.46875 -4.203125q-1.75 -1.875 -4.921875 -3.5625q-3.15625 -1.703125 -8.03125 -3.46875q-5.265625 -1.875 -9.546875 -4.1875q-4.28125 -2.3125 -7.296875 -5.296875q-3.015625 -2.984375 -4.65625 -6.84375q-1.640625 -3.875 -1.640625 -8.859375q0 -4.984375 1.71875 -9.203125q1.734375 -4.21875 4.921875 -7.34375q3.203125 -3.140625 7.71875 -4.890625q4.515625 -1.765625 10.078125 -1.765625q8.3125 0 14.03125 3.671875q5.71875 3.65625 8.640625 9.546875q2.9375 5.875 2.9375 12.5625l-10.78125 0q0 -4.8125 -1.5625 -8.53125q-1.546875 -3.71875 -4.796875 -5.859375q-3.25 -2.140625 -8.46875 -2.140625q-4.6875 0 -7.703125 1.828125q-3.015625 1.8125 -4.453125 4.921875q-1.4375 3.09375 -1.4375 7.078125q0 2.703125 0.9375 4.90625q0.9375 2.1875 2.890625 4.0625q1.96875 1.875 4.921875 3.46875q2.96875 1.578125 7.015625 3.03125q6.265625 2.0625 10.71875 4.578125q4.453125 2.515625 7.265625 5.65625q2.8125 3.125 4.125 7.09375q1.328125 3.953125 1.328125 8.921875q0 5.21875 -1.734375 9.4375q-1.734375 4.21875 -5.015625 7.21875q-3.28125 2.984375 -7.90625 4.59375q-4.625 1.609375 -10.421875 1.609375q-5.046875 0 -9.890625 -1.640625q-4.828125 -1.640625 -8.75 -4.921875q-3.921875 -3.28125 -6.265625 -8.109375q-2.34375 -4.84375 -2.34375 -11.234375l10.78125 0q0 4.40625 1.28125 7.546875q1.296875 3.125 3.578125 5.171875q2.28125 2.046875 5.234375 3.015625q2.96875 0.96875 6.375 0.96875q4.6875 0 7.875 -1.640625q3.1875 -1.640625 4.796875 -4.6875q1.625 -3.046875 1.625 -7.203125z" fill-rule="nonzero"/><path fill="#ffffff" d="m308.5853 240.84908l256.37796 0l0 -35.66928l71.33856 71.33858l-71.33856 71.33859l0 -35.66931l-256.37796 0z" fill-rule="evenodd"/><path stroke="#3f51b4" stroke-width="12.0" stroke-linejoin="round" stroke-linecap="butt" d="m308.5853 240.84908l256.37796 0l0 -35.66928l71.33856 71.33858l-71.33856 71.33859l0 -35.66931l-256.37796 0z" fill-rule="evenodd"/><path fill="#ffffff" d="m636.2966 528.03284l-256.37793 0l0 35.66925l-71.33859 -71.33856l71.33859 -71.33859l0 35.66928l256.37793 0z" fill-rule="evenodd"/><path stroke="#3f51b4" stroke-width="12.0" stroke-linejoin="round" stroke-linecap="butt" d="m636.2966 528.03284l-256.37793 0l0 35.66925l-71.33859 -71.33856l71.33859 -71.33859l0 35.66928l256.37793 0z" fill-rule="evenodd"/></g></svg>