<svg version="1.1" viewBox="0.0 0.0 944.8818897637796 944.8818897637796" fill="none" stroke="none" stroke-linecap="square" stroke-miterlimit="10" xmlns:xlink="http://www.w3.org/1999/xlink" xmlns="http://www.w3.org/2000/svg"><clipPath id="g31a624ce75d_0_86.0"><path d="m0 0l944.8819 0l0 944.8819l-944.8819 0l0 -944.8819z" clip-rule="nonzero"/></clipPath><g clip-path="url(#g31a624ce75d_0_86.0)"><path fill="#000000" fill-opacity="0.0" d="m0 0l944.8819 0l0 944.8819l-944.8819 0z" fill-rule="evenodd"/><path fill="#000000" fill-opacity="0.0" d="m3.1338582 725.12286l944.8819 0l0 164.81891l-944.8819 0z" fill-rule="evenodd"/><path fill="#3f51b4" d="m247.8463 849.3229l-14.53125 0l0.125 -9.203125l14.40625 0q7.6875 0 12.48436 -2.953125q4.8125 -2.96875 7.09375 -8.796875q2.28125 -5.828125 2.28125 -14.4375l0 -14.59375q0 -6.796875 -1.296875 -11.71875q-1.28125 -4.921875 -3.859375 -8.078125q-2.578125 -3.171875 -6.5 -4.71875q-3.9218597 -1.5625 -9.20311 -1.5625l-15.8125 0l0 -9.25l15.8125 0q7.2031097 0 12.999985 2.265625q5.8125 2.25 9.96875 6.734375q4.15625 4.46875 6.359375 11.09375q2.203125 6.625 2.203125 15.359375l0 14.46875q0 8.734375 -2.203125 15.359375q-2.203125 6.609375 -6.421875 11.0625q-4.21875 4.453125 -10.21875 6.71875q-5.9999847 2.25 -13.687485 2.25zm-8.546875 -85.3125l0 85.3125l-10.78125 0l0 -85.3125l10.78125 0zm84.14061 7.5625l-23.328125 77.75l-11.015625 0l27.484375 -85.3125l6.921875 0l-0.0625 7.5625zm18.859375 77.75l-23.3125 -77.75l-0.125 -7.5625l6.984375 0l27.46875 85.3125l-11.015625 0zm0 -31.578125l0 9.25l-41.125 0l0 -9.25l41.125 0zm42.546875 -53.734375l0 85.3125l-10.671875 0l0 -85.3125l10.671875 0zm22.4375 0l0 9.25l-55.484375 0l0 -9.25l55.484375 0zm35.628906 7.5625l-23.328125 77.75l-11.015625 0l27.484375 -85.3125l6.921875 0l-0.0625 7.5625zm18.859375 77.75l-23.3125 -77.75l-0.125 -7.5625l6.984375 0l27.46875 85.3125l-11.015625 0zm0 -31.578125l0 9.25l-41.125 0l0 -9.25l41.125 0zm48.527344 -8.328125l-17.34375 0l-0.125 -9.078125l16.109375 0q3.6406555 0 6.4530945 -1.640625q2.8125 -1.640625 4.421875 -4.71875q1.609375 -3.078125 1.609375 -7.359375q0 -4.6875 -1.375 -7.640625q-1.375 -2.953125 -4.15625 -4.328125q-2.781189 -1.390625 -7.0624695 -1.390625l-13.59375 0l0 76.0625l-10.78125 0l0 -85.3125l24.375 0q5.5000305 0 9.8280945 1.328125q4.34375 1.3125 7.359375 4.09375q3.03125 2.78125 4.609375 7.0625q1.578125 4.265625 1.578125 10.25q0 5.265625 -2.375 9.515625q-2.375 4.25 -6.59375 6.953125q-4.21875 2.6875 -9.718689 3.453125l-3.2187805 2.75zm-0.421875 39.90625l-21.375 0l6.265625 -9.203125l15.109375 0q4.2187805 0 7.1405945 -1.875q2.9375 -1.875 4.484375 -5.296875q1.5625 -3.4375 1.5625 -8.125q0 -4.734375 -1.296875 -8.1875q-1.28125 -3.46875 -4.09375 -5.34375q-2.812439 -1.875 -7.3749695 -1.875l-13.890625 0l0.109375 -9.078125l18.74997 0l2.40625 3.28125q5.28125 0.53125 8.875 3.484375q3.609375 2.953125 5.453125 7.53125q1.84375 4.5625 1.84375 10.078125q0 7.96875 -2.96875 13.453125q-2.953125 5.46875 -8.34375 8.3125q-5.390625 2.84375 -12.6562195 2.84375zm67.74216 -77.75l-23.328125 77.75l-11.015625 0l27.484375 -85.3125l6.921875 0l-0.0625 7.5625zm18.859375 77.75l-23.3125 -77.75l-0.125 -7.5625l6.984375 0l27.46875 85.3125l-11.015625 0zm0 -31.578125l0 9.25l-41.125 0l0 -9.25l41.125 0zm60.01172 10.015625q0 -2.984375 -0.703125 -5.296875q-0.703125 -2.328125 -2.46875 -4.203125q-1.75 -1.875 -4.921875 -3.5625q-3.15625 -1.703125 -8.03125 -3.46875q-5.265625 -1.875 -9.546875 -4.1875q-4.28125 -2.3125 -7.296875 -5.296875q-3.015625 -2.984375 -4.65625 -6.84375q-1.640625 -3.875 -1.640625 -8.859375q0 -4.984375 1.71875 -9.203125q1.734375 -4.21875 4.921875 -7.34375q3.203125 -3.140625 7.71875 -4.890625q4.515625 -1.765625 10.078125 -1.765625q8.3125 0 14.03125 3.671875q5.71875 3.65625 8.640625 9.546875q2.9375 5.875 2.9375 12.5625l-10.78125 0q0 -4.8125 -1.5625 -8.53125q-1.546875 -3.71875 -4.796875 -5.859375q-3.25 -2.140625 -8.46875 -2.140625q-4.6875 0 -7.703125 1.828125q-3.015625 1.8125 -4.453125 4.921875q-1.4375 3.09375 -1.4375 7.078125q0 2.703125 0.9375 4.90625q0.9375 2.1875 2.890625 4.0625q1.96875 1.875 4.921875 3.46875q2.96875 1.578125 7.015625 3.03125q6.265625 2.0625 10.71875 4.578125q4.453125 2.515625 7.265625 5.65625q2.8125 3.125 4.125 7.09375q1.328125 3.953125 1.328125 8.921875q0 5.21875 -1.734375 9.4375q-1.734375 4.21875 -5.015625 7.21875q-3.28125 2.984375 -7.90625 4.59375q-4.625 1.609375 -10.421875 1.609375q-5.046875 0 -9.890625 -1.640625q-4.828125 -1.640625 -8.75 -4.921875q-3.921875 -3.28125 -6.265625 -8.109375q-2.34375 -4.84375 -2.34375 -11.234375l10.78125 0q0 4.40625 1.28125 7.546875q1.296875 3.125 3.578125 5.171875q2.28125 2.046875 5.234375 3.015625q2.96875 0.96875 6.375 0.96875q4.6875 0 7.875 -1.640625q3.1875 -1.640625 4.796875 -4.6875q1.625 -3.046875 1.625 -7.203125zm70.77344 12.359375l0 9.203125l-37.03125 0l0 -9.203125l37.03125 0zm-35.09375 -76.109375l0 85.3125l-10.78125 0l0 -85.3125l10.78125 0zm30.109375 36.671875l0 9.203125l-32.046875 0l0 -9.203125l32.046875 0zm4.40625 -36.671875l0 9.25l-36.453125 0l0 -9.25l36.453125 0z" fill-rule="nonzero"/><path fill="#3f51b4" d="m706.2935 531.8688c-4.3375854 -0.8262329 -8.365356 1.8589478 -9.2948 6.0932617c-8.778442 43.27246 -42.756226 72.18964 -84.58295 72.18964c-39.451355 0 -74.15204 -25.818909 -85.925476 -62.791565c12.289795 0 24.57965 0 36.869446 0c0 -5.26709 0 -10.430847 0 -15.697876c-20.964966 0 -41.929993 0 -62.89499 0c0 20.964905 0 41.92987 0 62.894836c5.26709 0 10.534149 0 15.801239 0c0 -10.121033 0 -20.242065 0 -30.259766c17.040466 36.766113 54.32306 61.552246 96.14978 61.552246c49.469177 0 89.746704 -33.97766 99.97107 -84.685974c0.92944336 -4.3375854 -1.8590088 -8.468628 -6.0933228 -9.2948" fill-rule="evenodd"/><path stroke="#ffffff" stroke-width="4.0" stroke-linejoin="round" stroke-linecap="butt" d="m706.2935 531.8688c-4.3375854 -0.8262329 -8.365356 1.8589478 -9.2948 6.0932617c-8.778442 43.27246 -42.756226 72.18964 -84.58295 72.18964c-39.451355 0 -74.15204 -25.818909 -85.925476 -62.791565c12.289795 0 24.57965 0 36.869446 0c0 -5.26709 0 -10.430847 0 -15.697876c-20.964966 0 -41.929993 0 -62.89499 0c0 20.964905 0 41.92987 0 62.894836c5.26709 0 10.534149 0 15.801239 0c0 -10.121033 0 -20.242065 0 -30.259766c17.040466 36.766113 54.32306 61.552246 96.14978 61.552246c49.469177 0 89.746704 -33.97766 99.97107 -84.685974c0.92944336 -4.3375854 -1.8590088 -8.468628 -6.0933228 -9.2948" fill-rule="evenodd"/><path fill="#3f51b4" d="m704.6411 437.37167c0 11.25705 0 22.5141 0 33.87439c-17.660156 -35.010406 -52.670654 -57.421204 -92.22534 -57.421204c-48.023254 0 -90.67621 31.395752 -103.79224 76.42392c-1.2392883 4.0277405 1.1360474 8.365326 5.26709 9.604645c4.234314 1.2392883 8.571899 -1.2393188 9.811218 -5.370331c10.947205 -37.592316 48.229797 -64.96036 88.71393 -64.96036c35.73346 0 67.12933 21.791138 81.07153 55.0459c-11.97998 0 -24.063232 0 -36.043274 0c0 5.1637573 0 10.430817 0 15.5946045c20.965027 0 41.929993 0 62.89502 0c0 -20.861664 0 -41.8266 0 -62.791565c-5.26709 0 -10.430847 0 -15.697937 0" fill-rule="evenodd"/><path stroke="#ffffff" stroke-width="4.0" stroke-linejoin="round" stroke-linecap="butt" d="m704.6411 437.37167c0 11.25705 0 22.5141 0 33.87439c-17.660156 -35.010406 -52.670654 -57.421204 -92.22534 -57.421204c-48.023254 0 -90.67621 31.395752 -103.79224 76.42392c-1.2392883 4.0277405 1.1360474 8.365326 5.26709 9.604645c4.234314 1.2392883 8.571899 -1.2393188 9.811218 -5.370331c10.947205 -37.592316 48.229797 -64.96036 88.71393 -64.96036c35.73346 0 67.12933 21.791138 81.07153 55.0459c-11.97998 0 -24.063232 0 -36.043274 0c0 5.1637573 0 10.430817 0 15.5946045c20.965027 0 41.929993 0 62.89502 0c0 -20.861664 0 -41.8266 0 -62.791565c-5.26709 0 -10.430847 0 -15.697937 0" fill-rule="evenodd"/><path fill="#3f51b4" d="m472.3893 470.01468c-6.506378 0 -12.806213 -0.103302 -19.106049 -0.30984497c-3.8211975 -0.20654297 -7.435852 -0.41308594 -11.153778 -0.6196594c-2.3753357 -0.103271484 -4.750702 -0.20654297 -7.022766 -0.41308594c-4.8539734 -0.30984497 -9.707916 -0.8262024 -14.355347 -1.2393188c-0.9294739 -0.103271484 -1.9622192 -0.20654297 -2.8917236 -0.30981445c-5.370331 -0.6196594 -10.637421 -1.2393188 -15.8012085 -2.0655212c-0.103271484 0 -0.30981445 0 -0.5163574 0c-26.5419 -3.924469 -49.262604 -9.914459 -67.1293 -17.040466c-0.103302 -0.103271484 -0.20657349 -0.103271484 -0.30984497 -0.103271484c-3.3048096 -1.3425903 -6.299835 -2.6851807 -9.29483 -4.1310425c-0.30981445 -0.103271484 -0.7229309 -0.30981445 -1.0327454 -0.5163574c-2.6851807 -1.2393188 -5.0605164 -2.4786072 -7.435852 -3.8211975c-0.51638794 -0.30984497 -1.1360474 -0.6196594 -1.6524353 -0.9294739c-2.0655212 -1.2393188 -3.924469 -2.4786377 -5.680176 -3.717926c-0.7229309 -0.41311646 -1.3425903 -0.9294739 -2.0655212 -1.3425903c-1.4458618 -1.1360474 -2.7884216 -2.2720642 -4.131012 -3.408081c-0.6196594 -0.6196594 -1.3425903 -1.2393188 -1.9622498 -1.8589783c-1.1360474 -1.0327454 -2.0655212 -1.9622192 -2.8917236 -2.994995c-0.6196594 -0.7229309 -1.2393188 -1.5491333 -1.7556763 -2.2720642c-0.6196594 -0.9294739 -1.2393188 -1.8589478 -1.7557068 -2.8917236c-0.41308594 -0.7229004 -0.8262024 -1.5491333 -1.1360168 -2.2720337c-0.41311646 -0.9295044 -0.7229309 -1.9622498 -0.9295044 -2.8917236c-0.30981445 -1.2393188 -0.6196594 -2.4786072 -0.6196594 -3.8211975c0 -21.481323 0 -42.859375 0 -64.3407c0.20657349 0.20654297 0.51638794 0.41308594 0.7229309 0.6196594c1.7557068 1.4458618 3.511383 2.994995 5.473633 4.440857c29.536896 22.410797 88.71396 39.657806 174.43292 39.657806c85.40915 0 144.37961 -17.143738 174.12308 -39.347992c2.3753662 -1.7556763 4.5441284 -3.511383 6.5064087 -5.370331c0 9.707916 0 19.415802 0 29.123718c0 4.2342834 3.5113525 7.7456665 7.9522095 7.7456665c4.3375854 0 7.7456665 -3.511383 7.7456665 -7.7456665c0 -18.383057 0 -36.66284 0 -54.942627c0 -1.3425598 0 -2.6851501 0 -4.0277405c0 -31.395782 0 -62.79155 0 -94.08406c0 -1.3425903 0 -2.6851654 0 -3.924469c0 -1.3425903 -0.41308594 -2.4786224 -0.92944336 -3.5113678c-9.294861 -39.038177 -91.812256 -68.67827 -195.39792 -68.67827c-103.688965 0 -186.10309 29.64009 -195.39792 68.67827c-0.51638794 1.0327454 -0.9294739 2.1687775 -0.9294739 3.5113678c0 1.2393036 0 2.5818787 0 3.924469c0 31.292511 0 62.68828 0 94.08406c0 1.3425903 0 2.6851807 0 4.0277405c0 30.053192 0 60.106415 0 90.15961c0 1.3425903 0 2.6851501 0 3.924469c0 31.395782 0 62.894836 0 94.29062c0 1.3425598 0.30981445 2.4786072 0.9294739 3.5113525c8.881714 37.90216 83.859985 60.312927 155.53345 65.68329c0.20654297 0 0.41308594 0 0.6196289 0c4.027771 0 7.539154 -3.0982666 7.8489685 -7.229309c0.30984497 -4.3375854 -2.994995 -8.158752 -7.229309 -8.468567c-87.2681 -6.5064087 -138.18307 -33.048218 -141.69446 -54.736084c-0.103271484 -0.30981445 -0.20654297 -0.7229309 -0.30984497 -1.0327454c0 -22.100983 0 -44.098694 0 -66.096375c0.20657349 0.20654297 0.51638794 0.41308594 0.7229309 0.6196289c1.7557068 1.4458618 3.511383 2.994995 5.473633 4.440857c29.536896 22.410797 88.71396 39.76111 174.43292 39.76111c4.3375854 0 7.8489685 -3.511383 7.8489685 -7.848938c0 -4.3375854 -3.511383 -7.848938 -7.8489685 -7.848938m-175.87878 -213.67722c2.3753357 1.8589783 4.8539734 3.717926 7.6424255 5.4736023c0.6196289 0.41311646 1.2392883 0.7229309 1.8589478 1.1360474c2.2720642 1.4458618 4.750702 2.8917236 7.3325806 4.2342834c0.9295044 0.51638794 1.8589783 1.0327759 2.8917236 1.5491333c2.7884521 1.4458618 5.8867493 2.7884521 8.985016 4.234314c0.51638794 0.20654297 1.0327454 0.41308594 1.5491333 0.6196594c3.717926 1.6524048 7.5391235 3.0982666 11.670166 4.5441284c1.1360474 0.41308594 2.2720642 0.8262024 3.4081116 1.1360168c3.3048096 1.1360474 6.6096497 2.1687927 10.121033 3.201538c1.2393188 0.30984497 2.3753357 0.7229309 3.6146545 1.0327759c4.6474 1.3425598 9.29483 2.4786072 14.355347 3.614624c0.6196594 0.20657349 1.4458618 0.30984497 2.0655212 0.41311646c4.440857 1.0327454 8.984985 1.8589478 13.632416 2.6851501c1.6524048 0.30984497 3.201538 0.6196594 4.853943 0.8262024c4.440857 0.7229309 8.985016 1.4458618 13.735687 2.0655212c1.2393188 0.103271484 2.3753662 0.30984497 3.6146545 0.51638794c5.7834473 0.6196594 11.8767395 1.2392883 18.073273 1.7556763c1.5491638 0.103271484 3.098297 0.20654297 4.750702 0.30981445c4.957245 0.41311646 10.017761 0.7229309 15.181549 0.9295044c1.9622498 0.103271484 3.8211975 0.20654297 5.7834473 0.20654297c6.712921 0.30981445 13.632416 0.41308594 20.758453 0.41308594c7.1260376 0 14.045502 -0.103271484 20.861725 -0.41308594c1.9622192 0 3.8211975 -0.103271484 5.680176 -0.20654297c5.2670593 -0.20657349 10.224304 -0.51638794 15.181519 -0.9295044c1.5491333 -0.103271484 3.0982666 -0.20654297 4.647461 -0.30981445c6.2998047 -0.51638794 12.289795 -1.1360168 18.176514 -1.7556763c1.2393188 -0.20654297 2.3753662 -0.41311646 3.614685 -0.51638794c4.6474 -0.6196594 9.191528 -1.3425903 13.735657 -2.0655212c1.5491333 -0.20654297 3.201538 -0.5163574 4.7506714 -0.8262024c4.7507324 -0.8262024 9.294861 -1.6524048 13.632446 -2.6851501c0.7229004 -0.103271484 1.4458618 -0.20654297 2.1687622 -0.41311646c4.9572754 -1.1360168 9.707947 -2.2720642 14.355347 -3.614624c1.2393188 -0.30984497 2.4786377 -0.7229309 3.7179565 -1.0327759c3.408081 -1.0327454 6.816223 -2.0654907 10.017761 -3.201538c1.1360474 -0.30981445 2.3753662 -0.7229309 3.5113525 -1.1360168c4.027771 -1.4458618 7.9522705 -2.8917236 11.670166 -4.5441284c0.51641846 -0.20657349 0.9295044 -0.41311646 1.4458618 -0.6196594c3.2015991 -1.4458618 6.196594 -2.7884521 9.088318 -4.234314c0.92944336 -0.5163574 1.9622192 -1.0327454 2.8917236 -1.5491333c2.5818481 -1.3425598 4.9572144 -2.7884216 7.3325806 -4.2342834c0.6196289 -0.41311646 1.2393188 -0.7229309 1.7556763 -1.1360474c2.7884521 -1.7556763 5.3703613 -3.614624 7.7456665 -5.4736023c0.51641846 -0.4131012 1.0327759 -0.9294739 1.6524658 -1.3425751c1.0327148 -0.9294739 2.0654907 -1.7556915 2.994995 -2.581894c0 21.481323 0 42.962646 0 64.44397c0 1.3425903 -0.3098755 2.5818787 -0.61968994 3.8211975c-0.20654297 1.0327454 -0.5163574 1.9622498 -0.8261719 2.8917236c-0.41314697 0.7229309 -0.7229614 1.5491333 -1.1360474 2.2720642c-0.51641846 1.0327454 -1.1360474 1.9622192 -1.8589478 2.994995c-0.51641846 0.7229309 -1.1360474 1.4458618 -1.7557373 2.1687622c-0.8261719 0.9295044 -1.7556763 1.9622498 -2.7884521 2.994995c-0.6196289 0.6196594 -1.3425903 1.2393188 -2.0654907 1.8589783c-1.2393188 1.1360168 -2.5819092 2.2720642 -4.1310425 3.408081c-0.6196289 0.41311646 -1.3425903 0.9294739 -2.0654907 1.4458618c-1.7557373 1.1360474 -3.614685 2.3753357 -5.5769043 3.6146545c-0.61968994 0.30981445 -1.1360474 0.6196594 -1.7556763 0.9294739c-2.2720947 1.3425903 -4.7507324 2.5818787 -7.3326416 3.8211975c-0.41308594 0.20654297 -0.7229004 0.41311646 -1.1359863 0.51638794c-2.8917236 1.4458618 -5.98999 2.7884216 -9.294861 4.131012c-0.103271484 0 -0.20654297 0 -0.30981445 0.103271484c-17.8667 7.1260376 -40.587402 13.115997 -67.232605 17.040466c-0.103271484 0 -0.30981445 0 -0.5163574 0c-5.060486 0.8262329 -10.430847 1.4458618 -15.8012085 2.0655212c-0.9295044 0.103271484 -1.8589478 0.20654297 -2.7884521 0.30984497c-4.7506714 0.41308594 -9.501343 0.9294739 -14.458618 1.2392883c-2.1687927 0.20654297 -4.5441284 0.30984497 -6.919464 0.41311646c-3.6146545 0.20654297 -7.3325806 0.41308594 -11.153809 0.6196289c-6.196533 0.20657349 -12.59964 0.30984497 -19.106018 0.30984497c-6.506378 0 -12.806213 -0.103271484 -19.106049 -0.30984497c-3.8211975 -0.20654297 -7.435852 -0.41308594 -11.153778 -0.6196289c-2.3753357 -0.103271484 -4.750702 -0.20657349 -7.022766 -0.41311646c-4.957245 -0.30981445 -9.707916 -0.8262024 -14.458618 -1.2392883c-0.9294739 -0.103302 -1.8589478 -0.20657349 -2.7884521 -0.30984497c-5.370331 -0.6196594 -10.637421 -1.2392883 -15.8012085 -2.0655212c-0.20654297 0 -0.30981445 0 -0.5163574 0c-26.5419 -3.924469 -49.262604 -9.914429 -67.1293 -17.040466c-0.103302 -0.103271484 -0.20657349 -0.103271484 -0.30984497 -0.103271484c-3.3048096 -1.3425903 -6.4031067 -2.6851501 -9.29483 -4.131012c-0.30981445 -0.103271484 -0.7229309 -0.30984497 -1.1360168 -0.51638794c-2.5819092 -1.2393188 -5.0605164 -2.4786072 -7.3325806 -3.8211975c-0.6196594 -0.30981445 -1.1360474 -0.6196594 -1.6524353 -0.9294739c-2.0655212 -1.2393188 -3.924469 -2.4786072 -5.680176 -3.6146545c-0.7229309 -0.51638794 -1.4458618 -1.0327454 -2.0655212 -1.4458618c-1.4458618 -1.1360168 -2.7884216 -2.2720642 -4.131012 -3.408081c-0.7229309 -0.6196594 -1.3425903 -1.2393188 -2.0655212 -1.8589783c-1.0327759 -0.9294739 -1.9622498 -1.9622192 -2.7884521 -2.994995c-0.6196594 -0.7229004 -1.2393188 -1.4458313 -1.7556763 -2.1687622c-0.7229309 -1.0327759 -1.2393188 -1.9622498 -1.7557068 -2.994995c-0.51638794 -0.7229309 -0.8262024 -1.5491333 -1.1360168 -2.2720642c-0.41311646 -0.9294739 -0.7229309 -1.9622498 -0.9295044 -2.8917236c-0.30981445 -1.2393188 -0.6196594 -2.4786072 -0.6196594 -3.8211975c0 -21.481323 0 -42.962646 0 -64.44397c0.9295044 0.8262024 2.0655212 1.7556915 3.098297 2.581894c0.5163574 0.4131012 1.0327454 0.9294739 1.6524048 1.3425751m175.87878 -93.980774c106.47739 0 180.62949 31.808868 180.62949 60.416214c0 27.677856 -74.1521 58.76381 -180.62949 58.76381c-106.47742 0 -180.62949 -31.085953 -180.62949 -58.76381c0 -28.607346 74.15207 -60.416214 180.62949 -60.416214" fill-rule="evenodd"/><path stroke="#ffffff" stroke-width="4.0" stroke-linejoin="round" stroke-linecap="butt" d="m472.3893 470.01468c-6.506378 0 -12.806213 -0.103302 -19.106049 -0.30984497c-3.8211975 -0.20654297 -7.435852 -0.41308594 -11.153778 -0.6196594c-2.3753357 -0.103271484 -4.750702 -0.20654297 -7.022766 -0.41308594c-4.8539734 -0.30984497 -9.707916 -0.8262024 -14.355347 -1.2393188c-0.9294739 -0.103271484 -1.9622192 -0.20654297 -2.8917236 -0.30981445c-5.370331 -0.6196594 -10.637421 -1.2393188 -15.8012085 -2.0655212c-0.103271484 0 -0.30981445 0 -0.5163574 0c-26.5419 -3.924469 -49.262604 -9.914459 -67.1293 -17.040466c-0.103302 -0.103271484 -0.20657349 -0.103271484 -0.30984497 -0.103271484c-3.3048096 -1.3425903 -6.299835 -2.6851807 -9.29483 -4.1310425c-0.30981445 -0.103271484 -0.7229309 -0.30981445 -1.0327454 -0.5163574c-2.6851807 -1.2393188 -5.0605164 -2.4786072 -7.435852 -3.8211975c-0.51638794 -0.30984497 -1.1360474 -0.6196594 -1.6524353 -0.9294739c-2.0655212 -1.2393188 -3.924469 -2.4786377 -5.680176 -3.717926c-0.7229309 -0.41311646 -1.3425903 -0.9294739 -2.0655212 -1.3425903c-1.4458618 -1.1360474 -2.7884216 -2.2720642 -4.131012 -3.408081c-0.6196594 -0.6196594 -1.3425903 -1.2393188 -1.9622498 -1.8589783c-1.1360474 -1.0327454 -2.0655212 -1.9622192 -2.8917236 -2.994995c-0.6196594 -0.7229309 -1.2393188 -1.5491333 -1.7556763 -2.2720642c-0.6196594 -0.9294739 -1.2393188 -1.8589478 -1.7557068 -2.8917236c-0.41308594 -0.7229004 -0.8262024 -1.5491333 -1.1360168 -2.2720337c-0.41311646 -0.9295044 -0.7229309 -1.9622498 -0.9295044 -2.8917236c-0.30981445 -1.2393188 -0.6196594 -2.4786072 -0.6196594 -3.8211975c0 -21.481323 0 -42.859375 0 -64.3407c0.20657349 0.20654297 0.51638794 0.41308594 0.7229309 0.6196594c1.7557068 1.4458618 3.511383 2.994995 5.473633 4.440857c29.536896 22.410797 88.71396 39.657806 174.43292 39.657806c85.40915 0 144.37961 -17.143738 174.12308 -39.347992c2.3753662 -1.7556763 4.5441284 -3.511383 6.5064087 -5.370331c0 9.707916 0 19.415802 0 29.123718c0 4.2342834 3.5113525 7.7456665 7.9522095 7.7456665c4.3375854 0 7.7456665 -3.511383 7.7456665 -7.7456665c0 -18.383057 0 -36.66284 0 -54.942627c0 -1.3425598 0 -2.6851501 0 -4.0277405c0 -31.395782 0 -62.79155 0 -94.08406c0 -1.3425903 0 -2.6851654 0 -3.924469c0 -1.3425903 -0.41308594 -2.4786224 -0.92944336 -3.5113678c-9.294861 -39.038177 -91.812256 -68.67827 -195.39792 -68.67827c-103.688965 0 -186.10309 29.64009 -195.39792 68.67827c-0.51638794 1.0327454 -0.9294739 2.1687775 -0.9294739 3.5113678c0 1.2393036 0 2.5818787 0 3.924469c0 31.292511 0 62.68828 0 94.08406c0 1.3425903 0 2.6851807 0 4.0277405c0 30.053192 0 60.106415 0 90.15961c0 1.3425903 0 2.6851501 0 3.924469c0 31.395782 0 62.894836 0 94.29062c0 1.3425598 0.30981445 2.4786072 0.9294739 3.5113525c8.881714 37.90216 83.859985 60.312927 155.53345 65.68329c0.20654297 0 0.41308594 0 0.6196289 0c4.027771 0 7.539154 -3.0982666 7.8489685 -7.229309c0.30984497 -4.3375854 -2.994995 -8.158752 -7.229309 -8.468567c-87.2681 -6.5064087 -138.18307 -33.048218 -141.69446 -54.736084c-0.103271484 -0.30981445 -0.20654297 -0.7229309 -0.30984497 -1.0327454c0 -22.100983 0 -44.098694 0 -66.096375c0.20657349 0.20654297 0.51638794 0.41308594 0.7229309 0.6196289c1.7557068 1.4458618 3.511383 2.994995 5.473633 4.440857c29.536896 22.410797 88.71396 39.76111 174.43292 39.76111c4.3375854 0 7.8489685 -3.511383 7.8489685 -7.848938c0 -4.3375854 -3.511383 -7.848938 -7.8489685 -7.848938m-175.87878 -213.67722c2.3753357 1.8589783 4.8539734 3.717926 7.6424255 5.4736023c0.6196289 0.41311646 1.2392883 0.7229309 1.8589478 1.1360474c2.2720642 1.4458618 4.750702 2.8917236 7.3325806 4.2342834c0.9295044 0.51638794 1.8589783 1.0327759 2.8917236 1.5491333c2.7884521 1.4458618 5.8867493 2.7884521 8.985016 4.234314c0.51638794 0.20654297 1.0327454 0.41308594 1.5491333 0.6196594c3.717926 1.6524048 7.5391235 3.0982666 11.670166 4.5441284c1.1360474 0.41308594 2.2720642 0.8262024 3.4081116 1.1360168c3.3048096 1.1360474 6.6096497 2.1687927 10.121033 3.201538c1.2393188 0.30984497 2.3753357 0.7229309 3.6146545 1.0327759c4.6474 1.3425598 9.29483 2.4786072 14.355347 3.614624c0.6196594 0.20657349 1.4458618 0.30984497 2.0655212 0.41311646c4.440857 1.0327454 8.984985 1.8589478 13.632416 2.6851501c1.6524048 0.30984497 3.201538 0.6196594 4.853943 0.8262024c4.440857 0.7229309 8.985016 1.4458618 13.735687 2.0655212c1.2393188 0.103271484 2.3753662 0.30984497 3.6146545 0.51638794c5.7834473 0.6196594 11.8767395 1.2392883 18.073273 1.7556763c1.5491638 0.103271484 3.098297 0.20654297 4.750702 0.30981445c4.957245 0.41311646 10.017761 0.7229309 15.181549 0.9295044c1.9622498 0.103271484 3.8211975 0.20654297 5.7834473 0.20654297c6.712921 0.30981445 13.632416 0.41308594 20.758453 0.41308594c7.1260376 0 14.045502 -0.103271484 20.861725 -0.41308594c1.9622192 0 3.8211975 -0.103271484 5.680176 -0.20654297c5.2670593 -0.20657349 10.224304 -0.51638794 15.181519 -0.9295044c1.5491333 -0.103271484 3.0982666 -0.20654297 4.647461 -0.30981445c6.2998047 -0.51638794 12.289795 -1.1360168 18.176514 -1.7556763c1.2393188 -0.20654297 2.3753662 -0.41311646 3.614685 -0.51638794c4.6474 -0.6196594 9.191528 -1.3425903 13.735657 -2.0655212c1.5491333 -0.20654297 3.201538 -0.5163574 4.7506714 -0.8262024c4.7507324 -0.8262024 9.294861 -1.6524048 13.632446 -2.6851501c0.7229004 -0.103271484 1.4458618 -0.20654297 2.1687622 -0.41311646c4.9572754 -1.1360168 9.707947 -2.2720642 14.355347 -3.614624c1.2393188 -0.30984497 2.4786377 -0.7229309 3.7179565 -1.0327759c3.408081 -1.0327454 6.816223 -2.0654907 10.017761 -3.201538c1.1360474 -0.30981445 2.3753662 -0.7229309 3.5113525 -1.1360168c4.027771 -1.4458618 7.9522705 -2.8917236 11.670166 -4.5441284c0.51641846 -0.20657349 0.9295044 -0.41311646 1.4458618 -0.6196594c3.2015991 -1.4458618 6.196594 -2.7884521 9.088318 -4.234314c0.92944336 -0.5163574 1.9622192 -1.0327454 2.8917236 -1.5491333c2.5818481 -1.3425598 4.9572144 -2.7884216 7.3325806 -4.2342834c0.6196289 -0.41311646 1.2393188 -0.7229309 1.7556763 -1.1360474c2.7884521 -1.7556763 5.3703613 -3.614624 7.7456665 -5.4736023c0.51641846 -0.4131012 1.0327759 -0.9294739 1.6524658 -1.3425751c1.0327148 -0.9294739 2.0654907 -1.7556915 2.994995 -2.581894c0 21.481323 0 42.962646 0 64.44397c0 1.3425903 -0.3098755 2.5818787 -0.61968994 3.8211975c-0.20654297 1.0327454 -0.5163574 1.9622498 -0.8261719 2.8917236c-0.41314697 0.7229309 -0.7229614 1.5491333 -1.1360474 2.2720642c-0.51641846 1.0327454 -1.1360474 1.9622192 -1.8589478 2.994995c-0.51641846 0.7229309 -1.1360474 1.4458618 -1.7557373 2.1687622c-0.8261719 0.9295044 -1.7556763 1.9622498 -2.7884521 2.994995c-0.6196289 0.6196594 -1.3425903 1.2393188 -2.0654907 1.8589783c-1.2393188 1.1360168 -2.5819092 2.2720642 -4.1310425 3.408081c-0.6196289 0.41311646 -1.3425903 0.9294739 -2.0654907 1.4458618c-1.7557373 1.1360474 -3.614685 2.3753357 -5.5769043 3.6146545c-0.61968994 0.30981445 -1.1360474 0.6196594 -1.7556763 0.9294739c-2.2720947 1.3425903 -4.7507324 2.5818787 -7.3326416 3.8211975c-0.41308594 0.20654297 -0.7229004 0.41311646 -1.1359863 0.51638794c-2.8917236 1.4458618 -5.98999 2.7884216 -9.294861 4.131012c-0.103271484 0 -0.20654297 0 -0.30981445 0.103271484c-17.8667 7.1260376 -40.587402 13.115997 -67.232605 17.040466c-0.103271484 0 -0.30981445 0 -0.5163574 0c-5.060486 0.8262329 -10.430847 1.4458618 -15.8012085 2.0655212c-0.9295044 0.103271484 -1.8589478 0.20654297 -2.7884521 0.30984497c-4.7506714 0.41308594 -9.501343 0.9294739 -14.458618 1.2392883c-2.1687927 0.20654297 -4.5441284 0.30984497 -6.919464 0.41311646c-3.6146545 0.20654297 -7.3325806 0.41308594 -11.153809 0.6196289c-6.196533 0.20657349 -12.59964 0.30984497 -19.106018 0.30984497c-6.506378 0 -12.806213 -0.103271484 -19.106049 -0.30984497c-3.8211975 -0.20654297 -7.435852 -0.41308594 -11.153778 -0.6196289c-2.3753357 -0.103271484 -4.750702 -0.20657349 -7.022766 -0.41311646c-4.957245 -0.30981445 -9.707916 -0.8262024 -14.458618 -1.2392883c-0.9294739 -0.103302 -1.8589478 -0.20657349 -2.7884521 -0.30984497c-5.370331 -0.6196594 -10.637421 -1.2392883 -15.8012085 -2.0655212c-0.20654297 0 -0.30981445 0 -0.5163574 0c-26.5419 -3.924469 -49.262604 -9.914429 -67.1293 -17.040466c-0.103302 -0.103271484 -0.20657349 -0.103271484 -0.30984497 -0.103271484c-3.3048096 -1.3425903 -6.4031067 -2.6851501 -9.29483 -4.131012c-0.30981445 -0.103271484 -0.7229309 -0.30984497 -1.1360168 -0.51638794c-2.5819092 -1.2393188 -5.0605164 -2.4786072 -7.3325806 -3.8211975c-0.6196594 -0.30981445 -1.1360474 -0.6196594 -1.6524353 -0.9294739c-2.0655212 -1.2393188 -3.924469 -2.4786072 -5.680176 -3.6146545c-0.7229309 -0.51638794 -1.4458618 -1.0327454 -2.0655212 -1.4458618c-1.4458618 -1.1360168 -2.7884216 -2.2720642 -4.131012 -3.408081c-0.7229309 -0.6196594 -1.3425903 -1.2393188 -2.0655212 -1.8589783c-1.0327759 -0.9294739 -1.9622498 -1.9622192 -2.7884521 -2.994995c-0.6196594 -0.7229004 -1.2393188 -1.4458313 -1.7556763 -2.1687622c-0.7229309 -1.0327759 -1.2393188 -1.9622498 -1.7557068 -2.994995c-0.51638794 -0.7229309 -0.8262024 -1.5491333 -1.1360168 -2.2720642c-0.41311646 -0.9294739 -0.7229309 -1.9622498 -0.9295044 -2.8917236c-0.30981445 -1.2393188 -0.6196594 -2.4786072 -0.6196594 -3.8211975c0 -21.481323 0 -42.962646 0 -64.44397c0.9295044 0.8262024 2.0655212 1.7556915 3.098297 2.581894c0.5163574 0.4131012 1.0327454 0.9294739 1.6524048 1.3425751m175.87878 -93.980774c106.47739 0 180.62949 31.808868 180.62949 60.416214c0 27.677856 -74.1521 58.76381 -180.62949 58.76381c-106.47742 0 -180.62949 -31.085953 -180.62949 -58.76381c0 -28.607346 74.15207 -60.416214 180.62949 -60.416214" fill-rule="evenodd"/></g></svg>