<svg version="1.1" viewBox="0.0 0.0 944.8818897637796 944.8818897637796" fill="none" stroke="none" stroke-linecap="square" stroke-miterlimit="10" xmlns:xlink="http://www.w3.org/1999/xlink" xmlns="http://www.w3.org/2000/svg"><clipPath id="g21809f50d9a_0_13.0"><path d="m0 0l944.8819 0l0 944.8819l-944.8819 0l0 -944.8819z" clip-rule="nonzero"/></clipPath><g clip-path="url(#g21809f50d9a_0_13.0)"><path fill="#ffffff" d="m0 0l944.8819 0l0 944.8819l-944.8819 0z" fill-rule="evenodd"/><path fill="#ffffff" d="m186.68591 279.564l0 0c0 -31.762894 25.748901 -57.51181 57.51181 -57.51181l0 0c15.253082 0 29.88144 6.059265 40.666992 16.844833c10.785553 10.785553 16.844818 25.413895 16.844818 40.666977l0 0c0 31.762909 -25.748932 57.51181 -57.51181 57.51181l0 0c-31.762909 0 -57.51181 -25.748901 -57.51181 -57.51181z" fill-rule="evenodd"/><path stroke="#3f51b4" stroke-width="12.0" stroke-linejoin="round" stroke-linecap="butt" d="m186.68591 279.564l0 0c0 -31.762894 25.748901 -57.51181 57.51181 -57.51181l0 0c15.253082 0 29.88144 6.059265 40.666992 16.844833c10.785553 10.785553 16.844818 25.413895 16.844818 40.666977l0 0c0 31.762909 -25.748932 57.51181 -57.51181 57.51181l0 0c-31.762909 0 -57.51181 -25.748901 -57.51181 -57.51181z" fill-rule="evenodd"/><path fill="#ffffff" d="m152.39868 505.7462l0 -82.31497l0 0c0 -45.461304 41.098145 -82.31497 91.79527 -82.31497c50.69713 0 91.79527 36.85367 91.79527 82.31497l0 82.31497z" fill-rule="evenodd"/><path stroke="#3f51b4" stroke-width="12.0" stroke-linejoin="round" stroke-linecap="butt" d="m152.39868 505.7462l0 -82.31497l0 0c0 -45.461304 41.098145 -82.31497 91.79527 -82.31497c50.69713 0 91.79527 36.85367 91.79527 82.31497l0 82.31497z" fill-rule="evenodd"/><path fill="#ffffff" d="m643.1023 279.564l0 0c0 -31.762894 25.748962 -57.51181 57.51184 -57.51181l0 0c15.253052 0 29.881409 6.059265 40.666992 16.844833c10.785522 10.785553 16.844788 25.413895 16.844788 40.666977l0 0c0 31.762909 -25.748901 57.51181 -57.51178 57.51181l0 0c-31.762878 0 -57.51184 -25.748901 -57.51184 -57.51181z" fill-rule="evenodd"/><path stroke="#3f51b4" stroke-width="12.0" stroke-linejoin="round" stroke-linecap="butt" d="m643.1023 279.564l0 0c0 -31.762894 25.748962 -57.51181 57.51184 -57.51181l0 0c15.253052 0 29.881409 6.059265 40.666992 16.844833c10.785522 10.785553 16.844788 25.413895 16.844788 40.666977l0 0c0 31.762909 -25.748901 57.51181 -57.51178 57.51181l0 0c-31.762878 0 -57.51184 -25.748901 -57.51184 -57.51181z" fill-rule="evenodd"/><path fill="#ffffff" d="m608.8151 505.7462l0 -82.31497l0 0c0 -45.461304 41.098145 -82.31497 91.79523 -82.31497c50.697144 0 91.79529 36.85367 91.79529 82.31497l0 82.31497z" fill-rule="evenodd"/><path stroke="#3f51b4" stroke-width="12.0" stroke-linejoin="round" stroke-linecap="butt" d="m608.8151 505.7462l0 -82.31497l0 0c0 -45.461304 41.098145 -82.31497 91.79523 -82.31497c50.697144 0 91.79529 36.85367 91.79529 82.31497l0 82.31497z" fill-rule="evenodd"/><path fill="#ffffff" d="m414.8941 352.59558l0 0c0 -31.762878 25.748932 -57.51181 57.51181 -57.51181l0 0c15.253082 0 29.88144 6.059265 40.667023 16.844818c10.785522 10.785553 16.844788 25.41391 16.844788 40.666992l0 0c0 31.762909 -25.748901 57.51181 -57.51181 57.51181l0 0c-31.762878 0 -57.51181 -25.748901 -57.51181 -57.51181z" fill-rule="evenodd"/><path stroke="#3f51b4" stroke-width="12.0" stroke-linejoin="round" stroke-linecap="butt" d="m414.8941 352.59558l0 0c0 -31.762878 25.748932 -57.51181 57.51181 -57.51181l0 0c15.253082 0 29.88144 6.059265 40.667023 16.844818c10.785522 10.785553 16.844788 25.41391 16.844788 40.666992l0 0c0 31.762909 -25.748901 57.51181 -57.51181 57.51181l0 0c-31.762878 0 -57.51181 -25.748901 -57.51181 -57.51181z" fill-rule="evenodd"/><path fill="#ffffff" d="m380.6069 578.7778l0 -82.31497l0 0c0 -45.461304 41.098145 -82.31497 91.79526 -82.31497c50.697144 0 91.79529 36.85367 91.79529 82.31497l0 82.31497z" fill-rule="evenodd"/><path stroke="#3f51b4" stroke-width="12.0" stroke-linejoin="round" stroke-linecap="butt" d="m380.6069 578.7778l0 -82.31497l0 0c0 -45.461304 41.098145 -82.31497 91.79526 -82.31497c50.697144 0 91.79529 36.85367 91.79529 82.31497l0 82.31497z" fill-rule="evenodd"/><path fill="#000000" fill-opacity="0.0" d="m3.1338582 709.12286l944.8819 0l0 164.81891l-944.8819 0z" fill-rule="evenodd"/><path fill="#3f51b4" d="m238.5631 824.11975l0 9.203125l-37.03125 0l0 -9.203125l37.03125 0zm-35.09375 -76.109375l0 85.3125l-10.78125 0l0 -85.3125l10.78125 0zm30.109375 36.671875l0 9.203125l-32.046875 0l0 -9.203125l32.046875 0zm4.40625 -36.671875l0 9.25l-36.453125 0l0 -9.25l36.453125 0zm17.742188 0l10.437485 0l22.328125 69.546875l22.265625 -69.546875l10.421875 0l-28.65625 85.3125l-8.203125 0l-28.593735 -85.3125zm-3.390625 0l9.14061 0l1.578125 52.03125l0 33.28125l-10.718735 0l0 -85.3125zm63.04686 0l9.140625 0l0 85.3125l-10.71875 0l0 -33.28125l1.578125 -52.03125zm54.785156 51.859375l-18.640625 0l0 -9.203125l18.640625 0q5.265625 0 8.515625 -2.109375q3.265625 -2.109375 4.75 -5.859375q1.5 -3.75 1.5 -8.5625q0 -4.390625 -1.5 -8.25q-1.484375 -3.875 -4.75 -6.25q-3.25 -2.375 -8.515625 -2.375l-16.40625 0l0 76.0625l-10.78125 0l0 -85.3125l27.1875 0q8.265625 0 13.9375 3.34375q5.6875 3.328125 8.640625 9.21875q2.96875 5.890625 2.96875 13.453125q0 8.203125 -2.96875 14.0q-2.953125 5.796875 -8.640625 8.828125q-5.671875 3.015625 -13.9375 3.015625zm83.55078 24.25l0 9.203125l-35.390625 0l0 -9.203125l35.390625 0zm-33.453125 -76.109375l0 85.3125l-10.78125 0l0 -85.3125l10.78125 0zm97.96481 35.265625l0 14.828125q0 9.03125 -1.96875 15.859375q-1.953064 6.8125 -5.7030945 11.390625q-3.75 4.5625 -9.03125 6.859375q-5.265625 2.28125 -11.890625 2.28125q-6.390625 0 -11.671875 -2.28125q-5.265625 -2.296875 -9.078125 -6.859375q-3.796875 -4.578125 -5.875 -11.390625q-2.078125 -6.828125 -2.078125 -15.859375l0 -14.828125q0 -9.015625 2.046875 -15.84375q2.046875 -6.828125 5.859375 -11.390625q3.8125 -4.578125 9.078125 -6.890625q5.28125 -2.3125 11.65625 -2.3125q6.625 0 11.921875 2.3125q5.3125 2.3125 9.03125 6.890625q3.7187805 4.5625 5.7030945 11.390625q2.0 6.828125 2.0 15.84375zm-10.6562195 14.828125l0 -14.9375q0 -7.03125 -1.171875 -12.09375q-1.171875 -5.078125 -3.46875 -8.296875q-2.28125 -3.21875 -5.625 -4.765625q-3.328125 -1.5625 -7.734375 -1.5625q-4.15625 0 -7.46875 1.5625q-3.3125 1.546875 -5.65625 4.765625q-2.34375 3.21875 -3.609375 8.296875q-1.25 5.0625 -1.25 12.09375l0 14.9375q0 7.09375 1.25 12.171875q1.265625 5.0625 3.640625 8.3125q2.375 3.25 5.71875 4.8125q3.34375 1.546875 7.4375 1.546875q4.390625 0 7.765625 -1.546875q3.375 -1.5625 5.625 -4.8125q2.25 -3.25 3.390625 -8.3125q1.15625 -5.078125 1.15625 -12.171875zm29.578094 -50.09375l17.40625 42.828125l17.46875 -42.828125l12.1875 0l-24.265625 53.4375l0 31.875l-10.78125 0l0 -31.875l-24.25 -53.4375l12.234375 0zm104.06641 76.109375l0 9.203125l-37.03125 0l0 -9.203125l37.03125 0zm-35.09375 -76.109375l0 85.3125l-10.78125 0l0 -85.3125l10.78125 0zm30.109375 36.671875l0 9.203125l-32.046875 0l0 -9.203125l32.046875 0zm4.40625 -36.671875l0 9.25l-36.453125 0l0 -9.25l36.453125 0zm60.226562 76.109375l0 9.203125l-37.03125 0l0 -9.203125l37.03125 0zm-35.09375 -76.109375l0 85.3125l-10.78125 0l0 -85.3125l10.78125 0zm30.109375 36.671875l0 9.203125l-32.046875 0l0 -9.203125l32.046875 0zm4.40625 -36.671875l0 9.25l-36.453125 0l0 -9.25l36.453125 0zm51.679688 63.75q0 -2.984375 -0.703125 -5.296875q-0.703125 -2.328125 -2.46875 -4.203125q-1.75 -1.875 -4.921875 -3.5625q-3.15625 -1.703125 -8.03125 -3.46875q-5.265625 -1.875 -9.546875 -4.1875q-4.28125 -2.3125 -7.296875 -5.296875q-3.015625 -2.984375 -4.65625 -6.84375q-1.640625 -3.875 -1.640625 -8.859375q0 -4.984375 1.71875 -9.203125q1.734375 -4.21875 4.921875 -7.34375q3.203125 -3.140625 7.71875 -4.890625q4.515625 -1.765625 10.078125 -1.765625q8.3125 0 14.03125 3.671875q5.71875 3.65625 8.640625 9.546875q2.9375 5.875 2.9375 12.5625l-10.78125 0q0 -4.8125 -1.5625 -8.53125q-1.546875 -3.71875 -4.796875 -5.859375q-3.25 -2.140625 -8.46875 -2.140625q-4.6875 0 -7.703125 1.828125q-3.015625 1.8125 -4.453125 4.921875q-1.4375 3.09375 -1.4375 7.078125q0 2.703125 0.9375 4.90625q0.9375 2.1875 2.890625 4.0625q1.96875 1.875 4.921875 3.46875q2.96875 1.578125 7.015625 3.03125q6.265625 2.0625 10.71875 4.578125q4.453125 2.515625 7.265625 5.65625q2.8125 3.125 4.125 7.09375q1.328125 3.953125 1.328125 8.921875q0 5.21875 -1.734375 9.4375q-1.734375 4.21875 -5.015625 7.21875q-3.28125 2.984375 -7.90625 4.59375q-4.625 1.609375 -10.421875 1.609375q-5.046875 0 -9.890625 -1.640625q-4.828125 -1.640625 -8.75 -4.921875q-3.921875 -3.28125 -6.265625 -8.109375q-2.34375 -4.84375 -2.34375 -11.234375l10.78125 0q0 4.40625 1.28125 7.546875q1.296875 3.125 3.578125 5.171875q2.28125 2.046875 5.234375 3.015625q2.96875 0.96875 6.375 0.96875q4.6875 0 7.875 -1.640625q3.1875 -1.640625 4.796875 -4.6875q1.625 -3.046875 1.625 -7.203125z" fill-rule="nonzero"/></g></svg>