<svg version="1.1" viewBox="0.0 0.0 944.8818897637796 944.8818897637796" fill="none" stroke="none" stroke-linecap="square" stroke-miterlimit="10" xmlns:xlink="http://www.w3.org/1999/xlink" xmlns="http://www.w3.org/2000/svg"><clipPath id="g31a624ce75d_0_7.0"><path d="m0 0l944.8819 0l0 944.8819l-944.8819 0l0 -944.8819z" clip-rule="nonzero"/></clipPath><g clip-path="url(#g31a624ce75d_0_7.0)"><path fill="#ffffff" d="m0 0l944.8819 0l0 944.8819l-944.8819 0z" fill-rule="evenodd"/><path fill="#000000" fill-opacity="0.0" d="m3.1338582 701.12286l944.8819 0l0 187.4646l-944.8819 0z" fill-rule="evenodd"/><path fill="#3f51b4" d="m247.72644 744.66473l0 98.578125l-12.46875 0l0 -98.578125l12.46875 0zm33.234375 44.34375l0 10.703125l-35.609375 0l0 -10.703125l35.609375 0zm5.625 -44.34375l0 10.703125l-41.234375 0l0 -10.703125l41.234375 0zm28.359558 0l0 98.578125l-12.453125 0l0 -98.578125l12.453125 0zm86.11719 0l0 98.578125l-12.515625 0l-39.46875 -76.03125l0 76.03125l-12.46875 0l0 -98.578125l12.46875 0l39.671875 76.234375l0 -76.234375l12.3125 0zm54.634155 8.734375l-26.9375 89.84375l-12.734375 0l31.765625 -98.578125l7.984375 0l-0.078125 8.734375zm21.8125 89.84375l-26.953125 -89.84375l-0.140625 -8.734375l8.0625 0l31.75 98.578125l-12.71875 0zm0 -36.484375l0 10.6875l-47.53125 0l0 -10.6875l47.53125 0zm90.64508 -62.09375l0 98.578125l-12.515625 0l-39.46875 -76.03125l0 76.03125l-12.46875 0l0 -98.578125l12.46875 0l39.671875 76.234375l0 -76.234375l12.3125 0zm70.821655 67.234375l12.453125 0q-0.46875 10.15625 -4.09375 17.5q-3.625 7.34375 -10.5 11.28125q-6.859375 3.921875 -17.15625 3.921875q-7.375 0 -13.34375 -2.90625q-5.953125 -2.921875 -10.1875 -8.375q-4.21875 -5.453125 -6.453125 -13.09375q-2.234375 -7.65625 -2.234375 -17.203125l0 -18.203125q0 -9.484375 2.265625 -17.125q2.265625 -7.65625 6.5625 -13.109375q4.296875 -5.453125 10.484375 -8.359375q6.203125 -2.921875 14.0625 -2.921875q9.609375 0 16.28125 3.828125q6.671875 3.828125 10.28125 11.171875q3.625 7.34375 4.03125 17.984375l-12.453125 0q-0.46875 -7.796875 -2.4375 -12.703125q-1.96875 -4.90625 -5.796875 -7.234375q-3.8125 -2.34375 -9.90625 -2.34375q-5.421875 0 -9.390625 2.171875q-3.953125 2.15625 -6.5 6.1875q-2.53125 4.03125 -3.78125 9.6875q-1.25 5.65625 -1.25 12.625l0 18.34375q0 6.5 1.046875 12.125q1.046875 5.609375 3.375 9.84375q2.34375 4.234375 6.125 6.609375q3.796875 2.359375 9.21875 2.359375q6.84375 0 10.828125 -2.234375q4.0 -2.234375 5.921875 -7.109375q1.9375 -4.875 2.546875 -12.71875zm82.259705 20.71875l0 10.625l-42.78125 0l0 -10.625l42.78125 0zm-40.546875 -87.953125l0 98.578125l-12.46875 0l0 -98.578125l12.46875 0zm34.796875 42.390625l0 10.625l-37.03125 0l0 -10.625l37.03125 0zm5.078125 -42.390625l0 10.703125l-42.109375 0l0 -10.703125l42.109375 0z" fill-rule="nonzero"/><path fill="#ffffff" d="m454.25565 284.2782l36.377686 0l0 228.50769l-36.377686 0z" fill-rule="evenodd"/><path stroke="#3f51b4" stroke-width="8.0" stroke-linejoin="round" stroke-linecap="butt" d="m454.25565 284.2782l36.377686 0l0 228.50769l-36.377686 0z" fill-rule="evenodd"/><path fill="#ffffff" d="m217.00174 286.5933l36.3777 0l0 228.50772l-36.3777 0z" fill-rule="evenodd"/><path stroke="#3f51b4" stroke-width="8.0" stroke-linejoin="round" stroke-linecap="butt" d="m217.00174 286.5933l36.3777 0l0 228.50772l-36.3777 0z" fill-rule="evenodd"/><path fill="#ffffff" d="m572.88257 286.5933l36.377686 0l0 228.50772l-36.377686 0z" fill-rule="evenodd"/><path stroke="#3f51b4" stroke-width="8.0" stroke-linejoin="round" stroke-linecap="butt" d="m572.88257 286.5933l36.377686 0l0 228.50772l-36.377686 0z" fill-rule="evenodd"/><path fill="#ffffff" d="m335.6287 286.5933l36.377686 0l0 228.50772l-36.377686 0z" fill-rule="evenodd"/><path stroke="#3f51b4" stroke-width="8.0" stroke-linejoin="round" stroke-linecap="butt" d="m335.6287 286.5933l36.377686 0l0 228.50772l-36.377686 0z" fill-rule="evenodd"/><path fill="#ffffff" d="m196.58846 230.45262l275.27844 -91.89984l275.27838 91.89984z" fill-rule="evenodd"/><path stroke="#3f51b4" stroke-width="8.0" stroke-linejoin="round" stroke-linecap="butt" d="m196.58846 230.45262l275.27844 -91.89984l275.27838 91.89984z" fill-rule="evenodd"/><path fill="#ffffff" d="m197.74164 248.8181l550.5568 0l0 21.708237l-550.5568 0z" fill-rule="evenodd"/><path stroke="#3f51b4" stroke-width="8.0" stroke-linejoin="round" stroke-linecap="butt" d="m197.74164 248.8181l550.5568 0l0 21.708237l-550.5568 0z" fill-rule="evenodd"/><path fill="#ffffff" d="m196.58846 531.16797l551.7121 0l0 21.70819l-551.7121 0z" fill-rule="evenodd"/><path stroke="#3f51b4" stroke-width="8.0" stroke-linejoin="round" stroke-linecap="butt" d="m196.58846 531.16797l551.7121 0l0 21.70819l-551.7121 0z" fill-rule="evenodd"/><path fill="#ffffff" d="m691.5095 286.5933l36.377686 0l0 228.50772l-36.377686 0z" fill-rule="evenodd"/><path stroke="#3f51b4" stroke-width="8.0" stroke-linejoin="round" stroke-linecap="butt" d="m691.5095 286.5933l36.377686 0l0 228.50772l-36.377686 0z" fill-rule="evenodd"/><path fill="#ffffff" d="m196.58846 569.02075l551.7121 0l0 21.708252l-551.7121 0z" fill-rule="evenodd"/><path stroke="#3f51b4" stroke-width="8.0" stroke-linejoin="round" stroke-linecap="butt" d="m196.58846 569.02075l551.7121 0l0 21.708252l-551.7121 0z" fill-rule="evenodd"/></g></svg>