<svg version="1.1" viewBox="0.0 0.0 944.8818897637796 944.8818897637796" fill="none" stroke="none" stroke-linecap="square" stroke-miterlimit="10" xmlns:xlink="http://www.w3.org/1999/xlink" xmlns="http://www.w3.org/2000/svg"><clipPath id="g31a61edbf9d_0_33.0"><path d="m0 0l944.8819 0l0 944.8819l-944.8819 0l0 -944.8819z" clip-rule="nonzero"/></clipPath><g clip-path="url(#g31a61edbf9d_0_33.0)"><path fill="#ffffff" d="m0 0l944.8819 0l0 944.8819l-944.8819 0z" fill-rule="evenodd"/><path fill="#000000" fill-opacity="0.0" d="m3.1338582 709.12286l944.8819 0l0 164.81891l-944.8819 0z" fill-rule="evenodd"/><path fill="#3f51b4" d="m375.1451 824.11975l0 9.203125l-35.390625 0l0 -9.203125l35.390625 0zm-33.453125 -76.109375l0 85.3125l-10.78125 0l0 -85.3125l10.78125 0zm92.16406 76.109375l0 9.203125l-37.03125 0l0 -9.203125l37.03125 0zm-35.09375 -76.109375l0 85.3125l-10.78125 0l0 -85.3125l10.78125 0zm30.109375 36.671875l0 9.203125l-32.046875 0l0 -9.203125l32.046875 0zm4.40625 -36.671875l0 9.25l-36.453125 0l0 -9.25l36.453125 0zm42.007812 7.5625l-23.328125 77.75l-11.015625 0l27.484375 -85.3125l6.921875 0l-0.0625 7.5625zm18.859375 77.75l-23.3125 -77.75l-0.125 -7.5625l6.984375 0l27.46875 85.3125l-11.015625 0zm0 -31.578125l0 9.25l-41.125 0l0 -9.25l41.125 0zm41.023407 18.625l20.5 -72.359375l11.71875 0l-26.484375 85.3125l-8.25 0l2.515625 -12.953125zm-18.40625 -72.359375l20.34375 72.359375l2.6875 12.953125l-8.265625 0l-26.484344 -85.3125l11.7187195 0zm108.109375 76.109375l0 9.203125l-37.03125 0l0 -9.203125l37.03125 0zm-35.09375 -76.109375l0 85.3125l-10.78125 0l0 -85.3125l10.78125 0zm30.109375 36.671875l0 9.203125l-32.046875 0l0 -9.203125l32.046875 0zm4.40625 -36.671875l0 9.25l-36.453125 0l0 -9.25l36.453125 0z" fill-rule="nonzero"/><path fill="#3f51b4" d="m444.0776 436.20578c0 -0.094055176 -0.4703064 -0.65841675 -1.2227783 -1.6930847c-0.094055176 0 -0.094055176 -0.094055176 -0.18811035 -0.18811035c-0.37625122 -0.4703064 -0.8465576 -1.1287231 -1.4109192 -1.8811951l0 -0.094055176c-1.1287231 -1.5990295 -2.633667 -3.668335 -4.2326965 -6.1138916c0 -0.094055176 0 -0.18811035 -0.094055176 -0.18811035c-0.7524719 -1.2227783 -1.5049438 -2.4455566 -2.2574158 -3.7624207c-0.09408569 -0.094055176 -0.09408569 -0.18811035 -0.18814087 -0.28216553c-1.7871399 -2.915863 -3.5742798 -6.207947 -5.455475 -9.876282c0 -0.094055176 0 -0.094055176 0 -0.094055176c-0.9405823 -1.8811951 -1.9752502 -3.950531 -2.9158325 -6.1138916c-0.094055176 -0.37625122 -0.28219604 -0.65841675 -0.37625122 -0.9406128c-0.4703064 -0.9405823 -0.8465271 -1.9752502 -1.3168335 -3.0099182c-0.18811035 -0.3762207 -0.28219604 -0.7524719 -0.4703064 -1.1286926c-0.3762207 -1.034668 -0.7524719 -2.069336 -1.2227783 -3.198059c-0.7524719 -2.1633606 -1.5049438 -4.3267517 -2.2574158 -6.5841675c-0.18814087 -0.4703064 -0.28219604 -0.9406128 -0.37625122 -1.316864c-0.094055176 -0.18811035 -0.094055176 -0.3762207 -0.18811035 -0.47027588c-0.75250244 -2.4455566 -1.4109192 -4.9851685 -1.9752808 -7.524811c-0.28216553 -1.0346375 -0.5643616 -2.0693054 -0.7524719 -3.1039734c-0.9405823 -0.56433105 -1.7871399 -1.1286926 -2.633667 -1.6930542c-4.420807 -2.8218079 -7.1485596 -7.712921 -7.1485596 -12.8862c0 -10.252533 0 -20.599121 0 -30.851624c0 -4.3267517 1.8811951 -8.371338 5.1733093 -11.381256c0.8465271 -0.7524719 1.6930542 -1.5049438 2.5396118 -2.3515015c0 -15.990173 0 -31.980347 0 -48.064575c0 -0.8465271 0 -1.7871399 0 -2.633667c-0.094055176 -0.094055176 -0.18814087 -0.094055176 -0.18814087 -0.094055176c-0.28216553 -5.643585 0.09408569 -22.668427 12.509979 -36.871475c12.698059 -14.579269 34.51996 -22.009995 64.80722 -22.009995c30.099152 0 51.826996 7.33667 64.61911 21.821884c15.049561 17.024826 12.604004 38.75264 12.604004 38.846725c-0.094055176 16.366394 -0.094055176 32.73282 -0.094055176 49.005157c0.8465576 0.8465576 1.6931152 1.5990295 2.5396118 2.3515015c3.2921143 3.0099182 5.17334 7.0545044 5.17334 11.381256c0 10.252502 0 20.59909 0 30.851624c0 6.678253 -4.4208374 12.604004 -11.005005 14.67334c-4.0446167 1.2227783 -6.302063 5.54953 -5.0792847 9.594086c1.2227783 4.044586 5.5495605 6.302002 9.594116 5.0792236c13.074341 -4.0445557 21.8219 -15.802032 21.8219 -29.34665c0 -10.252533 0 -20.599121 0 -30.851624c0 -7.4307556 -2.8217773 -14.67334 -7.6188354 -20.316925c0 -13.638702 0 -27.277374 0 -41.0101c0.3762207 -4.1386414 1.9752197 -29.440735 -16.178284 -50.227966c-15.802063 -18.059479 -41.574463 -27.277344 -76.37662 -27.277344c-34.802124 0 -60.574524 9.217865 -76.37659 27.277344c-11.09906 12.604019 -14.767395 26.807068 -15.896118 37.05957c-13.262421 -6.8663483 -28.876373 -10.346573 -46.55963 -10.346573c-80.04492 0 -84.65384 68.28746 -84.747894 69.41618c0 11.757477 0 23.514954 0 35.27243c-4.9851685 5.455475 -7.712921 11.757477 -7.712921 17.965424c0 8.841614 0 17.777313 0 26.712982c0 8.277283 3.7623901 16.084259 10.158478 21.351593c6.302002 23.891205 21.915924 41.950684 28.029816 48.34677c0 7.054474 0 14.108978 0 21.163452c0 6.1138916 -3.386139 11.663422 -9.12381 14.767395c-17.02481 10.722839 -34.143707 21.445679 -51.16855 32.262512c-19.658493 10.722839 -31.886276 31.227905 -31.886276 53.52008c0 9.782227 0 19.564453 0 29.34668c35.930862 0 71.955765 0 107.88664 0c5.173279 0 10.346588 0 15.425812 0c28.312012 0 56.52997 0 84.84198 0c4.3267517 0 7.7128906 -3.3861694 7.7128906 -7.7129517c0 -4.232666 -3.386139 -7.7128906 -7.7128906 -7.7128906c-28.312012 0 -56.52997 0 -84.84198 0c0 -5.737671 0 -11.475281 0 -17.307007c0 -19.752563 10.816864 -38.000183 28.217957 -47.406128c22.950592 -12.604065 45.901184 -25.114014 68.85181 -37.623962c11.381226 -6.207947 18.62384 -18.341675 18.62384 -31.415985c0 -10.346588 0 -20.693176 0 -31.039764c-0.4703064 -0.5643616 -0.9406128 -1.1286926 -1.5049438 -1.7871399c-0.09408569 -0.094055176 -0.18814087 -0.18811035 -0.37625122 -0.28216553m-13.544617 33.10907c0 7.430725 -4.044586 14.297089 -10.5346985 17.871368c-6.8663635 3.7623901 -13.638672 7.430725 -20.41098 11.193115c-1.6930847 0.9406128 -3.3861694 1.7871399 -5.079254 2.7277527c-14.485199 7.901001 -28.876373 15.707977 -43.361572 23.608978c-22.386261 12.227783 -36.3071 35.64868 -36.3071 61.04486c0 5.831726 0 11.569336 0 17.307007c-30.851624 0 -61.609207 0 -92.46083 0c0 -4.6089478 0 -9.217834 0 -13.920837c0 -16.64862 9.12381 -31.980347 24.26744 -40.25763c17.024841 -10.722839 34.143707 -21.445618 51.16855 -32.168457c10.346588 -5.643585 16.64859 -16.366425 16.64859 -28.123901c0 -9.217865 0 -18.43573 0 -27.653595c-0.7524719 -0.7524719 -1.598999 -1.5049438 -2.4455566 -2.3515015c-0.18811035 -0.18811035 -20.693146 -19.564423 -26.712982 -45.80713c-0.18814087 -1.034668 -0.37625122 -2.0693054 -0.65841675 -3.1039734c-0.8465576 -0.5643616 -1.7871399 -1.1287231 -2.6336975 -1.6930847c-3.480194 -2.2574463 -5.643585 -6.1138916 -5.643585 -10.252533c0 -8.935669 0 -17.871368 0 -26.712982c0 -2.7277222 1.8811951 -6.0198364 5.1733093 -9.029755c0.8465271 -0.7524719 1.598999 -1.5049438 2.4455566 -2.2574158c0 -13.826813 0 -27.74765 0 -41.574463c0.094055176 -2.1633606 4.138611 -54.366577 69.41614 -54.366577c18.529816 0 34.049683 4.3267517 46.277466 12.604004c0 12.227783 0 24.361511 0 36.49524c-4.8911133 5.643585 -7.712921 12.886169 -7.712921 20.316925c0 10.252502 0 20.59909 0 30.851624c0 2.3515015 0.28219604 4.608917 0.8465576 6.8663635c0.18811035 0.9405823 0.56433105 1.6930847 0.8465271 2.5396118c0.4703064 1.3168335 0.7524719 2.633667 1.4108887 3.8564453c0 0.094055176 0 0 0 0.094055176c1.9752502 4.044586 4.8911133 7.712921 8.465393 10.628784c0.094055176 0.094055176 0.094055176 0.28216553 0.18811035 0.3762207c0.37625122 1.7871399 0.9406128 3.5742798 1.4109192 5.2673645c0.18811035 0.65841675 0.3762207 1.3168335 0.65841675 1.9752502c0.094055176 0.37625122 0.18811035 0.7524719 0.3762207 1.1287231c0.18814087 0.8465271 0.4703064 1.6930847 0.7524719 2.4455566c0.4703064 1.4108887 0.9406128 2.7277222 1.5049744 4.3267517c0.28216553 0.5643616 0.5643616 1.1287231 0.7524719 1.7871399c0.65841675 1.598999 1.3168335 3.1980286 1.9752502 4.703003c0.09408569 0.3762207 0.28219604 0.7524719 0.4703064 1.1286926c0.094055176 0.28219604 0.18811035 0.65841675 0.37625122 1.034668c0.18811035 0.37625122 0.4703064 0.8465271 0.65841675 1.2227783c0.7524719 1.6930847 1.5049438 3.2920837 2.2574158 4.797058c0.09408569 0.28216553 0.18814087 0.5643616 0.37625122 0.7524719c0.4703064 1.034668 0.9406128 1.8811951 1.4108887 2.8218079c0.8465576 1.5049438 1.6930847 3.0099182 2.4455566 4.420807c0.4703064 0.7524719 0.8465576 1.4108887 1.2227783 2.1633606c1.1287231 1.8811951 2.163391 3.5742798 3.198059 5.1733093c0.18811035 0.3762207 0.47027588 0.7524719 0.65841675 1.1287231c1.8811951 2.8217773 3.480194 5.173279 4.7970276 7.054474c0.37625122 0.4703064 0.65844727 0.8465271 1.034668 1.3168335c0.094055176 0.18811035 0.37625122 0.4703064 0.4703064 0.7524719c0 8.559448 0 17.024841 0 25.490234" fill-rule="evenodd"/><path stroke="#ffffff" stroke-width="4.0" stroke-linejoin="round" stroke-linecap="butt" d="m444.0776 436.20578c0 -0.094055176 -0.4703064 -0.65841675 -1.2227783 -1.6930847c-0.094055176 0 -0.094055176 -0.094055176 -0.18811035 -0.18811035c-0.37625122 -0.4703064 -0.8465576 -1.1287231 -1.4109192 -1.8811951l0 -0.094055176c-1.1287231 -1.5990295 -2.633667 -3.668335 -4.2326965 -6.1138916c0 -0.094055176 0 -0.18811035 -0.094055176 -0.18811035c-0.7524719 -1.2227783 -1.5049438 -2.4455566 -2.2574158 -3.7624207c-0.09408569 -0.094055176 -0.09408569 -0.18811035 -0.18814087 -0.28216553c-1.7871399 -2.915863 -3.5742798 -6.207947 -5.455475 -9.876282c0 -0.094055176 0 -0.094055176 0 -0.094055176c-0.9405823 -1.8811951 -1.9752502 -3.950531 -2.9158325 -6.1138916c-0.094055176 -0.37625122 -0.28219604 -0.65841675 -0.37625122 -0.9406128c-0.4703064 -0.9405823 -0.8465271 -1.9752502 -1.3168335 -3.0099182c-0.18811035 -0.3762207 -0.28219604 -0.7524719 -0.4703064 -1.1286926c-0.3762207 -1.034668 -0.7524719 -2.069336 -1.2227783 -3.198059c-0.7524719 -2.1633606 -1.5049438 -4.3267517 -2.2574158 -6.5841675c-0.18814087 -0.4703064 -0.28219604 -0.9406128 -0.37625122 -1.316864c-0.094055176 -0.18811035 -0.094055176 -0.3762207 -0.18811035 -0.47027588c-0.75250244 -2.4455566 -1.4109192 -4.9851685 -1.9752808 -7.524811c-0.28216553 -1.0346375 -0.5643616 -2.0693054 -0.7524719 -3.1039734c-0.9405823 -0.56433105 -1.7871399 -1.1286926 -2.633667 -1.6930542c-4.420807 -2.8218079 -7.1485596 -7.712921 -7.1485596 -12.8862c0 -10.252533 0 -20.599121 0 -30.851624c0 -4.3267517 1.8811951 -8.371338 5.1733093 -11.381256c0.8465271 -0.7524719 1.6930542 -1.5049438 2.5396118 -2.3515015c0 -15.990173 0 -31.980347 0 -48.064575c0 -0.8465271 0 -1.7871399 0 -2.633667c-0.094055176 -0.094055176 -0.18814087 -0.094055176 -0.18814087 -0.094055176c-0.28216553 -5.643585 0.09408569 -22.668427 12.509979 -36.871475c12.698059 -14.579269 34.51996 -22.009995 64.80722 -22.009995c30.099152 0 51.826996 7.33667 64.61911 21.821884c15.049561 17.024826 12.604004 38.75264 12.604004 38.846725c-0.094055176 16.366394 -0.094055176 32.73282 -0.094055176 49.005157c0.8465576 0.8465576 1.6931152 1.5990295 2.5396118 2.3515015c3.2921143 3.0099182 5.17334 7.0545044 5.17334 11.381256c0 10.252502 0 20.59909 0 30.851624c0 6.678253 -4.4208374 12.604004 -11.005005 14.67334c-4.0446167 1.2227783 -6.302063 5.54953 -5.0792847 9.594086c1.2227783 4.044586 5.5495605 6.302002 9.594116 5.0792236c13.074341 -4.0445557 21.8219 -15.802032 21.8219 -29.34665c0 -10.252533 0 -20.599121 0 -30.851624c0 -7.4307556 -2.8217773 -14.67334 -7.6188354 -20.316925c0 -13.638702 0 -27.277374 0 -41.0101c0.3762207 -4.1386414 1.9752197 -29.440735 -16.178284 -50.227966c-15.802063 -18.059479 -41.574463 -27.277344 -76.37662 -27.277344c-34.802124 0 -60.574524 9.217865 -76.37659 27.277344c-11.09906 12.604019 -14.767395 26.807068 -15.896118 37.05957c-13.262421 -6.8663483 -28.876373 -10.346573 -46.55963 -10.346573c-80.04492 0 -84.65384 68.28746 -84.747894 69.41618c0 11.757477 0 23.514954 0 35.27243c-4.9851685 5.455475 -7.712921 11.757477 -7.712921 17.965424c0 8.841614 0 17.777313 0 26.712982c0 8.277283 3.7623901 16.084259 10.158478 21.351593c6.302002 23.891205 21.915924 41.950684 28.029816 48.34677c0 7.054474 0 14.108978 0 21.163452c0 6.1138916 -3.386139 11.663422 -9.12381 14.767395c-17.02481 10.722839 -34.143707 21.445679 -51.16855 32.262512c-19.658493 10.722839 -31.886276 31.227905 -31.886276 53.52008c0 9.782227 0 19.564453 0 29.34668c35.930862 0 71.955765 0 107.88664 0c5.173279 0 10.346588 0 15.425812 0c28.312012 0 56.52997 0 84.84198 0c4.3267517 0 7.7128906 -3.3861694 7.7128906 -7.7129517c0 -4.232666 -3.386139 -7.7128906 -7.7128906 -7.7128906c-28.312012 0 -56.52997 0 -84.84198 0c0 -5.737671 0 -11.475281 0 -17.307007c0 -19.752563 10.816864 -38.000183 28.217957 -47.406128c22.950592 -12.604065 45.901184 -25.114014 68.85181 -37.623962c11.381226 -6.207947 18.62384 -18.341675 18.62384 -31.415985c0 -10.346588 0 -20.693176 0 -31.039764c-0.4703064 -0.5643616 -0.9406128 -1.1286926 -1.5049438 -1.7871399c-0.09408569 -0.094055176 -0.18814087 -0.18811035 -0.37625122 -0.28216553m-13.544617 33.10907c0 7.430725 -4.044586 14.297089 -10.5346985 17.871368c-6.8663635 3.7623901 -13.638672 7.430725 -20.41098 11.193115c-1.6930847 0.9406128 -3.3861694 1.7871399 -5.079254 2.7277527c-14.485199 7.901001 -28.876373 15.707977 -43.361572 23.608978c-22.386261 12.227783 -36.3071 35.64868 -36.3071 61.04486c0 5.831726 0 11.569336 0 17.307007c-30.851624 0 -61.609207 0 -92.46083 0c0 -4.6089478 0 -9.217834 0 -13.920837c0 -16.64862 9.12381 -31.980347 24.26744 -40.25763c17.024841 -10.722839 34.143707 -21.445618 51.16855 -32.168457c10.346588 -5.643585 16.64859 -16.366425 16.64859 -28.123901c0 -9.217865 0 -18.43573 0 -27.653595c-0.7524719 -0.7524719 -1.598999 -1.5049438 -2.4455566 -2.3515015c-0.18811035 -0.18811035 -20.693146 -19.564423 -26.712982 -45.80713c-0.18814087 -1.034668 -0.37625122 -2.0693054 -0.65841675 -3.1039734c-0.8465576 -0.5643616 -1.7871399 -1.1287231 -2.6336975 -1.6930847c-3.480194 -2.2574463 -5.643585 -6.1138916 -5.643585 -10.252533c0 -8.935669 0 -17.871368 0 -26.712982c0 -2.7277222 1.8811951 -6.0198364 5.1733093 -9.029755c0.8465271 -0.7524719 1.598999 -1.5049438 2.4455566 -2.2574158c0 -13.826813 0 -27.74765 0 -41.574463c0.094055176 -2.1633606 4.138611 -54.366577 69.41614 -54.366577c18.529816 0 34.049683 4.3267517 46.277466 12.604004c0 12.227783 0 24.361511 0 36.49524c-4.8911133 5.643585 -7.712921 12.886169 -7.712921 20.316925c0 10.252502 0 20.59909 0 30.851624c0 2.3515015 0.28219604 4.608917 0.8465576 6.8663635c0.18811035 0.9405823 0.56433105 1.6930847 0.8465271 2.5396118c0.4703064 1.3168335 0.7524719 2.633667 1.4108887 3.8564453c0 0.094055176 0 0 0 0.094055176c1.9752502 4.044586 4.8911133 7.712921 8.465393 10.628784c0.094055176 0.094055176 0.094055176 0.28216553 0.18811035 0.3762207c0.37625122 1.7871399 0.9406128 3.5742798 1.4109192 5.2673645c0.18811035 0.65841675 0.3762207 1.3168335 0.65841675 1.9752502c0.094055176 0.37625122 0.18811035 0.7524719 0.3762207 1.1287231c0.18814087 0.8465271 0.4703064 1.6930847 0.7524719 2.4455566c0.4703064 1.4108887 0.9406128 2.7277222 1.5049744 4.3267517c0.28216553 0.5643616 0.5643616 1.1287231 0.7524719 1.7871399c0.65841675 1.598999 1.3168335 3.1980286 1.9752502 4.703003c0.09408569 0.3762207 0.28219604 0.7524719 0.4703064 1.1286926c0.094055176 0.28219604 0.18811035 0.65841675 0.37625122 1.034668c0.18811035 0.37625122 0.4703064 0.8465271 0.65841675 1.2227783c0.7524719 1.6930847 1.5049438 3.2920837 2.2574158 4.797058c0.09408569 0.28216553 0.18814087 0.5643616 0.37625122 0.7524719c0.4703064 1.034668 0.9406128 1.8811951 1.4108887 2.8218079c0.8465576 1.5049438 1.6930847 3.0099182 2.4455566 4.420807c0.4703064 0.7524719 0.8465576 1.4108887 1.2227783 2.1633606c1.1287231 1.8811951 2.163391 3.5742798 3.198059 5.1733093c0.18811035 0.3762207 0.47027588 0.7524719 0.65841675 1.1287231c1.8811951 2.8217773 3.480194 5.173279 4.7970276 7.054474c0.37625122 0.4703064 0.65844727 0.8465271 1.034668 1.3168335c0.094055176 0.18811035 0.37625122 0.4703064 0.4703064 0.7524719c0 8.559448 0 17.024841 0 25.490234" fill-rule="evenodd"/><path fill="#3f51b4" d="m728.22833 432.46524c-62.04126 0 -124.08246 0 -186.12372 0c0 62.040894 0 123.98721 0 186.0281c62.04126 0 124.08246 0 186.12372 0c0 -62.040894 0 -123.98721 0 -186.0281m-170.6134 170.51791c0 -23.26532 0 -46.5307 0 -69.79602c32.533813 0 65.06763 0 97.60144 0c-11.065247 11.15979 -22.225159 22.225037 -33.290405 33.290222c3.593872 3.6884155 7.2822876 7.2822266 10.970703 10.970642c17.307251 -17.307129 34.709045 -34.614258 52.016296 -52.01599c-17.307251 -17.307129 -34.709045 -34.614258 -52.016296 -51.921417c-3.6884155 3.5938416 -7.376831 7.282257 -10.970703 10.970642c11.065247 11.065247 22.225159 22.130463 33.290405 33.19565c-32.533813 0 -65.06763 0 -97.60144 0c0 -23.170746 0 -46.436066 0 -69.701416c51.732544 0 103.370544 0 155.10309 0c0 51.637695 0 103.369995 0 155.00769c-51.732544 0 -103.370544 0 -155.10309 0" fill-rule="evenodd"/><path stroke="#ffffff" stroke-width="4.0" stroke-linejoin="round" stroke-linecap="butt" d="m728.22833 432.46524c-62.04126 0 -124.08246 0 -186.12372 0c0 62.040894 0 123.98721 0 186.0281c62.04126 0 124.08246 0 186.12372 0c0 -62.040894 0 -123.98721 0 -186.0281m-170.6134 170.51791c0 -23.26532 0 -46.5307 0 -69.79602c32.533813 0 65.06763 0 97.60144 0c-11.065247 11.15979 -22.225159 22.225037 -33.290405 33.290222c3.593872 3.6884155 7.2822876 7.2822266 10.970703 10.970642c17.307251 -17.307129 34.709045 -34.614258 52.016296 -52.01599c-17.307251 -17.307129 -34.709045 -34.614258 -52.016296 -51.921417c-3.6884155 3.5938416 -7.376831 7.282257 -10.970703 10.970642c11.065247 11.065247 22.225159 22.130463 33.290405 33.19565c-32.533813 0 -65.06763 0 -97.60144 0c0 -23.170746 0 -46.436066 0 -69.701416c51.732544 0 103.370544 0 155.10309 0c0 51.637695 0 103.369995 0 155.00769c-51.732544 0 -103.370544 0 -155.10309 0" fill-rule="evenodd"/></g></svg>