<svg version="1.1" viewBox="0.0 0.0 944.8818897637796 944.8818897637796" fill="none" stroke="none" stroke-linecap="square" stroke-miterlimit="10" xmlns:xlink="http://www.w3.org/1999/xlink" xmlns="http://www.w3.org/2000/svg"><clipPath id="g31a624ce75d_0_77.0"><path d="m0 0l944.8819 0l0 944.8819l-944.8819 0l0 -944.8819z" clip-rule="nonzero"/></clipPath><g clip-path="url(#g31a624ce75d_0_77.0)"><path fill="#ffffff" d="m0 0l944.8819 0l0 944.8819l-944.8819 0z" fill-rule="evenodd"/><path fill="#000000" fill-opacity="0.0" d="m3.1338582 701.12286l944.8819 0l0 164.81891l-944.8819 0z" fill-rule="evenodd"/><path fill="#3f51b4" d="m375.94003 740.0104l0 85.3125l-10.84375 0l-34.15625 -65.796875l0 65.796875l-10.78125 0l0 -85.3125l10.78125 0l34.328125 65.96875l0 -65.96875l10.671875 0zm74.05859 35.265625l0 14.828125q0 9.03125 -1.96875 15.859375q-1.953125 6.8125 -5.703125 11.390625q-3.75 4.5625 -9.03125 6.859375q-5.265625 2.28125 -11.890625 2.28125q-6.390625 0 -11.671875 -2.28125q-5.265625 -2.296875 -9.078125 -6.859375q-3.796875 -4.578125 -5.875 -11.390625q-2.078125 -6.828125 -2.078125 -15.859375l0 -14.828125q0 -9.015625 2.046875 -15.84375q2.046875 -6.828125 5.859375 -11.390625q3.8125 -4.578125 9.078125 -6.890625q5.28125 -2.3125 11.65625 -2.3125q6.625 0 11.921875 2.3125q5.3125 2.3125 9.03125 6.890625q3.71875 4.5625 5.703125 11.390625q2.0 6.828125 2.0 15.84375zm-10.65625 14.828125l0 -14.9375q0 -7.03125 -1.171875 -12.09375q-1.171875 -5.078125 -3.46875 -8.296875q-2.28125 -3.21875 -5.625 -4.765625q-3.328125 -1.5625 -7.734375 -1.5625q-4.15625 0 -7.46875 1.5625q-3.3125 1.546875 -5.65625 4.765625q-2.34375 3.21875 -3.609375 8.296875q-1.25 5.0625 -1.25 12.09375l0 14.9375q0 7.09375 1.25 12.171875q1.265625 5.0625 3.640625 8.3125q2.375 3.25 5.71875 4.8125q3.34375 1.546875 7.4375 1.546875q4.390625 0 7.765625 -1.546875q3.375 -1.5625 5.625 -4.8125q2.25 -3.25 3.390625 -8.3125q1.15625 -5.078125 1.15625 -12.171875zm53.140625 -50.09375l0 85.3125l-10.671875 0l0 -85.3125l10.671875 0zm22.43753 0l0 9.25l-55.484406 0l0 -9.25l55.484406 0zm58.4765 76.109375l0 9.203125l-37.03125 0l0 -9.203125l37.03125 0zm-35.09375 -76.109375l0 85.3125l-10.78125 0l0 -85.3125l10.78125 0zm30.109375 36.671875l0 9.203125l-32.046875 0l0 -9.203125l32.046875 0zm4.40625 -36.671875l0 9.25l-36.453125 0l0 -9.25l36.453125 0zm51.679688 63.75q0 -2.984375 -0.703125 -5.296875q-0.703125 -2.328125 -2.46875 -4.203125q-1.75 -1.875 -4.921875 -3.5625q-3.15625 -1.703125 -8.03125 -3.46875q-5.265625 -1.875 -9.546875 -4.1875q-4.28125 -2.3125 -7.296875 -5.296875q-3.015625 -2.984375 -4.65625 -6.84375q-1.640625 -3.875 -1.640625 -8.859375q0 -4.984375 1.71875 -9.203125q1.734375 -4.21875 4.921875 -7.34375q3.203125 -3.140625 7.71875 -4.890625q4.515625 -1.765625 10.078125 -1.765625q8.3125 0 14.03125 3.671875q5.71875 3.65625 8.640625 9.546875q2.9375 5.875 2.9375 12.5625l-10.78125 0q0 -4.8125 -1.5625 -8.53125q-1.546875 -3.71875 -4.796875 -5.859375q-3.25 -2.140625 -8.46875 -2.140625q-4.6875 0 -7.703125 1.828125q-3.015625 1.8125 -4.453125 4.921875q-1.4375 3.09375 -1.4375 7.078125q0 2.703125 0.9375 4.90625q0.9375 2.1875 2.890625 4.0625q1.96875 1.875 4.921875 3.46875q2.96875 1.578125 7.015625 3.03125q6.265625 2.0625 10.71875 4.578125q4.453125 2.515625 7.265625 5.65625q2.8125 3.125 4.125 7.09375q1.328125 3.953125 1.328125 8.921875q0 5.21875 -1.734375 9.4375q-1.734375 4.21875 -5.015625 7.21875q-3.28125 2.984375 -7.90625 4.59375q-4.625 1.609375 -10.421875 1.609375q-5.046875 0 -9.890625 -1.640625q-4.828125 -1.640625 -8.75 -4.921875q-3.921875 -3.28125 -6.265625 -8.109375q-2.34375 -4.84375 -2.34375 -11.234375l10.78125 0q0 4.40625 1.28125 7.546875q1.296875 3.125 3.578125 5.171875q2.28125 2.046875 5.234375 3.015625q2.96875 0.96875 6.375 0.96875q4.6875 0 7.875 -1.640625q3.1875 -1.640625 4.796875 -4.6875q1.625 -3.046875 1.625 -7.203125z" fill-rule="nonzero"/><path fill="#f9fbfd" d="m409.388 449.2585l-85.79529 40.629944l40.629913 -85.79529z" fill-rule="evenodd"/><path stroke="#3f51b4" stroke-width="8.0" stroke-linejoin="round" stroke-linecap="butt" d="m409.388 449.2585l-85.79529 40.629944l40.629913 -85.79529z" fill-rule="evenodd"/><path fill="#f9fbfd" d="m424.05615 434.59036l-45.165375 -45.165344l219.81107 -219.81102l45.165344 45.16536z" fill-rule="evenodd"/><path stroke="#3f51b4" stroke-width="8.0" stroke-linejoin="round" stroke-linecap="butt" d="m424.05615 434.59036l-45.165375 -45.165344l219.81107 -219.81102l45.165344 45.16536z" fill-rule="evenodd"/><path fill="#000000" fill-opacity="0.0" d="m423.05298 407.68594l190.11023 -190.11023" fill-rule="evenodd"/><path stroke="#3f51b4" stroke-width="8.0" stroke-linejoin="round" stroke-linecap="butt" d="m423.05298 407.68594l190.11023 -190.11023" fill-rule="evenodd"/><path fill="#000000" fill-opacity="0.0" d="m406.08127 390.71423l190.1102 -190.11024" fill-rule="evenodd"/><path stroke="#3f51b4" stroke-width="8.0" stroke-linejoin="round" stroke-linecap="butt" d="m406.08127 390.71423l190.1102 -190.11024" fill-rule="evenodd"/><path fill="#000000" fill-opacity="0.0" d="m224.09448 522.8845l496.69293 0" fill-rule="evenodd"/><path stroke="#3f51b4" stroke-width="8.0" stroke-linejoin="round" stroke-linecap="butt" d="m224.09448 522.8845l496.69293 0" fill-rule="evenodd"/></g></svg>