<svg version="1.1" viewBox="0.0 0.0 944.8818897637796 944.8818897637796" fill="none" stroke="none" stroke-linecap="square" stroke-miterlimit="10" xmlns:xlink="http://www.w3.org/1999/xlink" xmlns="http://www.w3.org/2000/svg"><clipPath id="g31a624ce75d_0_57.0"><path d="m0 0l944.8819 0l0 944.8819l-944.8819 0l0 -944.8819z" clip-rule="nonzero"/></clipPath><g clip-path="url(#g31a624ce75d_0_57.0)"><path fill="#ffffff" d="m0 0l944.8819 0l0 944.8819l-944.8819 0z" fill-rule="evenodd"/><path fill="#000000" fill-opacity="0.0" d="m3.1338582 701.12286l944.8819 0l0 164.81891l-944.8819 0z" fill-rule="evenodd"/><path fill="#3f51b4" d="m262.47714 740.0104l23.84375 0q8.3125 0 13.96875 2.9375q5.65625 2.921875 8.546875 8.640625q2.90625 5.703125 2.90625 14.03125q0 5.859375 -1.9375 10.6875q-1.921875 4.828125 -5.625 8.203125q-3.6875 3.375 -8.953125 5.015625l-2.9375 1.21875l-21.265625 0l-0.109375 -9.1875l15.28125 0q4.921875 0 8.203125 -2.140625q3.28125 -2.140625 4.921875 -5.765625q1.640625 -3.640625 1.640625 -8.03125q0 -4.921875 -1.46875 -8.609375q-1.453125 -3.703125 -4.65625 -5.71875q-3.1875 -2.03125 -8.515625 -2.03125l-13.0625 0l0 76.0625l-10.78125 0l0 -85.3125zm40.953125 85.3125l-17.0 -38.671875l11.203125 -0.0625l17.34375 38.03125l0 0.703125l-11.546875 0zm68.55078 -9.203125l0 9.203125l-37.03125 0l0 -9.203125l37.03125 0zm-35.09375 -76.109375l0 85.3125l-10.78125 0l0 -85.3125l10.78125 0zm30.109375 36.671875l0 9.203125l-32.046875 0l0 -9.203125l32.046875 0zm4.40625 -36.671875l0 9.25l-36.453125 0l0 -9.25l36.453125 0zm41.539062 51.859375l-18.640625 0l0 -9.203125l18.640625 0q5.265625 0 8.515625 -2.109375q3.265625 -2.109375 4.75 -5.859375q1.5 -3.75 1.5 -8.5625q0 -4.390625 -1.5 -8.25q-1.484375 -3.875 -4.75 -6.25q-3.25 -2.375 -8.515625 -2.375l-16.40625 0l0 76.0625l-10.78125 0l0 -85.3125l27.1875 0q8.265625 0 13.9375 3.34375q5.6875 3.328125 8.640625 9.21875q2.96875 5.890625 2.96875 13.453125q0 8.203125 -2.96875 14.0q-2.953125 5.796875 -8.640625 8.828125q-5.671875 3.015625 -13.9375 3.015625zm94.80078 -16.59375l0 14.828125q0 9.03125 -1.96875 15.859375q-1.953125 6.8125 -5.703125 11.390625q-3.75 4.5625 -9.03125 6.859375q-5.265625 2.28125 -11.890625 2.28125q-6.390625 0 -11.671875 -2.28125q-5.265625 -2.296875 -9.078125 -6.859375q-3.796875 -4.578125 -5.875 -11.390625q-2.078125 -6.828125 -2.078125 -15.859375l0 -14.828125q0 -9.015625 2.046875 -15.84375q2.046875 -6.828125 5.859375 -11.390625q3.8125 -4.578125 9.078125 -6.890625q5.28125 -2.3125 11.65625 -2.3125q6.625 0 11.921875 2.3125q5.3125 2.3125 9.03125 6.890625q3.71875 4.5625 5.703125 11.390625q2.0 6.828125 2.0 15.84375zm-10.65625 14.828125l0 -14.9375q0 -7.03125 -1.171875 -12.09375q-1.171875 -5.078125 -3.46875 -8.296875q-2.28125 -3.21875 -5.625 -4.765625q-3.328125 -1.5625 -7.734375 -1.5625q-4.15625 0 -7.46875 1.5625q-3.3125 1.546875 -5.65625 4.765625q-2.34375 3.21875 -3.609375 8.296875q-1.25 5.0625 -1.25 12.09375l0 14.9375q0 7.09375 1.25 12.171875q1.265625 5.0625 3.640625 8.3125q2.375 3.25 5.71875 4.8125q3.34375 1.546875 7.4375 1.546875q4.390625 0 7.765625 -1.546875q3.375 -1.5625 5.625 -4.8125q2.25 -3.25 3.390625 -8.3125q1.15625 -5.078125 1.15625 -12.171875zm27.36325 -50.09375l23.84375 0q8.3125 0 13.96875 2.9375q5.65625 2.921875 8.546875 8.640625q2.90625 5.703125 2.90625 14.03125q0 5.859375 -1.9375 10.6875q-1.921875 4.828125 -5.625 8.203125q-3.6875 3.375 -8.953125 5.015625l-2.9375 1.21875l-21.265625 0l-0.109375 -9.1875l15.28125 0q4.921875 0 8.203125 -2.140625q3.28125 -2.140625 4.921875 -5.765625q1.640625 -3.640625 1.640625 -8.03125q0 -4.921875 -1.46875 -8.609375q-1.453125 -3.703125 -4.65625 -5.71875q-3.1875 -2.03125 -8.515625 -2.03125l-13.0625 0l0 76.0625l-10.78125 0l0 -85.3125zm40.953125 85.3125l-17.0 -38.671875l11.203125 -0.0625l17.34375 38.03125l0 0.703125l-11.546875 0zm45.410156 -85.3125l0 85.3125l-10.671875 0l0 -85.3125l10.671875 0zm22.4375 0l0 9.25l-55.484375 0l0 -9.25l55.484375 0zm48.992188 63.75q0 -2.984375 -0.703125 -5.296875q-0.703125 -2.328125 -2.46875 -4.203125q-1.75 -1.875 -4.921875 -3.5625q-3.15625 -1.703125 -8.03125 -3.46875q-5.265625 -1.875 -9.546875 -4.1875q-4.28125 -2.3125 -7.296875 -5.296875q-3.015625 -2.984375 -4.65625 -6.84375q-1.640625 -3.875 -1.640625 -8.859375q0 -4.984375 1.71875 -9.203125q1.734375 -4.21875 4.921875 -7.34375q3.203125 -3.140625 7.71875 -4.890625q4.515625 -1.765625 10.078125 -1.765625q8.3125 0 14.03125 3.671875q5.71875 3.65625 8.640625 9.546875q2.9375 5.875 2.9375 12.5625l-10.78125 0q0 -4.8125 -1.5625 -8.53125q-1.546875 -3.71875 -4.796875 -5.859375q-3.25 -2.140625 -8.46875 -2.140625q-4.6875 0 -7.703125 1.828125q-3.015625 1.8125 -4.453125 4.921875q-1.4375 3.09375 -1.4375 7.078125q0 2.703125 0.9375 4.90625q0.9375 2.1875 2.890625 4.0625q1.96875 1.875 4.921875 3.46875q2.96875 1.578125 7.015625 3.03125q6.265625 2.0625 10.71875 4.578125q4.453125 2.515625 7.265625 5.65625q2.8125 3.125 4.125 7.09375q1.328125 3.953125 1.328125 8.921875q0 5.21875 -1.734375 9.4375q-1.734375 4.21875 -5.015625 7.21875q-3.28125 2.984375 -7.90625 4.59375q-4.625 1.609375 -10.421875 1.609375q-5.046875 0 -9.890625 -1.640625q-4.828125 -1.640625 -8.75 -4.921875q-3.921875 -3.28125 -6.265625 -8.109375q-2.34375 -4.84375 -2.34375 -11.234375l10.78125 0q0 4.40625 1.28125 7.546875q1.296875 3.125 3.578125 5.171875q2.28125 2.046875 5.234375 3.015625q2.96875 0.96875 6.375 0.96875q4.6875 0 7.875 -1.640625q3.1875 -1.640625 4.796875 -4.6875q1.625 -3.046875 1.625 -7.203125z" fill-rule="nonzero"/><path fill="#000000" fill-opacity="0.0" d="m310.2049 157.84776l324.4724 0l0 431.2126l-324.4724 0z" fill-rule="evenodd"/><path stroke="#3f51b4" stroke-width="8.0" stroke-linejoin="round" stroke-linecap="butt" d="m310.2049 157.84776l324.4724 0l0 431.2126l-324.4724 0z" fill-rule="evenodd"/><path fill="#ffffff" d="m472.44095 406.01312l237.5433 0l0 101.85828l-237.5433 0z" fill-rule="evenodd"/><path stroke="#3f51b4" stroke-width="8.0" stroke-linejoin="round" stroke-linecap="butt" d="m472.44095 406.01312l237.5433 0l0 101.85828l-237.5433 0z" fill-rule="evenodd"/><path fill="#3f51b4" d="m521.571 476.14227l13.046875 -19.921875l-11.828125 -18.25l9.015625 0l7.65625 12.265625l7.5 -12.265625l8.921875 0l-11.859375 18.53125l13.03125 19.640625l-9.28125 0l-8.46875 -13.203125l-8.484375 13.203125l-9.25 0zm39.663147 0l0 -37.859375l7.703125 0l0 31.421875l19.15625 0l0 6.4375l-26.859375 0zm30.403076 -12.421875l7.5 -0.734375q0.6875 3.78125 2.75 5.5625q2.078125 1.765625 5.59375 1.765625q3.71875 0 5.609375 -1.578125q1.890625 -1.578125 1.890625 -3.6875q0 -1.359375 -0.796875 -2.296875q-0.796875 -0.953125 -2.78125 -1.65625q-1.34375 -0.46875 -6.171875 -1.671875q-6.1875 -1.53125 -8.6875 -3.78125q-3.515625 -3.140625 -3.515625 -7.671875q0 -2.921875 1.640625 -5.453125q1.65625 -2.546875 4.765625 -3.875q3.125 -1.328125 7.515625 -1.328125q7.1875 0 10.8125 3.15625q3.640625 3.15625 3.828125 8.40625l-7.703125 0.34375q-0.5 -2.9375 -2.125 -4.21875q-1.625 -1.296875 -4.890625 -1.296875q-3.359375 0 -5.25 1.375q-1.234375 0.890625 -1.234375 2.375q0 1.34375 1.15625 2.3125q1.453125 1.21875 7.078125 2.546875q5.625 1.328125 8.3125 2.75q2.703125 1.421875 4.21875 3.890625q1.53125 2.453125 1.53125 6.0625q0 3.28125 -1.828125 6.15625q-1.828125 2.859375 -5.15625 4.25q-3.328125 1.390625 -8.296875 1.390625q-7.25 0 -11.125 -3.34375q-3.875 -3.34375 -4.640625 -9.75zm33.647583 12.421875l13.046875 -19.921875l-11.828125 -18.25l9.015625 0l7.65625 12.265625l7.5 -12.265625l8.921875 0l-11.859375 18.53125l13.03125 19.640625l-9.28125 0l-8.46875 -13.203125l-8.484375 13.203125l-9.25 0z" fill-rule="nonzero"/></g></svg>