<svg version="1.1" viewBox="0.0 0.0 944.8818897637796 944.8818897637796" fill="none" stroke="none" stroke-linecap="square" stroke-miterlimit="10" xmlns:xlink="http://www.w3.org/1999/xlink" xmlns="http://www.w3.org/2000/svg"><clipPath id="g31a624ce75d_0_63.0"><path d="m0 0l944.8819 0l0 944.8819l-944.8819 0l0 -944.8819z" clip-rule="nonzero"/></clipPath><g clip-path="url(#g31a624ce75d_0_63.0)"><path fill="#ffffff" d="m0 0l944.8819 0l0 944.8819l-944.8819 0z" fill-rule="evenodd"/><path fill="#000000" fill-opacity="0.0" d="m3.1338582 701.12286l944.8819 0l0 164.81891l-944.8819 0z" fill-rule="evenodd"/><path fill="#3f51b4" d="m286.2955 803.7604q0 -2.984375 -0.703125 -5.296875q-0.703125 -2.328125 -2.46875 -4.203125q-1.75 -1.875 -4.921875 -3.5625q-3.15625 -1.703125 -8.03125 -3.46875q-5.265625 -1.875 -9.546875 -4.1875q-4.28125 -2.3125 -7.2968597 -5.296875q-3.015625 -2.984375 -4.65625 -6.84375q-1.640625 -3.875 -1.640625 -8.859375q0 -4.984375 1.71875 -9.203125q1.734375 -4.21875 4.921875 -7.34375q3.2031097 -3.140625 7.7187347 -4.890625q4.515625 -1.765625 10.078125 -1.765625q8.3125 0 14.03125 3.671875q5.71875 3.65625 8.640625 9.546875q2.9375 5.875 2.9375 12.5625l-10.78125 0q0 -4.8125 -1.5625 -8.53125q-1.546875 -3.71875 -4.796875 -5.859375q-3.25 -2.140625 -8.46875 -2.140625q-4.6875 0 -7.703125 1.828125q-3.015625 1.8125 -4.453125 4.921875q-1.4375 3.09375 -1.4375 7.078125q0 2.703125 0.9375 4.90625q0.9375 2.1875 2.890625 4.0625q1.96875 1.875 4.921875 3.46875q2.96875 1.578125 7.015625 3.03125q6.265625 2.0625 10.71875 4.578125q4.453125 2.515625 7.265625 5.65625q2.8125 3.125 4.125 7.09375q1.328125 3.953125 1.328125 8.921875q0 5.21875 -1.734375 9.4375q-1.734375 4.21875 -5.015625 7.21875q-3.28125 2.984375 -7.90625 4.59375q-4.625 1.609375 -10.421875 1.609375q-5.046875 0 -9.890625 -1.640625q-4.828125 -1.640625 -8.749985 -4.921875q-3.921875 -3.28125 -6.265625 -8.109375q-2.34375 -4.84375 -2.34375 -11.234375l10.78125 0q0 4.40625 1.2812347 7.546875q1.296875 3.125 3.578125 5.171875q2.28125 2.046875 5.234375 3.015625q2.96875 0.96875 6.375 0.96875q4.6875 0 7.875 -1.640625q3.1875 -1.640625 4.796875 -4.6875q1.625 -3.046875 1.625 -7.203125zm70.77344 12.359375l0 9.203125l-37.03125 0l0 -9.203125l37.03125 0zm-35.09375 -76.109375l0 85.3125l-10.78125 0l0 -85.3125l10.78125 0zm30.109375 36.671875l0 9.203125l-32.046875 0l0 -9.203125l32.046875 0zm4.40625 -36.671875l0 9.25l-36.453125 0l0 -9.25l36.453125 0zm14.4140625 0l23.84375 0q8.3125 0 13.96875 2.9375q5.65625 2.921875 8.546875 8.640625q2.90625 5.703125 2.90625 14.03125q0 5.859375 -1.9375 10.6875q-1.921875 4.828125 -5.625 8.203125q-3.6875 3.375 -8.953125 5.015625l-2.9375 1.21875l-21.265625 0l-0.109375 -9.1875l15.28125 0q4.921875 0 8.203125 -2.140625q3.28125 -2.140625 4.921875 -5.765625q1.640625 -3.640625 1.640625 -8.03125q0 -4.921875 -1.46875 -8.609375q-1.453125 -3.703125 -4.65625 -5.71875q-3.1875 -2.03125 -8.515625 -2.03125l-13.0625 0l0 76.0625l-10.78125 0l0 -85.3125zm40.953125 85.3125l-17.0 -38.671875l11.203125 -0.0625l17.34375 38.03125l0 0.703125l-11.546875 0zm45.0 -12.953125l20.5 -72.359375l11.71875 0l-26.484375 85.3125l-8.25 0l2.515625 -12.953125zm-18.40625 -72.359375l20.34375 72.359375l2.6875 12.953125l-8.265625 0l-26.484375 -85.3125l11.71875 0zm73.484375 0l0 85.3125l-10.78125 0l0 -85.3125l10.78125 0zm61.46872 58.1875l10.78125 0q-0.421875 8.78125 -3.5625 15.140625q-3.125 6.359375 -9.078125 9.765625q-5.9375 3.390625 -14.84375 3.390625q-6.390625 0 -11.546875 -2.515625q-5.15625 -2.53125 -8.828125 -7.234375q-3.65625 -4.71875 -5.59375 -11.34375q-1.921875 -6.625 -1.921875 -14.890625l0 -15.75q0 -8.203125 1.953125 -14.828125q1.96875 -6.625 5.6875 -11.34375q3.71875 -4.71875 9.078125 -7.234375q5.375 -2.515625 12.171875 -2.515625q8.3125 0 14.078125 3.3125q5.78125 3.3125 8.90625 9.671875q3.140625 6.34375 3.5 15.546875l-10.78125 0q-0.421875 -6.734375 -2.125 -10.984375q-1.6875 -4.25 -5.0 -6.265625q-3.3125 -2.03125 -8.578125 -2.03125q-4.6875 0 -8.125 1.875q-3.421875 1.875 -5.625 5.375q-2.1875 3.484375 -3.28125 8.375q-1.078125 4.890625 -1.078125 10.921875l0 15.875q0 5.625 0.90625 10.5q0.90625 4.859375 2.921875 8.53125q2.03125 3.65625 5.3125 5.703125q3.28125 2.046875 7.96875 2.046875q5.921875 0 9.375 -1.921875q3.453125 -1.9375 5.125 -6.15625q1.671875 -4.21875 2.203125 -11.015625zm71.18359 17.921875l0 9.203125l-37.03125 0l0 -9.203125l37.03125 0zm-35.09375 -76.109375l0 85.3125l-10.78125 0l0 -85.3125l10.78125 0zm30.109375 36.671875l0 9.203125l-32.046875 0l0 -9.203125l32.046875 0zm4.40625 -36.671875l0 9.25l-36.453125 0l0 -9.25l36.453125 0zm51.679688 63.75q0 -2.984375 -0.703125 -5.296875q-0.703125 -2.328125 -2.46875 -4.203125q-1.75 -1.875 -4.921875 -3.5625q-3.15625 -1.703125 -8.03125 -3.46875q-5.265625 -1.875 -9.546875 -4.1875q-4.28125 -2.3125 -7.296875 -5.296875q-3.015625 -2.984375 -4.65625 -6.84375q-1.640625 -3.875 -1.640625 -8.859375q0 -4.984375 1.71875 -9.203125q1.734375 -4.21875 4.921875 -7.34375q3.203125 -3.140625 7.71875 -4.890625q4.515625 -1.765625 10.078125 -1.765625q8.3125 0 14.03125 3.671875q5.71875 3.65625 8.640625 9.546875q2.9375 5.875 2.9375 12.5625l-10.78125 0q0 -4.8125 -1.5625 -8.53125q-1.546875 -3.71875 -4.796875 -5.859375q-3.25 -2.140625 -8.46875 -2.140625q-4.6875 0 -7.703125 1.828125q-3.015625 1.8125 -4.453125 4.921875q-1.4375 3.09375 -1.4375 7.078125q0 2.703125 0.9375 4.90625q0.9375 2.1875 2.890625 4.0625q1.96875 1.875 4.921875 3.46875q2.96875 1.578125 7.015625 3.03125q6.265625 2.0625 10.71875 4.578125q4.453125 2.515625 7.265625 5.65625q2.8125 3.125 4.125 7.09375q1.328125 3.953125 1.328125 8.921875q0 5.21875 -1.734375 9.4375q-1.734375 4.21875 -5.015625 7.21875q-3.28125 2.984375 -7.90625 4.59375q-4.625 1.609375 -10.421875 1.609375q-5.046875 0 -9.890625 -1.640625q-4.828125 -1.640625 -8.75 -4.921875q-3.921875 -3.28125 -6.265625 -8.109375q-2.34375 -4.84375 -2.34375 -11.234375l10.78125 0q0 4.40625 1.28125 7.546875q1.296875 3.125 3.578125 5.171875q2.28125 2.046875 5.234375 3.015625q2.96875 0.96875 6.375 0.96875q4.6875 0 7.875 -1.640625q3.1875 -1.640625 4.796875 -4.6875q1.625 -3.046875 1.625 -7.203125z" fill-rule="nonzero"/><path fill="#3f51b4" d="m662.9877 447.88446c-14.960876 21.44394 -29.838684 42.887848 -44.716553 64.33179c-10.555725 -8.6440735 -21.028381 -17.288116 -31.584167 -25.93219c-3.4077759 -2.8259583 -8.477844 -2.32724 -11.220703 1.0805054c-2.8259277 3.4077454 -2.3272095 8.477844 1.0805054 11.220673c12.716797 10.472595 25.516724 20.862091 38.23352 31.334747c1.4960938 1.1635742 3.241516 1.8285522 5.0700684 1.8285522c0.41558838 0 0.7480469 0 1.0805054 -0.08312988c2.2441406 -0.3324585 4.2389526 -1.4960938 5.485718 -3.324646c16.5401 -23.77118 33.08026 -47.54236 49.62036 -71.31354c2.4935303 -3.5740051 1.5792236 -8.560944 -1.994751 -11.137543c-3.6571045 -2.4934998 -8.560974 -1.5792236 -11.054504 1.9947815" fill-rule="evenodd"/><path stroke="#ffffff" stroke-width="4.0" stroke-linejoin="round" stroke-linecap="butt" d="m662.9877 447.88446c-14.960876 21.44394 -29.838684 42.887848 -44.716553 64.33179c-10.555725 -8.6440735 -21.028381 -17.288116 -31.584167 -25.93219c-3.4077759 -2.8259583 -8.477844 -2.32724 -11.220703 1.0805054c-2.8259277 3.4077454 -2.3272095 8.477844 1.0805054 11.220673c12.716797 10.472595 25.516724 20.862091 38.23352 31.334747c1.4960938 1.1635742 3.241516 1.8285522 5.0700684 1.8285522c0.41558838 0 0.7480469 0 1.0805054 -0.08312988c2.2441406 -0.3324585 4.2389526 -1.4960938 5.485718 -3.324646c16.5401 -23.77118 33.08026 -47.54236 49.62036 -71.31354c2.4935303 -3.5740051 1.5792236 -8.560944 -1.994751 -11.137543c-3.6571045 -2.4934998 -8.560974 -1.5792236 -11.054504 1.9947815" fill-rule="evenodd"/><path fill="#3f51b4" d="m629.57465 388.37292c0 -71.978485 0 -144.04005 0 -216.01852c0 -4.4051514 -3.5740356 -7.979141 -7.979187 -7.979141c-21.277771 0 -42.555542 0 -63.91638 0c0 -5.402542 0 -10.721954 0 -16.041382c0 -4.4051514 -3.6571655 -7.979141 -8.062317 -7.979141c-15.958313 0 -31.916626 0 -47.87497 0c0 -5.3194275 0 -10.638855 0 -15.958275c0 -4.4051514 -3.5739746 -7.9791336 -7.9791565 -7.9791336c-23.93747 0 -47.95807 0 -71.89557 0c-4.4051514 0 -7.9791565 3.5739822 -7.9791565 7.9791336c0 5.31942 0 10.638847 0 15.958275c-15.9583435 0 -31.916656 0 -47.87497 0c-4.405182 0 -8.062286 3.5739899 -8.062286 7.979141c0 5.3194275 0 10.63884 0 16.041382c-21.36087 0 -42.63864 0 -63.916412 0c-4.4051514 0 -7.9791565 3.5739899 -7.9791565 7.979141c0 133.06873 0 266.22058 0 399.3724c0 4.4051514 3.5740051 7.979187 7.9791565 7.979187c90.8461 0 181.60907 0 272.45514 0c15.958313 10.057007 34.825745 15.958252 55.10608 15.958252c57.26715 0 103.812256 -46.544983 103.812256 -103.81189c0 -54.60724 -42.306213 -99.40677 -95.83307 -103.47943m-199.72842 -255.99733c18.618042 0 37.319214 0 55.937256 0c0 5.3194275 0 10.638855 0 15.958282c0 5.3194275 0 10.63884 0 16.041382c-18.618042 0 -37.319214 0 -55.937256 0c0 -5.402542 0 -10.721954 0 -16.041382c0 -5.3194275 0 -10.638855 0 -15.958282m-55.937256 23.937408c13.381744 0 26.680328 0 39.978943 0c0 5.3194275 0 10.638855 0 16.041397c0 4.4051514 3.5740051 7.979141 7.9791565 7.979141c23.9375 0 47.9581 0 71.89557 0c4.405182 0 7.9791565 -3.5739899 7.9791565 -7.979141c0 -5.402542 0 -10.72197 0 -16.041397c13.2986145 0 26.597198 0 39.895844 0c0 5.3194275 0 10.638855 0 16.041397c0 5.3194275 0 10.638855 0 15.958267c-55.854156 0 -111.79141 0 -167.72867 0c0 -5.319412 0 -10.63884 0 -15.958267c0 -5.402542 0 -10.72197 0 -16.041397m-71.89557 24.020538c18.618042 0 37.236084 0 55.937256 0c0 5.3194275 0 10.63884 0 15.958267c0 4.3220367 3.6571045 7.8960266 8.062286 7.8960266c61.173584 0 122.43027 0 183.60382 0c4.4051514 0 8.062317 -3.5739899 8.062317 -7.8960266c0 -5.3194275 0 -10.63884 0 -15.958267c18.701172 0 37.319214 0 55.937256 0c0 69.31874 0 138.6375 0 207.95625c-0.49871826 0 -0.91430664 0.08312988 -1.4130249 0.16622925c-1.4960938 0.16622925 -3.0752563 0.3324585 -4.57135 0.5818176c-1.8285522 0.24935913 -3.6571655 0.49868774 -5.485718 0.83114624c-1.5791626 0.24935913 -3.0752563 0.6649475 -4.57135 0.997406c-1.7454834 0.41558838 -3.4909058 0.83114624 -5.236328 1.3298645c-1.4960938 0.49868774 -2.9091187 0.9973755 -4.4051514 1.4960632c-1.6623535 0.5818176 -3.324707 1.1636353 -4.9869995 1.8285522c-1.4129639 0.5818176 -2.8259888 1.1636353 -4.2389526 1.8285522c-1.5792236 0.7480469 -3.1583862 1.4960938 -4.73761 2.2441406c-1.329834 0.7480469 -2.659729 1.4960938 -3.989563 2.2441406c-1.4960938 0.83114624 -2.9921875 1.7454224 -4.4882812 2.6596985c-1.2467651 0.83117676 -2.4935303 1.7454529 -3.7402344 2.5765991c-1.4129639 0.997406 -2.8259888 2.0779114 -4.1558228 3.1584167c-1.2467651 0.9142761 -2.4104004 1.9116821 -3.5740356 2.8259583c-1.329834 1.1636047 -2.5765991 2.32724 -3.8233032 3.5739746c-1.0805054 0.997406 -2.1610107 2.0779114 -3.2415771 3.1584167c-1.2467041 1.2467346 -2.4103394 2.5765991 -3.5739746 3.906433c-0.91430664 1.0805054 -1.9116821 2.2441406 -2.9090576 3.4077759c-1.0805054 1.329834 -2.077942 2.8259277 -3.1584473 4.238922c-0.8311157 1.1636047 -1.7454224 2.4103394 -2.5765991 3.6571045c-0.9973755 1.4960632 -1.8285522 2.992157 -2.7427979 4.5713806c-0.7480469 1.2467346 -1.4960938 2.4934692 -2.2441406 3.8233337c-0.83117676 1.662323 -1.5792236 3.3246155 -2.4104004 4.9869385c-0.5817871 1.3298645 -1.2467651 2.5765991 -1.6622925 3.9064636c-0.7480469 1.8285522 -1.329895 3.5739746 -1.994812 5.402527c-0.49871826 1.3298645 -0.9973755 2.659729 -1.4129639 3.9895935c-0.58184814 1.9116516 -0.9974365 3.906433 -1.4960938 5.818115c-0.3324585 1.3298645 -0.664978 2.5765991 -0.91430664 3.906433c-0.49871826 2.2441406 -0.7480469 4.4882812 -1.0805054 6.732422c-0.16625977 1.0805054 -0.3324585 2.24411 -0.49871826 3.3246155c-0.3324585 3.4908752 -0.49865723 6.898651 -0.49865723 10.389526c0 3.4908752 0.16619873 6.98172 0.49865723 10.389496c0.16625977 1.2467346 0.41558838 2.4934692 0.58184814 3.8233337c0.24932861 2.0779114 0.49865723 4.155792 0.9142456 6.2337036c0.3324585 1.4129639 0.7480469 2.7427979 1.0805054 4.1558228c0.41558838 1.8285522 0.83117676 3.7401733 1.4130249 5.6518555c0.41558838 1.2467651 0.9142456 2.4934692 1.329834 3.7402344c0.664917 1.9116821 1.329895 3.906433 2.1610107 5.818115c0.3324585 0.9973755 0.83117676 2.0778809 1.329895 3.0753174c0.9142456 1.994751 1.8285522 4.072632 2.9090576 5.984314c0.49871826 0.91430664 0.9973755 1.7454224 1.4960938 2.5765991c1.1636353 2.0778809 2.3272705 4.072693 3.6571045 6.067505c0.49871826 0.74798584 1.0805054 1.4129639 1.5792236 2.1610107c1.4129639 1.994751 2.8259277 3.989563 4.4051514 5.901184c0.5817871 0.664978 1.1636353 1.329895 1.7454224 1.994812c1.2467651 1.4960938 2.4104004 2.9090576 3.7402344 4.3220215c-81.53705 0 -163.0741 0 -244.61118 0c0 -127.8324 0 -255.66483 0 -383.41412m319.58206 399.37244c-18.036194 0 -34.825684 -5.4856567 -48.789246 -14.877808c-2.742859 -1.7454224 -5.319458 -3.7402344 -7.8129272 -5.818115c-0.83117676 -0.7480469 -1.6622925 -1.5792236 -2.4934692 -2.3272095c-1.5792236 -1.4130249 -3.0753174 -2.9091187 -4.571411 -4.4051514c-0.91430664 -0.9974365 -1.8285522 -1.994812 -2.742859 -2.9921875c-1.2467041 -1.4960938 -2.4934692 -3.0753174 -3.7402344 -4.654541c-0.7480469 -0.9973755 -1.4960938 -1.994751 -2.2441406 -3.0752563c-1.7454224 -2.5765991 -3.4077148 -5.236328 -4.9038086 -7.896057c-0.33251953 -0.664917 -0.664978 -1.329834 -0.9974365 -1.994751c-1.1636353 -2.2441406 -2.2441406 -4.571411 -3.1583862 -6.9817505c-0.41558838 -1.0805054 -0.83117676 -2.0778809 -1.1636353 -3.1583862c-0.7480469 -2.077942 -1.4960938 -4.2389526 -2.077942 -6.3168335c-0.3324585 -1.0805054 -0.5817871 -2.1610107 -0.8311157 -3.324646c-0.58184814 -2.2441406 -0.9974365 -4.5713806 -1.329895 -6.8986206c-0.16619873 -0.997406 -0.3324585 -1.9947815 -0.41558838 -2.9921875c-0.41558838 -3.324646 -0.664917 -6.7323914 -0.664917 -10.140137c0 -48.456635 39.480225 -87.93674 87.93701 -87.93674c48.456787 0 87.85394 39.396973 87.85394 87.93674c0 48.456604 -39.397156 87.85364 -87.85394 87.85364" fill-rule="evenodd"/><path stroke="#ffffff" stroke-width="4.0" stroke-linejoin="round" stroke-linecap="butt" d="m629.57465 388.37292c0 -71.978485 0 -144.04005 0 -216.01852c0 -4.4051514 -3.5740356 -7.979141 -7.979187 -7.979141c-21.277771 0 -42.555542 0 -63.91638 0c0 -5.402542 0 -10.721954 0 -16.041382c0 -4.4051514 -3.6571655 -7.979141 -8.062317 -7.979141c-15.958313 0 -31.916626 0 -47.87497 0c0 -5.3194275 0 -10.638855 0 -15.958275c0 -4.4051514 -3.5739746 -7.9791336 -7.9791565 -7.9791336c-23.93747 0 -47.95807 0 -71.89557 0c-4.4051514 0 -7.9791565 3.5739822 -7.9791565 7.9791336c0 5.31942 0 10.638847 0 15.958275c-15.9583435 0 -31.916656 0 -47.87497 0c-4.405182 0 -8.062286 3.5739899 -8.062286 7.979141c0 5.3194275 0 10.63884 0 16.041382c-21.36087 0 -42.63864 0 -63.916412 0c-4.4051514 0 -7.9791565 3.5739899 -7.9791565 7.979141c0 133.06873 0 266.22058 0 399.3724c0 4.4051514 3.5740051 7.979187 7.9791565 7.979187c90.8461 0 181.60907 0 272.45514 0c15.958313 10.057007 34.825745 15.958252 55.10608 15.958252c57.26715 0 103.812256 -46.544983 103.812256 -103.81189c0 -54.60724 -42.306213 -99.40677 -95.83307 -103.47943m-199.72842 -255.99733c18.618042 0 37.319214 0 55.937256 0c0 5.3194275 0 10.638855 0 15.958282c0 5.3194275 0 10.63884 0 16.041382c-18.618042 0 -37.319214 0 -55.937256 0c0 -5.402542 0 -10.721954 0 -16.041382c0 -5.3194275 0 -10.638855 0 -15.958282m-55.937256 23.937408c13.381744 0 26.680328 0 39.978943 0c0 5.3194275 0 10.638855 0 16.041397c0 4.4051514 3.5740051 7.979141 7.9791565 7.979141c23.9375 0 47.9581 0 71.89557 0c4.405182 0 7.9791565 -3.5739899 7.9791565 -7.979141c0 -5.402542 0 -10.72197 0 -16.041397c13.2986145 0 26.597198 0 39.895844 0c0 5.3194275 0 10.638855 0 16.041397c0 5.3194275 0 10.638855 0 15.958267c-55.854156 0 -111.79141 0 -167.72867 0c0 -5.319412 0 -10.63884 0 -15.958267c0 -5.402542 0 -10.72197 0 -16.041397m-71.89557 24.020538c18.618042 0 37.236084 0 55.937256 0c0 5.3194275 0 10.63884 0 15.958267c0 4.3220367 3.6571045 7.8960266 8.062286 7.8960266c61.173584 0 122.43027 0 183.60382 0c4.4051514 0 8.062317 -3.5739899 8.062317 -7.8960266c0 -5.3194275 0 -10.63884 0 -15.958267c18.701172 0 37.319214 0 55.937256 0c0 69.31874 0 138.6375 0 207.95625c-0.49871826 0 -0.91430664 0.08312988 -1.4130249 0.16622925c-1.4960938 0.16622925 -3.0752563 0.3324585 -4.57135 0.5818176c-1.8285522 0.24935913 -3.6571655 0.49868774 -5.485718 0.83114624c-1.5791626 0.24935913 -3.0752563 0.6649475 -4.57135 0.997406c-1.7454834 0.41558838 -3.4909058 0.83114624 -5.236328 1.3298645c-1.4960938 0.49868774 -2.9091187 0.9973755 -4.4051514 1.4960632c-1.6623535 0.5818176 -3.324707 1.1636353 -4.9869995 1.8285522c-1.4129639 0.5818176 -2.8259888 1.1636353 -4.2389526 1.8285522c-1.5792236 0.7480469 -3.1583862 1.4960938 -4.73761 2.2441406c-1.329834 0.7480469 -2.659729 1.4960938 -3.989563 2.2441406c-1.4960938 0.83114624 -2.9921875 1.7454224 -4.4882812 2.6596985c-1.2467651 0.83117676 -2.4935303 1.7454529 -3.7402344 2.5765991c-1.4129639 0.997406 -2.8259888 2.0779114 -4.1558228 3.1584167c-1.2467651 0.9142761 -2.4104004 1.9116821 -3.5740356 2.8259583c-1.329834 1.1636047 -2.5765991 2.32724 -3.8233032 3.5739746c-1.0805054 0.997406 -2.1610107 2.0779114 -3.2415771 3.1584167c-1.2467041 1.2467346 -2.4103394 2.5765991 -3.5739746 3.906433c-0.91430664 1.0805054 -1.9116821 2.2441406 -2.9090576 3.4077759c-1.0805054 1.329834 -2.077942 2.8259277 -3.1584473 4.238922c-0.8311157 1.1636047 -1.7454224 2.4103394 -2.5765991 3.6571045c-0.9973755 1.4960632 -1.8285522 2.992157 -2.7427979 4.5713806c-0.7480469 1.2467346 -1.4960938 2.4934692 -2.2441406 3.8233337c-0.83117676 1.662323 -1.5792236 3.3246155 -2.4104004 4.9869385c-0.5817871 1.3298645 -1.2467651 2.5765991 -1.6622925 3.9064636c-0.7480469 1.8285522 -1.329895 3.5739746 -1.994812 5.402527c-0.49871826 1.3298645 -0.9973755 2.659729 -1.4129639 3.9895935c-0.58184814 1.9116516 -0.9974365 3.906433 -1.4960938 5.818115c-0.3324585 1.3298645 -0.664978 2.5765991 -0.91430664 3.906433c-0.49871826 2.2441406 -0.7480469 4.4882812 -1.0805054 6.732422c-0.16625977 1.0805054 -0.3324585 2.24411 -0.49871826 3.3246155c-0.3324585 3.4908752 -0.49865723 6.898651 -0.49865723 10.389526c0 3.4908752 0.16619873 6.98172 0.49865723 10.389496c0.16625977 1.2467346 0.41558838 2.4934692 0.58184814 3.8233337c0.24932861 2.0779114 0.49865723 4.155792 0.9142456 6.2337036c0.3324585 1.4129639 0.7480469 2.7427979 1.0805054 4.1558228c0.41558838 1.8285522 0.83117676 3.7401733 1.4130249 5.6518555c0.41558838 1.2467651 0.9142456 2.4934692 1.329834 3.7402344c0.664917 1.9116821 1.329895 3.906433 2.1610107 5.818115c0.3324585 0.9973755 0.83117676 2.0778809 1.329895 3.0753174c0.9142456 1.994751 1.8285522 4.072632 2.9090576 5.984314c0.49871826 0.91430664 0.9973755 1.7454224 1.4960938 2.5765991c1.1636353 2.0778809 2.3272705 4.072693 3.6571045 6.067505c0.49871826 0.74798584 1.0805054 1.4129639 1.5792236 2.1610107c1.4129639 1.994751 2.8259277 3.989563 4.4051514 5.901184c0.5817871 0.664978 1.1636353 1.329895 1.7454224 1.994812c1.2467651 1.4960938 2.4104004 2.9090576 3.7402344 4.3220215c-81.53705 0 -163.0741 0 -244.61118 0c0 -127.8324 0 -255.66483 0 -383.41412m319.58206 399.37244c-18.036194 0 -34.825684 -5.4856567 -48.789246 -14.877808c-2.742859 -1.7454224 -5.319458 -3.7402344 -7.8129272 -5.818115c-0.83117676 -0.7480469 -1.6622925 -1.5792236 -2.4934692 -2.3272095c-1.5792236 -1.4130249 -3.0753174 -2.9091187 -4.571411 -4.4051514c-0.91430664 -0.9974365 -1.8285522 -1.994812 -2.742859 -2.9921875c-1.2467041 -1.4960938 -2.4934692 -3.0753174 -3.7402344 -4.654541c-0.7480469 -0.9973755 -1.4960938 -1.994751 -2.2441406 -3.0752563c-1.7454224 -2.5765991 -3.4077148 -5.236328 -4.9038086 -7.896057c-0.33251953 -0.664917 -0.664978 -1.329834 -0.9974365 -1.994751c-1.1636353 -2.2441406 -2.2441406 -4.571411 -3.1583862 -6.9817505c-0.41558838 -1.0805054 -0.83117676 -2.0778809 -1.1636353 -3.1583862c-0.7480469 -2.077942 -1.4960938 -4.2389526 -2.077942 -6.3168335c-0.3324585 -1.0805054 -0.5817871 -2.1610107 -0.8311157 -3.324646c-0.58184814 -2.2441406 -0.9974365 -4.5713806 -1.329895 -6.8986206c-0.16619873 -0.997406 -0.3324585 -1.9947815 -0.41558838 -2.9921875c-0.41558838 -3.324646 -0.664917 -6.7323914 -0.664917 -10.140137c0 -48.456635 39.480225 -87.93674 87.93701 -87.93674c48.456787 0 87.85394 39.396973 87.85394 87.93674c0 48.456604 -39.397156 87.85364 -87.85394 87.85364" fill-rule="evenodd"/><path fill="#3f51b4" d="m341.99237 260.20822c34.576385 0 69.23587 0 103.812225 0c4.405182 0 7.979187 -3.6571045 7.979187 -8.062256c0 -4.488266 -3.5740051 -7.979141 -7.979187 -7.979141c-34.576355 0 -69.23584 0 -103.812225 0c-4.4051514 0 -7.9791565 3.4908752 -7.9791565 7.979141c0 4.4051514 3.5740051 8.062256 7.9791565 8.062256" fill-rule="evenodd"/><path stroke="#ffffff" stroke-width="4.0" stroke-linejoin="round" stroke-linecap="butt" d="m341.99237 260.20822c34.576385 0 69.23587 0 103.812225 0c4.405182 0 7.979187 -3.6571045 7.979187 -8.062256c0 -4.488266 -3.5740051 -7.979141 -7.979187 -7.979141c-34.576355 0 -69.23584 0 -103.812225 0c-4.4051514 0 -7.9791565 3.4908752 -7.9791565 7.979141c0 4.4051514 3.5740051 8.062256 7.9791565 8.062256" fill-rule="evenodd"/><path fill="#3f51b4" d="m445.8046 483.87375c-34.576355 0 -69.23584 0 -103.812225 0c-4.4051514 0 -7.9791565 3.5739746 -7.9791565 7.979126c0 4.4051514 3.5740051 7.9791565 7.9791565 7.9791565c34.576385 0 69.23587 0 103.812225 0c4.405182 0 7.979187 -3.5740051 7.979187 -7.9791565c0 -4.4051514 -3.5740051 -7.979126 -7.979187 -7.979126" fill-rule="evenodd"/><path stroke="#ffffff" stroke-width="4.0" stroke-linejoin="round" stroke-linecap="butt" d="m445.8046 483.87375c-34.576355 0 -69.23584 0 -103.812225 0c-4.4051514 0 -7.9791565 3.5739746 -7.9791565 7.979126c0 4.4051514 3.5740051 7.9791565 7.9791565 7.9791565c34.576385 0 69.23587 0 103.812225 0c4.405182 0 7.979187 -3.5740051 7.979187 -7.9791565c0 -4.4051514 -3.5740051 -7.979126 -7.979187 -7.979126" fill-rule="evenodd"/><path fill="#3f51b4" d="m341.99237 308.16623c77.21503 0 154.43005 0 231.72821 0c4.3220215 0 7.895996 -3.6571045 7.895996 -8.062256c0 -4.4882812 -3.5739746 -7.9791565 -7.895996 -7.9791565c-77.29816 0 -154.51318 0 -231.72821 0c-4.4051514 0 -7.9791565 3.4908752 -7.9791565 7.9791565c0 4.4051514 3.5740051 8.062256 7.9791565 8.062256" fill-rule="evenodd"/><path stroke="#ffffff" stroke-width="4.0" stroke-linejoin="round" stroke-linecap="butt" d="m341.99237 308.16623c77.21503 0 154.43005 0 231.72821 0c4.3220215 0 7.895996 -3.6571045 7.895996 -8.062256c0 -4.4882812 -3.5739746 -7.9791565 -7.895996 -7.9791565c-77.29816 0 -154.51318 0 -231.72821 0c-4.4051514 0 -7.9791565 3.4908752 -7.9791565 7.9791565c0 4.4051514 3.5740051 8.062256 7.9791565 8.062256" fill-rule="evenodd"/><path fill="#3f51b4" d="m341.99237 403.91602c63.916412 0 127.832855 0 191.74927 0c4.4051514 0 7.979126 -3.5740051 7.979126 -7.9791565c0 -4.4051514 -3.5739746 -7.979126 -7.979126 -7.979126c-63.916412 0 -127.832855 0 -191.74927 0c-4.4051514 0 -7.9791565 3.5739746 -7.9791565 7.979126c0 4.4051514 3.5740051 7.9791565 7.9791565 7.9791565" fill-rule="evenodd"/><path stroke="#ffffff" stroke-width="4.0" stroke-linejoin="round" stroke-linecap="butt" d="m341.99237 403.91602c63.916412 0 127.832855 0 191.74927 0c4.4051514 0 7.979126 -3.5740051 7.979126 -7.9791565c0 -4.4051514 -3.5739746 -7.979126 -7.979126 -7.979126c-63.916412 0 -127.832855 0 -191.74927 0c-4.4051514 0 -7.9791565 3.5739746 -7.9791565 7.979126c0 4.4051514 3.5740051 7.9791565 7.9791565 7.9791565" fill-rule="evenodd"/><path fill="#3f51b4" d="m493.7627 435.91574c-50.617798 0 -101.1525 0 -151.77032 0c-4.4051514 0 -7.9791565 3.5739746 -7.9791565 7.979126c0 4.4051514 3.5740051 7.9791565 7.9791565 7.9791565c50.61783 0 101.15253 0 151.77032 0c4.4051514 0 7.9791565 -3.5740051 7.9791565 -7.9791565c0 -4.4051514 -3.5740051 -7.979126 -7.9791565 -7.979126" fill-rule="evenodd"/><path stroke="#ffffff" stroke-width="4.0" stroke-linejoin="round" stroke-linecap="butt" d="m493.7627 435.91574c-50.617798 0 -101.1525 0 -151.77032 0c-4.4051514 0 -7.9791565 3.5739746 -7.9791565 7.979126c0 4.4051514 3.5740051 7.9791565 7.9791565 7.9791565c50.61783 0 101.15253 0 151.77032 0c4.4051514 0 7.9791565 -3.5740051 7.9791565 -7.9791565c0 -4.4051514 -3.5740051 -7.979126 -7.9791565 -7.979126" fill-rule="evenodd"/><path fill="#3f51b4" d="m341.99237 356.12424c37.236115 0 74.5553 0 111.79141 0c4.4882812 0 8.062256 -3.6571045 8.062256 -8.062256c0 -4.4882812 -3.5739746 -7.9791565 -8.062256 -7.9791565c-37.236115 0 -74.5553 0 -111.79141 0c-4.4051514 0 -7.9791565 3.4908752 -7.9791565 7.9791565c0 4.4051514 3.5740051 8.062256 7.9791565 8.062256" fill-rule="evenodd"/><path stroke="#ffffff" stroke-width="4.0" stroke-linejoin="round" stroke-linecap="butt" d="m341.99237 356.12424c37.236115 0 74.5553 0 111.79141 0c4.4882812 0 8.062256 -3.6571045 8.062256 -8.062256c0 -4.4882812 -3.5739746 -7.9791565 -8.062256 -7.9791565c-37.236115 0 -74.5553 0 -111.79141 0c-4.4051514 0 -7.9791565 3.4908752 -7.9791565 7.9791565c0 4.4051514 3.5740051 8.062256 7.9791565 8.062256" fill-rule="evenodd"/><path fill="#3f51b4" d="m573.63763 340.08282c-18.701172 0 -37.319214 0 -55.937256 0c-4.4051514 0 -7.9791565 3.4908752 -7.9791565 7.9791565c0 4.4051514 3.5740051 8.062256 7.9791565 8.062256c18.618042 0 37.236084 0 55.937256 0c4.4051514 0 7.979187 -3.6571045 7.979187 -8.062256c0 -4.4882812 -3.5740356 -7.9791565 -7.979187 -7.9791565" fill-rule="evenodd"/><path stroke="#ffffff" stroke-width="4.0" stroke-linejoin="round" stroke-linecap="butt" d="m573.63763 340.08282c-18.701172 0 -37.319214 0 -55.937256 0c-4.4051514 0 -7.9791565 3.4908752 -7.9791565 7.9791565c0 4.4051514 3.5740051 8.062256 7.9791565 8.062256c18.618042 0 37.236084 0 55.937256 0c4.4051514 0 7.979187 -3.6571045 7.979187 -8.062256c0 -4.4882812 -3.5740356 -7.9791565 -7.979187 -7.9791565" fill-rule="evenodd"/><path fill="#3f51b4" d="m480.1318 342.4101c-1.4960938 1.4960938 -2.3272705 3.5739746 -2.3272705 5.651886c0 2.0778809 0.83117676 4.155792 2.3272705 5.7349854c1.4960938 1.4960938 3.5739746 2.3272705 5.651886 2.3272705c2.0779114 0 4.1558228 -0.83117676 5.6519165 -2.3272705c1.4960938 -1.5791931 2.32724 -3.6571045 2.32724 -5.7349854c0 -2.0779114 -0.83114624 -4.155792 -2.32724 -5.651886c-2.9090576 -2.9090576 -8.311615 -2.9921875 -11.3038025 0" fill-rule="evenodd"/><path stroke="#ffffff" stroke-width="4.0" stroke-linejoin="round" stroke-linecap="butt" d="m480.1318 342.4101c-1.4960938 1.4960938 -2.3272705 3.5739746 -2.3272705 5.651886c0 2.0778809 0.83117676 4.155792 2.3272705 5.7349854c1.4960938 1.4960938 3.5739746 2.3272705 5.651886 2.3272705c2.0779114 0 4.1558228 -0.83117676 5.6519165 -2.3272705c1.4960938 -1.5791931 2.32724 -3.6571045 2.32724 -5.7349854c0 -2.0779114 -0.83114624 -4.155792 -2.32724 -5.651886c-2.9090576 -2.9090576 -8.311615 -2.9921875 -11.3038025 0" fill-rule="evenodd"/></g></svg>