<svg version="1.1" viewBox="0.0 0.0 944.8818897637796 944.8818897637796" fill="none" stroke="none" stroke-linecap="square" stroke-miterlimit="10" xmlns:xlink="http://www.w3.org/1999/xlink" xmlns="http://www.w3.org/2000/svg"><clipPath id="g31a61edbf9d_0_67.0"><path d="m0 0l944.8819 0l0 944.8819l-944.8819 0l0 -944.8819z" clip-rule="nonzero"/></clipPath><g clip-path="url(#g31a61edbf9d_0_67.0)"><path fill="#ffffff" d="m0 0l944.8819 0l0 944.8819l-944.8819 0z" fill-rule="evenodd"/><path fill="#ffffff" d="m701.9926 324.3525c-16.376831 -2.7229004 -32.714172 -5.445801 -49.091003 -8.168732c-3.5910645 -14.5616455 -8.72113 -28.531342 -15.508667 -41.514496c10.45752 -13.022614 20.954468 -26.005768 31.411926 -38.988922c6.6691284 -8.247665 6.3533936 -20.086395 -0.6708374 -28.018356c-6.5112915 -7.3400116 -13.022522 -14.680038 -19.533813 -22.02005c-7.0637207 -7.931961 -18.783997 -9.589386 -27.741943 -3.906784c-13.9696045 8.800125 -27.978699 17.560791 -41.987793 26.360916c-18.428833 -12.864761 -39.38324 -22.454132 -61.9162 -27.939423c-2.7228394 -16.455841 -5.4457703 -32.911697 -8.208099 -49.36754c-1.6968994 -10.418098 -10.773193 -18.073814 -21.38852 -18.073814c-9.786621 0 -19.573273 0 -29.359894 0c-10.654785 0 -19.69162 7.655716 -21.34906 18.073814c-2.762329 16.455841 -5.5246887 32.911697 -8.247589 49.36754c-18.665619 4.5381927 -36.14737 11.917664 -52.09012 21.625427c-13.338226 -9.470993 -26.636993 -18.981445 -39.93573 -28.452438c-8.602783 -6.156143 -20.441437 -5.2090454 -27.89978 2.3282928c-6.945343 6.9059296 -13.851257 13.851318 -20.7966 20.757263c-7.4978027 7.497864 -8.444916 19.336609 -2.2887878 27.939423c9.510376 13.298843 19.060242 26.637161 28.570618 39.97548c-9.589294 15.824432 -16.92929 33.227386 -21.467438 51.73529c-16.534668 2.7623596 -33.108795 5.5247498 -49.643448 8.287109c-10.496948 1.7758179 -18.152618 10.773254 -18.152618 21.388672c0 9.786682 0 19.573364 0 29.360077c0 10.615387 7.65567 19.652313 18.0737 21.388641c16.574112 2.7623901 33.10878 5.5247498 49.682907 8.28714c3.7094421 15.193024 9.194702 29.71524 16.41629 43.211395c-10.41803 12.943695 -20.875519 25.8479 -31.293549 38.752136c-6.669098 8.24765 -6.392853 20.046936 0.6314087 28.018341c6.511261 7.340027 13.022522 14.680054 19.533783 21.98059c7.063751 7.931946 18.823486 9.5894165 27.741943 3.946289c14.166931 -8.918518 28.373322 -17.837036 42.579712 -26.755554c18.03421 12.351746 38.39673 21.38861 60.29825 26.755554c2.7229004 16.45581 5.48526 32.872192 8.247589 49.328064c1.6574097 10.497009 10.733734 18.113281 21.3096 18.113281c9.786621 0 19.612701 0 29.399353 0c10.615326 0 19.65216 -7.6951904 21.38852 -18.113281c2.762329 -16.455872 5.524719 -32.872253 8.247559 -49.328064c18.389404 -4.4987183 35.67389 -11.720398 51.53766 -21.309753c13.851257 9.90509 27.702454 19.81018 41.55371 29.71521c8.602783 6.156189 20.401978 5.2090454 27.89978 -2.328247c6.9453735 -6.9454346 13.851257 -13.851318 20.79657 -20.796753c7.458374 -7.497864 8.484375 -19.29712 2.2493286 -27.899963c-9.86554 -13.811859 -19.73108 -27.663177 -29.636108 -41.514496c9.668274 -15.903381 17.00824 -33.345795 21.546387 -51.893158c16.376831 -2.7229004 32.714172 -5.445801 49.091003 -8.168732c10.496948 -1.7363281 18.113098 -10.773254 18.113098 -21.388641c0 -9.786713 0 -19.573395 0 -29.360077c0.039489746 -10.6154175 -7.61615 -19.612854 -18.113098 -21.388672m-228.80188 128.96335c-51.300873 0 -92.89404 -41.632904 -92.89404 -92.855194c0 -51.340668 41.63263 -92.89462 92.89404 -92.89462c51.221924 0 92.85455 41.632904 92.85455 92.89462c0.039489746 51.22229 -41.55371 92.855194 -92.85455 92.855194" fill-rule="evenodd"/><path stroke="#3f51b4" stroke-width="12.0" stroke-linejoin="round" stroke-linecap="butt" d="m701.9926 324.3525c-16.376831 -2.7229004 -32.714172 -5.445801 -49.091003 -8.168732c-3.5910645 -14.5616455 -8.72113 -28.531342 -15.508667 -41.514496c10.45752 -13.022614 20.954468 -26.005768 31.411926 -38.988922c6.6691284 -8.247665 6.3533936 -20.086395 -0.6708374 -28.018356c-6.5112915 -7.3400116 -13.022522 -14.680038 -19.533813 -22.02005c-7.0637207 -7.931961 -18.783997 -9.589386 -27.741943 -3.906784c-13.9696045 8.800125 -27.978699 17.560791 -41.987793 26.360916c-18.428833 -12.864761 -39.38324 -22.454132 -61.9162 -27.939423c-2.7228394 -16.455841 -5.4457703 -32.911697 -8.208099 -49.36754c-1.6968994 -10.418098 -10.773193 -18.073814 -21.38852 -18.073814c-9.786621 0 -19.573273 0 -29.359894 0c-10.654785 0 -19.69162 7.655716 -21.34906 18.073814c-2.762329 16.455841 -5.5246887 32.911697 -8.247589 49.36754c-18.665619 4.5381927 -36.14737 11.917664 -52.09012 21.625427c-13.338226 -9.470993 -26.636993 -18.981445 -39.93573 -28.452438c-8.602783 -6.156143 -20.441437 -5.2090454 -27.89978 2.3282928c-6.945343 6.9059296 -13.851257 13.851318 -20.7966 20.757263c-7.4978027 7.497864 -8.444916 19.336609 -2.2887878 27.939423c9.510376 13.298843 19.060242 26.637161 28.570618 39.97548c-9.589294 15.824432 -16.92929 33.227386 -21.467438 51.73529c-16.534668 2.7623596 -33.108795 5.5247498 -49.643448 8.287109c-10.496948 1.7758179 -18.152618 10.773254 -18.152618 21.388672c0 9.786682 0 19.573364 0 29.360077c0 10.615387 7.65567 19.652313 18.0737 21.388641c16.574112 2.7623901 33.10878 5.5247498 49.682907 8.28714c3.7094421 15.193024 9.194702 29.71524 16.41629 43.211395c-10.41803 12.943695 -20.875519 25.8479 -31.293549 38.752136c-6.669098 8.24765 -6.392853 20.046936 0.6314087 28.018341c6.511261 7.340027 13.022522 14.680054 19.533783 21.98059c7.063751 7.931946 18.823486 9.5894165 27.741943 3.946289c14.166931 -8.918518 28.373322 -17.837036 42.579712 -26.755554c18.03421 12.351746 38.39673 21.38861 60.29825 26.755554c2.7229004 16.45581 5.48526 32.872192 8.247589 49.328064c1.6574097 10.497009 10.733734 18.113281 21.3096 18.113281c9.786621 0 19.612701 0 29.399353 0c10.615326 0 19.65216 -7.6951904 21.38852 -18.113281c2.762329 -16.455872 5.524719 -32.872253 8.247559 -49.328064c18.389404 -4.4987183 35.67389 -11.720398 51.53766 -21.309753c13.851257 9.90509 27.702454 19.81018 41.55371 29.71521c8.602783 6.156189 20.401978 5.2090454 27.89978 -2.328247c6.9453735 -6.9454346 13.851257 -13.851318 20.79657 -20.796753c7.458374 -7.497864 8.484375 -19.29712 2.2493286 -27.899963c-9.86554 -13.811859 -19.73108 -27.663177 -29.636108 -41.514496c9.668274 -15.903381 17.00824 -33.345795 21.546387 -51.893158c16.376831 -2.7229004 32.714172 -5.445801 49.091003 -8.168732c10.496948 -1.7363281 18.113098 -10.773254 18.113098 -21.388641c0 -9.786713 0 -19.573395 0 -29.360077c0.039489746 -10.6154175 -7.61615 -19.612854 -18.113098 -21.388672m-228.80188 128.96335c-51.300873 0 -92.89404 -41.632904 -92.89404 -92.855194c0 -51.340668 41.63263 -92.89462 92.89404 -92.89462c51.221924 0 92.85455 41.632904 92.85455 92.89462c0.039489746 51.22229 -41.55371 92.855194 -92.85455 92.855194" fill-rule="evenodd"/><path fill="#000000" fill-opacity="0.0" d="m3.1338582 701.12286l944.8819 0l0 164.81891l-944.8819 0z" fill-rule="evenodd"/><path fill="#3f51b4" d="m278.9127 803.7604q0 -2.984375 -0.703125 -5.296875q-0.703125 -2.328125 -2.46875 -4.203125q-1.75 -1.875 -4.921875 -3.5625q-3.15625 -1.703125 -8.03125 -3.46875q-5.265625 -1.875 -9.54686 -4.1875q-4.28125 -2.3125 -7.296875 -5.296875q-3.015625 -2.984375 -4.65625 -6.84375q-1.640625 -3.875 -1.640625 -8.859375q0 -4.984375 1.71875 -9.203125q1.734375 -4.21875 4.921875 -7.34375q3.203125 -3.140625 7.71875 -4.890625q4.5156097 -1.765625 10.07811 -1.765625q8.3125 0 14.03125 3.671875q5.71875 3.65625 8.640625 9.546875q2.9375 5.875 2.9375 12.5625l-10.78125 0q0 -4.8125 -1.5625 -8.53125q-1.546875 -3.71875 -4.796875 -5.859375q-3.25 -2.140625 -8.46875 -2.140625q-4.6875 0 -7.703125 1.828125q-3.0156097 1.8125 -4.4531097 4.921875q-1.4375 3.09375 -1.4375 7.078125q0 2.703125 0.9375 4.90625q0.9375 2.1875 2.890625 4.0625q1.9687347 1.875 4.9218597 3.46875q2.96875 1.578125 7.015625 3.03125q6.265625 2.0625 10.71875 4.578125q4.453125 2.515625 7.265625 5.65625q2.8125 3.125 4.125 7.09375q1.328125 3.953125 1.328125 8.921875q0 5.21875 -1.734375 9.4375q-1.734375 4.21875 -5.015625 7.21875q-3.28125 2.984375 -7.90625 4.59375q-4.625 1.609375 -10.421875 1.609375q-5.046875 0 -9.89061 -1.640625q-4.828125 -1.640625 -8.75 -4.921875q-3.921875 -3.28125 -6.265625 -8.109375q-2.34375 -4.84375 -2.34375 -11.234375l10.78125 0q0 4.40625 1.28125 7.546875q1.296875 3.125 3.578125 5.171875q2.28125 2.046875 5.2343597 3.015625q2.96875 0.96875 6.375 0.96875q4.6875 0 7.875 -1.640625q3.1875 -1.640625 4.796875 -4.6875q1.625 -3.046875 1.625 -7.203125zm70.77344 12.359375l0 9.203125l-37.03125 0l0 -9.203125l37.03125 0zm-35.09375 -76.109375l0 85.3125l-10.78125 0l0 -85.3125l10.78125 0zm30.109375 36.671875l0 9.203125l-32.046875 0l0 -9.203125l32.046875 0zm4.40625 -36.671875l0 9.25l-36.453125 0l0 -9.25l36.453125 0zm42.945312 0l0 85.3125l-10.671875 0l0 -85.3125l10.671875 0zm22.4375 0l0 9.25l-55.484375 0l0 -9.25l55.484375 0zm40.960938 0l0 85.3125l-10.671875 0l0 -85.3125l10.671875 0zm22.4375 0l0 9.25l-55.484375 0l0 -9.25l55.484375 0zm23.851562 0l0 85.3125l-10.78125 0l0 -85.3125l10.78125 0zm74.53122 0l0 85.3125l-10.84375 0l-34.15625 -65.796875l0 65.796875l-10.78125 0l0 -85.3125l10.78125 0l34.328125 65.96875l0 -65.96875l10.671875 0zm72.01172 42.828125l0 31.8125q-1.40625 1.875 -4.25 4.6875q-2.84375 2.8125 -7.9375 4.984375q-5.09375 2.171875 -13.359375 2.171875q-6.625 0 -12.109375 -2.21875q-5.46875 -2.234375 -9.421875 -6.71875q-3.953125 -4.484375 -6.125 -11.1875q-2.171875 -6.71875 -2.171875 -15.734375l0 -16.0q0 -8.96875 1.8125 -15.703125q1.828125 -6.734375 5.421875 -11.1875q3.609375 -4.453125 8.96875 -6.671875q5.359375 -2.234375 12.515625 -2.234375q8.25 0 14.046875 3.109375q5.8125 3.09375 9.0 8.953125q3.203125 5.859375 3.609375 14.0625l-10.78125 0q-0.40625 -5.265625 -2.234375 -9.046875q-1.8125 -3.78125 -5.15625 -5.796875q-3.328125 -2.03125 -8.484375 -2.03125q-4.921875 0 -8.328125 1.640625q-3.390625 1.640625 -5.53125 4.921875q-2.140625 3.28125 -3.109375 8.265625q-0.96875 4.984375 -0.96875 11.609375l0 16.109375q0 6.796875 1.34375 11.84375q1.359375 5.03125 3.84375 8.3125q2.484375 3.28125 6.0 4.890625q3.515625 1.609375 7.921875 1.609375q4.96875 0 7.84375 -1.046875q2.875 -1.0625 4.421875 -2.40625q1.5625 -1.34375 2.5 -2.171875l0 -19.6875l-15.65625 0l0 -9.140625l26.375 0zm54.789062 20.921875q0 -2.984375 -0.703125 -5.296875q-0.703125 -2.328125 -2.46875 -4.203125q-1.75 -1.875 -4.921875 -3.5625q-3.15625 -1.703125 -8.03125 -3.46875q-5.265625 -1.875 -9.546875 -4.1875q-4.28125 -2.3125 -7.296875 -5.296875q-3.015625 -2.984375 -4.65625 -6.84375q-1.640625 -3.875 -1.640625 -8.859375q0 -4.984375 1.71875 -9.203125q1.734375 -4.21875 4.921875 -7.34375q3.203125 -3.140625 7.71875 -4.890625q4.515625 -1.765625 10.078125 -1.765625q8.3125 0 14.03125 3.671875q5.71875 3.65625 8.640625 9.546875q2.9375 5.875 2.9375 12.5625l-10.78125 0q0 -4.8125 -1.5625 -8.53125q-1.546875 -3.71875 -4.796875 -5.859375q-3.25 -2.140625 -8.46875 -2.140625q-4.6875 0 -7.703125 1.828125q-3.015625 1.8125 -4.453125 4.921875q-1.4375 3.09375 -1.4375 7.078125q0 2.703125 0.9375 4.90625q0.9375 2.1875 2.890625 4.0625q1.96875 1.875 4.921875 3.46875q2.96875 1.578125 7.015625 3.03125q6.265625 2.0625 10.71875 4.578125q4.453125 2.515625 7.265625 5.65625q2.8125 3.125 4.125 7.09375q1.328125 3.953125 1.328125 8.921875q0 5.21875 -1.734375 9.4375q-1.734375 4.21875 -5.015625 7.21875q-3.28125 2.984375 -7.90625 4.59375q-4.625 1.609375 -10.421875 1.609375q-5.046875 0 -9.890625 -1.640625q-4.828125 -1.640625 -8.75 -4.921875q-3.921875 -3.28125 -6.265625 -8.109375q-2.34375 -4.84375 -2.34375 -11.234375l10.78125 0q0 4.40625 1.28125 7.546875q1.296875 3.125 3.578125 5.171875q2.28125 2.046875 5.234375 3.015625q2.96875 0.96875 6.375 0.96875q4.6875 0 7.875 -1.640625q3.1875 -1.640625 4.796875 -4.6875q1.625 -3.046875 1.625 -7.203125z" fill-rule="nonzero"/></g></svg>