<svg xmlns="http://www.w3.org/2000/svg" viewBox="0 0 100 100" class="landing_page_svg_icon">
    <path d="M 57.9875 79.05 H 41.95 V 63.03125 H 57.9875 V 79.05 Z M 45.2875 75.7125 H 54.68125 V 66.31875 H 45.2875 V 75.7125 Z" style="stroke: none; stroke-width: 1.1125; stroke-dasharray: none; stroke-linecap: butt; stroke-linejoin: miter; stroke-miterlimit: 10; fill: rgb(63,81,180); fill-rule: nonzero; opacity: 1;" stroke-linecap="round"/>
    <path d="M 81.29375 79.05 H 65.25625 V 63.03125 H 81.29375 V 79.05 Z M 68.59375 75.7125 H 77.9875 V 66.31875 H 68.59375 V 75.7125 Z" style="stroke: none; stroke-width: 1.1125; stroke-dasharray: none; stroke-linecap: butt; stroke-linejoin: miter; stroke-miterlimit: 10; fill: rgb(63,81,180); fill-rule: nonzero; opacity: 1;" stroke-linecap="round"/>
    <path d="M 34.76875 79.05 H 18.73125 V 63.03125 H 34.76875 V 79.05 Z M 22.06875 75.7125 H 31.4625 V 66.31875 H 22.06875 V 75.7125 Z" style="stroke: none; stroke-width: 1.1125; stroke-dasharray: none; stroke-linecap: butt; stroke-linejoin: miter; stroke-miterlimit: 10; fill: rgb(63,81,180); fill-rule: nonzero; opacity: 1;" stroke-linecap="round"/>
    <path d="M 92.9625 94.7625 V 35.4875 L 88.15625 38.0875 L 85.79375 1.86875 H 71.8 L 68.69375 46.7875 L 65.5125 48.5125 V 35.4875 L 37.8875 50.35 V 35.4875 L 7.05 52.3 V 94.7625 H 0 V 98.1125 H 100 V 94.7625 H 92.9625 Z M 82.54375 5.19375 L 82.89375 10.475 H 74.44375 L 74.79375 5.19375 H 82.54375 Z M 74.2375 13.80625 H 83.14375 L 84.875 39.825 L 72.0375 46.7625 L 74.2375 13.80625 Z M 10.3875 54.18125 L 34.58125 41.1125 V 55.9875 L 62.0875 41.1125 V 55.9875 L 89.59375 41.1125 V 94.7625 H 10.3875 V 54.18125 Z" style="stroke: none; stroke-width: 1.1125; stroke-dasharray: none; stroke-linecap: butt; stroke-linejoin: miter; stroke-miterlimit: 10; fill: rgb(63,81,180); fill-rule: nonzero; opacity: 1;" stroke-linecap="round"/>
</svg>