<?xml version="1.0" encoding="UTF-8" standalone="no"?>
<svg width="800" height="800" viewBox="0 0 800 800" xmlns="http://www.w3.org/2000/svg">
  <polyline points="95,445 395,445 395,429 393.43,428.94 391.87,428.75 390.33,428.45 388.82,428.02 387.35,427.48 385.92,426.82 384.55,426.05 383.24,425.18 382.01,424.21 380.86,423.14 379.79,421.99 378.82,420.76 377.95,419.45 377.18,418.08 376.52,416.65 375.98,415.18 375.55,413.67 375.25,412.13 375.06,410.57 375,409 375,355 95,355" fill="#e0e0e0" stroke="black" stroke-width="5"/>
  <polyline points="705,445 405,445 405,429 406.57,428.94 408.13,428.75 409.67,428.45 411.18,428.02 412.65,427.48 414.08,426.82 415.45,426.05 416.76,425.18 417.99,424.21 419.14,423.14 420.21,421.99 421.18,420.76 422.05,419.45 422.82,418.08 423.48,416.65 424.02,415.18 424.45,413.67 424.75,412.13 424.94,410.57 425,409 425,375 705,375" fill="#e0e0e0" stroke="black" stroke-width="5"/>
  <polyline points="355.19,374.66 356.81,380.38 358.57,386.05 360.49,391.67 362.56,397.23 364.77,402.74 367.12,408.19 369.62,413.58 372.26,418.9 375.04,424.14 377.96,429.31 381.02,434.41 384.2,439.42 387.52,444.34 390.97,449.18 395.24,453.2 401,454.3 406.41,452.06 410.09,447.44 413.33,442.47 416.43,437.4 419.38,432.25 422.17,427.01 424.82,421.69 427.31,416.3 429.64,410.84 431.81,405.31 433.82,399.73 435.66,394.08 437.35,388.39 438.86,382.65 438.63,376.8 435.36,371.9 431.19,367.68 426.67,363.83 421.83,360.38 416.72,357.36 411.37,354.8 405.82,352.7 400.1,351.09 394.27,349.98 388.37,349.37 382.43,349.27 376.51,349.69 370.65,350.61 364.89,352.03 359.27,353.94 354.64,357.54 352.74,363.08 353.72,368.91 355.19,374.66" fill="#e0e0e0" stroke="black" stroke-width="2" fill-opacity="0.8"/>
  <text x="543.17" y="427.63" font-size="40" text-anchor="start" dominant-baseline="auto" fill="black">2</text>
  <text x="224.56" y="423.51" font-size="40" text-anchor="start" dominant-baseline="auto" fill="black">1</text>
</svg>