<?xml version="1.0" encoding="UTF-8" standalone="no"?>
<svg width="800" height="800" viewBox="0 0 800 800" xmlns="http://www.w3.org/2000/svg">
  <!-- Lwpolyline Handle 24F -->
  <path d="M95,355 L395,355 L395,445 L95,445 " fill="#e0e0e0" stroke="black" stroke-width="5"/>
  <path d="M705,355 L438.09,355 L405,395 L405,405 L438.09,445 L705,445 " fill="#e0e0e0" stroke="black" stroke-width="5"/>
  
  
  <path d="M415.66,350.54 L412.15,350.62 L408.64,350.78 L405.14,351.04 L401.64,351.38 L398.16,351.84 L394.93,353.16 L392.35,355.51 L390.73,358.61 L390.26,362.07 L390.25,365.58 L390.3,369.09 L390.43,372.6 L390.63,376.11 L390.9,379.61 L391.24,383.1 L391.64,386.59 L392.13,390.07 L392.68,393.53 L393.3,396.99 L394.54,400.26 L396.83,402.89 L399.88,404.59 L403.33,405.12 L406.76,404.44 L409.74,402.62 L412.3,400.21 L414.82,397.77 L417.31,395.3 L419.78,392.8 L422.22,390.27 L424.62,387.71 L427,385.13 L429.35,382.52 L431.67,379.88 L433.95,377.22 L436.21,374.53 L438.43,371.81 L440.63,369.07 L442.65,366.2 L443.68,362.87 L443.51,359.38 L442.14,356.16 L439.76,353.61 L436.64,352.04 L433.18,351.47 L429.69,351.11 L426.18,350.84 L422.68,350.65 L419.17,350.55 Z" fill="#e0e0e0" stroke="black" stroke-width="2" fill-opacity="0.8"/>
  <path d="M415.66,449.46 L412.15,449.38 L408.64,449.22 L405.14,448.96 L401.64,448.62 L398.16,448.16 L394.93,446.84 L392.35,444.49 L390.73,441.39 L390.26,437.93 L390.25,434.42 L390.3,430.91 L390.43,427.4 L390.63,423.89 L390.9,420.39 L391.24,416.9 L391.64,413.41 L392.13,409.93 L392.68,406.47 L393.3,403.01 L394.54,399.74 L396.83,397.11 L399.88,395.41 L403.33,394.88 L406.76,395.56 L409.74,397.38 L412.3,399.79 L414.82,402.23 L417.31,404.7 L419.78,407.2 L422.22,409.73 L424.62,412.29 L427,414.87 L429.35,417.48 L431.67,420.12 L433.95,422.78 L436.21,425.47 L438.43,428.19 L440.63,430.93 L442.65,433.8 L443.68,437.13 L443.51,440.62 L442.14,443.84 L439.76,446.39 L436.64,447.96 L433.18,448.53 L429.69,448.89 L426.18,449.16 L422.68,449.35 L419.17,449.45 Z" fill="#e0e0e0" stroke="black" stroke-width="2" fill-opacity="0.8"/>
  
  
  <text x="543.17" y="410" font-family="Arial" font-size="40" text-anchor="start" alignment-baseline="baseline">2</text>
  <text x="224.56" y="410" font-family="Arial" font-size="40" text-anchor="start" alignment-baseline="baseline">1</text>
</svg>