<?xml version="1.0" encoding="UTF-8" standalone="no"?>
<svg width="800" height="800" viewBox="0 0 800 800" xmlns="http://www.w3.org/2000/svg">
  <!-- Lwpolyline Handle 24F -->
  <path d="M95,355 L395,355 L395,445 L95,445 " fill="#e0e0e0" stroke="black" stroke-width="5"/>
  <path d="M 705,445 421.09,445  405,425.55 405,374.45 L421.09,355 L705,355 " fill="#e0e0e0" stroke="black" stroke-width="5"/>
  <path d="M405.33,447.23 L403.57,447.19 L401.82,447.11 L400.07,446.98 L398.32,446.81 L396.58,446.58 L394.96,445.92 L393.67,444.75 L392.87,443.2 L392.63,441.47 L392.62,439.71 L392.65,437.95 L392.71,436.2 L392.81,434.45 L392.95,432.7 L393.12,430.95 L393.32,429.21 L393.56,427.47 L393.84,425.73 L394.15,424 L394.77,422.37 L395.91,421.05 L397.44,420.21 L399.17,419.94 L400.88,420.28 L402.37,421.19 L403.65,422.4 L404.91,423.62 L406.16,424.85 L407.39,426.1 L408.61,427.37 L409.81,428.64 L411,429.94 L412.17,431.24 L413.33,432.56 L414.48,433.89 L415.6,435.24 L416.72,436.6 L417.81,437.97 L418.82,439.4 L419.34,441.07 L419.25,442.81 L418.57,444.42 L417.38,445.69 L415.82,446.48 L414.09,446.76 L412.34,446.94 L410.59,447.08 L408.84,447.17 L407.08,447.22 Z"  fill="#e0e0e0" stroke="black" stroke-width="2" fill-opacity="0.8"/>
  <path d="M405.33,352.77 L403.57,352.81 L401.82,352.89 L400.07,353.02 L398.32,353.19 L396.58,353.42 L394.96,354.08 L393.67,355.25 L392.87,356.8 L392.63,358.53 L392.62,360.29 L392.65,362.05 L392.71,363.8 L392.81,365.55 L392.95,367.3 L393.12,369.05 L393.32,370.79 L393.56,372.53 L393.84,374.27 L394.15,376 L394.77,377.63 L395.91,378.95 L397.44,379.79 L399.17,380.06 L400.88,379.72 L402.37,378.81 L403.65,377.6 L404.91,376.38 L406.16,375.15 L407.39,373.9 L408.61,372.63 L409.81,371.36 L411,370.06 L412.17,368.76 L413.33,367.44 L414.48,366.11 L415.6,364.76 L416.72,363.4 L417.81,362.03 L418.82,360.6 L419.34,358.93 L419.25,357.19 L418.57,355.58 L417.38,354.31 L415.82,353.52 L414.09,353.24 L412.34,353.06 L410.59,352.92 L408.84,352.83 L407.08,352.78 Z"  fill="#e0e0e0" stroke="black" stroke-width="2" fill-opacity="0.8"/>
  <text x="543.17" y="410" font-family="Arial" font-size="40" text-anchor="start" alignment-baseline="baseline">2</text>
  <text x="224.56" y="410" font-family="Arial" font-size="40" text-anchor="start" alignment-baseline="baseline">1</text>
</svg>