<?xml version="1.0" encoding="UTF-8" standalone="no"?>
<svg width="800" height="800" viewBox="0 0 800 800" xmlns="http://www.w3.org/2000/svg">

    
  <path d="M95,355 L371.91,355 L395,395 L395,405 L371.91,445 L95,445" fill="#e0e0e0" stroke="black" stroke-width="5" />
  <path d="M705,355 L428.09,355 L405,395 L405,405 L428.09,445 L705,445" fill="#e0e0e0" stroke="black" stroke-width="5" />
  <path d="M377.53,351.07 L374,352.3 L371.16,354.75 L369.43,358.07 L369.03,361.79 L370.03,365.39 L371.71,368.76 L373.46,372.1 L375.28,375.39 L377.17,378.65 L379.13,381.86 L381.16,385.03 L383.26,388.15 L385.43,391.23 L387.66,394.26 L389.96,397.24 L392.32,400.17 L394.75,403.05 L397.76,405.27 L401.37,406.23 L405.09,405.79 L408.39,404.02 L410.89,401.22 L413.14,398.21 L415.32,395.14 L417.41,392.01 L419.43,388.83 L421.37,385.61 L423.23,382.33 L425,379.02 L426.69,375.65 L428.3,372.25 L429.82,368.8 L431.25,365.32 L431.92,361.64 L431.19,357.97 L429.16,354.83 L426.12,352.65 L422.5,351.67 L418.78,351.07 L415.05,350.56 L411.31,350.16 L407.56,349.86 L403.8,349.66 L400.04,349.56 L396.27,349.56 L392.51,349.66 L388.75,349.86 L385,350.16 L381.26,350.57 Z" fill="#e0e0e0" stroke="black" stroke-width="2" fill-opacity="0.8"/>
  <path d="M377.53,448.93 L374,447.7 L371.16,445.25 L369.43,441.93 L369.03,438.21 L370.03,434.61 L371.71,431.24 L373.46,427.9 L375.28,424.61 L377.17,421.35 L379.13,418.14 L381.16,414.97 L383.26,411.85 L385.43,408.77 L387.66,405.74 L389.96,402.76 L392.32,399.83 L394.75,396.95 L397.76,394.73 L401.37,393.77 L405.09,394.21 L408.39,395.98 L410.89,398.78 L413.14,401.79 L415.32,404.86 L417.41,407.99 L419.43,411.17 L421.37,414.39 L423.23,417.67 L425,420.98 L426.69,424.35 L428.3,427.75 L429.82,431.2 L431.25,434.68 L431.92,438.36 L431.19,442.03 L429.16,445.17 L426.12,447.35 L422.5,448.33 L418.78,448.93 L415.05,449.44 L411.31,449.84 L407.56,450.14 L403.8,450.34 L400.04,450.44 L396.27,450.44 L392.51,450.34 L388.75,450.14 L385,449.84 L381.26,449.43 Z" fill="#e0e0e0" stroke="black" stroke-width="2" fill-opacity="0.8"/>

  <text x="543.17" y="410" font-family="Arial" font-size="40" text-anchor="start" alignment-baseline="baseline">2</text>
  <text x="224.56" y="410" font-family="Arial" font-size="40" text-anchor="start" alignment-baseline="baseline">1</text>
</svg>