<svg xmlns="http://www.w3.org/2000/svg" viewBox="0 0 800 800" width="800" height="800">
  <path d="M 487.93 478.37 L 512.22 452.35 L 615.55 452.35 L 565.55 402.35 L 565.55 452.35" fill="none" stroke="black" stroke-width="2"/>
  <path d="M 354.7 10 L 354.7 520 L 445 520 L 445 10" fill="#e0e0e0" stroke="black" stroke-width="5"/>
  <path d="M 700 610 L 700 520 L 100 520 100 610 Z" fill="#e0e0e0" stroke="black" stroke-width="0"/>
  <path d="M 700 520 L 100 520" fill="#e0e0e0" stroke="black" stroke-width="5"/>
  <path d="M 700 610 L 100 610" fill="#e0e0e0" stroke="black" stroke-width="5"/>
  <text x="543.17" y="540" font-family="Arial" font-size="40" fill="black" text-anchor="start" dominant-baseline="hanging">2</text>
  <text x="390" y="350" font-family="Arial" font-size="40" fill="black" text-anchor="start" dominant-baseline="hanging">1</text>
  <text x="530" y="400" font-family="Arial" font-size="40" fill="black" text-anchor="start" dominant-baseline="hanging">a</text>

  <polyline
    points="474.83,573.62 478.1,576.64 481.14,579.89 483.93,583.36 486.45,587.02 488.7,590.86 490.66,594.85 492.32,598.98 493.67,603.22 494.71,607.55 494.73,611.97 492.85,615.96 489.44,618.76 485.4,620.63 481.28,622.33 477.1,623.85 472.86,625.2 468.57,626.38 464.23,627.38 459.86,628.2 455.45,628.83 451.03,629.29 446.58,629.56 442.13,629.64 437.7,629.38 433.5,627.96 429.9,625.36 427.22,621.83 425.69,617.67 425.36,613.24 425.43,608.79 425.68,604.35 426.12,599.92 426.74,595.51 427.55,591.13 428.53,586.79 429.69,582.49 431.03,578.25 432.54,574.06 434.22,569.94 436.08,565.9 438.75,562.38 442.67,560.36 447.08,560.22 451.42,561.23 455.67,562.55 459.8,564.19 463.81,566.12 467.67,568.35 471.34,570.85 474.83,573.62"
    fill="#e0e0e0" stroke="black" stroke-width="2" fill-opacity="0.8" transform="translate(0,-90)"/>
</svg>