<svg width="800" height="800" viewBox="0 0 800 800" xmlns="http://www.w3.org/2000/svg">
<polyline points="705,515 355,515 355,445 705,445" fill="#e0e0e0" stroke="black" stroke-width="5" />
<polyline points="95,445 445,445 445,355 95,355" fill="#e0e0e0" stroke="black" stroke-width="5" />
<polyline
      points="474.83,408.62 478.1,411.64 481.14,414.89 483.93,418.36 486.45,422.02 488.7,425.86 490.66,429.85 492.32,433.98 493.67,438.22 494.71,442.55 494.73,446.97 492.85,450.96 489.44,453.76 485.4,455.63 481.28,457.33 477.1,458.85 472.86,460.2 468.57,461.38 464.23,462.38 459.86,463.2 455.45,463.83 451.03,464.29 446.58,464.56 442.13,464.64 437.7,464.38 433.5,462.96 429.9,460.36 427.22,456.83 425.69,452.67 425.36,448.24 425.43,443.79 425.68,439.35 426.12,434.92 426.74,430.51 427.55,426.13 428.53,421.79 429.69,417.49 431.03,413.25 432.54,409.06 434.22,404.94 436.08,400.9 438.75,397.38 442.67,395.36 447.08,395.22 451.42,396.23 455.67,397.55 459.8,399.19 463.81,401.12 467.67,403.35 471.34,405.85 474.83,408.62"
    fill="#e0e0e0" stroke="black" stroke-width="2" fill-opacity="0.8"/>
<text x="543.17" y="460" font-family="Arial" font-size="40" fill="black" dominant-baseline="hanging">2</text>
<text x="224.56" y="380" font-family="Arial" font-size="40" fill="black" dominant-baseline="hanging">1</text>
</svg>