<svg width="900" height="900" viewBox="0 0 900 900" xmlns="http://www.w3.org/2000/svg">
  <path d="M 495,260 L 485,250 L 414.7,250 L 404.7,260 L 404.7,484.24 L 444.85,495 L 454.85,495 L 495,484.24 Z" fill="#e0e0e0" stroke="black" stroke-width="5"/>
  <line x1="495" y1="260" x2="405" y2="260" stroke="black" stroke-width="1"/>
  <line x1="414.7" y1="250" x2="414.7" y2="486.92" stroke="black" stroke-width="1"/>
  <line x1="485" y1="250" x2="485" y2="486.92" stroke="black" stroke-width="1"/>
  <path d="M 750,600 L 750,510 L 150,510 L 150,600 Z" fill="#e0e0e0" stroke="black" stroke-width="0"/>
  <line x1="750" y1="600" x2="150" y2="600" stroke="black" stroke-width="5"/>
  <line x1="750" y1="510" x2="150" y2="510" stroke="black" stroke-width="5"/>
  <path d="M 446.91,512.64 L 443.98,512.66 L 441.05,512.89 L 438.13,513.12 L 435.2,513.35 L 432.27,513.58 L 429.35,513.83 L 426.46,514.33 L 423.57,514.86 L 420.68,515.38 L 417.79,515.9 L 414.9,516.41 L 411.97,516.5 L 409.03,516.5 L 406.1,516.5 L 403.16,516.5 L 400.23,516.5 L 397.29,516.5 L 394.43,516.02 L 391.89,514.56 L 389.88,512.44 L 388.57,509.82 L 388.08,506.94 L 388.07,504 L 388.07,501.07 L 388.46,498.17 L 389.39,495.38 L 390.33,492.6 L 391.31,489.84 L 392.86,487.36 L 395.01,485.36 L 397.47,483.78 L 400.29,482.99 L 403.21,483.03 L 406.12,483.44 L 409.03,483.85 L 411.93,484.26 L 414.84,484.67 L 417.75,485.08 L 420.65,485.49 L 423.55,485.93 L 426.46,486.37 L 429.36,486.8 L 432.26,487.24 L 435.17,487.62 L 438.11,487.63 L 441.04,487.63 L 443.98,487.63 L 446.91,487.63 L 449.85,487.63 L 452.79,487.63 L 455.72,487.63 L 458.66,487.62 L 461.57,487.24 L 464.47,486.8 L 467.37,486.37 L 470.27,485.93 L 473.18,485.49 L 476.08,485.08 L 478.99,484.67 L 481.9,484.26 L 484.8,483.85 L 487.71,483.44 L 490.62,483.03 L 493.54,482.99 L 496.36,483.78 L 498.82,485.36 L 500.97,487.36 L 502.52,489.84 L 503.5,492.6 L 504.44,495.38 L 505.37,498.17 L 505.76,501.07 L 505.76,504 L 505.75,506.94 L 505.26,509.82 L 503.95,512.44 L 501.94,514.56 L 499.4,516.02 L 496.54,516.5 L 493.6,516.5 L 490.67,516.5 L 487.73,516.5 L 484.8,516.5 L 481.86,516.5 L 478.93,516.41 L 476.04,515.9 L 473.15,515.38 L 470.26,514.86 L 467.37,514.33 L 464.48,513.83 L 461.56,513.58 L 458.63,513.35 L 455.7,513.12 L 452.78,512.89 L 449.85,512.66 L 446.91,512.64" fill="#e0e0e0" stroke="black" stroke-width="2" fill-opacity="0.8"/>
  <text x="435.19" y="398.4" font-size="40" fill="black">1</text>
  <text x="593.17" y="573.94" font-size="40" fill="black">2</text>
</svg>