<?xml version="1.0" encoding="UTF-8" standalone="no"?>
<!-- Created with Inkscape (http://www.inkscape.org/) -->

<svg
   version="1.1"
   id="svg2"
   viewBox="0 0 1200 600"
   sodipodi:docname="2924729.ai"
   xmlns:inkscape="http://www.inkscape.org/namespaces/inkscape"
   xmlns:sodipodi="http://sodipodi.sourceforge.net/DTD/sodipodi-0.dtd"
   xmlns="http://www.w3.org/2000/svg"
   xmlns:svg="http://www.w3.org/2000/svg">
  <defs
     id="defs6">
    <clipPath
       clipPathUnits="userSpaceOnUse"
       id="clipPath30">
      <path
         d="M 0,500 H 500 V 0 H 0 Z"
         id="path28" />
    </clipPath>
    <clipPath
       clipPathUnits="userSpaceOnUse"
       id="clipPath102">
      <path
         d="M 251.441,192.603 H 415.472 V 181.14 H 251.441 Z"
         id="path100" />
    </clipPath>
    <clipPath
       clipPathUnits="userSpaceOnUse"
       id="clipPath124">
      <path
         d="m 414.186,164.666 h 7.629 v -3.975 h -7.629 z"
         id="path122" />
    </clipPath>
    <clipPath
       clipPathUnits="userSpaceOnUse"
       id="clipPath140">
      <path
         d="m 404.384,159.158 h 6.041 v -6.126 h -6.041 z"
         id="path138" />
    </clipPath>
    <clipPath
       clipPathUnits="userSpaceOnUse"
       id="clipPath156">
      <path
         d="m 412.34,156.647 h 6.791 v -6.006 h -6.791 z"
         id="path154" />
    </clipPath>
    <clipPath
       clipPathUnits="userSpaceOnUse"
       id="clipPath188">
      <path
         d="M 0,500 H 500 V 0 H 0 Z"
         id="path186" />
    </clipPath>
    <clipPath
       clipPathUnits="userSpaceOnUse"
       id="clipPath200">
      <path
         d="M 95.5641,428.826 H 403.065 V 210.011 H 95.5641 Z"
         id="path198" />
    </clipPath>
    <clipPath
       clipPathUnits="userSpaceOnUse"
       id="clipPath216">
      <path
         d="M 0,500 H 500 V 0 H 0 Z"
         id="path214" />
    </clipPath>
    <clipPath
       clipPathUnits="userSpaceOnUse"
       id="clipPath236">
      <path
         d="M 0,500 H 500 V 0 H 0 Z"
         id="path234" />
    </clipPath>
    <clipPath
       clipPathUnits="userSpaceOnUse"
       id="clipPath264">
      <path
         d="m 176.516,341.679 h 31.232 v -29.398 h -31.232 z"
         id="path262" />
    </clipPath>
    <clipPath
       clipPathUnits="userSpaceOnUse"
       id="clipPath280">
      <path
         d="m 180.288,331.244 h 18.216 V 311.36 h -18.216 z"
         id="path278" />
    </clipPath>
    <clipPath
       clipPathUnits="userSpaceOnUse"
       id="clipPath304">
      <path
         d="m 208.927,112.656 h 9.039 v -11.425 h -9.039 z"
         id="path302" />
    </clipPath>
    <clipPath
       clipPathUnits="userSpaceOnUse"
       id="clipPath320">
      <path
         d="m 148.201,110.471 h 8.88 v -9.387 h -8.88 z"
         id="path318" />
    </clipPath>
    <clipPath
       clipPathUnits="userSpaceOnUse"
       id="clipPath340">
      <path
         d="m 144.574,342.71 h 50.824 v -72.035 h -50.824 z"
         id="path338" />
    </clipPath>
    <clipPath
       clipPathUnits="userSpaceOnUse"
       id="clipPath368">
      <path
         d="m 147.331,327.383 h 7.837 v -18.18 h -7.837 z"
         id="path366" />
    </clipPath>
    <clipPath
       clipPathUnits="userSpaceOnUse"
       id="clipPath388">
      <path
         d="m 163.489,358.162 h 6.972 v -8.281 h -6.972 z"
         id="path386" />
    </clipPath>
    <clipPath
       clipPathUnits="userSpaceOnUse"
       id="clipPath432">
      <path
         d="m 166.165,273.597 h 54.16 V 102.323 h -54.16 z"
         id="path430" />
    </clipPath>
    <clipPath
       clipPathUnits="userSpaceOnUse"
       id="clipPath448">
      <path
         d="m 172.11,256.616 h 10.62 v -46.967 h -10.62 z"
         id="path446" />
    </clipPath>
    <clipPath
       clipPathUnits="userSpaceOnUse"
       id="clipPath468">
      <path
         d="m 145.297,272.56 h 33.569 V 102.902 h -33.569 z"
         id="path466" />
    </clipPath>
    <clipPath
       clipPathUnits="userSpaceOnUse"
       id="clipPath548">
      <path
         d="m 130.739,339.01 h 25.913 v -32.352 h -25.913 z"
         id="path546" />
    </clipPath>
    <clipPath
       clipPathUnits="userSpaceOnUse"
       id="clipPath572">
      <path
         d="M 0,500 H 500 V 0 H 0 Z"
         id="path570" />
    </clipPath>
    <clipPath
       clipPathUnits="userSpaceOnUse"
       id="clipPath588">
      <path
         d="M 279.631,401.058 H 346.92 V 314.932 H 279.631 Z"
         id="path586" />
    </clipPath>
    <clipPath
       clipPathUnits="userSpaceOnUse"
       id="clipPath636">
      <path
         d="m 219.11,337.84 h 62.46 v -82.671 h -62.46 z"
         id="path634" />
    </clipPath>
  </defs>
  <sodipodi:namedview
     id="namedview4"
     pagecolor="#ffffff"
     bordercolor="#000000"
     borderopacity="0.25"
     inkscape:showpageshadow="2"
     inkscape:pageopacity="0.0"
     inkscape:pagecheckerboard="0"
     inkscape:deskcolor="#d1d1d1" />
  <g
     id="g8"
     inkscape:groupmode="layer"
     inkscape:label="2924729"
     transform="matrix(1.3333333,0,0,-1.3333333,0,666.66667)">
    <path
       d="m 0,117.352 h 500 v 0.249 H 0 Z"
       style="fill:#ececec;fill-opacity:1;fill-rule:nonzero;stroke:none"
       id="path10" />
    <path
       d="m 416.779,101.255 h 33.122 v 0.25 h -33.122 z"
       style="fill:#ececec;fill-opacity:1;fill-rule:nonzero;stroke:none"
       id="path12" />
    <path
       d="m 322.527,98.542 h 8.693 v 0.25 h -8.693 z"
       style="fill:#ececec;fill-opacity:1;fill-rule:nonzero;stroke:none"
       id="path14" />
    <path
       d="m 396.586,110.542 h 19.192 v 0.25 h -19.192 z"
       style="fill:#ececec;fill-opacity:1;fill-rule:nonzero;stroke:none"
       id="path16" />
    <path
       d="m 52.459,108.861 h 43.193 v 0.25 H 52.459 Z"
       style="fill:#ececec;fill-opacity:1;fill-rule:nonzero;stroke:none"
       id="path18" />
    <path
       d="m 104.556,108.861 h 6.333 v 0.25 h -6.333 z"
       style="fill:#ececec;fill-opacity:1;fill-rule:nonzero;stroke:none"
       id="path20" />
    <path
       d="m 131.471,104.639 h 93.676 v 0.25 h -93.676 z"
       style="fill:#ececec;fill-opacity:1;fill-rule:nonzero;stroke:none"
       id="path22" />
    <g
       id="g24">
      <g
         id="g26"
         clip-path="url(#clipPath30)">
        <g
           id="g32"
           transform="translate(43.915,444.7974)">
          <path
             d="m 0,0 c -3.01,0 -5.458,-2.448 -5.458,-5.458 v -271.431 c 0,-3.01 2.448,-5.458 5.458,-5.458 h 193.099 c 3.008,0 5.457,2.448 5.457,5.458 V -5.458 c 0,3.01 -2.449,5.458 -5.457,5.458 z M 193.099,-282.597 H 0 c -3.147,0 -5.708,2.56 -5.708,5.708 V -5.458 c 0,3.147 2.561,5.708 5.708,5.708 h 193.099 c 3.146,0 5.707,-2.561 5.707,-5.708 v -271.431 c 0,-3.148 -2.561,-5.708 -5.707,-5.708"
             style="fill:#ececec;fill-opacity:1;fill-rule:nonzero;stroke:none"
             id="path34" />
        </g>
        <g
           id="g36"
           transform="translate(260.2119,444.7974)">
          <path
             d="m 0,0 c -3.009,0 -5.457,-2.448 -5.457,-5.458 v -271.431 c 0,-3.01 2.448,-5.458 5.457,-5.458 h 193.099 c 3.009,0 5.458,2.448 5.458,5.458 V -5.458 c 0,3.01 -2.449,5.458 -5.458,5.458 z M 193.099,-282.597 H 0 c -3.146,0 -5.707,2.56 -5.707,5.708 V -5.458 c 0,3.147 2.561,5.708 5.707,5.708 h 193.099 c 3.147,0 5.708,-2.561 5.708,-5.708 v -271.431 c 0,-3.148 -2.561,-5.708 -5.708,-5.708"
             style="fill:#ececec;fill-opacity:1;fill-rule:nonzero;stroke:none"
             id="path38" />
        </g>
        <path
           d="M 320.6,267.264 H 69.02 v 144.13 H 320.6 Z"
           style="fill:#e7e7e7;fill-opacity:1;fill-rule:nonzero;stroke:none"
           id="path40" />
        <path
           d="M 324.341,267.264 H 70.768 v 144.13 h 253.573 z"
           style="fill:#f0f0f0;fill-opacity:1;fill-rule:nonzero;stroke:none"
           id="path42" />
        <path
           d="M 76.006,405.51 H 319.103 V 273.148 H 76.006 Z"
           style="fill:#fafafa;fill-opacity:1;fill-rule:nonzero;stroke:none"
           id="path44" />
        <g
           id="g46"
           transform="translate(105.8428,273.1477)">
          <path
             d="M 0,0 30.745,132.362 H 71.048 L 40.303,0 Z"
             style="fill:#ffffff;fill-opacity:1;fill-rule:nonzero;stroke:none"
             id="path48" />
        </g>
        <g
           id="g50"
           transform="translate(152.668,273.1477)">
          <path
             d="M 0,0 30.745,132.362 H 48.946 L 18.201,0 Z"
             style="fill:#ffffff;fill-opacity:1;fill-rule:nonzero;stroke:none"
             id="path52" />
        </g>
        <g
           id="g54"
           transform="translate(224.8901,273.1477)">
          <path
             d="M 0,0 30.745,132.362 H 61.831 L 31.086,0 Z"
             style="fill:#ffffff;fill-opacity:1;fill-rule:nonzero;stroke:none"
             id="path56" />
        </g>
        <path
           d="m 318.438,405.51 h 0.665 V 273.148 h -0.665 z"
           style="fill:#e7e7e7;fill-opacity:1;fill-rule:nonzero;stroke:none"
           id="path58" />
        <path
           d="m 205.111,267.264 h -15.113 v 144.13 h 15.113 z"
           style="fill:#f0f0f0;fill-opacity:1;fill-rule:nonzero;stroke:none"
           id="path60" />
        <path
           d="m 189.333,405.51 h 0.665 V 273.148 h -0.665 z"
           style="fill:#e7e7e7;fill-opacity:1;fill-rule:nonzero;stroke:none"
           id="path62" />
        <path
           d="m 197.818,267.264 h -0.526 v 144.13 h 0.526 z"
           style="fill:#e7e7e7;fill-opacity:1;fill-rule:nonzero;stroke:none"
           id="path64" />
        <path
           d="m 229.833,117.602 h -21.33 v 93.284 h 21.33 z"
           style="fill:#e7e7e7;fill-opacity:1;fill-rule:nonzero;stroke:none"
           id="path66" />
        <g
           id="g68"
           transform="translate(220.5962,117.6016)">
          <path
             d="M 0,0 H 9.237 V 15.48 H -9.685 Z"
             style="fill:#f5f5f5;fill-opacity:1;fill-rule:nonzero;stroke:none"
             id="path70" />
        </g>
        <path
           d="m 64.354,117.602 h -21.33 v 93.284 h 21.33 z"
           style="fill:#e7e7e7;fill-opacity:1;fill-rule:nonzero;stroke:none"
           id="path72" />
        <path
           d="M 229.833,122.93 H 56.292 v 87.956 h 173.541 z"
           style="fill:#f5f5f5;fill-opacity:1;fill-rule:nonzero;stroke:none"
           id="path74" />
        <g
           id="g76"
           transform="translate(65.5298,117.6016)">
          <path
             d="M 0,0 H -9.237 V 15.48 H 9.685 Z"
             style="fill:#f5f5f5;fill-opacity:1;fill-rule:nonzero;stroke:none"
             id="path78" />
        </g>
        <path
           d="M 222.667,171.045 H 63.458 v 32.442 h 159.209 z"
           style="fill:#f0f0f0;fill-opacity:1;fill-rule:nonzero;stroke:none"
           id="path80" />
        <g
           id="g82"
           transform="translate(143.0635,195.7393)">
          <path
             d="m 0,0 c -4.673,0 -8.475,-3.802 -8.475,-8.475 0,-4.673 3.802,-8.475 8.475,-8.475 4.673,0 8.475,3.802 8.475,8.475 C 8.475,-3.802 4.673,0 0,0 m 0,-17.95 c -5.225,0 -9.475,4.251 -9.475,9.475 C -9.475,-3.25 -5.225,1 0,1 5.225,1 9.475,-3.25 9.475,-8.475 9.475,-13.699 5.225,-17.95 0,-17.95"
             style="fill:#ffffff;fill-opacity:1;fill-rule:nonzero;stroke:none"
             id="path84" />
        </g>
        <path
           d="M 222.667,130.766 H 63.458 v 32.442 h 159.209 z"
           style="fill:#f0f0f0;fill-opacity:1;fill-rule:nonzero;stroke:none"
           id="path86" />
        <g
           id="g88"
           transform="translate(143.0635,155.4617)">
          <path
             d="m 0,0 c -4.674,0 -8.476,-3.802 -8.476,-8.475 0,-4.673 3.802,-8.475 8.476,-8.475 4.673,0 8.475,3.802 8.475,8.475 C 8.475,-3.802 4.673,0 0,0 m 0,-17.95 c -5.225,0 -9.476,4.251 -9.476,9.475 C -9.476,-3.25 -5.225,1 0,1 5.225,1 9.475,-3.25 9.475,-8.475 9.475,-13.699 5.225,-17.95 0,-17.95"
             style="fill:#ffffff;fill-opacity:1;fill-rule:nonzero;stroke:none"
             id="path90" />
        </g>
        <path
           d="m 251.44,186.716 h 70.877 V 117.604 H 251.44 Z"
           style="fill:#e7e7e7;fill-opacity:1;fill-rule:nonzero;stroke:none"
           id="path92" />
        <path
           d="m 415.472,186.716 h -93.154 v -69.112 h 93.154 z"
           style="fill:#f0f0f0;fill-opacity:1;fill-rule:nonzero;stroke:none"
           id="path94" />
        <g
           id="g96">
          <g
             id="g98" />
          <g
             id="g108">
            <g
               clip-path="url(#clipPath102)"
               opacity="0.699997"
               id="g106">
              <path
                 d="M 251.44,192.603 H 415.471 V 181.14 H 251.44 Z"
                 style="fill:#e7e7e7;fill-opacity:1;fill-rule:nonzero;stroke:none"
                 id="path104" />
            </g>
          </g>
        </g>
        <path
           d="m 247.866,193.333 h 74.452 v -6.617 h -74.452 z"
           style="fill:#e7e7e7;fill-opacity:1;fill-rule:nonzero;stroke:none"
           id="path110" />
        <path
           d="m 419.046,193.333 h -96.729 v -6.617 h 96.729 z"
           style="fill:#f0f0f0;fill-opacity:1;fill-rule:nonzero;stroke:none"
           id="path112" />
        <g
           id="g114"
           transform="translate(410.2754,121.7294)">
          <path
             d="M 0,0 C -11.461,7.577 -14.61,23.011 -7.033,34.472 0.544,45.934 15.978,49.083 27.439,41.505 38.9,33.928 42.049,18.494 34.472,7.033 26.895,-4.428 11.461,-7.577 0,0"
             style="fill:#e7e7e7;fill-opacity:1;fill-rule:nonzero;stroke:none"
             id="path116" />
        </g>
        <g
           id="g118">
          <g
             id="g120" />
          <g
             id="g132">
            <g
               clip-path="url(#clipPath124)"
               opacity="0.699997"
               id="g130">
              <g
                 transform="translate(418.3447,160.8199)"
                 id="g128">
                <path
                   d="m 0,0 c -2.098,-0.388 -3.953,0.129 -4.143,1.155 -0.19,1.027 1.357,2.173 3.455,2.562 C 1.41,4.105 3.265,3.588 3.455,2.562 3.645,1.535 2.098,0.388 0,0"
                   style="fill:#e7e7e7;fill-opacity:1;fill-rule:nonzero;stroke:none"
                   id="path126" />
              </g>
            </g>
          </g>
        </g>
        <g
           id="g134">
          <g
             id="g136" />
          <g
             id="g148">
            <g
               clip-path="url(#clipPath140)"
               opacity="0.699997"
               id="g146">
              <g
                 transform="translate(408.7559,154.7737)"
                 id="g144">
                <path
                   d="m 0,0 c -1.491,-1.526 -3.305,-2.171 -4.052,-1.442 -0.746,0.73 -0.142,2.558 1.349,4.084 1.491,1.526 3.306,2.171 4.052,1.442 C 2.095,3.354 1.492,1.526 0,0"
                   style="fill:#e7e7e7;fill-opacity:1;fill-rule:nonzero;stroke:none"
                   id="path142" />
              </g>
            </g>
          </g>
        </g>
        <g
           id="g150">
          <g
             id="g152" />
          <g
             id="g164">
            <g
               clip-path="url(#clipPath156)"
               opacity="0.699997"
               id="g162">
              <g
                 transform="translate(417.168,151.7557)"
                 id="g160">
                <path
                   d="m 0,0 c -1.7,-1.29 -3.719,-1.49 -4.51,-0.447 -0.791,1.043 -0.054,2.934 1.645,4.223 1.7,1.29 3.719,1.49 4.511,0.447 C 2.437,3.18 1.7,1.29 0,0"
                   style="fill:#e7e7e7;fill-opacity:1;fill-rule:nonzero;stroke:none"
                   id="path158" />
              </g>
            </g>
          </g>
        </g>
        <path
           d="m 430.466,284.389 h -71.667 v 109.88 h 71.667 z"
           style="fill:#e7e7e7;fill-opacity:1;fill-rule:nonzero;stroke:none"
           id="path166" />
        <path
           d="m 436.537,284.389 h -76.071 v 109.88 h 76.071 z"
           style="fill:#f5f5f5;fill-opacity:1;fill-rule:nonzero;stroke:none"
           id="path168" />
        <path
           d="m 365.316,389.419 h 66.37 v -100.18 h -66.37 z"
           style="fill:#ffffff;fill-opacity:1;fill-rule:nonzero;stroke:none"
           id="path170" />
        <path
           d="m 376.999,342.14 h 43.006 v -5.622 h -43.006 z"
           style="fill:#f5f5f5;fill-opacity:1;fill-rule:nonzero;stroke:none"
           id="path172" />
        <path
           d="m 376.999,356.313 h 43.006 v -5.622 h -43.006 z"
           style="fill:#f5f5f5;fill-opacity:1;fill-rule:nonzero;stroke:none"
           id="path174" />
        <path
           d="m 376.999,370.486 h 43.006 v -5.622 h -43.006 z"
           style="fill:#f5f5f5;fill-opacity:1;fill-rule:nonzero;stroke:none"
           id="path176" />
        <path
           d="m 376.999,327.966 h 43.006 v -5.622 h -43.006 z"
           style="fill:#f5f5f5;fill-opacity:1;fill-rule:nonzero;stroke:none"
           id="path178" />
        <path
           d="m 376.999,313.793 h 43.006 v -5.622 h -43.006 z"
           style="fill:#f5f5f5;fill-opacity:1;fill-rule:nonzero;stroke:none"
           id="path180" />
      </g>
    </g>
    <g
       id="g182">
      <g
         id="g184"
         clip-path="url(#clipPath188)">
        <g
           id="g190"
           transform="translate(237.8013,388.188)">
          <path
             d="m 0,0 c -50.85,-15.228 -172.529,-11.623 -135.254,-103.523 24.44,-60.256 149.506,-86.191 205.632,-69.865 63.143,18.367 106.918,83.958 91.932,147.916 C 154.325,8.607 124.915,41.057 85.834,40.634 51.458,40.261 30.71,9.196 0,0"
             style="fill:#007cff;fill-opacity:1;fill-rule:nonzero;stroke:none"
             id="path192" />
        </g>
        <g
           id="g194">
          <g
             id="g196" />
          <g
             id="g208">
            <g
               clip-path="url(#clipPath200)"
               opacity="0.899994"
               id="g206">
              <g
                 transform="translate(237.8013,388.188)"
                 id="g204">
                <path
                   d="m 0,0 c -50.85,-15.228 -172.529,-11.623 -135.254,-103.523 24.44,-60.256 149.506,-86.191 205.632,-69.865 63.143,18.367 106.918,83.958 91.932,147.916 C 154.325,8.607 124.915,41.057 85.834,40.634 51.458,40.261 30.71,9.196 0,0"
                   style="fill:#ffffff;fill-opacity:1;fill-rule:nonzero;stroke:none"
                   id="path202" />
              </g>
            </g>
          </g>
        </g>
      </g>
    </g>
    <g
       id="g210">
      <g
         id="g212"
         clip-path="url(#clipPath216)">
        <g
           id="g218"
           transform="translate(443.8892,83.762)">
          <path
             d="m 0,0 c 0,-6.254 -86.807,-11.323 -193.889,-11.323 -107.082,0 -193.889,5.069 -193.889,11.323 0,6.253 86.807,11.323 193.889,11.323 C -86.807,11.323 0,6.253 0,0"
             style="fill:#f5f5f5;fill-opacity:1;fill-rule:nonzero;stroke:none"
             id="path220" />
        </g>
      </g>
    </g>
    <g
       id="g222"
       transform="translate(211.752,92.4604)">
      <path
         d="M 0,0 7.581,2.089 4.759,20.201 -2.821,18.112 Z"
         style="fill:#ffc4be;fill-opacity:1;fill-rule:nonzero;stroke:none"
         id="path224" />
    </g>
    <g
       id="g226"
       transform="translate(147.2588,92.2656)">
      <path
         d="M 0,0 H 7.863 L 9.821,18.21 H 1.958 Z"
         style="fill:#ffc4be;fill-opacity:1;fill-rule:nonzero;stroke:none"
         id="path228" />
    </g>
    <g
       id="g230">
      <g
         id="g232"
         clip-path="url(#clipPath236)">
        <g
           id="g238"
           transform="translate(155.7686,93.1763)">
          <path
             d="m 0,0 h -9.587 c -0.321,0 -0.6,-0.223 -0.669,-0.537 l -1.554,-6.99 c -0.161,-0.725 0.409,-1.411 1.152,-1.398 3.084,0.053 5.335,0.234 9.22,0.234 2.39,0 9.598,-0.248 12.898,-0.248 3.228,0 3.732,3.263 2.381,3.559 C 7.782,-4.055 3.216,-2.227 1.276,-0.484 0.927,-0.169 0.47,0 0,0"
             style="fill:#1a2e35;fill-opacity:1;fill-rule:nonzero;stroke:none"
             id="path240" />
        </g>
        <g
           id="g242"
           transform="translate(219.0376,95.4128)">
          <path
             d="m 0,0 -8.279,-2.281 c -0.309,-0.086 -0.518,-0.375 -0.502,-0.696 l 0.359,-7.151 c 0.038,-0.741 0.751,-1.257 1.463,-1.048 2.972,0.874 7.239,2.238 10.993,3.272 4.388,1.21 8.245,2.015 13.392,3.434 3.112,0.858 3.109,4.242 1.727,4.168 C 12.865,-0.639 7.985,-1.835 1.989,-0.087 1.337,0.103 0.654,0.18 0,0"
             style="fill:#1a2e35;fill-opacity:1;fill-rule:nonzero;stroke:none"
             id="path244" />
        </g>
        <g
           id="g246"
           transform="translate(190.2822,338.4595)">
          <path
             d="m 0,0 c 0.304,-0.37 0.752,-0.9 1.153,-1.354 l 1.252,-1.425 c 0.847,-0.947 1.72,-1.877 2.61,-2.784 1.792,-1.802 3.609,-3.565 5.51,-5.166 3.758,-3.213 7.868,-5.958 11.82,-7.193 0.494,-0.174 0.972,-0.263 1.457,-0.391 l 0.71,-0.119 c 0.424,-0.06 -0.004,-0.034 -0.029,-0.074 -0.121,-0.045 0.088,-0.056 0.402,0.056 0.316,0.097 0.732,0.272 1.171,0.502 0.885,0.461 1.863,1.113 2.83,1.832 0.982,0.708 1.969,1.498 2.946,2.326 3.906,3.324 7.796,7.14 11.564,10.898 l 4.744,-3.515 c -2.843,-4.946 -5.988,-9.537 -9.822,-13.94 -1.953,-2.191 -3.982,-4.328 -6.808,-6.312 -0.72,-0.495 -1.504,-0.984 -2.44,-1.434 -0.935,-0.437 -2.045,-0.865 -3.527,-1.059 -0.706,-0.103 -1.819,-0.056 -2.072,-0.016 l -1.326,0.119 c -0.857,0.134 -1.732,0.255 -2.553,0.462 -1.674,0.366 -3.252,0.892 -4.747,1.512 -1.511,0.605 -2.922,1.317 -4.295,2.064 -2.74,1.501 -5.213,3.262 -7.556,5.106 -2.323,1.87 -4.516,3.835 -6.557,5.931 -1.021,1.047 -2.017,2.113 -2.99,3.206 -0.485,0.549 -0.973,1.095 -1.439,1.669 -0.483,0.588 -0.905,1.112 -1.445,1.818 z"
             style="fill:#ffc4be;fill-opacity:1;fill-rule:nonzero;stroke:none"
             id="path248" />
        </g>
        <g
           id="g250"
           transform="translate(193.0264,314.434)">
          <path
             d="M 0,0 3.064,-3.074 17.14,8.208 12.104,12.118 Z"
             style="fill:#1a2e35;fill-opacity:1;fill-rule:nonzero;stroke:none"
             id="path252" />
        </g>
        <g
           id="g254"
           transform="translate(176.5312,335.0725)">
          <path
             d="m 0,0 c -0.583,-7.495 16.296,-22.791 16.296,-22.791 l 14.92,12.941 c 0,0 -6.283,6.652 -13.34,13.346 C 13.022,8.101 0.63,8.109 0,0"
             style="fill:#1a2e35;fill-opacity:1;fill-rule:nonzero;stroke:none"
             id="path256" />
        </g>
        <g
           id="g258">
          <g
             id="g260" />
          <g
             id="g272">
            <g
               clip-path="url(#clipPath264)"
               opacity="0.5"
               id="g270">
              <g
                 transform="translate(176.5312,335.0725)"
                 id="g268">
                <path
                   d="m 0,0 c -0.583,-7.495 16.296,-22.791 16.296,-22.791 l 14.92,12.941 c 0,0 -6.283,6.652 -13.34,13.346 C 13.022,8.101 0.63,8.109 0,0"
                   style="fill:#007cff;fill-opacity:1;fill-rule:nonzero;stroke:none"
                   id="path266" />
              </g>
            </g>
          </g>
        </g>
        <g
           id="g274">
          <g
             id="g276" />
          <g
             id="g288">
            <g
               clip-path="url(#clipPath280)"
               opacity="0.199997"
               id="g286">
              <g
                 transform="translate(197.9941,316.7598)"
                 id="g284">
                <path
                   d="m 0,0 c -0.15,0.7 -0.34,1.4 -0.55,2.09 -1.94,6.16 -6.37,11.74 -13.31,12.37 -3.13,0.28 -4.05,-1.92 -3.81,-5.15 4.82,-6.83 12.5,-13.789 12.5,-13.789 l 1.26,1.089 2.01,-2.01 2.41,1.93 C 0.43,-2.33 0.26,-1.16 0,0"
                   style="fill:#000000;fill-opacity:1;fill-rule:nonzero;stroke:none"
                   id="path282" />
              </g>
            </g>
          </g>
        </g>
        <g
           id="g290"
           transform="translate(233.0649,332.8809)">
          <path
             d="m 0,0 2.247,6.599 8.835,-2.266 c 0,0 -2.809,-3.344 -5.986,-5.723 z"
             style="fill:#ffc4be;fill-opacity:1;fill-rule:nonzero;stroke:none"
             id="path292" />
        </g>
        <g
           id="g294"
           transform="translate(238.8135,342.3218)">
          <path
             d="M 0,0 7.314,-2.544 5.333,-5.108 -3.502,-2.842 Z"
             style="fill:#ffc4be;fill-opacity:1;fill-rule:nonzero;stroke:none"
             id="path296" />
        </g>
        <g
           id="g298">
          <g
             id="g300" />
          <g
             id="g312">
            <g
               clip-path="url(#clipPath304)"
               opacity="0.199997"
               id="g310">
              <g
                 transform="translate(216.5107,112.656)"
                 id="g308">
                <path
                   d="m 0,0 1.456,-9.335 -7.584,-2.091 -1.456,9.336 z"
                   style="fill:#000000;fill-opacity:1;fill-rule:nonzero;stroke:none"
                   id="path306" />
              </g>
            </g>
          </g>
        </g>
        <g
           id="g314">
          <g
             id="g316" />
          <g
             id="g328">
            <g
               clip-path="url(#clipPath320)"
               opacity="0.199997"
               id="g326">
              <g
                 transform="translate(149.2144,110.4709)"
                 id="g324">
                <path
                   d="M 0,0 H 7.867 L 6.854,-9.386 h -7.867 z"
                   style="fill:#000000;fill-opacity:1;fill-rule:nonzero;stroke:none"
                   id="path322" />
              </g>
            </g>
          </g>
        </g>
        <g
           id="g330"
           transform="translate(144.5737,338.7001)">
          <path
             d="m 0,0 c 2.425,-8.689 3.975,-17.538 4.997,-25.866 0.743,-6.094 1.19,-11.909 1.467,-17.182 0.654,-12.361 0.382,-21.785 0.749,-24.977 6.149,0.426 29.321,2.038 41.956,2.922 5.713,44.731 -5.197,67.777 -5.197,67.777 0,0 -4.644,0.926 -10.042,1.241 C 33.219,3.961 32.496,3.986 31.761,4.001 27.009,4.101 19.263,3.389 13.923,2.759 12.801,2.626 11.666,2.461 10.562,2.283 4.944,1.369 0,0 0,0"
             style="fill:#1a2e35;fill-opacity:1;fill-rule:nonzero;stroke:none"
             id="path332" />
        </g>
        <g
           id="g334">
          <g
             id="g336" />
          <g
             id="g348">
            <g
               clip-path="url(#clipPath340)"
               opacity="0.5"
               id="g346">
              <g
                 transform="translate(144.5737,338.7001)"
                 id="g344">
                <path
                   d="m 0,0 c 2.425,-8.689 3.975,-17.538 4.997,-25.866 0.743,-6.094 1.19,-11.909 1.467,-17.182 0.654,-12.361 0.382,-21.785 0.749,-24.977 6.149,0.426 29.321,2.038 41.956,2.922 5.713,44.731 -5.197,67.777 -5.197,67.777 0,0 -4.644,0.926 -10.042,1.241 C 33.219,3.961 32.496,3.986 31.761,4.001 27.009,4.101 19.263,3.389 13.923,2.759 12.801,2.626 11.666,2.461 10.562,2.283 4.944,1.369 0,0 0,0"
                   style="fill:#007cff;fill-opacity:1;fill-rule:nonzero;stroke:none"
                   id="path342" />
              </g>
            </g>
          </g>
        </g>
        <g
           id="g350"
           transform="translate(184.333,315.5715)">
          <path
             d="m 0,0 -9.159,-0.613 c -0.279,-0.019 -0.544,0.19 -0.593,0.466 l -0.077,0.434 c -0.071,0.399 -0.562,0.607 -0.857,0.364 l -4.931,-4.064 c -0.264,-0.218 -0.186,-0.655 0.149,-0.833 l 6.241,-3.317 c 0.375,-0.198 0.781,0.07 0.709,0.469 l -0.077,0.434 c -0.049,0.276 0.137,0.515 0.415,0.534 l 9.16,0.613 c 0.278,0.018 0.464,0.258 0.415,0.534 L 0.593,-0.466 C 0.544,-0.19 0.278,0.019 0,0"
             style="fill:#ffffff;fill-opacity:1;fill-rule:nonzero;stroke:none"
             id="path352" />
        </g>
        <g
           id="g354"
           transform="translate(167.9893,317.8403)">
          <path
             d="M 0,0 9.159,0.613 C 9.438,0.632 9.703,0.423 9.752,0.147 l 0.077,-0.434 c 0.071,-0.399 0.562,-0.607 0.857,-0.364 l 4.93,4.064 c 0.265,0.218 0.187,0.655 -0.148,0.833 L 9.226,7.563 C 8.852,7.761 8.446,7.493 8.517,7.094 L 8.594,6.66 C 8.644,6.384 8.458,6.145 8.179,6.126 L -0.98,5.513 C -1.258,5.495 -1.444,5.256 -1.395,4.979 L -0.593,0.466 C -0.544,0.19 -0.278,-0.019 0,0"
             style="fill:#ffffff;fill-opacity:1;fill-rule:nonzero;stroke:none"
             id="path356" />
        </g>
        <g
           id="g358"
           transform="translate(158.4946,341.46)">
          <path
             d="m 0,0 c 5.34,0.63 13.09,1.34 17.84,1.24 0.73,-0.01 1.46,-0.04 2.17,-0.08 0.08,0 0.17,-0.01 0.25,-0.02 1.27,-2.63 2.919,-10.457 -2.93,-11.267 C 9.389,-11.227 0.41,-4.37 -3.36,-0.48 -2.26,-0.3 -1.12,-0.13 0,0"
             style="fill:#1a2e35;fill-opacity:1;fill-rule:nonzero;stroke:none"
             id="path360" />
        </g>
        <g
           id="g362">
          <g
             id="g364" />
          <g
             id="g376">
            <g
               clip-path="url(#clipPath368)"
               opacity="0.199997"
               id="g374">
              <g
                 transform="translate(155.168,327.3833)"
                 id="g372">
                <path
                   d="m 0,0 c 0.023,-7.031 -1.917,-12.973 -5.193,-18.181 -0.118,1.197 -0.256,2.407 -0.405,3.628 -0.56,4.578 -1.282,9.318 -2.239,14.106 z"
                   style="fill:#000000;fill-opacity:1;fill-rule:nonzero;stroke:none"
                   id="path370" />
              </g>
            </g>
          </g>
        </g>
        <g
           id="g378"
           transform="translate(158.8652,361.6652)">
          <path
             d="m 0,0 c 1.525,-5.66 3.382,-16.097 -0.365,-20.206 3.155,-2.826 7.695,-5.101 14.132,-4.512 4.93,0.452 4.937,3.921 3.703,5.756 -6.506,1.082 -6.672,5.841 -5.869,10.378 z"
             style="fill:#ffc4be;fill-opacity:1;fill-rule:nonzero;stroke:none"
             id="path380" />
        </g>
        <g
           id="g382">
          <g
             id="g384" />
          <g
             id="g396">
            <g
               clip-path="url(#clipPath388)"
               opacity="0.199997"
               id="g394">
              <g
                 transform="translate(163.5952,358.1622)"
                 id="g392">
                <path
                   d="M 0,0 6.866,-5.077 C 6.672,-6.151 6.539,-7.235 6.537,-8.281 4.067,-8.098 0.522,-5.649 0.084,-3.107 -0.135,-1.84 -0.167,-0.609 0,0"
                   style="fill:#000000;fill-opacity:1;fill-rule:nonzero;stroke:none"
                   id="path390" />
              </g>
            </g>
          </g>
        </g>
        <g
           id="g398"
           transform="translate(187.7319,391.5718)">
          <path
             d="m 0,0 c 2.904,-6.118 -8.526,-20.968 -17.853,-19.376 -4.539,0.776 -10.594,2.392 -15.615,3.847 -4.536,1.314 -6.196,7.295 -1.889,8.053 C -20.757,-4.905 -4.823,10.16 0,0"
             style="fill:#1a2e35;fill-opacity:1;fill-rule:nonzero;stroke:none"
             id="path400" />
        </g>
        <g
           id="g402"
           transform="translate(157.5796,370.2537)">
          <path
             d="m 0,0 c 1.02,-7.737 1.223,-12.318 5.426,-16.032 6.323,-5.588 15.666,-1.36 16.978,6.526 C 23.586,-2.407 21.72,9.053 13.898,11.615 6.192,14.138 -1.02,7.737 0,0"
             style="fill:#ffc4be;fill-opacity:1;fill-rule:nonzero;stroke:none"
             id="path404" />
        </g>
        <g
           id="g406"
           transform="translate(172.6382,360.3586)">
          <path
             d="M 0,0 C -0.001,0 -0.003,0 -0.004,0 -3.211,-0.204 -4.82,1.902 -4.887,1.991 -4.953,2.08 -4.935,2.205 -4.846,2.272 -4.757,2.338 -4.632,2.32 -4.565,2.231 -4.55,2.211 -3.012,0.211 -0.03,0.4 0.081,0.407 0.176,0.323 0.183,0.213 0.19,0.104 0.108,0.009 0,0"
             style="fill:#1a2e35;fill-opacity:1;fill-rule:nonzero;stroke:none"
             id="path408" />
        </g>
        <g
           id="g410"
           transform="translate(163.0171,366.7496)">
          <path
             d="M 0,0 C 2.933,6.385 3.562,12.911 -1.792,14.907 -7.146,16.904 -11.656,14.229 -13.149,10.198 -14.642,6.168 -4.273,-9.302 0,0"
             style="fill:#1a2e35;fill-opacity:1;fill-rule:nonzero;stroke:none"
             id="path412" />
        </g>
        <g
           id="g414"
           transform="translate(156.9312,378.9224)">
          <path
             d="M 0,0 C 5.378,-3.854 23.822,-4.083 21.22,2.837 19.271,8.019 6.463,7.859 0,0"
             style="fill:#1a2e35;fill-opacity:1;fill-rule:nonzero;stroke:none"
             id="path416" />
        </g>
        <g
           id="g418"
           transform="translate(154.668,361.4434)">
          <path
             d="m 0,0 c 1.227,-1.709 3.129,-2.693 4.84,-2.946 2.573,-0.38 3.535,2 2.547,4.258 C 6.499,3.345 4.089,5.992 1.637,5.339 -0.778,4.694 -1.403,1.955 0,0"
             style="fill:#ffc4be;fill-opacity:1;fill-rule:nonzero;stroke:none"
             id="path420" />
        </g>
        <g
           id="g422"
           transform="translate(220.3247,105.8545)">
          <path
             d="m 0,0 -12.838,-3.532 c 0,0 -16.075,50.678 -20.025,78.509 -1.048,7.38 -2.664,17.757 -5.131,28.817 -3.115,13.935 -7.023,29.003 -10.221,40.803 -3.375,12.427 -5.945,21.223 -5.945,21.223 l 27.583,1.923 c 0,0 14.925,-65.095 16.508,-89.042 C -8.42,53.801 0,0 0,0"
             style="fill:#007cff;fill-opacity:1;fill-rule:nonzero;stroke:none"
             id="path424" />
        </g>
        <g
           id="g426">
          <g
             id="g428" />
          <g
             id="g440">
            <g
               clip-path="url(#clipPath432)"
               opacity="0.300003"
               id="g438">
              <g
                 transform="translate(220.3247,105.8545)"
                 id="g436">
                <path
                   d="m 0,0 -12.838,-3.532 c 0,0 -16.075,50.678 -20.025,78.509 -1.048,7.38 -2.664,17.757 -5.131,28.817 -3.115,13.935 -7.023,29.003 -10.221,40.803 -3.375,12.427 -5.945,21.223 -5.945,21.223 l 27.583,1.923 c 0,0 14.925,-65.095 16.508,-89.042 C -8.42,53.801 0,0 0,0"
                   style="fill:#fafafa;fill-opacity:1;fill-rule:nonzero;stroke:none"
                   id="path434" />
              </g>
            </g>
          </g>
        </g>
        <g
           id="g442">
          <g
             id="g444" />
          <g
             id="g456">
            <g
               clip-path="url(#clipPath448)"
               opacity="0.199997"
               id="g454">
              <g
                 transform="translate(182.3306,209.6486)"
                 id="g452">
                <path
                   d="m 0,0 c -3.115,13.935 -7.022,29.003 -10.221,40.803 l 2.863,6.164 C -0.517,38.837 1.324,13.671 0,0"
                   style="fill:#000000;fill-opacity:1;fill-rule:nonzero;stroke:none"
                   id="path450" />
              </g>
            </g>
          </g>
        </g>
        <g
           id="g458"
           transform="translate(178.8657,272.5596)">
          <path
             d="m 0,0 c 0,0 -2.977,-67.322 -6.296,-90.122 -3.636,-24.968 -12.868,-79.535 -12.868,-79.535 h -14.402 c 0,0 -0.241,51.739 4.27,75.923 5.138,27.547 2.223,91.844 2.223,91.844 z"
             style="fill:#007cff;fill-opacity:1;fill-rule:nonzero;stroke:none"
             id="path460" />
        </g>
        <g
           id="g462">
          <g
             id="g464" />
          <g
             id="g476">
            <g
               clip-path="url(#clipPath468)"
               opacity="0.300003"
               id="g474">
              <g
                 transform="translate(178.8657,272.5596)"
                 id="g472">
                <path
                   d="m 0,0 c 0,0 -2.977,-67.322 -6.296,-90.122 -3.636,-24.968 -12.868,-79.535 -12.868,-79.535 h -14.402 c 0,0 -0.241,51.739 4.27,75.923 5.138,27.547 2.223,91.844 2.223,91.844 z"
                   style="fill:#fafafa;fill-opacity:1;fill-rule:nonzero;stroke:none"
                   id="path470" />
              </g>
            </g>
          </g>
        </g>
        <g
           id="g478"
           transform="translate(161.4258,102.5908)">
          <path
             d="M 0,0 H -16.959 V 5.066 L 1.998,5.396 Z"
             style="fill:#007cff;fill-opacity:1;fill-rule:nonzero;stroke:none"
             id="path480" />
        </g>
        <g
           id="g482"
           transform="translate(221.2114,105.7776)">
          <path
             d="M 0,0 -14.489,-3.993 -16.578,1 -0.06,5.579 Z"
             style="fill:#007cff;fill-opacity:1;fill-rule:nonzero;stroke:none"
             id="path484" />
        </g>
        <g
           id="g486"
           transform="translate(169.5176,368.9042)">
          <path
             d="M 0,0 C 0.044,-0.633 0.416,-1.122 0.829,-1.093 1.243,-1.064 1.542,-0.528 1.498,0.105 1.454,0.737 1.083,1.227 0.669,1.198 0.255,1.169 -0.044,0.633 0,0"
             style="fill:#1a2e35;fill-opacity:1;fill-rule:nonzero;stroke:none"
             id="path488" />
        </g>
        <g
           id="g490"
           transform="translate(176.6694,369.4033)">
          <path
             d="M 0,0 C 0.044,-0.633 0.415,-1.122 0.829,-1.093 1.243,-1.064 1.542,-0.528 1.498,0.105 1.454,0.737 1.083,1.227 0.669,1.198 0.255,1.169 -0.044,0.633 0,0"
             style="fill:#1a2e35;fill-opacity:1;fill-rule:nonzero;stroke:none"
             id="path492" />
        </g>
        <g
           id="g494"
           transform="translate(174.418,368.9299)">
          <path
             d="M 0,0 C 0,0 1.693,-3.55 3.4,-5.2 2.354,-6.323 0.32,-5.825 0.32,-5.825 Z"
             style="fill:#ff857f;fill-opacity:1;fill-rule:nonzero;stroke:none"
             id="path496" />
        </g>
        <g
           id="g498"
           transform="translate(167.1353,371.0614)">
          <path
             d="M 0,0 C 0.135,-0.015 0.274,0.045 0.353,0.167 1.26,1.559 2.633,1.574 2.646,1.574 2.852,1.574 3.02,1.741 3.02,1.946 3.019,2.151 2.861,2.321 2.647,2.319 2.574,2.319 0.854,2.3 -0.271,0.574 -0.384,0.401 -0.335,0.17 -0.163,0.058 -0.112,0.025 -0.056,0.006 0,0"
             style="fill:#1a2e35;fill-opacity:1;fill-rule:nonzero;stroke:none"
             id="path500" />
        </g>
        <g
           id="g502"
           transform="translate(179.5635,372.0796)">
          <path
             d="M 0,0 C 0.075,-0.008 0.154,0.007 0.225,0.048 0.404,0.15 0.465,0.378 0.362,0.556 -0.665,2.342 -2.379,2.461 -2.454,2.462 -2.659,2.473 -2.834,2.316 -2.846,2.111 -2.857,1.906 -2.691,1.729 -2.497,1.718 -2.438,1.71 -1.105,1.613 -0.283,0.185 -0.222,0.078 -0.115,0.012 0,0"
             style="fill:#1a2e35;fill-opacity:1;fill-rule:nonzero;stroke:none"
             id="path504" />
        </g>
        <g
           id="g506"
           transform="translate(159.5371,93.4302)">
          <path
             d="M 0,0 C 0.098,0 0.179,-0.015 0.242,-0.047 0.292,-0.073 0.351,-0.121 0.359,-0.266 0.378,-0.562 0.295,-0.783 0.106,-0.942 -0.324,-1.303 -1.35,-1.352 -2.686,-1.083 -1.798,-0.57 -0.603,0 0,0 m -1.168,-1.628 c 0.598,0 1.158,0.102 1.514,0.401 0.282,0.237 0.411,0.568 0.385,0.985 -0.019,0.309 -0.184,0.457 -0.319,0.526 -0.873,0.449 -3.406,-1.112 -3.692,-1.291 -0.064,-0.04 -0.098,-0.113 -0.086,-0.188 0.012,-0.074 0.068,-0.133 0.14,-0.151 0.546,-0.131 1.33,-0.282 2.058,-0.282"
             style="fill:#007cff;fill-opacity:1;fill-rule:nonzero;stroke:none"
             id="path508" />
        </g>
        <g
           id="g510"
           transform="translate(157.9424,95.2671)">
          <path
             d="m 0,0 c 0.028,0 0.056,-0.001 0.084,-0.005 0.242,-0.03 0.264,-0.141 0.272,-0.188 0.099,-0.518 -0.903,-1.82 -1.712,-2.434 0.091,0.663 0.342,1.985 0.928,2.464 C -0.294,-0.054 -0.153,0 0,0 m -1.587,-3.188 c 0.03,0 0.061,0.008 0.089,0.022 C -0.685,-2.723 0.889,-1 0.723,-0.124 0.692,0.035 0.575,0.31 0.13,0.365 -0.157,0.399 -0.426,0.32 -0.664,0.125 c -0.913,-0.747 -1.101,-3.016 -1.108,-3.112 -0.006,-0.068 0.026,-0.134 0.084,-0.17 0.03,-0.02 0.065,-0.031 0.101,-0.031"
             style="fill:#007cff;fill-opacity:1;fill-rule:nonzero;stroke:none"
             id="path512" />
        </g>
        <g
           id="g514"
           transform="translate(223.7964,96.9392)">
          <path
             d="m 0,0 c 0.018,-0.002 0.035,-0.005 0.052,-0.009 0.084,-0.02 0.133,-0.068 0.166,-0.16 0.086,-0.238 0.067,-0.446 -0.057,-0.637 -0.352,-0.541 -1.58,-0.958 -3.33,-1.142 C -2.114,-1.033 -0.614,0.066 0,0 m -3.732,-2.367 c 0.011,-10e-4 0.022,-0.002 0.033,-10e-4 1.289,0.093 3.545,0.394 4.172,1.359 0.19,0.29 0.221,0.616 0.096,0.966 C 0.494,0.166 0.345,0.303 0.141,0.353 -0.913,0.6 -3.543,-1.773 -3.838,-2.046 c -0.058,-0.053 -0.076,-0.138 -0.044,-0.211 0.026,-0.062 0.085,-0.103 0.15,-0.11"
             style="fill:#007cff;fill-opacity:1;fill-rule:nonzero;stroke:none"
             id="path516" />
        </g>
        <g
           id="g518"
           transform="translate(221.4614,98.1963)">
          <path
             d="m 0,0 c 0.145,-0.016 0.177,-0.088 0.191,-0.117 0.225,-0.492 -0.652,-2.119 -1.431,-2.938 -0.067,0.624 -0.134,1.92 0.356,2.614 0.171,0.242 0.389,0.382 0.669,0.429 C -0.125,0.003 -0.055,0.006 0,0 m -1.397,-3.624 c 0.049,-0.006 0.1,0.009 0.139,0.041 0.801,0.663 2.162,2.802 1.787,3.621 C 0.441,0.23 0.227,0.441 -0.277,0.355 -0.654,0.292 -0.961,0.095 -1.188,-0.227 -1.935,-1.285 -1.576,-3.383 -1.56,-3.471 c 0.012,-0.066 0.057,-0.12 0.119,-0.143 0.014,-0.006 0.029,-0.009 0.044,-0.01"
             style="fill:#007cff;fill-opacity:1;fill-rule:nonzero;stroke:none"
             id="path520" />
        </g>
        <g
           id="g522"
           transform="translate(144.4263,273.2186)">
          <path
             d="m 0,0 v 0 c -0.143,1.745 -1.306,3.101 -2.804,3.27 l -23.402,2.64 c -1.775,0.201 -3.405,-1.32 -3.639,-3.396 l -6.859,-60.78 c -0.234,-2.076 1.016,-3.922 2.791,-4.122 l 74.263,-8.38 c 1.775,-0.201 3.404,1.32 3.639,3.396 l 5.761,51.054 c 0.234,2.076 -1.016,3.921 -2.791,4.121 l -40.41,4.56 C 3.051,-7.242 0.334,-4.075 0,0"
             style="fill:#1a2e35;fill-opacity:1;fill-rule:nonzero;stroke:none"
             id="path524" />
        </g>
        <g
           id="g526"
           transform="translate(154.3047,259.8929)">
          <path
             d="m 0,0 v 0 c 0.121,1.524 -0.855,2.723 -2.354,2.892 l -23.401,2.641 c -1.776,0.2 -3.665,-1.102 -4.22,-2.909 l -14.801,-48.19 c -0.555,-1.807 0.435,-3.434 2.21,-3.635 l 74.262,-8.38 c 1.776,-0.2 3.665,1.102 4.22,2.91 l 12.2,39.722 c 0.555,1.807 -0.434,3.434 -2.21,3.635 L 5.497,-6.755 C 1.998,-6.36 -0.281,-3.558 0,0"
             style="fill:#007cff;fill-opacity:1;fill-rule:nonzero;stroke:none"
             id="path528" />
        </g>
        <g
           id="g530"
           transform="translate(153.0469,327.1743)">
          <path
             d="m 0,0 -2.208,-3.153 c -0.747,-1.079 -1.479,-2.175 -2.196,-3.279 -1.447,-2.199 -2.837,-4.429 -4.192,-6.665 -1.326,-2.249 -2.587,-4.515 -3.768,-6.794 -1.125,-2.29 -2.199,-4.584 -3.057,-6.88 l -0.078,-0.199 -0.027,-0.086 c -0.02,-0.056 -0.043,-0.112 -0.07,-0.168 -0.035,-0.182 -0.089,-0.338 -0.126,-0.549 -0.074,-0.426 -0.129,-0.922 -0.171,-1.459 -0.079,-1.077 -0.066,-2.289 0.003,-3.526 0.145,-2.48 0.421,-5.095 0.809,-7.71 0.759,-5.237 1.74,-10.62 2.754,-15.905 l -5.603,-1.863 c -2.356,5.164 -4.332,10.37 -5.931,15.859 -0.77,2.75 -1.501,5.541 -1.968,8.518 -0.238,1.489 -0.428,3.021 -0.49,4.69 -0.033,0.836 -0.017,1.711 0.06,2.649 0.039,0.471 0.121,0.989 0.194,1.485 l 0.187,0.828 0.1,0.414 0.085,0.289 c 1.66,5.859 4.089,11.177 6.829,16.242 1.374,2.529 2.846,4.987 4.394,7.388 0.781,1.198 1.577,2.383 2.395,3.559 0.82,1.197 1.634,2.301 2.593,3.538 z"
             style="fill:#ffc4be;fill-opacity:1;fill-rule:nonzero;stroke:none"
             id="path532" />
        </g>
        <g
           id="g534"
           transform="translate(132.2964,320.1111)">
          <path
             d="m 0,0 -2.528,-3.528 13.445,-12.028 3.027,5.612 z"
             style="fill:#1a2e35;fill-opacity:1;fill-rule:nonzero;stroke:none"
             id="path536" />
        </g>
        <g
           id="g538"
           transform="translate(144.5737,338.7001)">
          <path
             d="M 0,0 C -7.37,-1.486 -13.835,-19.513 -13.835,-19.513 L 1.546,-32.042 c 0,0 5.04,9.163 9.072,18.003 C 15.009,-4.409 8.927,1.801 0,0"
             style="fill:#1a2e35;fill-opacity:1;fill-rule:nonzero;stroke:none"
             id="path540" />
        </g>
        <g
           id="g542">
          <g
             id="g544" />
          <g
             id="g556">
            <g
               clip-path="url(#clipPath548)"
               opacity="0.5"
               id="g554">
              <g
                 transform="translate(144.5737,338.7001)"
                 id="g552">
                <path
                   d="M 0,0 C -7.37,-1.486 -13.835,-19.513 -13.835,-19.513 L 1.546,-32.042 c 0,0 5.04,9.163 9.072,18.003 C 15.009,-4.409 8.927,1.801 0,0"
                   style="fill:#007cff;fill-opacity:1;fill-rule:nonzero;stroke:none"
                   id="path550" />
              </g>
            </g>
          </g>
        </g>
        <g
           id="g558"
           transform="translate(139.8906,272.3414)">
          <path
             d="M 0,0 5.305,-5.965 -4.3,-8.901 c 0,0 -3.389,6.08 -0.368,8.236 z"
             style="fill:#ffc4be;fill-opacity:1;fill-rule:nonzero;stroke:none"
             id="path560" />
        </g>
        <g
           id="g562"
           transform="translate(145.6509,259.8236)">
          <path
             d="m 0,0 -8.053,-2.055 -2.008,5.672 9.606,2.936 z"
             style="fill:#ffc4be;fill-opacity:1;fill-rule:nonzero;stroke:none"
             id="path564" />
        </g>
      </g>
    </g>
    <g
       id="g566">
      <g
         id="g568"
         clip-path="url(#clipPath572)">
        <g
           id="g574"
           transform="translate(325.7881,366.7698)">
          <path
             d="M 0,0 V 0 C -0.532,1.668 -1.97,2.728 -3.467,2.556 L -26.864,-0.13 c -1.775,-0.204 -3.021,-2.052 -2.782,-4.127 l 6.975,-60.768 c 0.238,-2.075 1.871,-3.592 3.646,-3.389 l 74.246,8.524 c 1.775,0.203 3.021,2.051 2.783,4.127 l -5.86,51.042 c -0.238,2.076 -1.87,3.593 -3.645,3.389 L 8.098,-5.97 C 4.6,-6.371 1.242,-3.895 0,0"
             style="fill:#1a2e35;fill-opacity:1;fill-rule:nonzero;stroke:none"
             id="path576" />
        </g>
        <g
           id="g578"
           transform="translate(337.0405,388.916)">
          <path
             d="m 0,0 c 5.117,-22.361 8.454,-45.373 9.879,-68.812 -18.446,-2.196 -36.9,-3.92 -55.346,-5.172 -1.424,25.723 -5.49,50.804 -11.942,74.863 13.029,3.506 26.013,7.26 38.946,11.263 C -12.252,8.291 -6.094,4.244 0,0"
             style="fill:#007cff;fill-opacity:1;fill-rule:nonzero;stroke:none"
             id="path580" />
        </g>
        <g
           id="g582">
          <g
             id="g584" />
          <g
             id="g596">
            <g
               clip-path="url(#clipPath588)"
               opacity="0.699997"
               id="g594">
              <g
                 transform="translate(337.0405,388.916)"
                 id="g592">
                <path
                   d="m 0,0 c 5.117,-22.361 8.454,-45.373 9.879,-68.812 -18.446,-2.196 -36.9,-3.92 -55.346,-5.172 -1.424,25.723 -5.49,50.804 -11.942,74.863 13.029,3.506 26.013,7.26 38.946,11.263 C -12.252,8.291 -6.094,4.244 0,0"
                   style="fill:#fafafa;fill-opacity:1;fill-rule:nonzero;stroke:none"
                   id="path590" />
              </g>
            </g>
          </g>
        </g>
        <g
           id="g598"
           transform="translate(333.8896,377.3296)">
          <path
             d="m 0,0 c -14.42,-3.618 -28.886,-6.934 -43.387,-9.948 -0.624,-0.13 -1.238,0.288 -1.366,0.926 -0.129,0.637 0.274,1.27 0.897,1.402 14.481,3.103 28.926,6.506 43.324,10.211 C 0.087,2.752 0.716,2.3 0.862,1.583 1.01,0.869 0.62,0.156 0,0"
             style="fill:#007cff;fill-opacity:1;fill-rule:nonzero;stroke:none"
             id="path600" />
        </g>
        <g
           id="g602"
           transform="translate(335.4478,369.2031)">
          <path
             d="m 0,0 c -14.488,-3.343 -29.015,-6.384 -43.572,-9.125 -0.626,-0.115 -1.232,0.313 -1.348,0.956 -0.116,0.638 0.298,1.264 0.923,1.388 14.54,2.829 29.048,5.959 43.515,9.39 C 0.14,2.758 0.76,2.292 0.893,1.571 1.026,0.852 0.623,0.145 0,0"
             style="fill:#007cff;fill-opacity:1;fill-rule:nonzero;stroke:none"
             id="path604" />
        </g>
        <g
           id="g606"
           transform="translate(336.8477,361.0269)">
          <path
             d="m 0,0 c -14.55,-3.068 -29.134,-5.837 -43.742,-8.301 -0.628,-0.109 -1.225,0.341 -1.329,0.985 -0.103,0.644 0.323,1.266 0.951,1.376 14.592,2.553 29.158,5.407 43.689,8.564 C 0.193,2.759 0.804,2.281 0.923,1.557 1.042,0.835 0.625,0.13 0,0"
             style="fill:#007cff;fill-opacity:1;fill-rule:nonzero;stroke:none"
             id="path608" />
        </g>
        <g
           id="g610"
           transform="translate(338.0879,352.7993)">
          <path
             d="m 0,0 c -14.607,-2.792 -29.242,-5.284 -43.896,-7.472 -0.629,-0.093 -1.218,0.365 -1.309,1.014 -0.091,0.65 0.348,1.261 0.977,1.361 14.64,2.277 29.259,4.856 43.848,7.738 C 0.248,2.768 0.849,2.273 0.954,1.544 1.059,0.816 0.628,0.124 0,0"
             style="fill:#007cff;fill-opacity:1;fill-rule:nonzero;stroke:none"
             id="path612" />
        </g>
        <g
           id="g614"
           transform="translate(321.6738,341.668)">
          <path
             d="m 0,0 c -8.841,-1.372 -17.688,-2.632 -26.54,-3.784 -0.632,-0.084 -1.211,0.388 -1.29,1.042 -0.078,0.656 0.373,1.261 1.004,1.346 8.845,1.207 17.684,2.521 26.516,3.945 C 0.321,2.653 0.909,2.159 0.994,1.457 1.08,0.757 0.631,0.098 0,0"
             style="fill:#007cff;fill-opacity:1;fill-rule:nonzero;stroke:none"
             id="path616" />
        </g>
        <g
           id="g618"
           transform="translate(337.0405,388.916)">
          <path
             d="M 0,0 C -4.813,-1.355 -9.632,-2.677 -14.457,-3.965 -15.686,1.444 -17.021,6.814 -18.463,12.142 -12.252,8.291 -6.094,4.244 0,0"
             style="fill:#007cff;fill-opacity:1;fill-rule:nonzero;stroke:none"
             id="path620" />
        </g>
        <g
           id="g622"
           transform="translate(338.4087,356.0049)">
          <path
             d="M 0,0 V 0 C -0.225,1.512 -1.446,2.461 -2.943,2.289 L -26.34,-0.397 c -1.775,-0.203 -3.324,-1.897 -3.458,-3.783 l -3.593,-50.283 c -0.134,-1.885 1.195,-3.249 2.971,-3.045 l 74.245,8.523 c 1.776,0.204 3.324,1.898 3.459,3.783 l 2.961,41.448 c 0.135,1.886 -1.195,3.249 -2.971,3.045 L 6.874,-5.347 C 3.376,-5.748 0.525,-3.531 0,0"
             style="fill:#007cff;fill-opacity:1;fill-rule:nonzero;stroke:none"
             id="path624" />
        </g>
        <g
           id="g626"
           transform="translate(281.5703,316.9951)">
          <path
             d="m 0,0 c -2.084,-20.72 -4.646,-41.333 -7.68,-61.826 -18.251,2.89 -36.511,5.687 -54.78,8.387 3.632,24.585 6.557,49.356 8.761,74.284 13.438,-1.212 26.875,-2.474 40.31,-3.788 C -8.89,11.427 -4.427,5.743 0,0"
             style="fill:#007cff;fill-opacity:1;fill-rule:nonzero;stroke:none"
             id="path628" />
        </g>
        <g
           id="g630">
          <g
             id="g632" />
          <g
             id="g644">
            <g
               clip-path="url(#clipPath636)"
               opacity="0.699997"
               id="g642">
              <g
                 transform="translate(281.5703,316.9951)"
                 id="g640">
                <path
                   d="m 0,0 c -2.084,-20.72 -4.646,-41.333 -7.68,-61.826 -18.251,2.89 -36.511,5.687 -54.78,8.387 3.632,24.585 6.557,49.356 8.761,74.284 13.438,-1.212 26.875,-2.474 40.31,-3.788 C -8.89,11.427 -4.427,5.743 0,0"
                   style="fill:#fafafa;fill-opacity:1;fill-rule:nonzero;stroke:none"
                   id="path638" />
              </g>
            </g>
          </g>
        </g>
        <g
           id="g646"
           transform="translate(275.1221,308.2144)">
          <path
             d="m 0,0 c -14.707,1.735 -29.417,3.41 -44.129,5.024 -0.633,0.068 -1.095,0.648 -1.027,1.286 0,0 0,0 0,0 0.068,0.639 0.641,1.109 1.274,1.036 C -29.166,5.759 -14.453,4.109 0.256,2.4 0.889,2.329 1.349,1.726 1.279,1.065 1.208,0.404 0.633,-0.074 0,0"
             style="fill:#007cff;fill-opacity:1;fill-rule:nonzero;stroke:none"
             id="path648" />
        </g>
        <g
           id="g650"
           transform="translate(274.2944,300.7271)">
          <path
             d="m 0,0 c -14.697,1.817 -29.397,3.573 -44.101,5.267 -0.632,0.074 -1.09,0.655 -1.019,1.291 0.072,0.636 0.647,1.1 1.28,1.028 C -29.134,5.917 -14.43,4.187 0.27,2.397 0.902,2.32 1.359,1.717 1.285,1.058 c 0,0 0,0 0,0 C 1.21,0.392 0.632,-0.082 0,0"
             style="fill:#007cff;fill-opacity:1;fill-rule:nonzero;stroke:none"
             id="path652" />
        </g>
        <g
           id="g654"
           transform="translate(273.4248,293.25)">
          <path
             d="m 0,0 c -14.687,1.897 -29.377,3.734 -44.071,5.509 -0.632,0.078 -1.087,0.66 -1.012,1.297 0.076,0.635 0.653,1.093 1.286,1.02 14.697,-1.749 29.39,-3.56 44.08,-5.432 0.632,-0.08 1.086,-0.686 1.008,-1.345 0,0 0,0 0,0 C 1.212,0.391 0.631,-0.083 0,0"
             style="fill:#007cff;fill-opacity:1;fill-rule:nonzero;stroke:none"
             id="path656" />
        </g>
        <g
           id="g658"
           transform="translate(272.5132,285.7822)">
          <path
             d="m 0,0 c -14.675,1.979 -29.355,3.896 -44.039,5.752 -0.631,0.082 -1.083,0.665 -1.004,1.301 0.078,0.638 0.659,1.091 1.291,1.012 C -29.065,6.235 -14.382,4.344 0.297,2.391 0.928,2.304 1.378,1.697 1.296,1.042 1.215,0.384 0.631,-0.084 0,0"
             style="fill:#007cff;fill-opacity:1;fill-rule:nonzero;stroke:none"
             id="path660" />
        </g>
        <g
           id="g662"
           transform="translate(254.0684,280.752)">
          <path
             d="m 0,0 c -8.836,1.211 -17.674,2.4 -26.514,3.567 -0.632,0.081 -1.08,0.669 -0.998,1.306 0.082,0.635 0.666,1.089 1.297,1.004 8.842,-1.15 17.682,-2.324 26.521,-3.52 0.631,-0.086 1.079,-0.687 0.995,-1.335 0,0 0,0 0,0 C 1.216,0.373 0.631,-0.087 0,0"
             style="fill:#007cff;fill-opacity:1;fill-rule:nonzero;stroke:none"
             id="path664" />
        </g>
        <g
           id="g666"
           transform="translate(281.5703,316.9951)">
          <path
             d="m 0,0 c -4.948,0.554 -9.897,1.102 -14.846,1.643 0.515,5.132 1.001,10.268 1.457,15.414 C -8.89,11.427 -4.427,5.743 0,0"
             style="fill:#007cff;fill-opacity:1;fill-rule:nonzero;stroke:none"
             id="path668" />
        </g>
      </g>
    </g>
  </g>
</svg>
