<?xml version="1.0" encoding="UTF-8"?>
<svg xmlns="http://www.w3.org/2000/svg" viewBox="-50 -50 500 300">
  <polygon fill="#184D8E" fill-rule="nonzero" opacity="0.5" points="39,30 41,30 41,29 39,29 23,0 19,0 17,0 17,1 19,1 2.5,29 0.5,29 0.5,30 2.5,30 10,30 21,10.5 32,30" transform="scale(1) translate(0, 0)"/>
  <polygon fill="#184D8E" fill-rule="nonzero" opacity="0.2" points="39,30 41,30 41,29 39,29 23,0 19,0 17,0 17,1 19,1 2.5,29 0.5,29 0.5,30 2.5,30 10,30 21,10.5 32,30" transform="scale(1.1) translate(50, 150)"/>
  <polygon fill="#184D8E" fill-rule="nonzero" opacity="0.7" points="39,30 41,30 41,29 39,29 23,0 19,0 17,0 17,1 19,1 2.5,29 0.5,29 0.5,30 2.5,30 10,30 21,10.5 32,30" transform="scale(1.2) translate(100, 70)"/>
  <polygon fill="#184D8E" fill-rule="nonzero" opacity="0.5" points="39,30 41,30 41,29 39,29 23,0 19,0 17,0 17,1 19,1 2.5,29 0.5,29 0.5,30 2.5,30 10,30 21,10.5 32,30" transform="scale(0.6) translate(90, 80)"/>
  <polygon fill="#184D8E" fill-rule="nonzero" opacity="0.3" points="39,30 41,30 41,29 39,29 23,0 19,0 17,0 17,1 19,1 2.5,29 0.5,29 0.5,30 2.5,30 10,30 21,10.5 32,30" transform="scale(2) translate(150, 20)"/>
  <polygon fill="#184D8E" fill-rule="nonzero" opacity="0.6" points="39,30 41,30 41,29 39,29 23,0 19,0 17,0 17,1 19,1 2.5,29 0.5,29 0.5,30 2.5,30 10,30 21,10.5 32,30" transform="scale(0.9) translate(250, 220)"/>
  <polygon fill="#184D8E" fill-rule="nonzero" opacity="0.2" points="39,30 41,30 41,29 39,29 23,0 19,0 17,0 17,1 19,1 2.5,29 0.5,29 0.5,30 2.5,30 10,30 21,10.5 32,30" transform="scale(1.1) translate(300, 130)"/>
  <polygon fill="#184D8E" fill-rule="nonzero" opacity="0.5" points="39,30 41,30 41,29 39,29 23,0 19,0 17,0 17,1 19,1 2.5,29 0.5,29 0.5,30 2.5,30 10,30 21,10.5 32,30" transform="scale(0.7) translate(350, 40)"/>
  <polygon fill="#184D8E" fill-rule="nonzero" opacity="0.5" points="39,30 41,30 41,29 39,29 23,0 19,0 17,0 17,1 19,1 2.5,29 0.5,29 0.5,30 2.5,30 10,30 21,10.5 32,30" transform="scale(1.3) translate(400, 90)"/>
  <polygon fill="#184D8E" fill-rule="nonzero" opacity="0.5" points="39,30 41,30 41,29 39,29 23,0 19,0 17,0 17,1 19,1 2.5,29 0.5,29 0.5,30 2.5,30 10,30 21,10.5 32,30" transform="scale(1.4) translate(450, 70)"/>
  <text x="60" y="-10" font-family="Arial" font-size="16" fill="#184D8E" opacity="0.6">Академично гребане</text>
  <text x="10" y="230" font-family="Arial" font-size="14" fill="#184D8E" opacity="0.4">Rowing</text>
  <text x="80" y="50" font-family="Arial" font-size="18" fill="#184D8E" opacity="0.7">Rudern</text>
  <text x="300" y="220" font-family="Arial" font-size="12" fill="#184D8E" opacity="0.3">Академично гребане</text>
  <text x="380" y="30" font-family="Arial" font-size="15" fill="#184D8E" opacity="0.5">Rowing</text>
  <text x="100" y="270" font-family="Arial" font-size="17" fill="#184D8E" opacity="0.6">Rudern</text>
  <text x="250" y="130" font-family="Arial" font-size="13" fill="#184D8E" opacity="0.4">Академично гребане</text>
  <text x="0" y="130" font-family="Arial" font-size="13" fill="#184D8E" opacity="0.4">СКГ "Левски"</text>
</svg>