<svg version="1.1" viewBox="0.0 0.0 9070.866141732284 1322.8346456692914" fill="none" stroke="none" stroke-linecap="square" stroke-miterlimit="10" xmlns:xlink="http://www.w3.org/1999/xlink" xmlns="http://www.w3.org/2000/svg"><clipPath id="g1f810f1752c_0_46.0"><path d="m0 0l9070.866 0l0 1322.8346l-9070.866 0l0 -1322.8346z" clip-rule="nonzero"/></clipPath><g clip-path="url(#g1f810f1752c_0_46.0)"><path fill="#000000" fill-opacity="0.0" d="m0 0l9070.866 0l0 1322.8346l-9070.866 0z" fill-rule="evenodd"/><path fill="#000000" fill-opacity="0.0" d="m2744.1667 661.4181l213.38574 0" fill-rule="evenodd"/><path stroke="#0b5394" stroke-width="12.0" stroke-linejoin="round" stroke-linecap="butt" d="m2744.1667 661.4181l172.26074 0" fill-rule="evenodd"/><path fill="#0b5394" stroke="#0b5394" stroke-width="12.0" stroke-linecap="butt" d="m2916.4275 661.4181l-13.495117 13.494995l37.077393 -13.494995l-37.077393 -13.494995z" fill-rule="evenodd"/><path fill="#ffffff" d="m7244.538 546.7387l0 0c0 -31.670776 25.674316 -57.345 57.344727 -57.345l1438.5703 0c15.208984 0 29.794922 6.041687 40.54883 16.79596c10.753906 10.754242 16.795898 25.34018 16.795898 40.54904l0 229.37299c0 31.670776 -25.673828 57.34497 -57.344727 57.34497l-1438.5703 0c-31.67041 0 -57.344727 -25.674194 -57.344727 -57.34497z" fill-rule="evenodd"/><path stroke="#0b5394" stroke-width="12.0" stroke-linejoin="round" stroke-linecap="butt" d="m7244.538 546.7387l0 0c0 -31.670776 25.674316 -57.345 57.344727 -57.345l1438.5703 0c15.208984 0 29.794922 6.041687 40.54883 16.79596c10.753906 10.754242 16.795898 25.34018 16.795898 40.54904l0 229.37299c0 31.670776 -25.673828 57.34497 -57.344727 57.34497l-1438.5703 0c-31.67041 0 -57.344727 -25.674194 -57.344727 -57.34497z" fill-rule="evenodd"/><path fill="#0b5394" d="m7579.4805 677.6177l15.125 0q-0.4375 9.875 -4.0 16.78125q-3.5625 6.90625 -10.21875 10.53125q-6.65625 3.625 -16.21875 3.625q-7.25 0 -12.96875 -2.625q-5.71875 -2.625 -9.71875 -7.59375q-4.0 -4.96875 -6.09375 -12.15625q-2.09375 -7.1875 -2.09375 -16.3125l0 -16.125q0 -9.125 2.15625 -16.3125q2.15625 -7.1875 6.21875 -12.1875q4.0625 -5.0 9.90625 -7.59375q5.84375 -2.59375 13.21875 -2.59375q9.4375 0 15.875 3.625q6.4375 3.625 9.9375 10.625q3.5 7.0 4.0625 17.0625l-15.125 0q-0.3125 -6.8125 -1.84375 -10.90625q-1.53125 -4.09375 -4.625 -5.90625q-3.09375 -1.8125 -8.28125 -1.8125q-4.3125 0 -7.40625 1.625q-3.09375 1.625 -5.0625 4.84375q-1.96875 3.21875 -2.9375 8.0625q-0.96875 4.84375 -0.96875 11.34375l0 16.25q0 6.25 0.8125 11.0625q0.8125 4.8125 2.625 8.15625q1.8125 3.34375 4.8125 5.0625q3.0 1.71875 7.5 1.71875q5.375 0 8.59375 -1.6875q3.21875 -1.6875 4.78125 -5.6875q1.5625 -4.0 1.9375 -10.875zm22.9375 -49.0625l0 -12.25l24.5 0l0 12.25l-24.5 0zm30.375 22.4375l18.8125 0q8.8125 0 15.125 3.5q6.3125 3.5 9.6875 9.75q3.375 6.25 3.375 14.625q0 6.3125 -1.9375 11.5q-1.9375 5.1875 -5.59375 9.0q-3.65625 3.8125 -8.875 5.875q-5.21875 2.0625 -11.78125 2.0625l-29.625 0l0 -91.0l15.1875 0l0 78.3125l14.4375 0q4.4375 0 7.3125 -2.21875q2.875 -2.21875 4.28125 -5.8125q1.40625 -3.59375 1.40625 -7.84375q0 -4.125 -1.40625 -7.53125q-1.40625 -3.40625 -4.28125 -5.4375q-2.875 -2.03125 -7.3125 -2.03125l-18.8125 0l0 -12.75zm86.5 12.6875l-10.5625 0l0 -9.0625l8.9375 0q4.25 0 6.84375 -1.6875q2.59375 -1.6875 3.8125 -4.75q1.21875 -3.0625 1.21875 -7.125q0 -3.625 -1.375 -6.625q-1.375 -3.0 -4.1875 -4.8125q-2.8125 -1.8125 -7.3125 -1.8125q-3.3125 0 -6.03125 1.59375q-2.71875 1.59375 -4.25 4.46875q-1.53125 2.875 -1.53125 6.75l-15.1875 0q0 -5.9375 2.125 -10.65625q2.125 -4.71875 5.875 -8.03125q3.75 -3.3125 8.625 -5.09375q4.875 -1.78125 10.375 -1.78125q6.375 0 11.53125 1.65625q5.15625 1.65625 8.84375 4.90625q3.6875 3.25 5.65625 8.09375q1.96875 4.84375 1.96875 11.21875q0 4.6875 -1.84375 8.8125q-1.84375 4.125 -5.1875 7.25q-3.34375 3.125 -8.03125 4.90625q-4.6875 1.78125 -10.3125 1.78125zm-10.5625 -5.4375l10.5625 0q6.25 0 11.1875 1.5625q4.9375 1.5625 8.34375 4.5625q3.40625 3.0 5.21875 7.40625q1.8125 4.40625 1.8125 10.09375q0 6.375 -2.15625 11.34375q-2.15625 4.96875 -6.0625 8.40625q-3.90625 3.4375 -9.25 5.1875q-5.34375 1.75 -11.71875 1.75q-5.125 0 -10.125 -1.53125q-5.0 -1.53125 -9.0625 -4.75q-4.0625 -3.21875 -6.5 -8.21875q-2.4375 -5.0 -2.4375 -12.0l15.1875 0q0 3.8125 1.65625 6.96875q1.65625 3.15625 4.5625 5.0q2.90625 1.84375 6.71875 1.84375q4.5 0 7.625 -1.8125q3.125 -1.8125 4.78125 -5.03125q1.65625 -3.21875 1.65625 -7.21875q0 -3.8125 -0.84375 -6.625q-0.84375 -2.8125 -2.53125 -4.59375q-1.6875 -1.78125 -4.09375 -2.625q-2.40625 -0.84375 -5.59375 -0.84375l-8.9375 0l0 -8.875zm112.25 36.375l0 12.6875l-55.1875 0l0 -12.6875l55.1875 0zm-51.625 0l0 35.0625l-14.5 0l-0.625 -35.0625l15.125 0zm63.375 0l-0.9375 35.0l-14.3125 0l0 -35.0l15.25 0zm-21.8125 -78.3125l0 12.75l-35.0 0l0 -12.75l35.0 0zm11.75 0l0 91.0l-15.125 0l0 -91.0l15.125 0zm-49.75 0l15.125 0l-1.9375 37.0q-0.4375 8.75 -1.5 15.75q-1.0625 7.0 -2.625 12.5q-1.5625 5.5 -3.5 9.65625q-1.9375 4.15625 -4.15625 7.21875q-2.21875 3.0625 -4.625 5.25q-2.40625 2.1875 -4.78125 3.625l-7.6875 0l0 -12.6875l3.4375 0q1.4375 -1.625 3.03125 -4.53125q1.59375 -2.90625 3.0625 -7.6875q1.46875 -4.78125 2.5625 -11.90625q1.09375 -7.125 1.59375 -17.1875l2.0 -37.0zm103.75 12.5l-22.0 78.5l-15.875 0l28.875 -91.0l9.875 0l-0.875 12.5zm17.5625 78.5l-22.0625 -78.5l-1.0625 -12.5l10.0625 0l29.0 91.0l-15.9375 0zm0.375 -33.8125l0 12.75l-42.375 0l0 -12.75l42.375 0zm40.6875 6.125l31.6875 -63.3125l14.6875 0l0 91.0l-14.875 0l0 -62.9375l-31.5 62.9375l-14.8125 0l0 -91.0l14.8125 0l0 63.3125zm24.875 -86.625l11.25 0q0 5.1875 -2.46875 9.1875q-2.46875 4.0 -7.0 6.25q-4.53125 2.25 -10.78125 2.25q-9.375 0 -14.84375 -4.9375q-5.46875 -4.9375 -5.46875 -12.75l11.25 0q0 3.4375 2.0625 6.0625q2.0625 2.625 7.0 2.625q4.9375 0 6.96875 -2.625q2.03125 -2.625 2.03125 -6.0625zm129.875 23.3125l0 91.0l-15.125 0l0 -78.25l-31.0 0l0 78.25l-15.1875 0l0 -91.0l61.3125 0zm47.4375 57.25l-19.1875 0l0 -12.6875l19.1875 0q4.75 0 7.625 -2.0q2.875 -2.0 4.21875 -5.5q1.34375 -3.5 1.34375 -7.9375q0 -4.25 -1.34375 -8.0q-1.34375 -3.75 -4.21875 -6.0625q-2.875 -2.3125 -7.625 -2.3125l-14.875 0l0 78.25l-15.1875 0l0 -91.0l30.0625 0q9.0625 0 15.40625 3.75q6.34375 3.75 9.71875 10.28125q3.375 6.53125 3.375 14.96875q0 8.8125 -3.375 15.125q-3.375 6.3125 -9.71875 9.71875q-6.34375 3.40625 -15.40625 3.40625zm92.5 21.0625l0 12.6875l-39.5 0l0 -12.6875l39.5 0zm-35.5 -78.3125l0 91.0l-15.1875 0l0 -91.0l15.1875 0zm30.1875 37.875l0 12.5l-34.1875 0l0 -12.5l34.1875 0zm4.9375 -37.875l0 12.75l-39.125 0l0 -12.75l39.125 0zm62.5 0l0 12.75l-34.0625 0l0 78.25l-15.1875 0l0 -91.0l49.25 0zm55.5625 0l0 12.75l-35.8125 0l0 -12.75l35.8125 0zm11.8125 0l0 91.0l-15.125 0l0 -91.0l15.125 0zm-50.5625 0l15.0625 0l-1.75 45.3125q-0.3125 9.9375 -1.40625 17.46875q-1.09375 7.53125 -2.96875 12.90625q-1.875 5.375 -4.78125 8.75q-2.90625 3.375 -6.875 4.96875q-3.96875 1.59375 -9.15625 1.59375l-3.75 0l0 -12.6875l2.1875 -0.25q2.625 -0.25 4.59375 -1.5625q1.96875 -1.3125 3.3125 -4.0q1.34375 -2.6875 2.21875 -6.90625q0.875 -4.21875 1.375 -10.28125q0.5 -6.0625 0.6875 -14.1875l1.25 -41.125zm118.625 78.3125l0 12.6875l-39.5 0l0 -12.6875l39.5 0zm-35.5 -78.3125l0 91.0l-15.1875 0l0 -91.0l15.1875 0zm30.1875 37.875l0 12.5l-34.1875 0l0 -12.5l34.1875 0zm4.9375 -37.875l0 12.75l-39.125 0l0 -12.75l39.125 0zm73.75 78.3125l0 12.6875l-55.1875 0l0 -12.6875l55.1875 0zm-51.625 0l0 35.0625l-14.5 0l-0.625 -35.0625l15.125 0zm63.375 0l-0.9375 35.0l-14.3125 0l0 -35.0l15.25 0zm-21.8125 -78.3125l0 12.75l-35.0 0l0 -12.75l35.0 0zm11.75 0l0 91.0l-15.125 0l0 -91.0l15.125 0zm-49.75 0l15.125 0l-1.9375 37.0q-0.4375 8.75 -1.5 15.75q-1.0625 7.0 -2.625 12.5q-1.5625 5.5 -3.5 9.65625q-1.9375 4.15625 -4.15625 7.21875q-2.21875 3.0625 -4.625 5.25q-2.40625 2.1875 -4.78125 3.625l-7.6875 0l0 -12.6875l3.4375 0q1.4375 -1.625 3.03125 -4.53125q1.59375 -2.90625 3.0625 -7.6875q1.46875 -4.78125 2.5625 -11.90625q1.09375 -7.125 1.59375 -17.1875l2.0 -37.0z" fill-rule="nonzero"/><path fill="#000000" fill-opacity="0.0" d="m6272.4595 660.9719l213.38574 0" fill-rule="evenodd"/><path stroke="#0b5394" stroke-width="12.0" stroke-linejoin="round" stroke-linecap="butt" d="m6272.4595 660.9719l172.26025 0" fill-rule="evenodd"/><path fill="#0b5394" stroke="#0b5394" stroke-width="12.0" stroke-linecap="butt" d="m6444.72 660.9719l-13.495117 13.494995l37.07715 -13.494995l-37.07715 -13.494995z" fill-rule="evenodd"/><path fill="#000000" fill-opacity="0.0" d="m3964.8767 456.13647l1202.614 0l0 407.24408l-1202.614 0z" fill-rule="evenodd"/><path fill="#0b5394" d="m4215.2773 552.329l-19.875 0l0 -9.8125l19.875 0q5.625 0 9.09375 -2.25q3.46875 -2.25 5.0625 -6.25q1.59375 -4.0 1.59375 -9.125q0 -4.6875 -1.59375 -8.8125q-1.59375 -4.125 -5.0625 -6.65625q-3.46875 -2.53125 -9.09375 -2.53125l-17.5 0l0 81.125l-11.5 0l0 -91.0l29.0 0q8.8125 0 14.875 3.5625q6.0625 3.5625 9.21875 9.84375q3.15625 6.28125 3.15625 14.34375q0 8.75 -3.15625 14.9375q-3.15625 6.1875 -9.21875 9.40625q-6.0625 3.21875 -14.875 3.21875zm90.875 25.875l0 9.8125l-39.5 0l0 -9.8125l39.5 0zm-37.4375 -81.1875l0 91.0l-11.5 0l0 -91.0l11.5 0zm32.125 39.125l0 9.8125l-34.1875 0l0 -9.8125l34.1875 0zm4.6875 -39.125l0 9.875l-38.875 0l0 -9.875l38.875 0zm63.1875 0l0 9.875l-35.75 0l0 81.125l-11.5 0l0 -91.0l47.25 0zm26.625 70.125l35.4375 -70.125l11.5 0l0 91.0l-11.5 0l0 -70.1875l-35.4375 70.1875l-11.4375 0l0 -91.0l11.4375 0l0 70.125zm112.875 -8.0625l11.5 0q-0.4375 9.375 -3.78125 16.15625q-3.34375 6.78125 -9.6875 10.40625q-6.34375 3.625 -15.84375 3.625q-6.8125 0 -12.3125 -2.6875q-5.5 -2.6875 -9.40625 -7.71875q-3.90625 -5.03125 -5.96875 -12.09375q-2.0625 -7.0625 -2.0625 -15.875l0 -16.8125q0 -8.75 2.09375 -15.8125q2.09375 -7.0625 6.0625 -12.09375q3.96875 -5.03125 9.6875 -7.71875q5.71875 -2.6875 12.96875 -2.6875q8.875 0 15.03125 3.53125q6.15625 3.53125 9.5 10.3125q3.34375 6.78125 3.71875 16.59375l-11.5 0q-0.4375 -7.1875 -2.25 -11.71875q-1.8125 -4.53125 -5.34375 -6.6875q-3.53125 -2.15625 -9.15625 -2.15625q-5.0 0 -8.65625 2.0q-3.65625 2.0 -6.0 5.71875q-2.34375 3.71875 -3.5 8.9375q-1.15625 5.21875 -1.15625 11.65625l0 16.9375q0 6.0 0.96875 11.1875q0.96875 5.1875 3.125 9.09375q2.15625 3.90625 5.65625 6.09375q3.5 2.1875 8.5 2.1875q6.3125 0 10.0 -2.0625q3.6875 -2.0625 5.46875 -6.5625q1.78125 -4.5 2.34375 -11.75zm54.4375 -62.0625l0 91.0l-11.375 0l0 -91.0l11.375 0zm23.9375 0l0 9.875l-59.1875 0l0 -9.875l59.1875 0zm42.4375 55.3125l-19.875 0l0 -9.8125l19.875 0q5.625 0 9.09375 -2.25q3.46875 -2.25 5.0625 -6.25q1.59375 -4.0 1.59375 -9.125q0 -4.6875 -1.59375 -8.8125q-1.59375 -4.125 -5.0625 -6.65625q-3.46875 -2.53125 -9.09375 -2.53125l-17.5 0l0 81.125l-11.5 0l0 -91.0l29.0 0q8.8125 0 14.875 3.5625q6.0625 3.5625 9.21875 9.84375q3.15625 6.28125 3.15625 14.34375q0 8.75 -3.15625 14.9375q-3.15625 6.1875 -9.21875 9.40625q-6.0625 3.21875 -14.875 3.21875zm53.9375 14.8125l35.4375 -70.125l11.5 0l0 91.0l-11.5 0l0 -70.1875l-35.4375 70.1875l-11.4375 0l0 -91.0l11.4375 0l0 70.125zm96.3125 -14.8125l-19.875 0l0 -9.8125l19.875 0q5.625 0 9.09375 -2.25q3.46875 -2.25 5.0625 -6.25q1.59375 -4.0 1.59375 -9.125q0 -4.6875 -1.59375 -8.8125q-1.59375 -4.125 -5.0625 -6.65625q-3.46875 -2.53125 -9.09375 -2.53125l-17.5 0l0 81.125l-11.5 0l0 -91.0l29.0 0q8.8125 0 14.875 3.5625q6.0625 3.5625 9.21875 9.84375q3.15625 6.28125 3.15625 14.34375q0 8.75 -3.15625 14.9375q-3.15625 6.1875 -9.21875 9.40625q-6.0625 3.21875 -14.875 3.21875zm62.8125 -47.25l-24.875 82.9375l-11.75 0l29.3125 -91.0l7.375 0l-0.0625 8.0625zm20.125 82.9375l-24.875 -82.9375l-0.125 -8.0625l7.4375 0l29.3125 91.0l-11.75 0zm0 -33.6875l0 9.875l-43.875 0l0 -9.875l43.875 0zm36.1875 12.8125l35.4375 -70.125l11.5 0l0 91.0l-11.5 0l0 -70.1875l-35.4375 70.1875l-11.4375 0l0 -91.0l11.4375 0l0 70.125zm27.25 -92.6875l9.375 0q0 4.875 -2.25 8.65625q-2.25 3.78125 -6.4375 5.90625q-4.1875 2.125 -9.9375 2.125q-8.6875 0 -13.71875 -4.65625q-5.03125 -4.65625 -5.03125 -12.03125l9.375 0q0 3.6875 2.125 6.5q2.125 2.8125 7.25 2.8125q5.0 0 7.125 -2.8125q2.125 -2.8125 2.125 -6.5z" fill-rule="nonzero"/><path fill="#0b5394" d="m4339.5586 727.4165l0 91.0l-11.5 0l0 -81.125l-35.5625 0l0 81.125l-11.5 0l0 -91.0l58.5625 0zm49.8125 8.0625l-24.875 82.9375l-11.75 0l29.3125 -91.0l7.375 0l-0.0625 8.0625zm20.125 82.9375l-24.875 -82.9375l-0.125 -8.0625l7.4375 0l29.3125 91.0l-11.75 0zm0 -33.6875l0 9.875l-43.875 0l0 -9.875l43.875 0zm91.5625 23.5625l-1.125 32.0625l-10.25 0l0 -21.9375l-7.5625 0l0 -10.125l18.9375 0zm-66.8125 10.125l0 -91.0l11.5 0l0 81.1875l35.5625 0l0 -81.1875l11.5 0l0 91.0l-58.5625 0zm93.3125 -20.875l35.4375 -70.125l11.5 0l0 91.0l-11.5 0l0 -70.1875l-35.4375 70.1875l-11.4375 0l0 -91.0l11.4375 0l0 70.125zm116.25 11.0625l0 9.8125l-39.5 0l0 -9.8125l39.5 0zm-37.4375 -81.1875l0 91.0l-11.5 0l0 -91.0l11.5 0zm32.125 39.125l0 9.8125l-34.1875 0l0 -9.8125l34.1875 0zm4.6875 -39.125l0 9.875l-38.875 0l0 -9.875l38.875 0zm64.6875 39.125l0 9.8125l-39.4375 0l0 -9.8125l39.4375 0zm-37.875 -39.125l0 91.0l-11.5 0l0 -91.0l11.5 0zm48.0625 0l0 91.0l-11.5 0l0 -91.0l11.5 0zm47.25 0l0 91.0l-11.375 0l0 -91.0l11.375 0zm23.9375 0l0 9.875l-59.1875 0l0 -9.875l59.1875 0zm38.0 8.0625l-24.875 82.9375l-11.75 0l29.3125 -91.0l7.375 0l-0.0625 8.0625zm20.125 82.9375l-24.875 -82.9375l-0.125 -8.0625l7.4375 0l29.3125 91.0l-11.75 0zm0 -33.6875l0 9.875l-43.875 0l0 -9.875l43.875 0z" fill-rule="nonzero"/><path fill="#660000" d="m923.63837 389.8368c30.722961 5.8670654 55.4599 30.048828 62.000916 60.69229c1.5064087 6.778839 1.664978 24.498932 0.3567505 32.82379c-3.8452759 24.340363 -15.064148 46.93643 -30.841858 62.277985c-1.664978 1.6253662 -3.329956 3.2110596 -4.994934 4.796753c0.19818115 1.6253052 0.39642334 3.2109985 0.5946045 4.796692c0.7928467 6.223816 2.5371094 11.258423 4.836426 13.636902c2.1802979 2.3389282 1.3081665 2.1010742 41.148926 9.950256c17.284119 3.329956 34.052917 7.0562744 37.46222 8.205933c18.433716 6.46167 30.564331 20.177917 35.598877 40.236877c0.99108887 3.8452759 2.18042 12.249451 2.616455 18.750793c1.2288818 16.847961 1.1496582 116.825745 -0.07922363 120.393555c-1.5461426 4.558838 -6.6203613 5.9066772 -10.465698 2.7749634c-0.713501 -0.5549927 -1.427124 -1.1099854 -2.1010742 -1.664978c-0.15856934 -21.644714 -0.31713867 -43.289368 -0.43603516 -64.93402c-0.51538086 -62.912292 -0.51538086 -65.013306 -2.3388672 -71.55432c-4.994995 -17.561462 -13.280273 -26.718872 -28.82019 -31.674133c-3.7659912 -1.2288818 -21.922302 -5.1535034 -40.356018 -8.760925c-36.6297 -7.13562 -38.81006 -7.849182 -43.686096 -14.548706c-4.3606567 -5.94635 -6.3031616 -12.40802 -6.699585 -22.556458c-0.15856934 -3.0524292 -0.31713867 -6.1049194 -0.43603516 -9.157349c3.0128174 -3.0524902 6.025635 -6.1049194 9.078125 -9.157349c17.085938 -17.125488 26.362244 -38.37372 27.432617 -63.269073c0.63427734 -13.795502 -0.951416 -22.4375 -6.223877 -33.180573c-6.8185425 -13.954071 -16.411987 -23.745697 -29.69226 -30.128113c-10.307068 -4.9552917 -16.61023 -6.342743 -28.384033 -6.342743c-11.773804 0 -18.076965 1.3874512 -28.384033 6.342743c-13.240601 6.382416 -22.953003 16.253326 -29.652588 30.128113c-5.3517456 10.822327 -7.0167236 19.583282 -6.3031616 33.180573c1.2288818 24.97461 10.3862915 46.143585 27.31366 63.18979c3.0524902 3.0524292 6.0653076 6.0652466 9.078125 9.078064c0 2.37854 0 4.75708 0 7.13562c0 14.072998 -5.232788 26.044922 -13.518066 30.722717c-0.951416 0.63427734 0 9.633057 5.3120728 49.156372c3.5281982 26.599976 6.659973 50.26642 7.0167236 52.526c0.19824219 1.3875122 0.35681152 2.8146362 0.51538086 4.2020874c6.1445923 0 12.289185 0 18.433777 0c10.18811 0 20.257324 0.4360962 22.318726 0.951416c15.817383 3.56781 29.01831 17.99762 31.634705 34.48877c3.2903442 20.415771 -10.307007 40.79187 -30.921143 46.262512c-3.6867676 0.99108887 -17.204834 1.18927 -72.74402 1.18927c-60.098083 0 -68.66083 -0.118896484 -72.8233 -1.3478394c-14.231689 -4.281372 -24.459473 -13.954041 -29.01831 -27.670288c-1.6650391 -5.0742188 -1.8236084 -7.849182 -2.180359 -41.227966c-0.35681152 -40.752197 0.63427734 -62.793335 3.329956 -73.29852c3.6470947 -14.231567 10.029541 -24.419617 19.979858 -31.872375c10.663818 -8.007751 14.310913 -9.078064 65.48944 -19.107544c21.525879 -4.281372 26.837952 -5.5895996 28.50293 -7.13562c2.2596436 -2.1010132 4.281433 -7.690613 5.1535645 -14.152283c0.237854 -1.427124 0.43603516 -2.854248 0.63427734 -4.281372c-2.140686 -2.1802979 -4.281372 -4.4002686 -6.461731 -6.6202393c-19.583435 -20.257202 -30.445435 -47.491425 -30.52472 -76.390656c0 -11.139465 1.1099854 -18.314697 4.281372 -27.115295c12.685608 -36.074463 50.504578 -57.7984 87.966736 -50.742096m-90.18671 200.23303c-9.236694 1.8235474 -17.085938 3.6867676 -17.522034 4.1228027c-0.5153198 0.5946655 -23.825134 160.59082 -23.666565 162.8504c0 0.43603516 18.869812 0.713562 41.90216 0.713562c23.032288 0 41.862488 -0.27752686 41.862488 -0.713562c0.07928467 -1.0307007 -22.001587 -168.1228 -22.358398 -169.31207c-0.43603516 -1.5064087 -1.3081665 -1.427124 -20.217651 2.3388672m-43.725708 9.355591c-11.972046 4.003845 -19.305908 10.3862915 -24.459473 21.287903c-5.5895386 11.892639 -5.748108 13.518005 -5.748108 67.6297c0 16.292969 0 32.585938 0 48.878906c0.7928467 1.427124 1.5856934 2.8938599 2.37854 4.3605957c3.3695679 6.461731 14.310913 15.896545 16.213745 13.993774c0.35681152 -0.35681152 5.787842 -36.312317 12.051331 -79.99811c3.805725 -26.481018 7.651001 -52.922424 11.456726 -79.40344c-0.9118042 0.19824219 -1.8235474 0.4360962 -2.7353516 0.63427734c-1.4667969 0.237854 -5.5895996 1.4667969 -9.15741 2.616394m92.84277 103.94202c0.27752686 1.3874512 1.8632202 13.0026245 3.5281982 26.00531c1.7442627 12.92334 3.2903442 24.697144 3.56781 26.124268c0.15856934 0.7928467 0.35681152 1.5856323 0.51538086 2.4181519c4.717407 -0.11895752 9.4348755 -0.237854 14.152344 -0.35681152c13.002747 -0.237854 14.390259 -0.43603516 18.949158 -2.616333c10.108826 -4.5985107 15.77771 -13.161255 16.332703 -24.261108c0.237854 -5.1535034 -0.11895752 -7.6905518 -1.5856934 -11.535889c-3.0524902 -8.205933 -11.099915 -15.103699 -19.82129 -17.204712c-1.8235474 -0.4360962 -10.663818 -0.75323486 -19.662659 -0.87213135c-5.470703 -0.03967285 -10.941345 -0.03967285 -16.412048 -0.07928467c0.15856934 0.7928467 0.31713867 1.5856934 0.4360962 2.37854" fill-rule="evenodd"/><path stroke="#ffffff" stroke-width="3.0" stroke-linejoin="round" stroke-linecap="butt" d="m923.63837 389.8368c30.722961 5.8670654 55.4599 30.048828 62.000916 60.69229c1.5064087 6.778839 1.664978 24.498932 0.3567505 32.82379c-3.8452759 24.340363 -15.064148 46.93643 -30.841858 62.277985c-1.664978 1.6253662 -3.329956 3.2110596 -4.994934 4.796753c0.19818115 1.6253052 0.39642334 3.2109985 0.5946045 4.796692c0.7928467 6.223816 2.5371094 11.258423 4.836426 13.636902c2.1802979 2.3389282 1.3081665 2.1010742 41.148926 9.950256c17.284119 3.329956 34.052917 7.0562744 37.46222 8.205933c18.433716 6.46167 30.564331 20.177917 35.598877 40.236877c0.99108887 3.8452759 2.18042 12.249451 2.616455 18.750793c1.2288818 16.847961 1.1496582 116.825745 -0.07922363 120.393555c-1.5461426 4.558838 -6.6203613 5.9066772 -10.465698 2.7749634c-0.713501 -0.5549927 -1.427124 -1.1099854 -2.1010742 -1.664978c-0.15856934 -21.644714 -0.31713867 -43.289368 -0.43603516 -64.93402c-0.51538086 -62.912292 -0.51538086 -65.013306 -2.3388672 -71.55432c-4.994995 -17.561462 -13.280273 -26.718872 -28.82019 -31.674133c-3.7659912 -1.2288818 -21.922302 -5.1535034 -40.356018 -8.760925c-36.6297 -7.13562 -38.81006 -7.849182 -43.686096 -14.548706c-4.3606567 -5.94635 -6.3031616 -12.40802 -6.699585 -22.556458c-0.15856934 -3.0524292 -0.31713867 -6.1049194 -0.43603516 -9.157349c3.0128174 -3.0524902 6.025635 -6.1049194 9.078125 -9.157349c17.085938 -17.125488 26.362244 -38.37372 27.432617 -63.269073c0.63427734 -13.795502 -0.951416 -22.4375 -6.223877 -33.180573c-6.8185425 -13.954071 -16.411987 -23.745697 -29.69226 -30.128113c-10.307068 -4.9552917 -16.61023 -6.342743 -28.384033 -6.342743c-11.773804 0 -18.076965 1.3874512 -28.384033 6.342743c-13.240601 6.382416 -22.953003 16.253326 -29.652588 30.128113c-5.3517456 10.822327 -7.0167236 19.583282 -6.3031616 33.180573c1.2288818 24.97461 10.3862915 46.143585 27.31366 63.18979c3.0524902 3.0524292 6.0653076 6.0652466 9.078125 9.078064c0 2.37854 0 4.75708 0 7.13562c0 14.072998 -5.232788 26.044922 -13.518066 30.722717c-0.951416 0.63427734 0 9.633057 5.3120728 49.156372c3.5281982 26.599976 6.659973 50.26642 7.0167236 52.526c0.19824219 1.3875122 0.35681152 2.8146362 0.51538086 4.2020874c6.1445923 0 12.289185 0 18.433777 0c10.18811 0 20.257324 0.4360962 22.318726 0.951416c15.817383 3.56781 29.01831 17.99762 31.634705 34.48877c3.2903442 20.415771 -10.307007 40.79187 -30.921143 46.262512c-3.6867676 0.99108887 -17.204834 1.18927 -72.74402 1.18927c-60.098083 0 -68.66083 -0.118896484 -72.8233 -1.3478394c-14.231689 -4.281372 -24.459473 -13.954041 -29.01831 -27.670288c-1.6650391 -5.0742188 -1.8236084 -7.849182 -2.180359 -41.227966c-0.35681152 -40.752197 0.63427734 -62.793335 3.329956 -73.29852c3.6470947 -14.231567 10.029541 -24.419617 19.979858 -31.872375c10.663818 -8.007751 14.310913 -9.078064 65.48944 -19.107544c21.525879 -4.281372 26.837952 -5.5895996 28.50293 -7.13562c2.2596436 -2.1010132 4.281433 -7.690613 5.1535645 -14.152283c0.237854 -1.427124 0.43603516 -2.854248 0.63427734 -4.281372c-2.140686 -2.1802979 -4.281372 -4.4002686 -6.461731 -6.6202393c-19.583435 -20.257202 -30.445435 -47.491425 -30.52472 -76.390656c0 -11.139465 1.1099854 -18.314697 4.281372 -27.115295c12.685608 -36.074463 50.504578 -57.7984 87.966736 -50.742096m-90.18671 200.23303c-9.236694 1.8235474 -17.085938 3.6867676 -17.522034 4.1228027c-0.5153198 0.5946655 -23.825134 160.59082 -23.666565 162.8504c0 0.43603516 18.869812 0.713562 41.90216 0.713562c23.032288 0 41.862488 -0.27752686 41.862488 -0.713562c0.07928467 -1.0307007 -22.001587 -168.1228 -22.358398 -169.31207c-0.43603516 -1.5064087 -1.3081665 -1.427124 -20.217651 2.3388672m-43.725708 9.355591c-11.972046 4.003845 -19.305908 10.3862915 -24.459473 21.287903c-5.5895386 11.892639 -5.748108 13.518005 -5.748108 67.6297c0 16.292969 0 32.585938 0 48.878906c0.7928467 1.427124 1.5856934 2.8938599 2.37854 4.3605957c3.3695679 6.461731 14.310913 15.896545 16.213745 13.993774c0.35681152 -0.35681152 5.787842 -36.312317 12.051331 -79.99811c3.805725 -26.481018 7.651001 -52.922424 11.456726 -79.40344c-0.9118042 0.19824219 -1.8235474 0.4360962 -2.7353516 0.63427734c-1.4667969 0.237854 -5.5895996 1.4667969 -9.15741 2.616394m92.84277 103.94202c0.27752686 1.3874512 1.8632202 13.0026245 3.5281982 26.00531c1.7442627 12.92334 3.2903442 24.697144 3.56781 26.124268c0.15856934 0.7928467 0.35681152 1.5856323 0.51538086 2.4181519c4.717407 -0.11895752 9.4348755 -0.237854 14.152344 -0.35681152c13.002747 -0.237854 14.390259 -0.43603516 18.949158 -2.616333c10.108826 -4.5985107 15.77771 -13.161255 16.332703 -24.261108c0.237854 -5.1535034 -0.11895752 -7.6905518 -1.5856934 -11.535889c-3.0524902 -8.205933 -11.099915 -15.103699 -19.82129 -17.204712c-1.8235474 -0.4360962 -10.663818 -0.75323486 -19.662659 -0.87213135c-5.470703 -0.03967285 -10.941345 -0.03967285 -16.412048 -0.07928467c0.15856934 0.7928467 0.31713867 1.5856934 0.4360962 2.37854" fill-rule="evenodd"/><path fill="#000000" fill-opacity="0.0" d="m439.96063 909.12286l944.8819 0l0 164.81891l-944.8819 0z" fill-rule="evenodd"/><path fill="#660000" d="m603.2863 984.68225l0 9.203125l-36.96875 0l0 -9.203125l36.96875 0zm-35.5 -36.671875l0 85.3125l-10.78125 0l0 -85.3125l10.78125 0zm45.0625 0l0 85.3125l-10.78125 0l0 -85.3125l10.78125 0zm74.05469 35.265625l0 14.828125q0 9.03125 -1.96875 15.859375q-1.953125 6.8125 -5.703125 11.390625q-3.75 4.5625 -9.03125 6.859375q-5.265625 2.28125 -11.890625 2.28125q-6.390625 0 -11.671875 -2.28125q-5.265625 -2.296875 -9.078125 -6.859375q-3.796875 -4.578125 -5.875 -11.390625q-2.078125 -6.828125 -2.078125 -15.859375l0 -14.828125q0 -9.015625 2.046875 -15.84375q2.046875 -6.828125 5.859375 -11.390625q3.8125 -4.578125 9.078125 -6.890625q5.28125 -2.3125 11.65625 -2.3125q6.625 0 11.921875 2.3125q5.3125 2.3125 9.03125 6.890625q3.71875 4.5625 5.703125 11.390625q2.0 6.828125 2.0 15.84375zm-10.65625 14.828125l0 -14.9375q0 -7.03125 -1.171875 -12.09375q-1.171875 -5.078125 -3.46875 -8.296875q-2.28125 -3.21875 -5.625 -4.765625q-3.328125 -1.5625 -7.734375 -1.5625q-4.15625 0 -7.46875 1.5625q-3.3125 1.546875 -5.65625 4.765625q-2.34375 3.21875 -3.609375 8.296875q-1.25 5.0625 -1.25 12.09375l0 14.9375q0 7.09375 1.25 12.171875q1.265625 5.0625 3.640625 8.3125q2.375 3.25 5.71875 4.8125q3.34375 1.546875 7.4375 1.546875q4.390625 0 7.765625 -1.546875q3.375 -1.5625 5.625 -4.8125q2.25 -3.25 3.390625 -8.3125q1.15625 -5.078125 1.15625 -12.171875zm53.14453 -4.6875l-17.34375 0l-0.125 -9.078125l16.109375 0q3.640625 0 6.453125 -1.640625q2.8125 -1.640625 4.421875 -4.71875q1.609375 -3.078125 1.609375 -7.359375q0 -4.6875 -1.375 -7.640625q-1.375 -2.953125 -4.15625 -4.328125q-2.78125 -1.390625 -7.0625 -1.390625l-13.59375 0l0 76.0625l-10.78125 0l0 -85.3125l24.375 0q5.5 0 9.828125 1.328125q4.34375 1.3125 7.359375 4.09375q3.03125 2.78125 4.609375 7.0625q1.578125 4.265625 1.578125 10.25q0 5.265625 -2.375 9.515625q-2.375 4.25 -6.59375 6.953125q-4.21875 2.6875 -9.71875 3.453125l-3.21875 2.75zm-0.421875 39.90625l-21.375 0l6.265625 -9.203125l15.109375 0q4.21875 0 7.140625 -1.875q2.9375 -1.875 4.484375 -5.296875q1.5625 -3.4375 1.5625 -8.125q0 -4.734375 -1.296875 -8.1875q-1.28125 -3.46875 -4.09375 -5.34375q-2.8125 -1.875 -7.375 -1.875l-13.890625 0l0.109375 -9.078125l18.75 0l2.40625 3.28125q5.28125 0.53125 8.875 3.484375q3.609375 2.953125 5.453125 7.53125q1.84375 4.5625 1.84375 10.078125q0 7.96875 -2.96875 13.453125q-2.953125 5.46875 -8.34375 8.3125q-5.390625 2.84375 -12.65625 2.84375zm123.046875 -85.3125l0 85.3125l-10.78125 0l0 -76.0625l-33.328125 0l0 76.0625l-10.78125 0l0 -85.3125l54.890625 0zm46.70703 7.5625l-23.328125 77.75l-11.015625 0l27.484375 -85.3125l6.921875 0l-0.0625 7.5625zm18.859375 77.75l-23.3125 -77.75l-0.125 -7.5625l6.984375 0l27.46875 85.3125l-11.015625 0zm0 -31.578125l0 9.25l-41.125 0l0 -9.25l41.125 0zm85.83984 22.078125l-1.046875 30.0625l-9.609375 0l0 -20.5625l-7.09375 0l0 -9.5l17.75 0zm-62.625 9.5l0 -85.3125l10.78125 0l0 76.109375l33.328125 0l0 -76.109375l10.78125 0l0 85.3125l-54.890625 0zm87.4765 -19.578125l33.21875 -65.734375l10.78125 0l0 85.3125l-10.78125 0l0 -65.796875l-33.21875 65.796875l-10.718689 0l0 -85.3125l10.718689 0l0 65.734375zm108.98047 10.375l0 9.203125l-37.03125 0l0 -9.203125l37.03125 0zm-35.09375 -76.109375l0 85.3125l-10.78125 0l0 -85.3125l10.78125 0zm30.109375 36.671875l0 9.203125l-32.046875 0l0 -9.203125l32.046875 0zm4.40625 -36.671875l0 9.25l-36.453125 0l0 -9.25l36.453125 0zm60.632812 36.671875l0 9.203125l-36.96875 0l0 -9.203125l36.96875 0zm-35.5 -36.671875l0 85.3125l-10.78125 0l0 -85.3125l10.78125 0zm45.0625 0l0 85.3125l-10.78125 0l0 -85.3125l10.78125 0zm44.29297 0l0 85.3125l-10.671875 0l0 -85.3125l10.671875 0zm22.4375 0l0 9.25l-55.484375 0l0 -9.25l55.484375 0z" fill-rule="nonzero"/><path fill="#000000" fill-opacity="0.0" d="m1073.6456 136.0l244.06299 0l0 342.58267l-244.06299 0z" fill-rule="evenodd"/><path stroke="#f9fbfd" stroke-width="1.0" stroke-linejoin="round" stroke-linecap="butt" d="m1073.6456 136.0l244.06299 0l0 342.58267l-244.06299 0z" fill-rule="evenodd"/><path fill="#660000" d="m1202.4509 304.65625l57.671875 0l0 14.578125l-57.671875 0l0 62.75l-15.75 0l0 -62.75l-56.515625 0l0 -14.578125l56.515625 0l0 -60.6875l15.75 0l0 60.6875z" fill-rule="nonzero"/></g></svg>