<svg version="1.1" viewBox="0.0 0.0 9070.866141732284 1322.8346456692914" fill="none" stroke="none" stroke-linecap="square" stroke-miterlimit="10" xmlns:xlink="http://www.w3.org/1999/xlink" xmlns="http://www.w3.org/2000/svg"><clipPath id="g2cfad09d5e7_0_37.0"><path d="m0 0l9070.866 0l0 1322.8346l-9070.866 0l0 -1322.8346z" clip-rule="nonzero"/></clipPath><g clip-path="url(#g2cfad09d5e7_0_37.0)"><path fill="#000000" fill-opacity="0.0" d="m0 0l9070.866 0l0 1322.8346l-9070.866 0z" fill-rule="evenodd"/><path fill="#000000" fill-opacity="0.0" d="m2896.5354 522.4409l3277.7952 0l0 213.32288l-3277.7952 0z" fill-rule="evenodd"/><path fill="#0b5394" d="m4094.3394 658.9472l44.296875 -87.65625l14.375 0l0 113.75l-14.375 0l0 -87.734375l-44.296875 87.734375l-14.296875 0l0 -113.75l14.296875 0l0 87.65625zm145.85938 -38.75l0 12.265625l-49.296875 0l0 -12.265625l49.296875 0zm-47.34375 -48.90625l0 113.75l-14.375 0l0 -113.75l14.375 0zm60.078125 0l0 113.75l-14.375 0l0 -113.75l14.375 0zm81.71875 77.578125l14.375 0q-0.546875 11.71875 -4.734375 20.203125q-4.171875 8.46875 -12.109375 13.0q-7.921875 4.53125 -19.796875 4.53125q-8.515625 0 -15.390625 -3.359375q-6.875 -3.359375 -11.765625 -9.640625q-4.875 -6.296875 -7.453125 -15.125q-2.578125 -8.828125 -2.578125 -19.84375l0 -21.015625q0 -10.9375 2.609375 -19.765625q2.625 -8.828125 7.578125 -15.109375q4.96875 -6.296875 12.109375 -9.65625q7.15625 -3.359375 16.21875 -3.359375q11.09375 0 18.78125 4.421875q7.703125 4.40625 11.875 12.890625q4.1875 8.46875 4.65625 20.734375l-14.375 0q-0.546875 -8.984375 -2.8125 -14.640625q-2.265625 -5.671875 -6.6875 -8.359375q-4.40625 -2.703125 -11.4375 -2.703125q-6.25 0 -10.828125 2.5q-4.5625 2.5 -7.5 7.15625q-2.921875 4.640625 -4.375 11.171875q-1.4375 6.515625 -1.4375 14.5625l0 21.171875q0 7.5 1.203125 13.984375q1.21875 6.484375 3.90625 11.375q2.703125 4.875 7.078125 7.609375q4.375 2.734375 10.625 2.734375q7.890625 0 12.5 -2.578125q4.609375 -2.578125 6.828125 -8.203125q2.234375 -5.625 2.9375 -14.6875zm68.046875 -77.578125l0 113.75l-14.21875 0l0 -113.75l14.21875 0zm29.921875 0l0 12.34375l-73.984375 0l0 -12.34375l73.984375 0zm53.046875 69.140625l-24.84375 0l0 -12.265625l24.84375 0q7.03125 0 11.359375 -2.8125q4.34375 -2.8125 6.328125 -7.8125q2.0 -5.0 2.0 -11.40625q0 -5.859375 -2.0 -11.015625q-1.984375 -5.15625 -6.328125 -8.3125q-4.328125 -3.171875 -11.359375 -3.171875l-21.875 0l0 101.40625l-14.375 0l0 -113.75l36.25 0q11.015625 0 18.59375 4.453125q7.578125 4.453125 11.515625 12.3125q3.953125 7.84375 3.953125 17.921875q0 10.9375 -3.953125 18.671875q-3.9375 7.734375 -11.515625 11.765625q-7.578125 4.015625 -18.59375 4.015625zm81.484375 6.875l24.140625 -76.015625l16.5625 0l-32.734375 94.765625q-1.5625 3.984375 -3.328125 7.703125q-1.75 3.703125 -4.25 6.59375q-2.5 2.890625 -6.25 4.609375q-3.75 1.71875 -9.375 1.71875q-1.71875 0 -3.953125 -0.203125q-2.21875 -0.1875 -2.84375 -0.421875l0.3125 -12.03125q0.703125 0.15625 2.921875 0.28125q2.234375 0.109375 3.171875 0.109375q3.515625 0 5.421875 -1.796875q1.921875 -1.796875 3.015625 -4.5625q1.09375 -2.78125 2.109375 -5.671875l5.078125 -15.078125zm-18.125 -76.015625l24.53125 70.859375l3.359375 13.984375l-12.109375 0.9375l-31.796875 -85.78125l16.015625 0zm91.796875 0l0 113.75l-14.375 0l0 -113.75l14.375 0zm58.515625 0l-41.09375 62.578125l-23.125 0l-2.421875 -12.5l16.875 0l31.953125 -50.078125l17.8125 0zm-14.84375 113.75l-34.21875 -53.125l8.046875 -13.203125l43.671875 66.328125l-17.5 0zm115.15625 -12.65625l-1.40625 40.078125l-12.8125 0l0 -27.421875l-9.453125 0l0 -12.65625l23.671875 0zm-83.515625 12.65625l0 -113.75l14.375 0l0 101.484375l44.453125 0l0 -101.484375l14.375 0l0 113.75l-73.203125 0zm116.640625 -26.09375l44.296875 -87.65625l14.375 0l0 113.75l-14.375 0l0 -87.734375l-44.296875 87.734375l-14.296875 0l0 -113.75l14.296875 0l0 87.65625zm99.140625 0l44.296875 -87.65625l14.375 0l0 113.75l-14.375 0l0 -87.734375l-44.296875 87.734375l-14.296875 0l0 -113.75l14.296875 0l0 87.65625z" fill-rule="nonzero"/></g></svg>