<svg version="1.1" viewBox="0.0 0.0 9070.866141732284 1322.8346456692914" fill="none" stroke="none" stroke-linecap="square" stroke-miterlimit="10" xmlns:xlink="http://www.w3.org/1999/xlink" xmlns="http://www.w3.org/2000/svg"><clipPath id="g1f810f17307_0_10.0"><path d="m0 0l9070.866 0l0 1322.8346l-9070.866 0l0 -1322.8346z" clip-rule="nonzero"/></clipPath><g clip-path="url(#g1f810f17307_0_10.0)"><path fill="#000000" fill-opacity="0.0" d="m0 0l9070.866 0l0 1322.8346l-9070.866 0z" fill-rule="evenodd"/><path fill="#000000" fill-opacity="0.0" d="m3934.126 484.9449l1202.6143 0l0 352.9449l-1202.6143 0z" fill-rule="evenodd"/><path fill="#0b5394" d="m4089.6519 574.2624l-18.5 0l-0.125 -9.6875l17.1875 0q3.875 0 6.875 -1.75q3.0 -1.75 4.71875 -5.03125q1.71875 -3.28125 1.71875 -7.84375q0 -5.0 -1.46875 -8.15625q-1.46875 -3.15625 -4.4375 -4.625q-2.96875 -1.46875 -7.53125 -1.46875l-14.5 0l0 81.125l-11.5 0l0 -91.0l26.0 0q5.875 0 10.5 1.40625q4.625 1.40625 7.84375 4.375q3.21875 2.96875 4.90625 7.53125q1.6875 4.5625 1.6875 10.9375q0 5.625 -2.53125 10.15625q-2.53125 4.53125 -7.03125 7.40625q-4.5 2.875 -10.375 3.6875l-3.4375 2.9375zm-0.4375 42.5625l-22.8125 0l6.6875 -9.8125l16.125 0q4.5 0 7.625 -2.0q3.125 -2.0 4.78125 -5.65625q1.65625 -3.65625 1.65625 -8.65625q0 -5.0625 -1.375 -8.75q-1.375 -3.6875 -4.375 -5.6875q-3.0 -2.0 -7.875 -2.0l-14.8125 0l0.125 -9.6875l20.0 0l2.5625 3.5q5.625 0.5625 9.46875 3.71875q3.84375 3.15625 5.8125 8.03125q1.96875 4.875 1.96875 10.75q0 8.5 -3.15625 14.34375q-3.15625 5.84375 -8.90625 8.875q-5.75 3.03125 -13.5 3.03125zm35.625 -81.5l0 -9.5l22.5625 0l0 9.5l-22.5625 0zm29.0 27.5625l20.6875 0q8.4375 0 14.28125 3.34375q5.84375 3.34375 8.875 9.34375q3.03125 6.0 3.03125 14.0625q0 6.0 -1.71875 10.96875q-1.71875 4.96875 -5.0625 8.625q-3.34375 3.65625 -8.21875 5.625q-4.875 1.96875 -11.1875 1.96875l-29.75 0l0 -91.0l11.5 0l0 81.1875l18.25 0q5.1875 0 8.4375 -2.46875q3.25 -2.46875 4.75 -6.46875q1.5 -4.0 1.5 -8.5625q0 -4.5625 -1.5 -8.375q-1.5 -3.8125 -4.75 -6.09375q-3.25 -2.28125 -8.4375 -2.28125l-20.6875 0l0 -9.875zm89.125 11.375l-18.5 0l-0.125 -9.6875l17.1875 0q3.875 0 6.875 -1.75q3.0 -1.75 4.71875 -5.03125q1.71875 -3.28125 1.71875 -7.84375q0 -5.0 -1.46875 -8.15625q-1.46875 -3.15625 -4.4375 -4.625q-2.96875 -1.46875 -7.53125 -1.46875l-14.5 0l0 81.125l-11.5 0l0 -91.0l26.0 0q5.875 0 10.5 1.40625q4.625 1.40625 7.84375 4.375q3.21875 2.96875 4.90625 7.53125q1.6875 4.5625 1.6875 10.9375q0 5.625 -2.53125 10.15625q-2.53125 4.53125 -7.03125 7.40625q-4.5 2.875 -10.375 3.6875l-3.4375 2.9375zm-0.4375 42.5625l-22.8125 0l6.6875 -9.8125l16.125 0q4.5 0 7.625 -2.0q3.125 -2.0 4.78125 -5.65625q1.65625 -3.65625 1.65625 -8.65625q0 -5.0625 -1.375 -8.75q-1.375 -3.6875 -4.375 -5.6875q-3.0 -2.0 -7.875 -2.0l-14.8125 0l0.125 -9.6875l20.0 0l2.5625 3.5q5.625 0.5625 9.46875 3.71875q3.84375 3.15625 5.8125 8.03125q1.96875 4.875 1.96875 10.75q0 8.5 -3.15625 14.34375q-3.15625 5.84375 -8.90625 8.875q-5.75 3.03125 -13.5 3.03125zm91.6875 -9.8125l0 9.8125l-39.5 0l0 -9.8125l39.5 0zm-37.4375 -81.1875l0 91.0l-11.5 0l0 -91.0l11.5 0zm32.125 39.125l0 9.8125l-34.1875 0l0 -9.8125l34.1875 0zm4.6875 -39.125l0 9.875l-38.875 0l0 -9.875l38.875 0zm75.8125 81.1875l0 9.8125l-57.0625 0l0 -9.8125l57.0625 0zm-55.3125 0l0 32.1875l-11.4375 0l-0.0625 -32.1875l11.5 0zm65.3125 0l-0.125 32.125l-11.375 0l0 -32.125l11.5 0zm-20.75 -81.1875l0 9.875l-33.0 0l0 -9.875l33.0 0zm10.0625 0l0 91.0l-11.5 0l0 -91.0l11.5 0zm-47.0 0l11.5 0l-1.625 36.625q-0.3125 8.25 -1.25 15.21875q-0.9375 6.96875 -2.40625 12.71875q-1.46875 5.75 -3.34375 10.28125q-1.875 4.53125 -4.0625 7.8125q-2.1875 3.28125 -4.625 5.375q-2.4375 2.09375 -5.0 2.96875l-4.8125 0l0 -9.8125l3.1875 0q1.375 -1.75 3.03125 -5.0625q1.65625 -3.3125 3.25 -8.59375q1.59375 -5.28125 2.8125 -12.90625q1.21875 -7.625 1.65625 -18.0l1.6875 -36.625zm83.6875 70.125l35.4375 -70.125l11.5 0l0 91.0l-11.5 0l0 -70.1875l-35.4375 70.1875l-11.4375 0l0 -91.0l11.4375 0l0 70.125zm145.625 11.0625l0 9.8125l-39.5 0l0 -9.8125l39.5 0zm-37.4375 -81.1875l0 91.0l-11.5 0l0 -91.0l11.5 0zm32.125 39.125l0 9.8125l-34.1875 0l0 -9.8125l34.1875 0zm4.6875 -39.125l0 9.875l-38.875 0l0 -9.875l38.875 0zm63.1875 0l0 9.875l-35.75 0l0 81.125l-11.5 0l0 -91.0l47.25 0zm64.0 39.125l0 9.8125l-39.4375 0l0 -9.8125l39.4375 0zm-37.875 -39.125l0 91.0l-11.5 0l0 -91.0l11.5 0zm48.0625 0l0 91.0l-11.5 0l0 -91.0l11.5 0zm53.1875 0l-31.875 98.8125l-9.3125 0l31.9375 -98.8125l9.25 0zm62.5625 0l0 9.875l-34.0 0l0 -9.875l34.0 0zm10.125 0l0 91.0l-11.5 0l0 -91.0l11.5 0zm-48.0 0l11.4375 0l-1.625 44.5625q-0.3125 9.625 -1.1875 17.15625q-0.875 7.53125 -2.5 13.0625q-1.625 5.53125 -4.25 9.125q-2.625 3.59375 -6.40625 5.34375q-3.78125 1.75 -8.96875 1.75l-3.0 0l0 -9.8125l2.1875 -0.1875q2.875 -0.25 4.96875 -1.59375q2.09375 -1.34375 3.5 -4.09375q1.40625 -2.75 2.3125 -7.125q0.90625 -4.375 1.40625 -10.71875q0.5 -6.34375 0.75 -14.84375l1.375 -42.625zm117.625 39.125l0 9.8125l-39.4375 0l0 -9.8125l39.4375 0zm-37.875 -39.125l0 91.0l-11.5 0l0 -91.0l11.5 0zm48.0625 0l0 91.0l-11.5 0l0 -91.0l11.5 0zm17.0 0l11.5 0l0 28.4375q0 7.0625 1.59375 11.0625q1.59375 4.0 4.8125 5.625q3.21875 1.625 8.09375 1.625q3.1875 0 6.1875 -0.3125q3.0 -0.3125 5.84375 -0.875q2.84375 -0.5625 5.59375 -1.375q2.75 -0.8125 5.375 -1.75l0 9.875q-2.5625 0.9375 -5.0625 1.75q-2.5 0.8125 -5.1875 1.375q-2.6875 0.5625 -5.78125 0.875q-3.09375 0.3125 -6.96875 0.3125q-8.125 0 -13.9375 -2.78125q-5.8125 -2.78125 -8.9375 -8.96875q-3.125 -6.1875 -3.125 -16.4375l0 -28.4375zm46.25 0l11.5 0l0 91.0l-11.5 0l0 -91.0z" fill-rule="nonzero"/><path fill="#0b5394" d="m4207.2144 741.58984l0 9.8125l-39.4375 0l0 -9.8125l39.4375 0zm-37.875 -39.125l0 91.0l-11.5 0l0 -91.0l11.5 0zm48.0625 0l0 91.0l-11.5 0l0 -91.0l11.5 0zm50.4375 8.0625l-24.875 82.9375l-11.75 0l29.3125 -91.0l7.375 0l-0.0625 8.0625zm20.125 82.9375l-24.875 -82.9375l-0.125 -8.0625l7.4375 0l29.3125 91.0l-11.75 0zm0 -33.6875l0 9.875l-43.875 0l0 -9.875l43.875 0zm112.6875 -57.3125l0 91.0l-11.5 0l0 -81.125l-35.5625 0l0 81.125l-11.5 0l0 -91.0l58.5625 0zm49.8125 8.0625l-24.875 82.9375l-11.75 0l29.3125 -91.0l7.375 0l-0.0625 8.0625zm20.125 82.9375l-24.875 -82.9375l-0.125 -8.0625l7.4375 0l29.3125 91.0l-11.75 0zm0 -33.6875l0 9.875l-43.875 0l0 -9.875l43.875 0zm91.5625 23.5625l-1.125 32.0625l-10.25 0l0 -21.9375l-7.5625 0l0 -10.125l18.9375 0zm-66.8125 10.125l0 -91.0l11.5 0l0 81.1875l35.5625 0l0 -81.1875l11.5 0l0 91.0l-58.5625 0zm93.3125 -20.875l35.4375 -70.125l11.5 0l0 91.0l-11.5 0l0 -70.1875l-35.4375 70.1875l-11.4375 0l0 -91.0l11.4375 0l0 70.125zm116.25 11.0625l0 9.8125l-39.5 0l0 -9.8125l39.5 0zm-37.4375 -81.1875l0 91.0l-11.5 0l0 -91.0l11.5 0zm32.125 39.125l0 9.8125l-34.1875 0l0 -9.8125l34.1875 0zm4.6875 -39.125l0 9.875l-38.875 0l0 -9.875l38.875 0zm64.6875 39.125l0 9.8125l-39.4375 0l0 -9.8125l39.4375 0zm-37.875 -39.125l0 91.0l-11.5 0l0 -91.0l11.5 0zm48.0625 0l0 91.0l-11.5 0l0 -91.0l11.5 0zm47.25 0l0 91.0l-11.375 0l0 -91.0l11.375 0zm23.9375 0l0 9.875l-59.1875 0l0 -9.875l59.1875 0zm38.0 8.0625l-24.875 82.9375l-11.75 0l29.3125 -91.0l7.375 0l-0.0625 8.0625zm20.125 82.9375l-24.875 -82.9375l-0.125 -8.0625l7.4375 0l29.3125 91.0l-11.75 0zm0 -33.6875l0 9.875l-43.875 0l0 -9.875l43.875 0z" fill-rule="nonzero"/><path fill="#000000" fill-opacity="0.0" d="m679.7297 427.45932l336.44092 0l0 349.25986l-336.44092 0z" fill-rule="evenodd"/><path stroke="#660000" stroke-width="12.0" stroke-linejoin="round" stroke-linecap="butt" d="m679.7297 427.45932l336.44092 0l0 349.25986l-336.44092 0z" fill-rule="evenodd"/><path fill="#000000" fill-opacity="0.0" d="m771.8453 582.924l188.25195 0" fill-rule="evenodd"/><path stroke="#660000" stroke-width="12.0" stroke-linejoin="round" stroke-linecap="butt" d="m771.8453 582.924l188.25195 0" fill-rule="evenodd"/><path fill="#000000" fill-opacity="0.0" d="m771.8453 634.03485l188.25195 0" fill-rule="evenodd"/><path stroke="#660000" stroke-width="12.0" stroke-linejoin="round" stroke-linecap="butt" d="m771.8453 634.03485l188.25195 0" fill-rule="evenodd"/><path fill="#000000" fill-opacity="0.0" d="m771.8453 685.9577l188.25195 0" fill-rule="evenodd"/><path stroke="#660000" stroke-width="12.0" stroke-linejoin="round" stroke-linecap="butt" d="m771.8453 685.9577l188.25195 0" fill-rule="evenodd"/><path fill="#ffffff" d="m737.4884 582.9219l0 0c0 -4.331299 3.5112305 -7.8424683 7.8425293 -7.8424683l0 0c2.079956 0 4.074768 0.8262329 5.545471 2.296997c1.4707642 1.4707642 2.297058 3.4655151 2.297058 5.545471l0 0c0 4.33136 -3.5112305 7.8425293 -7.8425293 7.8425293l0 0c-4.331299 0 -7.8425293 -3.5111694 -7.8425293 -7.8425293z" fill-rule="evenodd"/><path stroke="#660000" stroke-width="12.0" stroke-linejoin="round" stroke-linecap="butt" d="m737.4884 582.9219l0 0c0 -4.331299 3.5112305 -7.8424683 7.8425293 -7.8424683l0 0c2.079956 0 4.074768 0.8262329 5.545471 2.296997c1.4707642 1.4707642 2.297058 3.4655151 2.297058 5.545471l0 0c0 4.33136 -3.5112305 7.8425293 -7.8425293 7.8425293l0 0c-4.331299 0 -7.8425293 -3.5111694 -7.8425293 -7.8425293z" fill-rule="evenodd"/><path fill="#ffffff" d="m737.4884 634.0327l0 0c0 -4.331299 3.5112305 -7.8425293 7.8425293 -7.8425293l0 0c2.079956 0 4.074768 0.82629395 5.545471 2.297058c1.4707642 1.4707642 2.297058 3.4655151 2.297058 5.545471l0 0c0 4.331299 -3.5112305 7.8425293 -7.8425293 7.8425293l0 0c-4.331299 0 -7.8425293 -3.5112305 -7.8425293 -7.8425293z" fill-rule="evenodd"/><path stroke="#660000" stroke-width="12.0" stroke-linejoin="round" stroke-linecap="butt" d="m737.4884 634.0327l0 0c0 -4.331299 3.5112305 -7.8425293 7.8425293 -7.8425293l0 0c2.079956 0 4.074768 0.82629395 5.545471 2.297058c1.4707642 1.4707642 2.297058 3.4655151 2.297058 5.545471l0 0c0 4.331299 -3.5112305 7.8425293 -7.8425293 7.8425293l0 0c-4.331299 0 -7.8425293 -3.5112305 -7.8425293 -7.8425293z" fill-rule="evenodd"/><path fill="#ffffff" d="m737.4884 685.95557l0 0c0 -4.331299 3.5112305 -7.8425293 7.8425293 -7.8425293l0 0c2.079956 0 4.074768 0.82629395 5.545471 2.296997c1.4707642 1.4707642 2.297058 3.4655762 2.297058 5.545532l0 0c0 4.331299 -3.5112305 7.8425293 -7.8425293 7.8425293l0 0c-4.331299 0 -7.8425293 -3.5112305 -7.8425293 -7.8425293z" fill-rule="evenodd"/><path stroke="#660000" stroke-width="12.0" stroke-linejoin="round" stroke-linecap="butt" d="m737.4884 685.95557l0 0c0 -4.331299 3.5112305 -7.8425293 7.8425293 -7.8425293l0 0c2.079956 0 4.074768 0.82629395 5.545471 2.296997c1.4707642 1.4707642 2.297058 3.4655762 2.297058 5.545532l0 0c0 4.331299 -3.5112305 7.8425293 -7.8425293 7.8425293l0 0c-4.331299 0 -7.8425293 -3.5112305 -7.8425293 -7.8425293z" fill-rule="evenodd"/><path fill="#000000" fill-opacity="0.0" d="m764.5159 472.4347l23.02362 0l0 20.566925l-23.02362 0z" fill-rule="evenodd"/><path stroke="#660000" stroke-width="12.0" stroke-linejoin="round" stroke-linecap="butt" d="m764.5159 472.4347l23.02362 0l0 20.566925l-23.02362 0z" fill-rule="evenodd"/><path fill="#000000" fill-opacity="0.0" d="m724.37555 472.4347l23.02362 0l0 20.566925l-23.02362 0z" fill-rule="evenodd"/><path stroke="#660000" stroke-width="12.0" stroke-linejoin="round" stroke-linecap="butt" d="m724.37555 472.4347l23.02362 0l0 20.566925l-23.02362 0z" fill-rule="evenodd"/><path fill="#000000" fill-opacity="0.0" d="m804.6563 472.4347l23.02362 0l0 20.566925l-23.02362 0z" fill-rule="evenodd"/><path stroke="#660000" stroke-width="12.0" stroke-linejoin="round" stroke-linecap="butt" d="m804.6563 472.4347l23.02362 0l0 20.566925l-23.02362 0z" fill-rule="evenodd"/><path fill="#000000" fill-opacity="0.0" d="m378.63516 902.7659l944.88196 0l0 164.81891l-944.88196 0z" fill-rule="evenodd"/><path fill="#660000" d="m554.0019 978.3253l0 9.203125l-36.96875 0l0 -9.203125l36.96875 0zm-35.5 -36.671875l0 85.3125l-10.78125 0l0 -85.3125l10.78125 0zm45.0625 0l0 85.3125l-10.78125 0l0 -85.3125l10.78125 0zm74.05469 35.265625l0 14.828125q0 9.03125 -1.96875 15.859375q-1.953125 6.8125 -5.703125 11.390625q-3.75 4.5625 -9.03125 6.859375q-5.265625 2.28125 -11.890625 2.28125q-6.390625 0 -11.671875 -2.28125q-5.265625 -2.296875 -9.078125 -6.859375q-3.796875 -4.578125 -5.875 -11.390625q-2.078125 -6.828125 -2.078125 -15.859375l0 -14.828125q0 -9.015625 2.046875 -15.84375q2.046875 -6.828125 5.859375 -11.390625q3.8125 -4.578125 9.078125 -6.890625q5.28125 -2.3125 11.65625 -2.3125q6.625 0 11.921875 2.3125q5.3125 2.3125 9.03125 6.890625q3.71875 4.5625 5.703125 11.390625q2.0 6.828125 2.0 15.84375zm-10.65625 14.828125l0 -14.9375q0 -7.03125 -1.171875 -12.09375q-1.171875 -5.078125 -3.46875 -8.296875q-2.28125 -3.21875 -5.625 -4.765625q-3.328125 -1.5625 -7.734375 -1.5625q-4.15625 0 -7.46875 1.5625q-3.3125 1.546875 -5.65625 4.765625q-2.34375 3.21875 -3.609375 8.296875q-1.25 5.0625 -1.25 12.09375l0 14.9375q0 7.09375 1.25 12.171875q1.265625 5.0625 3.640625 8.3125q2.375 3.25 5.71875 4.8125q3.34375 1.546875 7.4375 1.546875q4.390625 0 7.765625 -1.546875q3.375 -1.5625 5.625 -4.8125q2.25 -3.25 3.390625 -8.3125q1.15625 -5.078125 1.15625 -12.171875zm53.14453 -4.6875l-17.34375 0l-0.125 -9.078125l16.109375 0q3.640625 0 6.453125 -1.640625q2.8125 -1.640625 4.421875 -4.71875q1.609375 -3.078125 1.609375 -7.359375q0 -4.6875 -1.375 -7.640625q-1.375 -2.953125 -4.15625 -4.328125q-2.78125 -1.390625 -7.0625 -1.390625l-13.59375 0l0 76.0625l-10.78125 0l0 -85.3125l24.375 0q5.5 0 9.828125 1.328125q4.34375 1.3125 7.359375 4.09375q3.03125 2.78125 4.609375 7.0625q1.578125 4.265625 1.578125 10.25q0 5.265625 -2.375 9.515625q-2.375 4.25 -6.59375 6.953125q-4.21875 2.6875 -9.71875 3.453125l-3.21875 2.75zm-0.421875 39.90625l-21.375 0l6.265625 -9.203125l15.109375 0q4.21875 0 7.140625 -1.875q2.9375 -1.875 4.484375 -5.296875q1.5625 -3.4375 1.5625 -8.125q0 -4.734375 -1.296875 -8.1875q-1.28125 -3.46875 -4.09375 -5.34375q-2.8125 -1.875 -7.375 -1.875l-13.890625 0l0.109375 -9.078125l18.75 0l2.40625 3.28125q5.28125 0.53125 8.875 3.484375q3.609375 2.953125 5.453125 7.53125q1.84375 4.5625 1.84375 10.078125q0 7.96875 -2.96875 13.453125q-2.953125 5.46875 -8.34375 8.3125q-5.390625 2.84375 -12.65625 2.84375zm123.046875 -85.3125l0 85.3125l-10.78125 0l0 -76.0625l-33.328125 0l0 76.0625l-10.78125 0l0 -85.3125l54.890625 0zm46.23828 51.859375l-18.640625 0l0 -9.203125l18.640625 0q5.265625 0 8.515625 -2.109375q3.265625 -2.109375 4.75 -5.859375q1.5 -3.75 1.5 -8.5625q0 -4.390625 -1.5 -8.25q-1.484375 -3.875 -4.75 -6.25q-3.25 -2.375 -8.515625 -2.375l-16.40625 0l0 76.0625l-10.78125 0l0 -85.3125l27.1875 0q8.265625 0 13.9375 3.34375q5.6875 3.328125 8.640625 9.21875q2.96875 5.890625 2.96875 13.453125q0 8.203125 -2.96875 14.0q-2.953125 5.796875 -8.640625 8.828125q-5.671875 3.015625 -13.9375 3.015625zm85.19141 24.25l0 9.203125l-37.03125 0l0 -9.203125l37.03125 0zm-35.09375 -76.109375l0 85.3125l-10.78125 0l0 -85.3125l10.78125 0zm30.109375 36.671875l0 9.203125l-32.046875 0l0 -9.203125l32.046875 0zm4.40625 -36.671875l0 9.25l-36.453125 0l0 -9.25l36.453125 0zm59.226562 0l0 9.25l-33.515625 0l0 76.0625l-10.78125 0l0 -85.3125l44.296875 0zm52.679626 0l0 9.25l-31.874939 0l0 -9.25l31.874939 0zm9.5 0l0 85.3125l-10.78125 0l0 -85.3125l10.78125 0zm-44.99994 0l10.71875 0l-1.53125 41.78125q-0.28125 9.015625 -1.109375 16.078125q-0.8125 7.0625 -2.34375 12.25q-1.515625 5.1875 -3.984375 8.5625q-2.453125 3.359375 -6.0 5.0q-3.546875 1.640625 -8.40625 1.640625l-2.8125 0l0 -9.203125l2.046875 -0.171875q2.6875 -0.234375 4.65625 -1.484375q1.96875 -1.265625 3.28125 -3.84375q1.3125 -2.578125 2.15625 -6.671875q0.859375 -4.109375 1.328125 -10.0625q0.46875 -5.953125 0.703125 -13.921875l1.296875 -39.953125zm109.85541 76.109375l0 9.203125l-37.03125 0l0 -9.203125l37.03125 0zm-35.09375 -76.109375l0 85.3125l-10.78125 0l0 -85.3125l10.78125 0zm30.109375 36.671875l0 9.203125l-32.046875 0l0 -9.203125l32.046875 0zm4.40625 -36.671875l0 9.25l-36.453125 0l0 -9.25l36.453125 0zm71.07031 76.109375l0 9.203125l-53.5 0l0 -9.203125l53.5 0zm-51.859375 0l0 30.1875l-10.71875 0l-0.0625 -30.1875l10.78125 0zm61.234375 0l-0.125 30.125l-10.65625 0l0 -30.125l10.78125 0zm-19.453125 -76.109375l0 9.25l-30.9375 0l0 -9.25l30.9375 0zm9.4375 0l0 85.3125l-10.78125 0l0 -85.3125l10.78125 0zm-44.0625 0l10.78125 0l-1.53125 34.328125q-0.296875 7.734375 -1.171875 14.28125q-0.875 6.53125 -2.25 11.921875q-1.375 5.390625 -3.140625 9.640625q-1.75 4.234375 -3.8125 7.3125q-2.046875 3.078125 -4.328125 5.046875q-2.28125 1.953125 -4.6875 2.78125l-4.515625 0l0 -9.203125l2.984375 0q1.296875 -1.640625 2.84375 -4.734375q1.5625 -3.109375 3.046875 -8.0625q1.5 -4.953125 2.640625 -12.09375q1.140625 -7.15625 1.546875 -16.890625l1.59375 -34.328125z" fill-rule="nonzero"/><path fill="#000000" fill-opacity="0.0" d="m1012.3202 129.64305l244.06299 0l0 342.58264l-244.06299 0z" fill-rule="evenodd"/><path stroke="#f9fbfd" stroke-width="1.0" stroke-linejoin="round" stroke-linecap="butt" d="m1012.3202 129.64305l244.06299 0l0 342.58264l-244.06299 0z" fill-rule="evenodd"/><path fill="#660000" d="m1141.1255 298.2993l57.671875 0l0 14.578125l-57.671875 0l0 62.75l-15.75 0l0 -62.75l-56.515625 0l0 -14.578125l56.515625 0l0 -60.687485l15.75 0l0 60.687485z" fill-rule="nonzero"/><path fill="#000000" fill-opacity="0.0" d="m2744.1667 661.4181l213.38574 0" fill-rule="evenodd"/><path stroke="#0b5394" stroke-width="12.0" stroke-linejoin="round" stroke-linecap="butt" d="m2744.1667 661.4181l172.26074 0" fill-rule="evenodd"/><path fill="#0b5394" stroke="#0b5394" stroke-width="12.0" stroke-linecap="butt" d="m2916.4275 661.4181l-13.495117 13.494995l37.077393 -13.494995l-37.077393 -13.494995z" fill-rule="evenodd"/></g></svg>