<svg version="1.1" viewBox="0.0 0.0 9070.866141732284 1322.8346456692914" fill="none" stroke="none" stroke-linecap="square" stroke-miterlimit="10" xmlns:xlink="http://www.w3.org/1999/xlink" xmlns="http://www.w3.org/2000/svg"><clipPath id="g21809f50d9a_0_4.0"><path d="m0 0l9070.866 0l0 1322.8346l-9070.866 0l0 -1322.8346z" clip-rule="nonzero"/></clipPath><g clip-path="url(#g21809f50d9a_0_4.0)"><path fill="#000000" fill-opacity="0.0" d="m0 0l9070.866 0l0 1322.8346l-9070.866 0z" fill-rule="evenodd"/><path fill="#000000" fill-opacity="0.0" d="m3996.1758 396.9449l1202.6143 0l0 531.33856l-1202.6143 0z" fill-rule="evenodd"/><path fill="#0b5394" d="m4447.014 475.4499l0 15.8125q0 9.625 -2.09375 16.90625q-2.09375 7.28125 -6.09375 12.15625q-4.0 4.875 -9.625 7.3125q-5.625 2.4375 -12.6875 2.4375q-6.8125 0 -12.4375 -2.4375q-5.625 -2.4375 -9.6875 -7.3125q-4.0625 -4.875 -6.28125 -12.15625q-2.21875 -7.28125 -2.21875 -16.90625l0 -15.8125q0 -9.625 2.1875 -16.90625q2.1875 -7.28125 6.25 -12.15625q4.0625 -4.875 9.6875 -7.34375q5.625 -2.46875 12.4375 -2.46875q7.0625 0 12.71875 2.46875q5.65625 2.46875 9.625 7.34375q3.96875 4.875 6.09375 12.15625q2.125 7.28125 2.125 16.90625zm-11.375 15.8125l0 -15.9375q0 -7.5 -1.25 -12.90625q-1.25 -5.40625 -3.6875 -8.84375q-2.4375 -3.4375 -6.0 -5.09375q-3.5625 -1.65625 -8.25 -1.65625q-4.4375 0 -7.96875 1.65625q-3.53125 1.65625 -6.03125 5.09375q-2.5 3.4375 -3.84375 8.84375q-1.34375 5.40625 -1.34375 12.90625l0 15.9375q0 7.5625 1.34375 12.96875q1.34375 5.40625 3.875 8.875q2.53125 3.46875 6.09375 5.125q3.5625 1.65625 7.9375 1.65625q4.6875 0 8.28125 -1.65625q3.59375 -1.65625 6.0 -5.125q2.40625 -3.46875 3.625 -8.875q1.21875 -5.40625 1.21875 -12.96875zm56.6875 -53.4375l0 91.0l-11.375 0l0 -91.0l11.375 0zm23.9375 0l0 9.875l-59.1875 0l0 -9.875l59.1875 0zm41.0 48.4375l-18.5 0l-0.125 -9.6875l17.1875 0q3.875 0 6.875 -1.75q3.0 -1.75 4.71875 -5.03125q1.71875 -3.28125 1.71875 -7.84375q0 -5.0 -1.46875 -8.15625q-1.46875 -3.15625 -4.4375 -4.625q-2.96875 -1.46875 -7.53125 -1.46875l-14.5 0l0 81.125l-11.5 0l0 -91.0l26.0 0q5.875 0 10.5 1.40625q4.625 1.40625 7.84375 4.375q3.21875 2.96875 4.90625 7.53125q1.6875 4.5625 1.6875 10.9375q0 5.625 -2.53125 10.15625q-2.53125 4.53125 -7.03125 7.40625q-4.5 2.875 -10.375 3.6875l-3.4375 2.9375zm-0.4375 42.5625l-22.8125 0l6.6875 -9.8125l16.125 0q4.5 0 7.625 -2.0q3.125 -2.0 4.78125 -5.65625q1.65625 -3.65625 1.65625 -8.65625q0 -5.0625 -1.375 -8.75q-1.375 -3.6875 -4.375 -5.6875q-3.0 -2.0 -7.875 -2.0l-14.8125 0l0.125 -9.6875l20.0 0l2.5625 3.5q5.625 0.5625 9.46875 3.71875q3.84375 3.15625 5.8125 8.03125q1.96875 4.875 1.96875 10.75q0 8.5 -3.15625 14.34375q-3.15625 5.84375 -8.90625 8.875q-5.75 3.03125 -13.5 3.03125zm101.9375 -53.375l0 15.8125q0 9.625 -2.09375 16.90625q-2.09375 7.28125 -6.09375 12.15625q-4.0 4.875 -9.625 7.3125q-5.625 2.4375 -12.6875 2.4375q-6.8125 0 -12.4375 -2.4375q-5.625 -2.4375 -9.6875 -7.3125q-4.0625 -4.875 -6.28125 -12.15625q-2.21875 -7.28125 -2.21875 -16.90625l0 -15.8125q0 -9.625 2.1875 -16.90625q2.1875 -7.28125 6.25 -12.15625q4.0625 -4.875 9.6875 -7.34375q5.625 -2.46875 12.4375 -2.46875q7.0625 0 12.71875 2.46875q5.65625 2.46875 9.625 7.34375q3.96875 4.875 6.09375 12.15625q2.125 7.28125 2.125 16.90625zm-11.375 15.8125l0 -15.9375q0 -7.5 -1.25 -12.90625q-1.25 -5.40625 -3.6875 -8.84375q-2.4375 -3.4375 -6.0 -5.09375q-3.5625 -1.65625 -8.25 -1.65625q-4.4375 0 -7.96875 1.65625q-3.53125 1.65625 -6.03125 5.09375q-2.5 3.4375 -3.84375 8.84375q-1.34375 5.40625 -1.34375 12.90625l0 15.9375q0 7.5625 1.34375 12.96875q1.34375 5.40625 3.875 8.875q2.53125 3.46875 6.09375 5.125q3.5625 1.65625 7.9375 1.65625q4.6875 0 8.28125 -1.65625q3.59375 -1.65625 6.0 -5.125q2.40625 -3.46875 3.625 -8.875q1.21875 -5.40625 1.21875 -12.96875zm58.125 1.875l-19.875 0l0 -9.8125l19.875 0q5.625 0 9.09375 -2.25q3.46875 -2.25 5.0625 -6.25q1.59375 -4.0 1.59375 -9.125q0 -4.6875 -1.59375 -8.8125q-1.59375 -4.125 -5.0625 -6.65625q-3.46875 -2.53125 -9.09375 -2.53125l-17.5 0l0 81.125l-11.5 0l0 -91.0l29.0 0q8.8125 0 14.875 3.5625q6.0625 3.5625 9.21875 9.84375q3.15625 6.28125 3.15625 14.34375q0 8.75 -3.15625 14.9375q-3.15625 6.1875 -9.21875 9.40625q-6.0625 3.21875 -14.875 3.21875zm53.9375 14.8125l35.4375 -70.125l11.5 0l0 91.0l-11.5 0l0 -70.1875l-35.4375 70.1875l-11.4375 0l0 -91.0l11.4375 0l0 70.125z" fill-rule="nonzero"/><path fill="#0b5394" d="m4182.889 653.58984l0 9.8125l-39.4375 0l0 -9.8125l39.4375 0zm-37.875 -39.125l0 91.0l-11.5 0l0 -91.0l11.5 0zm48.0625 0l0 91.0l-11.5 0l0 -91.0l11.5 0zm50.4375 8.0625l-24.875 82.9375l-11.75 0l29.3125 -91.0l7.375 0l-0.0625 8.0625zm20.125 82.9375l-24.875 -82.9375l-0.125 -8.0625l7.4375 0l29.3125 91.0l-11.75 0zm0 -33.6875l0 9.875l-43.875 0l0 -9.875l43.875 0zm83.3125 -57.3125l0 91.0l-11.5 0l0 -81.125l-35.5625 0l0 81.125l-11.5 0l0 -91.0l58.5625 0zm49.3125 55.3125l-19.875 0l0 -9.8125l19.875 0q5.625 0 9.09375 -2.25q3.46875 -2.25 5.0625 -6.25q1.59375 -4.0 1.59375 -9.125q0 -4.6875 -1.59375 -8.8125q-1.59375 -4.125 -5.0625 -6.65625q-3.46875 -2.53125 -9.09375 -2.53125l-17.5 0l0 81.125l-11.5 0l0 -91.0l29.0 0q8.8125 0 14.875 3.5625q6.0625 3.5625 9.21875 9.84375q3.15625 6.28125 3.15625 14.34375q0 8.75 -3.15625 14.9375q-3.15625 6.1875 -9.21875 9.40625q-6.0625 3.21875 -14.875 3.21875zm62.8125 -47.25l-24.875 82.9375l-11.75 0l29.3125 -91.0l7.375 0l-0.0625 8.0625zm20.125 82.9375l-24.875 -82.9375l-0.125 -8.0625l7.4375 0l29.3125 91.0l-11.75 0zm0 -33.6875l0 9.875l-43.875 0l0 -9.875l43.875 0zm51.75 -8.875l-18.5 0l-0.125 -9.6875l17.1875 0q3.875 0 6.875 -1.75q3.0 -1.75 4.71875 -5.03125q1.71875 -3.28125 1.71875 -7.84375q0 -5.0 -1.46875 -8.15625q-1.46875 -3.15625 -4.4375 -4.625q-2.96875 -1.46875 -7.53125 -1.46875l-14.5 0l0 81.125l-11.5 0l0 -91.0l26.0 0q5.875 0 10.5 1.40625q4.625 1.40625 7.84375 4.375q3.21875 2.96875 4.90625 7.53125q1.6875 4.5625 1.6875 10.9375q0 5.625 -2.53125 10.15625q-2.53125 4.53125 -7.03125 7.40625q-4.5 2.875 -10.375 3.6875l-3.4375 2.9375zm-0.4375 42.5625l-22.8125 0l6.6875 -9.8125l16.125 0q4.5 0 7.625 -2.0q3.125 -2.0 4.78125 -5.65625q1.65625 -3.65625 1.65625 -8.65625q0 -5.0625 -1.375 -8.75q-1.375 -3.6875 -4.375 -5.6875q-3.0 -2.0 -7.875 -2.0l-14.8125 0l0.125 -9.6875l20.0 0l2.5625 3.5q5.625 0.5625 9.46875 3.71875q3.84375 3.15625 5.8125 8.03125q1.96875 4.875 1.96875 10.75q0 8.5 -3.15625 14.34375q-3.15625 5.84375 -8.90625 8.875q-5.75 3.03125 -13.5 3.03125zm91.1875 -91.0l0 9.875l-34.0 0l0 -9.875l34.0 0zm10.125 0l0 91.0l-11.5 0l0 -91.0l11.5 0zm-48.0 0l11.4375 0l-1.625 44.5625q-0.3125 9.625 -1.1875 17.15625q-0.875 7.53125 -2.5 13.0625q-1.625 5.53125 -4.25 9.125q-2.625 3.59375 -6.40625 5.34375q-3.78125 1.75 -8.96875 1.75l-3.0 0l0 -9.8125l2.1875 -0.1875q2.875 -0.25 4.96875 -1.59375q2.09375 -1.34375 3.5 -4.09375q1.40625 -2.75 2.3125 -7.125q0.90625 -4.375 1.40625 -10.71875q0.5 -6.34375 0.75 -14.84375l1.375 -42.625zm117.1875 81.1875l0 9.8125l-39.5 0l0 -9.8125l39.5 0zm-37.4375 -81.1875l0 91.0l-11.5 0l0 -91.0l11.5 0zm32.125 39.125l0 9.8125l-34.1875 0l0 -9.8125l34.1875 0zm4.6875 -39.125l0 9.875l-38.875 0l0 -9.875l38.875 0zm64.6875 39.125l0 9.8125l-39.4375 0l0 -9.8125l39.4375 0zm-37.875 -39.125l0 91.0l-11.5 0l0 -91.0l11.5 0zm48.0625 0l0 91.0l-11.5 0l0 -91.0l11.5 0zm31.8125 70.125l35.4375 -70.125l11.5 0l0 91.0l-11.5 0l0 -70.1875l-35.4375 70.1875l-11.4375 0l0 -91.0l11.4375 0l0 70.125zm116.25 11.0625l0 9.8125l-39.5 0l0 -9.8125l39.5 0zm-37.4375 -81.1875l0 91.0l-11.5 0l0 -91.0l11.5 0zm32.125 39.125l0 9.8125l-34.1875 0l0 -9.8125l34.1875 0zm4.6875 -39.125l0 9.875l-38.875 0l0 -9.875l38.875 0zm45.8125 0l0 91.0l-11.375 0l0 -91.0l11.375 0zm23.9375 0l0 9.875l-59.1875 0l0 -9.875l59.1875 0zm70.875 37.625l0 15.8125q0 9.625 -2.09375 16.90625q-2.09375 7.28125 -6.09375 12.15625q-4.0 4.875 -9.625 7.3125q-5.625 2.4375 -12.6875 2.4375q-6.8125 0 -12.4375 -2.4375q-5.625 -2.4375 -9.6875 -7.3125q-4.0625 -4.875 -6.28125 -12.15625q-2.21875 -7.28125 -2.21875 -16.90625l0 -15.8125q0 -9.625 2.1875 -16.90625q2.1875 -7.28125 6.25 -12.15625q4.0625 -4.875 9.6875 -7.34375q5.625 -2.46875 12.4375 -2.46875q7.0625 0 12.71875 2.46875q5.65625 2.46875 9.625 7.34375q3.96875 4.875 6.09375 12.15625q2.125 7.28125 2.125 16.90625zm-11.375 15.8125l0 -15.9375q0 -7.5 -1.25 -12.90625q-1.25 -5.40625 -3.6875 -8.84375q-2.4375 -3.4375 -6.0 -5.09375q-3.5625 -1.65625 -8.25 -1.65625q-4.4375 0 -7.96875 1.65625q-3.53125 1.65625 -6.03125 5.09375q-2.5 3.4375 -3.84375 8.84375q-1.34375 5.40625 -1.34375 12.90625l0 15.9375q0 7.5625 1.34375 12.96875q1.34375 5.40625 3.875 8.875q2.53125 3.46875 6.09375 5.125q3.5625 1.65625 7.9375 1.65625q4.6875 0 8.28125 -1.65625q3.59375 -1.65625 6.0 -5.125q2.40625 -3.46875 3.625 -8.875q1.21875 -5.40625 1.21875 -12.96875z" fill-rule="nonzero"/><path fill="#0b5394" d="m4315.6704 828.72986l0 15.8125q0 9.625 -2.09375 16.90625q-2.09375 7.28125 -6.09375 12.15625q-4.0 4.875 -9.625 7.3125q-5.625 2.4375 -12.6875 2.4375q-6.8125 0 -12.4375 -2.4375q-5.625 -2.4375 -9.6875 -7.3125q-4.0625 -4.875 -6.28125 -12.15625q-2.21875 -7.28125 -2.21875 -16.90625l0 -15.8125q0 -9.625 2.1875 -16.90625q2.1875 -7.28125 6.25 -12.15625q4.0625 -4.875 9.6875 -7.34375q5.625 -2.46875 12.4375 -2.46875q7.0625 0 12.71875 2.46875q5.65625 2.46875 9.625 7.34375q3.96875 4.875 6.09375 12.15625q2.125 7.28125 2.125 16.90625zm-11.375 15.8125l0 -15.9375q0 -7.5 -1.25 -12.90625q-1.25 -5.40625 -3.6875 -8.84375q-2.4375 -3.4375 -6.0 -5.09375q-3.5625 -1.65625 -8.25 -1.65625q-4.4375 0 -7.96875 1.65625q-3.53125 1.65625 -6.03125 5.09375q-2.5 3.4375 -3.84375 8.84375q-1.34375 5.40625 -1.34375 12.90625l0 15.9375q0 7.5625 1.34375 12.96875q1.34375 5.40625 3.875 8.875q2.53125 3.46875 6.09375 5.125q3.5625 1.65625 7.9375 1.65625q4.6875 0 8.28125 -1.65625q3.59375 -1.65625 6.0 -5.125q2.40625 -3.46875 3.625 -8.875q1.21875 -5.40625 1.21875 -12.96875zm56.6875 -53.4375l0 91.0l-11.375 0l0 -91.0l11.375 0zm23.9375 0l0 9.875l-59.1875 0l0 -9.875l59.1875 0zm85.875 62.0625l11.5 0q-0.4375 9.375 -3.78125 16.15625q-3.34375 6.78125 -9.6875 10.40625q-6.34375 3.625 -15.84375 3.625q-6.8125 0 -12.3125 -2.6875q-5.5 -2.6875 -9.40625 -7.71875q-3.90625 -5.03125 -5.96875 -12.09375q-2.0625 -7.0625 -2.0625 -15.875l0 -16.8125q0 -8.75 2.09375 -15.8125q2.09375 -7.0625 6.0625 -12.09375q3.96875 -5.03125 9.6875 -7.71875q5.71875 -2.6875 12.96875 -2.6875q8.875 0 15.03125 3.53125q6.15625 3.53125 9.5 10.3125q3.34375 6.78125 3.71875 16.59375l-11.5 0q-0.4375 -7.1875 -2.25 -11.71875q-1.8125 -4.53125 -5.34375 -6.6875q-3.53125 -2.15625 -9.15625 -2.15625q-5.0 0 -8.65625 2.0q-3.65625 2.0 -6.0 5.71875q-2.34375 3.71875 -3.5 8.9375q-1.15625 5.21875 -1.15625 11.65625l0 16.9375q0 6.0 0.96875 11.1875q0.96875 5.1875 3.125 9.09375q2.15625 3.90625 5.65625 6.09375q3.5 2.1875 8.5 2.1875q6.3125 0 10.0 -2.0625q3.6875 -2.0625 5.46875 -6.5625q1.78125 -4.5 2.34375 -11.75zm86.125 -62.0625l0 91.0l-11.5 0l0 -81.125l-35.5625 0l0 81.125l-11.5 0l0 -91.0l58.5625 0zm32.3125 70.125l35.4375 -70.125l11.5 0l0 91.0l-11.5 0l0 -70.1875l-35.4375 70.1875l-11.4375 0l0 -91.0l11.4375 0l0 70.125zm112.875 -8.0625l11.5 0q-0.4375 9.375 -3.78125 16.15625q-3.34375 6.78125 -9.6875 10.40625q-6.34375 3.625 -15.84375 3.625q-6.8125 0 -12.3125 -2.6875q-5.5 -2.6875 -9.40625 -7.71875q-3.90625 -5.03125 -5.96875 -12.09375q-2.0625 -7.0625 -2.0625 -15.875l0 -16.8125q0 -8.75 2.09375 -15.8125q2.09375 -7.0625 6.0625 -12.09375q3.96875 -5.03125 9.6875 -7.71875q5.71875 -2.6875 12.96875 -2.6875q8.875 0 15.03125 3.53125q6.15625 3.53125 9.5 10.3125q3.34375 6.78125 3.71875 16.59375l-11.5 0q-0.4375 -7.1875 -2.25 -11.71875q-1.8125 -4.53125 -5.34375 -6.6875q-3.53125 -2.15625 -9.15625 -2.15625q-5.0 0 -8.65625 2.0q-3.65625 2.0 -6.0 5.71875q-2.34375 3.71875 -3.5 8.9375q-1.15625 5.21875 -1.15625 11.65625l0 16.9375q0 6.0 0.96875 11.1875q0.96875 5.1875 3.125 9.09375q2.15625 3.90625 5.65625 6.09375q3.5 2.1875 8.5 2.1875q6.3125 0 10.0 -2.0625q3.6875 -2.0625 5.46875 -6.5625q1.78125 -4.5 2.34375 -11.75zm19.875 -52.5625l0 -9.5l22.5625 0l0 9.5l-22.5625 0zm29.0 27.5625l20.6875 0q8.4375 0 14.28125 3.34375q5.84375 3.34375 8.875 9.34375q3.03125 6.0 3.03125 14.0625q0 6.0 -1.71875 10.96875q-1.71875 4.96875 -5.0625 8.625q-3.34375 3.65625 -8.21875 5.625q-4.875 1.96875 -11.1875 1.96875l-29.75 0l0 -91.0l11.5 0l0 81.1875l18.25 0q5.1875 0 8.4375 -2.46875q3.25 -2.46875 4.75 -6.46875q1.5 -4.0 1.5 -8.5625q0 -4.5625 -1.5 -8.375q-1.5 -3.8125 -4.75 -6.09375q-3.25 -2.28125 -8.4375 -2.28125l-20.6875 0l0 -9.875zm73.625 -37.0625l0 91.0l-11.5 0l0 -91.0l11.5 0zm46.8125 0l-32.875 50.0625l-18.5 0l-1.9375 -10.0l13.5 0l25.5625 -40.0625l14.25 0zm-11.875 91.0l-27.375 -42.5l6.4375 -10.5625l34.9375 53.0625l-14.0 0zm54.25 -82.9375l-24.875 82.9375l-11.75 0l29.3125 -91.0l7.375 0l-0.0625 8.0625zm20.125 82.9375l-24.875 -82.9375l-0.125 -8.0625l7.4375 0l29.3125 91.0l-11.75 0zm0 -33.6875l0 9.875l-43.875 0l0 -9.875l43.875 0z" fill-rule="nonzero"/><path fill="#000000" fill-opacity="0.0" d="m474.82153 742.0415l944.88184 0l0 310.2677l-944.88184 0z" fill-rule="evenodd"/><path fill="#660000" d="m738.6726 846.6634l33.21875 -65.734375l10.78125 0l0 85.3125l-10.78125 0l0 -65.796875l-33.21875 65.796875l-10.71875 0l0 -85.3125l10.71875 0l0 65.734375zm85.43359 -21.375l-8.328125 0l0 -7.21875l7.96875 0q4.984375 0 8.03125 -1.8125q3.046875 -1.8125 4.453125 -5.03125q1.40625 -3.234375 1.40625 -7.453125q0 -4.03125 -1.5625 -7.40625q-1.546875 -3.375 -4.765625 -5.390625q-3.21875 -2.015625 -8.375 -2.015625q-3.8125 0 -6.921875 1.84375q-3.109375 1.84375 -4.890625 5.09375q-1.78125 3.25 -1.78125 7.46875l-10.78125 0q0 -5.453125 1.890625 -9.8125q1.90625 -4.359375 5.28125 -7.4375q3.375 -3.078125 7.796875 -4.71875q4.421875 -1.640625 9.40625 -1.640625q5.796875 0 10.484375 1.5625q4.6875 1.546875 8.046875 4.59375q3.375 3.046875 5.15625 7.5625q1.796875 4.5 1.796875 10.484375q0 4.390625 -1.765625 8.265625q-1.75 3.859375 -4.984375 6.796875q-3.21875 2.921875 -7.671875 4.59375q-4.453125 1.671875 -9.890625 1.671875zm-8.328125 -4.984375l8.328125 0q5.96875 0 10.6875 1.46875q4.71875 1.453125 8.0 4.265625q3.28125 2.8125 5.0 6.953125q1.734375 4.125 1.734375 9.453125q0 5.984375 -1.96875 10.609375q-1.953125 4.625 -5.53125 7.859375q-3.578125 3.21875 -8.4375 4.859375q-4.859375 1.640625 -10.65625 1.640625q-4.6875 0 -9.203125 -1.4375q-4.515625 -1.4375 -8.1875 -4.453125q-3.65625 -3.015625 -5.859375 -7.703125q-2.1875 -4.6875 -2.1875 -11.25l10.78125 0q0 4.28125 1.84375 7.859375q1.84375 3.5625 5.125 5.703125q3.28125 2.140625 7.6875 2.140625q5.03125 0 8.578125 -2.015625q3.546875 -2.03125 5.390625 -5.578125q1.84375 -3.546875 1.84375 -8.0q0 -3.921875 -0.96875 -6.8125q-0.96875 -2.90625 -2.875 -4.78125q-1.890625 -1.875 -4.6875 -2.78125q-2.78125 -0.90625 -6.46875 -0.90625l-7.96875 0l0 -7.09375zm74.65234 -39.375l0 85.3125l-10.671875 0l0 -85.3125l10.671875 0zm22.4375 0l0 9.25l-55.484375 0l0 -9.25l55.484375 0zm58.476562 76.109375l0 9.203125l-37.03125 0l0 -9.203125l37.03125 0zm-35.09375 -76.109375l0 85.3125l-10.78125 0l0 -85.3125l10.78125 0zm30.109375 36.671875l0 9.203125l-32.046875 0l0 -9.203125l32.046875 0zm4.40625 -36.671875l0 9.25l-36.453125 0l0 -9.25l36.453125 0zm59.226562 0l0 9.25l-33.515625 0l0 76.0625l-10.78125 0l0 -85.3125l44.296875 0zm52.679688 0l0 9.25l-31.875 0l0 -9.25l31.875 0zm9.5 0l0 85.3125l-10.78125 0l0 -85.3125l10.78125 0zm-45.0 0l10.71875 0l-1.53125 41.78125q-0.28125 9.015625 -1.109375 16.078125q-0.8125 7.0625 -2.34375 12.25q-1.515625 5.1875 -3.984375 8.5625q-2.453125 3.359375 -6.0 5.0q-3.546875 1.640625 -8.40625 1.640625l-2.8125 0l0 -9.203125l2.046875 -0.171875q2.6875 -0.234375 4.65625 -1.484375q1.96875 -1.265625 3.28125 -3.84375q1.3125 -2.578125 2.15625 -6.671875q0.859375 -4.109375 1.328125 -10.0625q0.46875 -5.953125 0.703125 -13.921875l1.296875 -39.953125zm75.23047 65.734375l33.21875 -65.734375l10.78125 0l0 85.3125l-10.78125 0l0 -65.796875l-33.21875 65.796875l-10.71875 0l0 -85.3125l10.71875 0l0 65.734375z" fill-rule="nonzero"/><path fill="#660000" d="m625.63745 961.6009l0 9.203125l-36.96875 0l0 -9.203125l36.96875 0zm-35.5 -36.671875l0 85.3125l-10.78125 0l0 -85.3125l10.78125 0zm45.0625 0l0 85.3125l-10.78125 0l0 -85.3125l10.78125 0zm47.28125 7.5625l-23.328125 77.75l-11.015625 0l27.484375 -85.3125l6.921875 0l-0.0625 7.5625zm18.859375 77.75l-23.3125 -77.75l-0.125 -7.5625l6.984375 0l27.46875 85.3125l-11.015625 0zm0 -31.578125l0 9.25l-41.125 0l0 -9.25l41.125 0zm78.10547 -53.734375l0 85.3125l-10.78125 0l0 -76.0625l-33.328125 0l0 76.0625l-10.78125 0l0 -85.3125l54.890625 0zm46.23828 51.859375l-18.640625 0l0 -9.203125l18.640625 0q5.265625 0 8.515625 -2.109375q3.265625 -2.109375 4.75 -5.859375q1.5 -3.75 1.5 -8.5625q0 -4.390625 -1.5 -8.25q-1.484375 -3.875 -4.75 -6.25q-3.25 -2.375 -8.515625 -2.375l-16.40625 0l0 76.0625l-10.78125 0l0 -85.3125l27.1875 0q8.265625 0 13.9375 3.34375q5.6875 3.328125 8.640625 9.21875q2.96875 5.890625 2.96875 13.453125q0 8.203125 -2.96875 14.0q-2.953125 5.796875 -8.640625 8.828125q-5.671875 3.015625 -13.9375 3.015625zm58.88672 -44.296875l-23.328125 77.75l-11.015625 0l27.484375 -85.3125l6.921875 0l-0.0625 7.5625zm18.859375 77.75l-23.3125 -77.75l-0.125 -7.5625l6.984375 0l27.46875 85.3125l-11.015625 0zm0 -31.578125l0 9.25l-41.125 0l0 -9.25l41.125 0zm48.527344 -8.328125l-17.34375 0l-0.125 -9.078125l16.109375 0q3.640625 0 6.453125 -1.640625q2.8125 -1.640625 4.421875 -4.71875q1.609375 -3.078125 1.609375 -7.359375q0 -4.6875 -1.375 -7.640625q-1.375 -2.953125 -4.15625 -4.328125q-2.78125 -1.390625 -7.0625 -1.390625l-13.59375 0l0 76.0625l-10.78125 0l0 -85.3125l24.375 0q5.5 0 9.828125 1.328125q4.34375 1.3125 7.359375 4.09375q3.03125 2.78125 4.609375 7.0625q1.578125 4.265625 1.578125 10.25q0 5.265625 -2.375 9.515625q-2.375 4.25 -6.59375 6.953125q-4.21875 2.6875 -9.71875 3.453125l-3.21875 2.75zm-0.421875 39.90625l-21.375 0l6.265625 -9.203125l15.109375 0q4.21875 0 7.140625 -1.875q2.9375 -1.875 4.484375 -5.296875q1.5625 -3.4375 1.5625 -8.125q0 -4.734375 -1.296875 -8.1875q-1.28125 -3.46875 -4.09375 -5.34375q-2.8125 -1.875 -7.375 -1.875l-13.890625 0l0.109375 -9.078125l18.75 0l2.40625 3.28125q5.28125 0.53125 8.875 3.484375q3.609375 2.953125 5.453125 7.53125q1.84375 4.5625 1.84375 10.078125q0 7.96875 -2.96875 13.453125q-2.953125 5.46875 -8.34375 8.3125q-5.390625 2.84375 -12.65625 2.84375zm85.49219 -85.3125l0 9.25l-31.875 0l0 -9.25l31.875 0zm9.5 0l0 85.3125l-10.78125 0l0 -85.3125l10.78125 0zm-45.0 0l10.71875 0l-1.53125 41.78125q-0.28125 9.015625 -1.109375 16.078125q-0.8125 7.0625 -2.34375 12.25q-1.515625 5.1875 -3.984375 8.5625q-2.453125 3.359375 -6.0 5.0q-3.546875 1.640625 -8.40625 1.640625l-2.8125 0l0 -9.203125l2.046875 -0.171875q2.6875 -0.234375 4.65625 -1.484375q1.96875 -1.265625 3.28125 -3.84375q1.3125 -2.578125 2.15625 -6.671875q0.859375 -4.109375 1.328125 -10.0625q0.46875 -5.953125 0.703125 -13.921875l1.296875 -39.953125zm109.85547 76.109375l0 9.203125l-37.03125 0l0 -9.203125l37.03125 0zm-35.09375 -76.109375l0 85.3125l-10.78125 0l0 -85.3125l10.78125 0zm30.109375 36.671875l0 9.203125l-32.046875 0l0 -9.203125l32.046875 0zm4.40625 -36.671875l0 9.25l-36.453125 0l0 -9.25l36.453125 0zm60.632812 36.671875l0 9.203125l-36.96875 0l0 -9.203125l36.96875 0zm-35.5 -36.671875l0 85.3125l-10.78125 0l0 -85.3125l10.78125 0zm45.0625 0l0 85.3125l-10.78125 0l0 -85.3125l10.78125 0zm29.820312 65.734375l33.21875 -65.734375l10.78125 0l0 85.3125l-10.78125 0l0 -65.796875l-33.21875 65.796875l-10.71875 0l0 -85.3125l10.71875 0l0 65.734375zm108.98047 10.375l0 9.203125l-37.03125 0l0 -9.203125l37.03125 0zm-35.09375 -76.109375l0 85.3125l-10.78125 0l0 -85.3125l10.78125 0zm30.109375 36.671875l0 9.203125l-32.046875 0l0 -9.203125l32.046875 0zm4.40625 -36.671875l0 9.25l-36.453125 0l0 -9.25l36.453125 0z" fill-rule="nonzero"/><path fill="#000000" fill-opacity="0.0" d="m980.5066 208.91864l244.06299 0l0 277.95276l-244.06299 0z" fill-rule="evenodd"/><path stroke="#f9fbfd" stroke-width="1.0" stroke-linejoin="round" stroke-linecap="butt" d="m980.5066 208.91864l244.06299 0l0 277.95276l-244.06299 0z" fill-rule="evenodd"/><path fill="#660000" d="m1107.9562 345.6405l46.140625 0l0 11.65625l-46.140625 0l0 50.21875l-12.609375 0l0 -50.21875l-45.203125 0l0 -11.65625l45.203125 0l0 -48.546875l12.609375 0l0 48.546875z" fill-rule="nonzero"/><path fill="#ffffff" d="m885.4199 443.7484l0 0c0 -10.8081665 8.76178 -19.569946 19.569946 -19.569946l78.277466 0l0 0c5.1902466 0 10.167969 2.0618286 13.838013 5.731903c3.670105 3.6700745 5.7319336 8.647766 5.7319336 13.838043l0 154.08844c0 10.808228 -8.76178 19.569946 -19.569946 19.569946l-78.277466 0c-10.8081665 0 -19.569946 -8.761719 -19.569946 -19.569946z" fill-rule="evenodd"/><path stroke="#660000" stroke-width="12.0" stroke-linejoin="round" stroke-linecap="butt" d="m885.4199 443.7484l0 0c0 -10.8081665 8.76178 -19.569946 19.569946 -19.569946l78.277466 0l0 0c5.1902466 0 10.167969 2.0618286 13.838013 5.731903c3.670105 3.6700745 5.7319336 8.647766 5.7319336 13.838043l0 154.08844c0 10.808228 -8.76178 19.569946 -19.569946 19.569946l-78.277466 0c-10.8081665 0 -19.569946 -8.761719 -19.569946 -19.569946z" fill-rule="evenodd"/><path fill="#ffffff" d="m827.1929 466.69696l107.74805 0l0 108.188965l-107.74805 0z" fill-rule="evenodd"/><path fill="#660000" d="m836.1929 528.3735l0 -7.796875l69.5 0l-8.203125 -9.9219055l4.65625 -4.984375l18.0 18.87503l-18.0 18.734375l-4.65625 -4.984375l8.203125 -9.921875l-69.5 0z" fill-rule="nonzero"/><path fill="#ffffff" d="m7244.538 546.7387l0 0c0 -31.670776 25.674316 -57.345 57.344727 -57.345l1438.5703 0c15.208984 0 29.794922 6.041687 40.54883 16.79596c10.753906 10.754242 16.795898 25.34018 16.795898 40.54904l0 229.37299c0 31.670776 -25.673828 57.34497 -57.344727 57.34497l-1438.5703 0c-31.67041 0 -57.344727 -25.674194 -57.344727 -57.34497z" fill-rule="evenodd"/><path stroke="#0b5394" stroke-width="12.0" stroke-linejoin="round" stroke-linecap="butt" d="m7244.538 546.7387l0 0c0 -31.670776 25.674316 -57.345 57.344727 -57.345l1438.5703 0c15.208984 0 29.794922 6.041687 40.54883 16.79596c10.753906 10.754242 16.795898 25.34018 16.795898 40.54904l0 229.37299c0 31.670776 -25.673828 57.34497 -57.344727 57.34497l-1438.5703 0c-31.67041 0 -57.344727 -25.674194 -57.344727 -57.34497z" fill-rule="evenodd"/><path fill="#0b5394" d="m7579.4805 677.6177l15.125 0q-0.4375 9.875 -4.0 16.78125q-3.5625 6.90625 -10.21875 10.53125q-6.65625 3.625 -16.21875 3.625q-7.25 0 -12.96875 -2.625q-5.71875 -2.625 -9.71875 -7.59375q-4.0 -4.96875 -6.09375 -12.15625q-2.09375 -7.1875 -2.09375 -16.3125l0 -16.125q0 -9.125 2.15625 -16.3125q2.15625 -7.1875 6.21875 -12.1875q4.0625 -5.0 9.90625 -7.59375q5.84375 -2.59375 13.21875 -2.59375q9.4375 0 15.875 3.625q6.4375 3.625 9.9375 10.625q3.5 7.0 4.0625 17.0625l-15.125 0q-0.3125 -6.8125 -1.84375 -10.90625q-1.53125 -4.09375 -4.625 -5.90625q-3.09375 -1.8125 -8.28125 -1.8125q-4.3125 0 -7.40625 1.625q-3.09375 1.625 -5.0625 4.84375q-1.96875 3.21875 -2.9375 8.0625q-0.96875 4.84375 -0.96875 11.34375l0 16.25q0 6.25 0.8125 11.0625q0.8125 4.8125 2.625 8.15625q1.8125 3.34375 4.8125 5.0625q3.0 1.71875 7.5 1.71875q5.375 0 8.59375 -1.6875q3.21875 -1.6875 4.78125 -5.6875q1.5625 -4.0 1.9375 -10.875zm22.9375 -49.0625l0 -12.25l24.5 0l0 12.25l-24.5 0zm30.375 22.4375l18.8125 0q8.8125 0 15.125 3.5q6.3125 3.5 9.6875 9.75q3.375 6.25 3.375 14.625q0 6.3125 -1.9375 11.5q-1.9375 5.1875 -5.59375 9.0q-3.65625 3.8125 -8.875 5.875q-5.21875 2.0625 -11.78125 2.0625l-29.625 0l0 -91.0l15.1875 0l0 78.3125l14.4375 0q4.4375 0 7.3125 -2.21875q2.875 -2.21875 4.28125 -5.8125q1.40625 -3.59375 1.40625 -7.84375q0 -4.125 -1.40625 -7.53125q-1.40625 -3.40625 -4.28125 -5.4375q-2.875 -2.03125 -7.3125 -2.03125l-18.8125 0l0 -12.75zm86.5 12.6875l-10.5625 0l0 -9.0625l8.9375 0q4.25 0 6.84375 -1.6875q2.59375 -1.6875 3.8125 -4.75q1.21875 -3.0625 1.21875 -7.125q0 -3.625 -1.375 -6.625q-1.375 -3.0 -4.1875 -4.8125q-2.8125 -1.8125 -7.3125 -1.8125q-3.3125 0 -6.03125 1.59375q-2.71875 1.59375 -4.25 4.46875q-1.53125 2.875 -1.53125 6.75l-15.1875 0q0 -5.9375 2.125 -10.65625q2.125 -4.71875 5.875 -8.03125q3.75 -3.3125 8.625 -5.09375q4.875 -1.78125 10.375 -1.78125q6.375 0 11.53125 1.65625q5.15625 1.65625 8.84375 4.90625q3.6875 3.25 5.65625 8.09375q1.96875 4.84375 1.96875 11.21875q0 4.6875 -1.84375 8.8125q-1.84375 4.125 -5.1875 7.25q-3.34375 3.125 -8.03125 4.90625q-4.6875 1.78125 -10.3125 1.78125zm-10.5625 -5.4375l10.5625 0q6.25 0 11.1875 1.5625q4.9375 1.5625 8.34375 4.5625q3.40625 3.0 5.21875 7.40625q1.8125 4.40625 1.8125 10.09375q0 6.375 -2.15625 11.34375q-2.15625 4.96875 -6.0625 8.40625q-3.90625 3.4375 -9.25 5.1875q-5.34375 1.75 -11.71875 1.75q-5.125 0 -10.125 -1.53125q-5.0 -1.53125 -9.0625 -4.75q-4.0625 -3.21875 -6.5 -8.21875q-2.4375 -5.0 -2.4375 -12.0l15.1875 0q0 3.8125 1.65625 6.96875q1.65625 3.15625 4.5625 5.0q2.90625 1.84375 6.71875 1.84375q4.5 0 7.625 -1.8125q3.125 -1.8125 4.78125 -5.03125q1.65625 -3.21875 1.65625 -7.21875q0 -3.8125 -0.84375 -6.625q-0.84375 -2.8125 -2.53125 -4.59375q-1.6875 -1.78125 -4.09375 -2.625q-2.40625 -0.84375 -5.59375 -0.84375l-8.9375 0l0 -8.875zm112.25 36.375l0 12.6875l-55.1875 0l0 -12.6875l55.1875 0zm-51.625 0l0 35.0625l-14.5 0l-0.625 -35.0625l15.125 0zm63.375 0l-0.9375 35.0l-14.3125 0l0 -35.0l15.25 0zm-21.8125 -78.3125l0 12.75l-35.0 0l0 -12.75l35.0 0zm11.75 0l0 91.0l-15.125 0l0 -91.0l15.125 0zm-49.75 0l15.125 0l-1.9375 37.0q-0.4375 8.75 -1.5 15.75q-1.0625 7.0 -2.625 12.5q-1.5625 5.5 -3.5 9.65625q-1.9375 4.15625 -4.15625 7.21875q-2.21875 3.0625 -4.625 5.25q-2.40625 2.1875 -4.78125 3.625l-7.6875 0l0 -12.6875l3.4375 0q1.4375 -1.625 3.03125 -4.53125q1.59375 -2.90625 3.0625 -7.6875q1.46875 -4.78125 2.5625 -11.90625q1.09375 -7.125 1.59375 -17.1875l2.0 -37.0zm103.75 12.5l-22.0 78.5l-15.875 0l28.875 -91.0l9.875 0l-0.875 12.5zm17.5625 78.5l-22.0625 -78.5l-1.0625 -12.5l10.0625 0l29.0 91.0l-15.9375 0zm0.375 -33.8125l0 12.75l-42.375 0l0 -12.75l42.375 0zm40.6875 6.125l31.6875 -63.3125l14.6875 0l0 91.0l-14.875 0l0 -62.9375l-31.5 62.9375l-14.8125 0l0 -91.0l14.8125 0l0 63.3125zm24.875 -86.625l11.25 0q0 5.1875 -2.46875 9.1875q-2.46875 4.0 -7.0 6.25q-4.53125 2.25 -10.78125 2.25q-9.375 0 -14.84375 -4.9375q-5.46875 -4.9375 -5.46875 -12.75l11.25 0q0 3.4375 2.0625 6.0625q2.0625 2.625 7.0 2.625q4.9375 0 6.96875 -2.625q2.03125 -2.625 2.03125 -6.0625zm129.875 23.3125l0 91.0l-15.125 0l0 -78.25l-31.0 0l0 78.25l-15.1875 0l0 -91.0l61.3125 0zm47.4375 57.25l-19.1875 0l0 -12.6875l19.1875 0q4.75 0 7.625 -2.0q2.875 -2.0 4.21875 -5.5q1.34375 -3.5 1.34375 -7.9375q0 -4.25 -1.34375 -8.0q-1.34375 -3.75 -4.21875 -6.0625q-2.875 -2.3125 -7.625 -2.3125l-14.875 0l0 78.25l-15.1875 0l0 -91.0l30.0625 0q9.0625 0 15.40625 3.75q6.34375 3.75 9.71875 10.28125q3.375 6.53125 3.375 14.96875q0 8.8125 -3.375 15.125q-3.375 6.3125 -9.71875 9.71875q-6.34375 3.40625 -15.40625 3.40625zm92.5 21.0625l0 12.6875l-39.5 0l0 -12.6875l39.5 0zm-35.5 -78.3125l0 91.0l-15.1875 0l0 -91.0l15.1875 0zm30.1875 37.875l0 12.5l-34.1875 0l0 -12.5l34.1875 0zm4.9375 -37.875l0 12.75l-39.125 0l0 -12.75l39.125 0zm62.5 0l0 12.75l-34.0625 0l0 78.25l-15.1875 0l0 -91.0l49.25 0zm55.5625 0l0 12.75l-35.8125 0l0 -12.75l35.8125 0zm11.8125 0l0 91.0l-15.125 0l0 -91.0l15.125 0zm-50.5625 0l15.0625 0l-1.75 45.3125q-0.3125 9.9375 -1.40625 17.46875q-1.09375 7.53125 -2.96875 12.90625q-1.875 5.375 -4.78125 8.75q-2.90625 3.375 -6.875 4.96875q-3.96875 1.59375 -9.15625 1.59375l-3.75 0l0 -12.6875l2.1875 -0.25q2.625 -0.25 4.59375 -1.5625q1.96875 -1.3125 3.3125 -4.0q1.34375 -2.6875 2.21875 -6.90625q0.875 -4.21875 1.375 -10.28125q0.5 -6.0625 0.6875 -14.1875l1.25 -41.125zm118.625 78.3125l0 12.6875l-39.5 0l0 -12.6875l39.5 0zm-35.5 -78.3125l0 91.0l-15.1875 0l0 -91.0l15.1875 0zm30.1875 37.875l0 12.5l-34.1875 0l0 -12.5l34.1875 0zm4.9375 -37.875l0 12.75l-39.125 0l0 -12.75l39.125 0zm73.75 78.3125l0 12.6875l-55.1875 0l0 -12.6875l55.1875 0zm-51.625 0l0 35.0625l-14.5 0l-0.625 -35.0625l15.125 0zm63.375 0l-0.9375 35.0l-14.3125 0l0 -35.0l15.25 0zm-21.8125 -78.3125l0 12.75l-35.0 0l0 -12.75l35.0 0zm11.75 0l0 91.0l-15.125 0l0 -91.0l15.125 0zm-49.75 0l15.125 0l-1.9375 37.0q-0.4375 8.75 -1.5 15.75q-1.0625 7.0 -2.625 12.5q-1.5625 5.5 -3.5 9.65625q-1.9375 4.15625 -4.15625 7.21875q-2.21875 3.0625 -4.625 5.25q-2.40625 2.1875 -4.78125 3.625l-7.6875 0l0 -12.6875l3.4375 0q1.4375 -1.625 3.03125 -4.53125q1.59375 -2.90625 3.0625 -7.6875q1.46875 -4.78125 2.5625 -11.90625q1.09375 -7.125 1.59375 -17.1875l2.0 -37.0z" fill-rule="nonzero"/><path fill="#000000" fill-opacity="0.0" d="m6272.4595 660.9719l213.38574 0" fill-rule="evenodd"/><path stroke="#0b5394" stroke-width="12.0" stroke-linejoin="round" stroke-linecap="butt" d="m6272.4595 660.9719l172.26025 0" fill-rule="evenodd"/><path fill="#0b5394" stroke="#0b5394" stroke-width="12.0" stroke-linecap="butt" d="m6444.72 660.9719l-13.495117 13.494995l37.07715 -13.494995l-37.07715 -13.494995z" fill-rule="evenodd"/><path fill="#000000" fill-opacity="0.0" d="m2744.1667 661.4181l213.38574 0" fill-rule="evenodd"/><path stroke="#0b5394" stroke-width="12.0" stroke-linejoin="round" stroke-linecap="butt" d="m2744.1667 661.4181l172.26074 0" fill-rule="evenodd"/><path fill="#0b5394" stroke="#0b5394" stroke-width="12.0" stroke-linecap="butt" d="m2916.4275 661.4181l-13.495117 13.494995l37.077393 -13.494995l-37.077393 -13.494995z" fill-rule="evenodd"/></g></svg>