<svg version="1.1" viewBox="0.0 0.0 9070.866141732284 1322.8346456692914" fill="none" stroke="none" stroke-linecap="square" stroke-miterlimit="10" xmlns:xlink="http://www.w3.org/1999/xlink" xmlns="http://www.w3.org/2000/svg"><clipPath id="g1f810f17307_0_33.0"><path d="m0 0l9070.866 0l0 1322.8346l-9070.866 0l0 -1322.8346z" clip-rule="nonzero"/></clipPath><g clip-path="url(#g1f810f17307_0_33.0)"><path fill="#000000" fill-opacity="0.0" d="m0 0l9070.866 0l0 1322.8346l-9070.866 0z" fill-rule="evenodd"/><path fill="#000000" fill-opacity="0.0" d="m2744.1667 661.4181l213.38574 0" fill-rule="evenodd"/><path stroke="#0b5394" stroke-width="12.0" stroke-linejoin="round" stroke-linecap="butt" d="m2744.1667 661.4181l172.26074 0" fill-rule="evenodd"/><path fill="#0b5394" stroke="#0b5394" stroke-width="12.0" stroke-linecap="butt" d="m2916.4275 661.4181l-13.495117 13.494995l37.077393 -13.494995l-37.077393 -13.494995z" fill-rule="evenodd"/><path fill="#000000" fill-opacity="0.0" d="m6272.4595 660.9719l213.38574 0" fill-rule="evenodd"/><path stroke="#0b5394" stroke-width="12.0" stroke-linejoin="round" stroke-linecap="butt" d="m6272.4595 660.9719l172.26025 0" fill-rule="evenodd"/><path fill="#0b5394" stroke="#0b5394" stroke-width="12.0" stroke-linecap="butt" d="m6444.72 660.9719l-13.495117 13.494995l37.07715 -13.494995l-37.07715 -13.494995z" fill-rule="evenodd"/><path fill="#ffffff" d="m7793.3203 413.9567l614.583 0l0 164.81888l-614.583 0z" fill-rule="evenodd"/><path stroke="#595959" stroke-width="1.0" stroke-linejoin="round" stroke-linecap="butt" d="m7793.3203 413.9567l614.583 0l0 164.81888l-614.583 0z" fill-rule="evenodd"/><path fill="#000000" d="m7984.291 519.0255l0 6.140625l-35.671875 0l0 -6.140625l35.671875 0zm-34.578125 0l0 20.125l-7.140625 0l-0.046875 -20.125l7.1875 0zm40.828125 0l-0.078125 20.09375l-7.109375 0l0 -20.09375l7.1875 0zm-12.96875 -50.734375l0 6.171875l-20.625 0l0 -6.171875l20.625 0zm6.28125 0l0 56.875l-7.1875 0l0 -56.875l7.1875 0zm-29.375 0l7.1875 0l-1.015625 22.890625q-0.1875 5.15625 -0.78125 9.515625q-0.578125 4.34375 -1.5 7.9375q-0.921875 3.59375 -2.09375 6.4375q-1.171875 2.828125 -2.546875 4.875q-1.359375 2.046875 -2.890625 3.359375q-1.515625 1.3125 -3.109375 1.859375l-3.015625 0l0 -6.140625l2.0 0q0.859375 -1.09375 1.890625 -3.15625q1.03125 -2.078125 2.03125 -5.375q1.0 -3.296875 1.75 -8.0625q0.765625 -4.765625 1.046875 -11.25l1.046875 -22.890625zm58.984375 57.65625q-3.78125 0 -6.828125 -1.125q-3.046875 -1.140625 -5.203125 -3.46875q-2.140625 -2.328125 -3.28125 -5.875q-1.125 -3.5625 -1.125 -8.40625l0 -4.765625q0 -5.578125 1.296875 -9.4375q1.3125 -3.875 3.53125 -6.234375q2.234375 -2.375 5.046875 -3.4375q2.8125 -1.078125 5.78125 -1.078125q3.984375 0 6.796875 1.296875q2.8125 1.28125 4.5625 3.828125q1.765625 2.53125 2.609375 6.25q0.84375 3.703125 0.84375 8.546875l0 4.015625l-26.40625 0l0 -5.890625l19.484375 0l0 -0.984375q-0.15625 -3.28125 -0.875 -5.78125q-0.71875 -2.5 -2.359375 -3.921875q-1.640625 -1.421875 -4.65625 -1.421875q-1.90625 0 -3.53125 0.640625q-1.625 0.640625 -2.78125 2.234375q-1.140625 1.578125 -1.796875 4.359375q-0.640625 2.765625 -0.640625 7.015625l0 4.765625q0 3.40625 0.640625 5.84375q0.65625 2.4375 1.921875 4.03125q1.265625 1.578125 3.125 2.34375q1.859375 0.75 4.234375 0.75q3.484375 0 5.75 -1.34375q2.265625 -1.34375 3.9375 -3.453125l3.640625 4.328125q-1.140625 1.609375 -2.953125 3.078125q-1.8125 1.453125 -4.453125 2.375q-2.640625 0.921875 -6.3125 0.921875zm29.890625 -12.234375l15.3125 -30.8125l6.90625 0l0 42.265625l-6.90625 0l0 -30.828125l-15.3125 30.828125l-6.875 0l0 -42.265625l6.875 0l0 30.8125zm13.46875 -46.125l5.859375 0q0 3.046875 -1.40625 5.421875q-1.40625 2.359375 -4.03125 3.6875q-2.609375 1.328125 -6.203125 1.328125q-5.421875 0 -8.578125 -2.90625q-3.140625 -2.921875 -3.140625 -7.53125l5.859375 0q0 2.3125 1.328125 4.078125q1.328125 1.75 4.53125 1.75q3.125 0 4.453125 -1.75q1.328125 -1.765625 1.328125 -4.078125zm34.414062 52.453125q2.078125 0 3.765625 -0.828125q1.703125 -0.84375 2.796875 -2.65625q1.09375 -1.828125 1.25 -4.75l6.484375 0q-0.15625 4.21875 -2.125 7.40625q-1.96875 3.171875 -5.15625 4.953125q-3.1875 1.78125 -7.015625 1.78125q-4.09375 0 -7.125 -1.328125q-3.03125 -1.328125 -5.0 -3.84375q-1.96875 -2.53125 -2.953125 -6.140625q-0.96875 -3.609375 -0.96875 -8.21875l0 -4.765625q0 -4.609375 0.96875 -8.21875q0.984375 -3.625 2.953125 -6.140625q1.96875 -2.515625 5.0 -3.84375q3.03125 -1.328125 7.125 -1.328125q4.296875 0 7.4375 1.8125q3.15625 1.8125 4.921875 5.234375q1.78125 3.421875 1.9375 8.265625l-6.484375 0q-0.15625 -3.125 -1.140625 -5.21875q-0.96875 -2.09375 -2.65625 -3.125q-1.671875 -1.03125 -4.015625 -1.03125q-2.734375 0 -4.515625 0.953125q-1.765625 0.953125 -2.78125 2.75q-1.015625 1.796875 -1.4375 4.296875q-0.40625 2.5 -0.40625 5.59375l0 4.765625q0 3.078125 0.40625 5.609375q0.421875 2.515625 1.40625 4.3125q1.0 1.796875 2.796875 2.75q1.796875 0.953125 4.53125 0.953125zm37.5 -37.140625l0 42.265625l-6.90625 0l0 -42.265625l6.90625 0zm11.53125 0l0 5.859375l-29.8125 0l0 -5.859375l29.8125 0zm24.335938 23.671875l-11.296875 0l-0.078125 -5.78125l9.0625 0q2.703125 0 4.46875 -0.65625q1.78125 -0.671875 2.671875 -2.0q0.90625 -1.328125 0.90625 -3.28125q0 -1.53125 -0.515625 -2.671875q-0.5 -1.15625 -1.5 -1.921875q-0.984375 -0.765625 -2.46875 -1.125q-1.484375 -0.375 -3.484375 -0.375l-7.296875 0l0 36.40625l-6.875 0l0 -42.265625l14.171875 0q3.4375 0 6.1875 0.703125q2.765625 0.703125 4.6875 2.125q1.9375 1.421875 2.96875 3.609375q1.046875 2.1875 1.046875 5.15625q0 1.921875 -0.671875 3.640625q-0.65625 1.71875 -1.96875 3.046875q-1.3125 1.328125 -3.234375 2.171875q-1.90625 0.828125 -4.40625 1.0625l-2.375 2.15625zm0 18.59375l-13.875 0l3.5625 -5.859375l10.3125 0q2.375 0 3.890625 -0.765625q1.53125 -0.765625 2.296875 -2.1875q0.765625 -1.421875 0.765625 -3.421875q0 -1.984375 -0.765625 -3.40625q-0.765625 -1.4375 -2.296875 -2.1875q-1.515625 -0.765625 -3.890625 -0.765625l-9.265625 0l0.078125 -5.78125l11.453125 0l2.421875 2.1875q3.0 0.265625 5.046875 1.71875q2.0625 1.4375 3.09375 3.65625q1.03125 2.203125 1.03125 4.78125q0 2.96875 -0.9375 5.234375q-0.9375 2.265625 -2.734375 3.765625q-1.796875 1.5 -4.375 2.265625q-2.578125 0.765625 -5.8125 0.765625zm30.742188 -11.453125l15.3125 -30.8125l6.90625 0l0 42.265625l-6.90625 0l0 -30.828125l-15.3125 30.828125l-6.875 0l0 -42.265625l6.875 0l0 30.8125zm48.351562 12.234375q-3.78125 0 -6.828125 -1.125q-3.046875 -1.140625 -5.203125 -3.46875q-2.140625 -2.328125 -3.28125 -5.875q-1.125 -3.5625 -1.125 -8.40625l0 -4.765625q0 -5.578125 1.296875 -9.4375q1.3125 -3.875 3.53125 -6.234375q2.234375 -2.375 5.046875 -3.4375q2.8125 -1.078125 5.78125 -1.078125q3.984375 0 6.796875 1.296875q2.8125 1.28125 4.5625 3.828125q1.765625 2.53125 2.609375 6.25q0.84375 3.703125 0.84375 8.546875l0 4.015625l-26.40625 0l0 -5.890625l19.484375 0l0 -0.984375q-0.15625 -3.28125 -0.875 -5.78125q-0.71875 -2.5 -2.359375 -3.921875q-1.640625 -1.421875 -4.65625 -1.421875q-1.90625 0 -3.53125 0.640625q-1.625 0.640625 -2.78125 2.234375q-1.140625 1.578125 -1.796875 4.359375q-0.640625 2.765625 -0.640625 7.015625l0 4.765625q0 3.40625 0.640625 5.84375q0.65625 2.4375 1.921875 4.03125q1.265625 1.578125 3.125 2.34375q1.859375 0.75 4.234375 0.75q3.484375 0 5.75 -1.34375q2.265625 -1.34375 3.9375 -3.453125l3.640625 4.328125q-1.140625 1.609375 -2.953125 3.078125q-1.8125 1.453125 -4.453125 2.375q-2.640625 0.921875 -6.3125 0.921875z" fill-rule="nonzero"/><path fill="#eeeeee" d="m7794.5195 578.3478l614.583 0l0 164.81891l-614.583 0z" fill-rule="evenodd"/><path stroke="#595959" stroke-width="1.0" stroke-linejoin="round" stroke-linecap="butt" d="m7794.5195 578.3478l614.583 0l0 164.81891l-614.583 0z" fill-rule="evenodd"/><path fill="#000000" d="m7949.065 683.41656l0 6.140625l-35.671875 0l0 -6.140625l35.671875 0zm-34.578125 0l0 20.125l-7.140625 0l-0.046875 -20.125l7.1875 0zm40.828125 0l-0.078125 20.09375l-7.109375 0l0 -20.09375l7.1875 0zm-12.96875 -50.734375l0 6.171875l-20.625 0l0 -6.171875l20.625 0zm6.28125 0l0 56.875l-7.1875 0l0 -56.875l7.1875 0zm-29.375 0l7.1875 0l-1.015625 22.890625q-0.1875 5.15625 -0.78125 9.515625q-0.578125 4.34375 -1.5 7.9375q-0.921875 3.59375 -2.09375 6.4375q-1.171875 2.828125 -2.546875 4.875q-1.359375 2.046875 -2.890625 3.359375q-1.515625 1.3125 -3.109375 1.859375l-3.015625 0l0 -6.140625l2.0 0q0.859375 -1.09375 1.890625 -3.15625q1.03125 -2.078125 2.03125 -5.375q1.0 -3.296875 1.75 -8.0625q0.765625 -4.765625 1.046875 -11.25l1.046875 -22.890625zm53.671875 52.5l9.421875 -37.890625l7.34375 0l-13.953125 48.796875q-0.5 1.5625 -1.34375 3.375q-0.84375 1.8125 -2.140625 3.453125q-1.28125 1.640625 -3.078125 2.671875q-1.796875 1.046875 -4.21875 1.046875q-0.734375 0 -1.890625 -0.234375q-1.15625 -0.234375 -1.65625 -0.390625l0 -5.859375q0.234375 0.03125 0.734375 0.09375q0.515625 0.0625 0.75 0.0625q2.03125 0 3.453125 -0.65625q1.421875 -0.640625 2.4375 -2.140625q1.015625 -1.5 1.71875 -4.125l2.421875 -8.203125zm-6.09375 -37.890625l8.40625 32.8125l1.796875 7.609375l-4.921875 2.671875l-12.8125 -43.09375l7.53125 0zm52.304688 -18.40625l5.59375 0q0 3.828125 -1.046875 6.078125q-1.03125 2.25 -2.75 3.46875q-1.71875 1.203125 -3.828125 1.828125q-2.109375 0.625 -4.296875 1.203125q-2.734375 0.703125 -5.125 2.21875q-2.375 1.5 -4.078125 4.234375q-1.6875 2.734375 -2.453125 7.109375q-0.765625 4.375 -0.296875 10.8125l0 3.59375l-5.625 0l0 -3.59375q0 -7.21875 1.171875 -12.609375q1.171875 -5.390625 3.3125 -9.09375q2.15625 -3.71875 5.078125 -5.90625q2.9375 -2.1875 6.5 -3.015625q2.265625 -0.578125 4.03125 -1.265625q1.78125 -0.6875 2.796875 -1.859375q1.015625 -1.171875 1.015625 -3.203125zm-6.59375 20.828125q3.46875 0 6.15625 1.453125q2.703125 1.4375 4.578125 4.015625q1.875 2.578125 2.84375 6.078125q0.984375 3.484375 0.984375 7.59375l0 0.859375q0 4.40625 -1.0625 8.1875q-1.046875 3.765625 -3.09375 6.5625q-2.046875 2.78125 -5.015625 4.359375q-2.96875 1.5625 -6.765625 1.5625q-3.78125 0 -6.734375 -1.5625q-2.953125 -1.578125 -5.0 -4.359375q-2.046875 -2.796875 -3.125 -6.5625q-1.078125 -3.78125 -1.078125 -8.1875l0 -0.859375q0 -0.984375 0.34375 -1.921875q0.359375 -0.9375 0.828125 -1.90625q0.46875 -0.984375 0.859375 -2.078125q1.21875 -3.515625 3.359375 -6.515625q2.15625 -3.015625 5.140625 -4.859375q2.984375 -1.859375 6.78125 -1.859375zm-1.40625 5.890625q-3.171875 0 -5.140625 1.84375q-1.96875 1.828125 -2.90625 4.859375q-0.9375 3.03125 -0.9375 6.546875l0 0.859375q0 2.96875 0.5 5.625q0.515625 2.65625 1.609375 4.703125q1.09375 2.046875 2.8125 3.21875q1.71875 1.171875 4.09375 1.171875q2.390625 0 4.078125 -1.171875q1.703125 -1.171875 2.796875 -3.21875q1.09375 -2.046875 1.625 -4.703125q0.53125 -2.65625 0.53125 -5.625l0 -0.859375q0 -2.65625 -0.53125 -5.03125q-0.53125 -2.390625 -1.625 -4.21875q-1.09375 -1.84375 -2.8125 -2.921875q-1.71875 -1.078125 -4.09375 -1.078125zm47.695312 -8.3125l0 5.96875l-16.84375 0l0 -5.96875l16.84375 0zm6.171875 0l0 42.265625l-6.875 0l0 -42.265625l6.875 0zm-24.65625 0l6.921875 0l-0.984375 20.390625q-0.234375 4.71875 -0.765625 8.34375q-0.515625 3.609375 -1.4375 6.1875q-0.921875 2.578125 -2.265625 4.203125q-1.34375 1.609375 -3.203125 2.375q-1.859375 0.765625 -4.28125 0.765625l-2.0625 0l0 -6.375l1.359375 -0.109375q1.375 -0.125 2.359375 -0.78125q1.0 -0.671875 1.640625 -1.96875q0.65625 -1.3125 1.0625 -3.375q0.40625 -2.078125 0.640625 -4.921875q0.234375 -2.859375 0.359375 -6.65625l0.65625 -18.078125zm43.210938 30.8125l15.3125 -30.8125l6.90625 0l0 42.265625l-6.90625 0l0 -30.828125l-15.3125 30.828125l-6.875 0l0 -42.265625l6.875 0l0 30.8125zm40.148438 -22.6875l0 50.390625l-6.90625 0l0 -58.515625l6.28125 0l0.625 8.125zm23.640625 11.09375l0 3.9375q0 5.0 -0.921875 8.734375q-0.921875 3.734375 -2.703125 6.21875q-1.765625 2.46875 -4.34375 3.703125q-2.578125 1.234375 -5.90625 1.234375q-3.3125 0 -5.765625 -1.265625q-2.4375 -1.28125 -4.09375 -3.703125q-1.65625 -2.421875 -2.625 -5.828125q-0.953125 -3.421875 -1.296875 -7.6875l0 -6.015625q0.34375 -4.484375 1.28125 -8.0625q0.9375 -3.578125 2.59375 -6.09375q1.671875 -2.515625 4.109375 -3.84375q2.4375 -1.328125 5.71875 -1.328125q3.40625 0 6.0 1.171875q2.59375 1.171875 4.375 3.609375q1.78125 2.4375 2.671875 6.21875q0.90625 3.765625 0.90625 9.0zm-6.921875 3.9375l0 -3.9375q0 -3.515625 -0.53125 -6.125q-0.515625 -2.625 -1.65625 -4.34375q-1.125 -1.71875 -2.84375 -2.578125q-1.71875 -0.859375 -4.140625 -0.859375q-2.078125 0 -3.65625 0.859375q-1.578125 0.859375 -2.71875 2.328125q-1.125 1.453125 -1.875 3.3125q-0.734375 1.859375 -1.09375 3.84375l0 11.84375q0.671875 2.5 1.765625 4.703125q1.09375 2.203125 2.9375 3.578125q1.859375 1.359375 4.71875 1.359375q2.375 0 4.09375 -0.859375q1.71875 -0.859375 2.828125 -2.59375q1.125 -1.734375 1.640625 -4.375q0.53125 -2.640625 0.53125 -6.15625zm36.53125 11.875l0 -22.921875q0 -2.5 -0.765625 -4.015625q-0.765625 -1.53125 -2.265625 -2.234375q-1.5 -0.703125 -3.765625 -0.703125q-2.1875 0 -3.78125 0.90625q-1.578125 0.890625 -2.421875 2.375q-0.828125 1.484375 -0.828125 3.28125l-6.921875 0q0 -2.265625 1.0 -4.484375q1.0 -2.234375 2.875 -4.046875q1.875 -1.828125 4.5 -2.890625q2.640625 -1.078125 5.921875 -1.078125q3.90625 0 6.90625 1.265625q3.015625 1.265625 4.734375 4.125q1.71875 2.84375 1.71875 7.578125l0 20.859375q0 2.109375 0.328125 4.5q0.34375 2.375 0.96875 4.09375l0 0.625l-7.15625 0q-0.5 -1.25 -0.78125 -3.34375q-0.265625 -2.09375 -0.265625 -3.890625zm1.09375 -18.390625l0.078125 5.078125l-4.8125 0q-2.453125 0 -4.46875 0.546875q-2.015625 0.546875 -3.46875 1.578125q-1.4375 1.03125 -2.203125 2.5625q-0.75 1.515625 -0.75 3.46875q0 2.546875 0.703125 4.046875q0.703125 1.5 2.109375 2.171875q1.40625 0.65625 3.546875 0.65625q2.625 0 4.609375 -1.203125q2.0 -1.21875 3.109375 -2.9375q1.109375 -1.71875 1.03125 -3.203125l1.53125 3.25q-0.15625 1.515625 -1.0 3.296875q-0.84375 1.78125 -2.328125 3.40625q-1.484375 1.609375 -3.5 2.65625q-2.0 1.03125 -4.5 1.03125q-3.671875 0 -6.4375 -1.40625q-2.75 -1.40625 -4.28125 -4.140625q-1.515625 -2.734375 -1.515625 -6.765625q0 -3.046875 1.046875 -5.625q1.0625 -2.578125 3.125 -4.46875q2.078125 -1.890625 5.21875 -2.9375q3.15625 -1.0625 7.296875 -1.0625l5.859375 0zm24.023926 14.171875l15.3125 -30.8125l6.90625 0l0 42.265625l-6.90625 0l0 -30.828125l-15.3125 30.828125l-6.875 0l0 -42.265625l6.875 0l0 30.8125zm13.46875 -46.125l5.859375 0q0 3.046875 -1.40625 5.421875q-1.40625 2.359375 -4.03125 3.6875q-2.609375 1.328125 -6.203125 1.328125q-5.421875 0 -8.578125 -2.90625q-3.140625 -2.921875 -3.140625 -7.53125l5.859375 0q0 2.3125 1.328125 4.078125q1.328125 1.75 4.53125 1.75q3.125 0 4.453125 -1.75q1.328125 -1.765625 1.328125 -4.078125zm34.960938 15.3125l0 42.265625l-6.90625 0l0 -42.265625l6.90625 0zm11.53125 0l0 5.859375l-29.8125 0l0 -5.859375l29.8125 0zm19.289062 43.046875q-3.78125 0 -6.828125 -1.125q-3.046875 -1.140625 -5.203125 -3.46875q-2.140625 -2.328125 -3.28125 -5.875q-1.125 -3.5625 -1.125 -8.40625l0 -4.765625q0 -5.578125 1.296875 -9.4375q1.3125 -3.875 3.53125 -6.234375q2.234375 -2.375 5.046875 -3.4375q2.8125 -1.078125 5.78125 -1.078125q3.984375 0 6.796875 1.296875q2.8125 1.28125 4.5625 3.828125q1.765625 2.53125 2.609375 6.25q0.84375 3.703125 0.84375 8.546875l0 4.015625l-26.40625 0l0 -5.890625l19.484375 0l0 -0.984375q-0.15625 -3.28125 -0.875 -5.78125q-0.71875 -2.5 -2.359375 -3.921875q-1.640625 -1.421875 -4.65625 -1.421875q-1.90625 0 -3.53125 0.640625q-1.625 0.640625 -2.78125 2.234375q-1.140625 1.578125 -1.796875 4.359375q-0.640625 2.765625 -0.640625 7.015625l0 4.765625q0 3.40625 0.640625 5.84375q0.65625 2.4375 1.921875 4.03125q1.265625 1.578125 3.125 2.34375q1.859375 0.75 4.234375 0.75q3.484375 0 5.75 -1.34375q2.265625 -1.34375 3.9375 -3.453125l3.640625 4.328125q-1.140625 1.609375 -2.953125 3.078125q-1.8125 1.453125 -4.453125 2.375q-2.640625 0.921875 -6.3125 0.921875z" fill-rule="nonzero"/><path fill="#eeeeee" d="m7794.5195 743.1667l614.583 0l0 164.81885l-614.583 0z" fill-rule="evenodd"/><path stroke="#595959" stroke-width="1.0" stroke-linejoin="round" stroke-linecap="butt" d="m7794.5195 743.1667l614.583 0l0 164.81885l-614.583 0z" fill-rule="evenodd"/><path fill="#000000" d="m7961.1157 841.3292l22.140625 -43.828125l7.1875 0l0 56.875l-7.1875 0l0 -43.875l-22.140625 43.875l-7.15625 0l0 -56.875l7.15625 0l0 43.828125zm54.757812 -7.15625l-6.828125 0l0 -4.453125l6.28125 0q2.265625 0 3.546875 -0.75q1.296875 -0.765625 1.84375 -2.125q0.546875 -1.375 0.546875 -3.21875q0 -1.640625 -0.625 -3.09375q-0.625 -1.46875 -2.03125 -2.390625q-1.40625 -0.921875 -3.75 -0.921875q-1.90625 0 -3.46875 0.890625q-1.5625 0.875 -2.46875 2.375q-0.890625 1.5 -0.890625 3.375l-6.875 0q0 -3.859375 1.84375 -6.65625q1.859375 -2.796875 4.984375 -4.3125q3.125 -1.53125 6.875 -1.53125q3.125 0 5.578125 0.8125q2.46875 0.796875 4.1875 2.34375q1.71875 1.53125 2.640625 3.828125q0.921875 2.28125 0.921875 5.28125q0 2.15625 -0.859375 4.078125q-0.859375 1.90625 -2.46875 3.375q-1.59375 1.453125 -3.890625 2.28125q-2.28125 0.8125 -5.09375 0.8125zm-6.828125 -2.734375l6.828125 0q3.125 0 5.546875 0.734375q2.421875 0.71875 4.078125 2.125q1.671875 1.40625 2.5 3.453125q0.84375 2.046875 0.84375 4.703125q0 2.96875 -1.015625 5.34375q-1.015625 2.359375 -2.875 4.0q-1.84375 1.640625 -4.40625 2.5q-2.5625 0.859375 -5.6875 0.859375q-3.515625 0 -6.78125 -1.40625q-3.25 -1.40625 -5.359375 -4.359375q-2.109375 -2.953125 -2.109375 -7.515625l6.875 0q0 1.90625 0.90625 3.625q0.921875 1.71875 2.578125 2.78125q1.671875 1.046875 3.890625 1.046875q2.34375 0 3.90625 -0.9375q1.5625 -0.9375 2.34375 -2.5q0.78125 -1.5625 0.78125 -3.390625q0 -2.390625 -0.703125 -3.828125q-0.703125 -1.453125 -2.15625 -2.125q-1.4375 -0.6875 -3.703125 -0.6875l-6.28125 0l0 -4.421875zm44.132812 -19.328125l0 42.265625l-6.90625 0l0 -42.265625l6.90625 0zm11.53125 0l0 5.859375l-29.8125 0l0 -5.859375l29.8125 0zm14.2109375 8.125l0 50.390625l-6.90625 0l0 -58.515625l6.28125 0l0.625 8.125zm23.640625 11.09375l0 3.9375q0 5.0 -0.921875 8.734375q-0.921875 3.734375 -2.703125 6.21875q-1.765625 2.46875 -4.34375 3.703125q-2.578125 1.234375 -5.90625 1.234375q-3.3125 0 -5.765625 -1.265625q-2.4375 -1.28125 -4.09375 -3.703125q-1.65625 -2.421875 -2.625 -5.828125q-0.953125 -3.421875 -1.296875 -7.6875l0 -6.015625q0.34375 -4.484375 1.28125 -8.0625q0.9375 -3.578125 2.59375 -6.09375q1.671875 -2.515625 4.109375 -3.84375q2.4375 -1.328125 5.71875 -1.328125q3.40625 0 6.0 1.171875q2.59375 1.171875 4.375 3.609375q1.78125 2.4375 2.671875 6.21875q0.90625 3.765625 0.90625 9.0zm-6.921875 3.9375l0 -3.9375q0 -3.515625 -0.53125 -6.125q-0.515625 -2.625 -1.65625 -4.34375q-1.125 -1.71875 -2.84375 -2.578125q-1.71875 -0.859375 -4.140625 -0.859375q-2.078125 0 -3.65625 0.859375q-1.578125 0.859375 -2.71875 2.328125q-1.125 1.453125 -1.875 3.3125q-0.734375 1.859375 -1.09375 3.84375l0 11.84375q0.671875 2.5 1.765625 4.703125q1.09375 2.203125 2.9375 3.578125q1.859375 1.359375 4.71875 1.359375q2.375 0 4.09375 -0.859375q1.71875 -0.859375 2.828125 -2.59375q1.125 -1.734375 1.640625 -4.375q0.53125 -2.640625 0.53125 -6.15625zm23.328125 7.65625l15.3125 -30.8125l6.90625 0l0 42.265625l-6.90625 0l0 -30.828125l-15.3125 30.828125l-6.875 0l0 -42.265625l6.875 0l0 30.8125zm40.742188 0l15.3125 -30.8125l6.90625 0l0 42.265625l-6.90625 0l0 -30.828125l-15.3125 30.828125l-6.875 0l0 -42.265625l6.875 0l0 30.8125zm13.46875 -46.125l5.859375 0q0 3.046875 -1.40625 5.421875q-1.40625 2.359375 -4.03125 3.6875q-2.609375 1.328125 -6.203125 1.328125q-5.421875 0 -8.578125 -2.90625q-3.140625 -2.921875 -3.140625 -7.53125l5.859375 0q0 2.3125 1.328125 4.078125q1.328125 1.75 4.53125 1.75q3.125 0 4.453125 -1.75q1.328125 -1.765625 1.328125 -4.078125zm34.961426 15.3125l0 42.265625l-6.90625 0l0 -42.265625l6.90625 0zm11.53125 0l0 5.859375l-29.812988 0l0 -5.859375l29.812988 0zm19.289062 43.046875q-3.78125 0 -6.828125 -1.125q-3.046875 -1.140625 -5.203125 -3.46875q-2.140625 -2.328125 -3.28125 -5.875q-1.125 -3.5625 -1.125 -8.40625l0 -4.765625q0 -5.578125 1.296875 -9.4375q1.3125 -3.875 3.53125 -6.234375q2.234375 -2.375 5.046875 -3.4375q2.8125 -1.078125 5.78125 -1.078125q3.984375 0 6.796875 1.296875q2.8125 1.28125 4.5625 3.828125q1.765625 2.53125 2.609375 6.25q0.84375 3.703125 0.84375 8.546875l0 4.015625l-26.40625 0l0 -5.890625l19.484375 0l0 -0.984375q-0.15625 -3.28125 -0.875 -5.78125q-0.71875 -2.5 -2.359375 -3.921875q-1.640625 -1.421875 -4.65625 -1.421875q-1.90625 0 -3.53125 0.640625q-1.625 0.640625 -2.78125 2.234375q-1.140625 1.578125 -1.796875 4.359375q-0.640625 2.765625 -0.640625 7.015625l0 4.765625q0 3.40625 0.640625 5.84375q0.65625 2.4375 1.921875 4.03125q1.265625 1.578125 3.125 2.34375q1.859375 0.75 4.234375 0.75q3.484375 0 5.75 -1.34375q2.265625 -1.34375 3.9375 -3.453125l3.640625 4.328125q-1.140625 1.609375 -2.953125 3.078125q-1.8125 1.453125 -4.453125 2.375q-2.640625 0.921875 -6.3125 0.921875z" fill-rule="nonzero"/><path fill="#000000" fill-opacity="0.0" d="m8380.141 790.924l-124.75586 -124.75586l123.40137 -123.40161l124.75586 124.75592z" fill-rule="evenodd"/><path fill="#595959" d="m8403.036 741.865l-51.97168 -101.46985l101.46973 51.97235l-50.91211 -1.4141846l1.4140625 50.911682z" fill-rule="nonzero"/><path fill="#000000" fill-opacity="0.0" d="m3934.126 396.9449l1202.6143 0l0 531.33856l-1202.6143 0z" fill-rule="evenodd"/><path fill="#0b5394" d="m4012.558 476.9499l0 9.8125l-39.4375 0l0 -9.8125l39.4375 0zm-37.875 -39.125l0 91.0l-11.5 0l0 -91.0l11.5 0zm48.0625 0l0 91.0l-11.5 0l0 -91.0l11.5 0zm50.4375 8.0625l-24.875 82.9375l-11.75 0l29.3125 -91.0l7.375 0l-0.0625 8.0625zm20.125 82.9375l-24.875 -82.9375l-0.125 -8.0625l7.4375 0l29.3125 91.0l-11.75 0zm0 -33.6875l0 9.875l-43.875 0l0 -9.875l43.875 0zm27.8125 -57.3125l11.125 0l23.8125 74.1875l23.75 -74.1875l11.125 0l-30.5625 91.0l-8.75 0l-30.5 -91.0zm-3.625 0l9.75 0l1.6875 55.5l0 35.5l-11.4375 0l0 -91.0zm67.25 0l9.75 0l0 91.0l-11.4375 0l0 -35.5l1.6875 -55.5zm78.375 81.1875l0 9.8125l-39.5 0l0 -9.8125l39.5 0zm-37.4375 -81.1875l0 91.0l-11.5 0l0 -91.0l11.5 0zm32.125 39.125l0 9.8125l-34.1875 0l0 -9.8125l34.1875 0zm4.6875 -39.125l0 9.875l-38.875 0l0 -9.875l38.875 0zm44.3125 55.3125l-19.875 0l0 -9.8125l19.875 0q5.625 0 9.09375 -2.25q3.46875 -2.25 5.0625 -6.25q1.59375 -4.0 1.59375 -9.125q0 -4.6875 -1.59375 -8.8125q-1.59375 -4.125 -5.0625 -6.65625q-3.46875 -2.53125 -9.09375 -2.53125l-17.5 0l0 81.125l-11.5 0l0 -91.0l29.0 0q8.8125 0 14.875 3.5625q6.0625 3.5625 9.21875 9.84375q3.15625 6.28125 3.15625 14.34375q0 8.75 -3.15625 14.9375q-3.15625 6.1875 -9.21875 9.40625q-6.0625 3.21875 -14.875 3.21875zm53.9375 14.8125l35.4375 -70.125l11.5 0l0 91.0l-11.5 0l0 -70.1875l-35.4375 70.1875l-11.4375 0l0 -91.0l11.4375 0l0 70.125zm155.8125 -70.125l0 91.0l-11.5 0l0 -81.125l-35.5625 0l0 81.125l-11.5 0l0 -91.0l58.5625 0zm49.3125 55.3125l-19.875 0l0 -9.8125l19.875 0q5.625 0 9.09375 -2.25q3.46875 -2.25 5.0625 -6.25q1.59375 -4.0 1.59375 -9.125q0 -4.6875 -1.59375 -8.8125q-1.59375 -4.125 -5.0625 -6.65625q-3.46875 -2.53125 -9.09375 -2.53125l-17.5 0l0 81.125l-11.5 0l0 -91.0l29.0 0q8.8125 0 14.875 3.5625q6.0625 3.5625 9.21875 9.84375q3.15625 6.28125 3.15625 14.34375q0 8.75 -3.15625 14.9375q-3.15625 6.1875 -9.21875 9.40625q-6.0625 3.21875 -14.875 3.21875zm90.875 25.875l0 9.8125l-39.5 0l0 -9.8125l39.5 0zm-37.4375 -81.1875l0 91.0l-11.5 0l0 -91.0l11.5 0zm32.125 39.125l0 9.8125l-34.1875 0l0 -9.8125l34.1875 0zm4.6875 -39.125l0 9.875l-38.875 0l0 -9.875l38.875 0zm75.8125 81.1875l0 9.8125l-57.0625 0l0 -9.8125l57.0625 0zm-55.3125 0l0 32.1875l-11.4375 0l-0.0625 -32.1875l11.5 0zm65.3125 0l-0.125 32.125l-11.375 0l0 -32.125l11.5 0zm-20.75 -81.1875l0 9.875l-33.0 0l0 -9.875l33.0 0zm10.0625 0l0 91.0l-11.5 0l0 -91.0l11.5 0zm-47.0 0l11.5 0l-1.625 36.625q-0.3125 8.25 -1.25 15.21875q-0.9375 6.96875 -2.40625 12.71875q-1.46875 5.75 -3.34375 10.28125q-1.875 4.53125 -4.0625 7.8125q-2.1875 3.28125 -4.625 5.375q-2.4375 2.09375 -5.0 2.96875l-4.8125 0l0 -9.8125l3.1875 0q1.375 -1.75 3.03125 -5.0625q1.65625 -3.3125 3.25 -8.59375q1.59375 -5.28125 2.8125 -12.90625q1.21875 -7.625 1.65625 -18.0l1.6875 -36.625zm80.0625 0l17.25 34.875l17.125 -34.875l13.375 0l-23.6875 45.0625l24.1875 45.9375l-13.5 0l-17.5 -35.5625l-17.5625 35.5625l-13.5625 0l24.25 -45.9375l-23.75 -45.0625l13.375 0zm119.8125 37.625l0 15.8125q0 9.625 -2.09375 16.90625q-2.09375 7.28125 -6.09375 12.15625q-4.0 4.875 -9.625 7.3125q-5.625 2.4375 -12.6875 2.4375q-6.8125 0 -12.4375 -2.4375q-5.625 -2.4375 -9.6875 -7.3125q-4.0625 -4.875 -6.28125 -12.15625q-2.21875 -7.28125 -2.21875 -16.90625l0 -15.8125q0 -9.625 2.1875 -16.90625q2.1875 -7.28125 6.25 -12.15625q4.0625 -4.875 9.6875 -7.34375q5.625 -2.46875 12.4375 -2.46875q7.0625 0 12.71875 2.46875q5.65625 2.46875 9.625 7.34375q3.96875 4.875 6.09375 12.15625q2.125 7.28125 2.125 16.90625zm-11.375 15.8125l0 -15.9375q0 -7.5 -1.25 -12.90625q-1.25 -5.40625 -3.6875 -8.84375q-2.4375 -3.4375 -6.0 -5.09375q-3.5625 -1.65625 -8.25 -1.65625q-4.4375 0 -7.96875 1.65625q-3.53125 1.65625 -6.03125 5.09375q-2.5 3.4375 -3.84375 8.84375q-1.34375 5.40625 -1.34375 12.90625l0 15.9375q0 7.5625 1.34375 12.96875q1.34375 5.40625 3.875 8.875q2.53125 3.46875 6.09375 5.125q3.5625 1.65625 7.9375 1.65625q4.6875 0 8.28125 -1.65625q3.59375 -1.65625 6.0 -5.125q2.40625 -3.46875 3.625 -8.875q1.21875 -5.40625 1.21875 -12.96875zm87.5625 27.75l0 9.8125l-57.0625 0l0 -9.8125l57.0625 0zm-55.3125 0l0 32.1875l-11.4375 0l-0.0625 -32.1875l11.5 0zm65.3125 0l-0.125 32.125l-11.375 0l0 -32.125l11.5 0zm-20.75 -81.1875l0 9.875l-33.0 0l0 -9.875l33.0 0zm10.0625 0l0 91.0l-11.5 0l0 -91.0l11.5 0zm-47.0 0l11.5 0l-1.625 36.625q-0.3125 8.25 -1.25 15.21875q-0.9375 6.96875 -2.40625 12.71875q-1.46875 5.75 -3.34375 10.28125q-1.875 4.53125 -4.0625 7.8125q-2.1875 3.28125 -4.625 5.375q-2.4375 2.09375 -5.0 2.96875l-4.8125 0l0 -9.8125l3.1875 0q1.375 -1.75 3.03125 -5.0625q1.65625 -3.3125 3.25 -8.59375q1.59375 -5.28125 2.8125 -12.90625q1.21875 -7.625 1.65625 -18.0l1.6875 -36.625zm120.625 81.1875l0 9.8125l-39.5 0l0 -9.8125l39.5 0zm-37.4375 -81.1875l0 91.0l-11.5 0l0 -91.0l11.5 0zm32.125 39.125l0 9.8125l-34.1875 0l0 -9.8125l34.1875 0zm4.6875 -39.125l0 9.875l-38.875 0l0 -9.875l38.875 0zm64.6875 39.125l0 9.8125l-39.4375 0l0 -9.8125l39.4375 0zm-37.875 -39.125l0 91.0l-11.5 0l0 -91.0l11.5 0zm48.0625 0l0 91.0l-11.5 0l0 -91.0l11.5 0z" fill-rule="nonzero"/><path fill="#0b5394" d="m4263.2144 614.46484l0 91.0l-11.5 0l0 -81.125l-35.5625 0l0 81.125l-11.5 0l0 -91.0l58.5625 0zm49.3125 55.3125l-19.875 0l0 -9.8125l19.875 0q5.625 0 9.09375 -2.25q3.46875 -2.25 5.0625 -6.25q1.59375 -4.0 1.59375 -9.125q0 -4.6875 -1.59375 -8.8125q-1.59375 -4.125 -5.0625 -6.65625q-3.46875 -2.53125 -9.09375 -2.53125l-17.5 0l0 81.125l-11.5 0l0 -91.0l29.0 0q8.8125 0 14.875 3.5625q6.0625 3.5625 9.21875 9.84375q3.15625 6.28125 3.15625 14.34375q0 8.75 -3.15625 14.9375q-3.15625 6.1875 -9.21875 9.40625q-6.0625 3.21875 -14.875 3.21875zm90.875 25.875l0 9.8125l-39.5 0l0 -9.8125l39.5 0zm-37.4375 -81.1875l0 91.0l-11.5 0l0 -91.0l11.5 0zm32.125 39.125l0 9.8125l-34.1875 0l0 -9.8125l34.1875 0zm4.6875 -39.125l0 9.875l-38.875 0l0 -9.875l38.875 0zm63.1875 0l0 9.875l-35.75 0l0 81.125l-11.5 0l0 -91.0l47.25 0zm56.1875 0l0 9.875l-34.0 0l0 -9.875l34.0 0zm10.125 0l0 91.0l-11.5 0l0 -91.0l11.5 0zm-48.0 0l11.4375 0l-1.625 44.5625q-0.3125 9.625 -1.1875 17.15625q-0.875 7.53125 -2.5 13.0625q-1.625 5.53125 -4.25 9.125q-2.625 3.59375 -6.40625 5.34375q-3.78125 1.75 -8.96875 1.75l-3.0 0l0 -9.8125l2.1875 -0.1875q2.875 -0.25 4.96875 -1.59375q2.09375 -1.34375 3.5 -4.09375q1.40625 -2.75 2.3125 -7.125q0.90625 -4.375 1.40625 -10.71875q0.5 -6.34375 0.75 -14.84375l1.375 -42.625zm117.1875 81.1875l0 9.8125l-39.5 0l0 -9.8125l39.5 0zm-37.4375 -81.1875l0 91.0l-11.5 0l0 -91.0l11.5 0zm32.125 39.125l0 9.8125l-34.1875 0l0 -9.8125l34.1875 0zm4.6875 -39.125l0 9.875l-38.875 0l0 -9.875l38.875 0zm75.8125 81.1875l0 9.8125l-57.0625 0l0 -9.8125l57.0625 0zm-55.3125 0l0 32.1875l-11.4375 0l-0.0625 -32.1875l11.5 0zm65.3125 0l-0.125 32.125l-11.375 0l0 -32.125l11.5 0zm-20.75 -81.1875l0 9.875l-33.0 0l0 -9.875l33.0 0zm10.0625 0l0 91.0l-11.5 0l0 -91.0l11.5 0zm-47.0 0l11.5 0l-1.625 36.625q-0.3125 8.25 -1.25 15.21875q-0.9375 6.96875 -2.40625 12.71875q-1.46875 5.75 -3.34375 10.28125q-1.875 4.53125 -4.0625 7.8125q-2.1875 3.28125 -4.625 5.375q-2.4375 2.09375 -5.0 2.96875l-4.8125 0l0 -9.8125l3.1875 0q1.375 -1.75 3.03125 -5.0625q1.65625 -3.3125 3.25 -8.59375q1.59375 -5.28125 2.8125 -12.90625q1.21875 -7.625 1.65625 -18.0l1.6875 -36.625zm160.1875 0l0 91.0l-11.5 0l0 -81.125l-35.5625 0l0 81.125l-11.5 0l0 -91.0l58.5625 0zm79.5 37.625l0 15.8125q0 9.625 -2.09375 16.90625q-2.09375 7.28125 -6.09375 12.15625q-4.0 4.875 -9.625 7.3125q-5.625 2.4375 -12.6875 2.4375q-6.8125 0 -12.4375 -2.4375q-5.625 -2.4375 -9.6875 -7.3125q-4.0625 -4.875 -6.28125 -12.15625q-2.21875 -7.28125 -2.21875 -16.90625l0 -15.8125q0 -9.625 2.1875 -16.90625q2.1875 -7.28125 6.25 -12.15625q4.0625 -4.875 9.6875 -7.34375q5.625 -2.46875 12.4375 -2.46875q7.0625 0 12.71875 2.46875q5.65625 2.46875 9.625 7.34375q3.96875 4.875 6.09375 12.15625q2.125 7.28125 2.125 16.90625zm-11.375 15.8125l0 -15.9375q0 -7.5 -1.25 -12.90625q-1.25 -5.40625 -3.6875 -8.84375q-2.4375 -3.4375 -6.0 -5.09375q-3.5625 -1.65625 -8.25 -1.65625q-4.4375 0 -7.96875 1.65625q-3.53125 1.65625 -6.03125 5.09375q-2.5 3.4375 -3.84375 8.84375q-1.34375 5.40625 -1.34375 12.90625l0 15.9375q0 7.5625 1.34375 12.96875q1.34375 5.40625 3.875 8.875q2.53125 3.46875 6.09375 5.125q3.5625 1.65625 7.9375 1.65625q4.6875 0 8.28125 -1.65625q3.59375 -1.65625 6.0 -5.125q2.40625 -3.46875 3.625 -8.875q1.21875 -5.40625 1.21875 -12.96875z" fill-rule="nonzero"/><path fill="#0b5394" d="m4222.9956 872.29236l0 9.8125l-39.5 0l0 -9.8125l39.5 0zm-37.4375 -81.1875l0 91.0l-11.5 0l0 -91.0l11.5 0zm32.125 39.125l0 9.8125l-34.1875 0l0 -9.8125l34.1875 0zm4.6875 -39.125l0 9.875l-38.875 0l0 -9.875l38.875 0zm63.1875 0l0 9.875l-35.75 0l0 81.125l-11.5 0l0 -91.0l47.25 0zm64.0 39.125l0 9.8125l-39.4375 0l0 -9.8125l39.4375 0zm-37.875 -39.125l0 91.0l-11.5 0l0 -91.0l11.5 0zm48.0625 0l0 91.0l-11.5 0l0 -91.0l11.5 0zm61.1875 70.125l35.4375 -70.125l11.5 0l0 91.0l-11.5 0l0 -70.1875l-35.4375 70.1875l-11.4375 0l0 -91.0l11.4375 0l0 70.125zm116.8125 -70.125l0 9.875l-34.0 0l0 -9.875l34.0 0zm10.125 0l0 91.0l-11.5 0l0 -91.0l11.5 0zm-48.0 0l11.4375 0l-1.625 44.5625q-0.3125 9.625 -1.1875 17.15625q-0.875 7.53125 -2.5 13.0625q-1.625 5.53125 -4.25 9.125q-2.625 3.59375 -6.40625 5.34375q-3.78125 1.75 -8.96875 1.75l-3.0 0l0 -9.8125l2.1875 -0.1875q2.875 -0.25 4.96875 -1.59375q2.09375 -1.34375 3.5 -4.09375q1.40625 -2.75 2.3125 -7.125q0.90625 -4.375 1.40625 -10.71875q0.5 -6.34375 0.75 -14.84375l1.375 -42.625zm80.25 70.125l35.4375 -70.125l11.5 0l0 91.0l-11.5 0l0 -70.1875l-35.4375 70.1875l-11.4375 0l0 -91.0l11.4375 0l0 70.125zm108.6875 0l35.4375 -70.125l11.5 0l0 91.0l-11.5 0l0 -70.1875l-35.4375 70.1875l-11.4375 0l0 -91.0l11.4375 0l0 70.125zm70.9375 -70.125l11.125 0l23.8125 74.1875l23.75 -74.1875l11.125 0l-30.5625 91.0l-8.75 0l-30.5 -91.0zm-3.625 0l9.75 0l1.6875 55.5l0 35.5l-11.4375 0l0 -91.0zm67.25 0l9.75 0l0 91.0l-11.4375 0l0 -35.5l1.6875 -55.5zm78.375 81.1875l0 9.8125l-39.5 0l0 -9.8125l39.5 0zm-37.4375 -81.1875l0 91.0l-11.5 0l0 -91.0l11.5 0zm32.125 39.125l0 9.8125l-34.1875 0l0 -9.8125l34.1875 0zm4.6875 -39.125l0 9.875l-38.875 0l0 -9.875l38.875 0z" fill-rule="nonzero"/><path fill="#000000" fill-opacity="0.0" d="m612.7559 282.24408l487.1181 0l0 505.7008l-487.1181 0z" fill-rule="evenodd"/><path stroke="#0b5394" stroke-width="12.0" stroke-linejoin="round" stroke-linecap="butt" d="m612.7559 282.24408l487.1181 0l0 505.7008l-487.1181 0z" fill-rule="evenodd"/><path fill="#000000" fill-opacity="0.0" d="m746.1323 507.34476l272.5669 0" fill-rule="evenodd"/><path stroke="#0b5394" stroke-width="12.0" stroke-linejoin="round" stroke-linecap="butt" d="m746.1323 507.34476l272.5669 0" fill-rule="evenodd"/><path fill="#000000" fill-opacity="0.0" d="m746.1323 581.34924l272.5669 0" fill-rule="evenodd"/><path stroke="#0b5394" stroke-width="12.0" stroke-linejoin="round" stroke-linecap="butt" d="m746.1323 581.34924l272.5669 0" fill-rule="evenodd"/><path fill="#000000" fill-opacity="0.0" d="m746.1323 656.5294l272.5669 0" fill-rule="evenodd"/><path stroke="#0b5394" stroke-width="16.0" stroke-linejoin="round" stroke-linecap="butt" d="m746.1323 656.5294l272.5669 0" fill-rule="evenodd"/><path fill="#0b5394" d="m696.38617 507.34067l0 0c0 -6.270813 5.083557 -11.35434 11.35437 -11.35434l0 0c3.0113525 0 5.899353 1.1962585 8.028687 3.3256226c2.1293945 2.1293335 3.3256226 5.0173645 3.3256226 8.028717l0 0c0 6.2708435 -5.083496 11.35434 -11.354309 11.35434l0 0c-6.270813 0 -11.35437 -5.083496 -11.35437 -11.35434z" fill-rule="evenodd"/><path stroke="#0b5394" stroke-width="12.0" stroke-linejoin="round" stroke-linecap="butt" d="m696.38617 507.34067l0 0c0 -6.270813 5.083557 -11.35434 11.35437 -11.35434l0 0c3.0113525 0 5.899353 1.1962585 8.028687 3.3256226c2.1293945 2.1293335 3.3256226 5.0173645 3.3256226 8.028717l0 0c0 6.2708435 -5.083496 11.35434 -11.354309 11.35434l0 0c-6.270813 0 -11.35437 -5.083496 -11.35437 -11.35434z" fill-rule="evenodd"/><path fill="#0b5394" d="m696.38617 581.34515l0 0c0 -6.270874 5.083557 -11.35437 11.35437 -11.35437l0 0c3.0113525 0 5.899353 1.1962891 8.028687 3.3256226c2.1293945 2.1293335 3.3256226 5.017395 3.3256226 8.028748l0 0c0 6.270813 -5.083496 11.354309 -11.354309 11.354309l0 0c-6.270813 0 -11.35437 -5.083496 -11.35437 -11.354309z" fill-rule="evenodd"/><path stroke="#0b5394" stroke-width="12.0" stroke-linejoin="round" stroke-linecap="butt" d="m696.38617 581.34515l0 0c0 -6.270874 5.083557 -11.35437 11.35437 -11.35437l0 0c3.0113525 0 5.899353 1.1962891 8.028687 3.3256226c2.1293945 2.1293335 3.3256226 5.017395 3.3256226 8.028748l0 0c0 6.270813 -5.083496 11.354309 -11.354309 11.354309l0 0c-6.270813 0 -11.35437 -5.083496 -11.35437 -11.354309z" fill-rule="evenodd"/><path fill="#0b5394" d="m696.38617 656.5253l0 0c0 -6.270874 5.083557 -11.35437 11.35437 -11.35437l0 0c3.0113525 0 5.899353 1.1962891 8.028687 3.3256226c2.1293945 2.1293335 3.3256226 5.017395 3.3256226 8.028748l0 0c0 6.270813 -5.083496 11.354309 -11.354309 11.354309l0 0c-6.270813 0 -11.35437 -5.083496 -11.35437 -11.354309z" fill-rule="evenodd"/><path stroke="#0b5394" stroke-width="12.0" stroke-linejoin="round" stroke-linecap="butt" d="m696.38617 656.5253l0 0c0 -6.270874 5.083557 -11.35437 11.35437 -11.35437l0 0c3.0113525 0 5.899353 1.1962891 8.028687 3.3256226c2.1293945 2.1293335 3.3256226 5.017395 3.3256226 8.028748l0 0c0 6.270813 -5.083496 11.354309 -11.354309 11.354309l0 0c-6.270813 0 -11.35437 -5.083496 -11.35437 -11.354309z" fill-rule="evenodd"/><path fill="#000000" fill-opacity="0.0" d="m735.52 347.3649l33.35431 0l0 29.763763l-33.35431 0z" fill-rule="evenodd"/><path stroke="#0b5394" stroke-width="12.0" stroke-linejoin="round" stroke-linecap="butt" d="m735.52 347.3649l33.35431 0l0 29.763763l-33.35431 0z" fill-rule="evenodd"/><path fill="#000000" fill-opacity="0.0" d="m677.3998 347.3649l33.35431 0l0 29.763763l-33.35431 0z" fill-rule="evenodd"/><path stroke="#0b5394" stroke-width="12.0" stroke-linejoin="round" stroke-linecap="butt" d="m677.3998 347.3649l33.35431 0l0 29.763763l-33.35431 0z" fill-rule="evenodd"/><path fill="#000000" fill-opacity="0.0" d="m793.6402 347.3649l33.35431 0l0 29.763763l-33.35431 0z" fill-rule="evenodd"/><path stroke="#0b5394" stroke-width="12.0" stroke-linejoin="round" stroke-linecap="butt" d="m793.6402 347.3649l33.35431 0l0 29.763763l-33.35431 0z" fill-rule="evenodd"/><path fill="#000000" fill-opacity="0.0" d="m387.00787 875.7712l944.8819 0l0 164.81891l-944.8819 0z" fill-rule="evenodd"/><path fill="#0b5394" d="m654.13245 914.6587l0 85.3125l-10.78125 0l0 -76.0625l-33.328125 0l0 76.0625l-10.78125 0l0 -85.3125l54.890625 0zm46.23828 51.859375l-18.640625 0l0 -9.203125l18.640625 0q5.265625 0 8.515625 -2.109375q3.265625 -2.109375 4.75 -5.859375q1.5 -3.75 1.5 -8.5625q0 -4.390625 -1.5 -8.25q-1.484375 -3.875 -4.75 -6.25q-3.25 -2.375 -8.515625 -2.375l-16.40625 0l0 76.0625l-10.78125 0l0 -85.3125l27.1875 0q8.265625 0 13.9375 3.34375q5.6875 3.328125 8.640625 9.21875q2.96875 5.890625 2.96875 13.453125q0 8.203125 -2.96875 14.0q-2.953125 5.796875 -8.640625 8.828125q-5.671875 3.015625 -13.9375 3.015625zm85.19141 24.25l0 9.203125l-37.03125 0l0 -9.203125l37.03125 0zm-35.09375 -76.109375l0 85.3125l-10.78125 0l0 -85.3125l10.78125 0zm30.109375 36.671875l0 9.203125l-32.046875 0l0 -9.203125l32.046875 0zm4.40625 -36.671875l0 9.25l-36.453125 0l0 -9.25l36.453125 0zm59.226562 0l0 9.25l-33.515625 0l0 76.0625l-10.78125 0l0 -85.3125l44.296875 0zm52.679688 0l0 9.25l-31.875 0l0 -9.25l31.875 0zm9.499939 0l0 85.3125l-10.781189 0l0 -85.3125l10.781189 0zm-44.99994 0l10.71875 0l-1.53125 41.78125q-0.28125 9.015625 -1.109375 16.078125q-0.8125 7.0625 -2.34375 12.25q-1.515625 5.1875 -3.984375 8.5625q-2.453125 3.359375 -6.0 5.0q-3.546875 1.640625 -8.40625 1.640625l-2.8125 0l0 -9.203125l2.046875 -0.171875q2.6875 -0.234375 4.65625 -1.484375q1.96875 -1.265625 3.28125 -3.84375q1.3125 -2.578125 2.15625 -6.671875q0.859375 -4.109375 1.328125 -10.0625q0.46875 -5.953125 0.703125 -13.921875l1.296875 -39.953125zm109.85541 76.109375l0 9.203125l-37.03125 0l0 -9.203125l37.03125 0zm-35.09375 -76.109375l0 85.3125l-10.78125 0l0 -85.3125l10.78125 0zm30.109375 36.671875l0 9.203125l-32.046875 0l0 -9.203125l32.046875 0zm4.40625 -36.671875l0 9.25l-36.453125 0l0 -9.25l36.453125 0zm71.07037 76.109375l0 9.203125l-53.50006 0l0 -9.203125l53.50006 0zm-51.859436 0l0 30.1875l-10.71875 0l-0.0625 -30.1875l10.78125 0zm61.234436 0l-0.125 30.125l-10.65625 0l0 -30.125l10.78125 0zm-19.453125 -76.109375l0 9.25l-30.937561 0l0 -9.25l30.937561 0zm9.4375 0l0 85.3125l-10.78125 0l0 -85.3125l10.78125 0zm-44.06256 0l10.78125 0l-1.53125 34.328125q-0.296875 7.734375 -1.171875 14.28125q-0.875 6.53125 -2.25 11.921875q-1.375 5.390625 -3.140625 9.640625q-1.75 4.234375 -3.8125 7.3125q-2.046875 3.078125 -4.328125 5.046875q-2.28125 1.953125 -4.6875 2.78125l-4.515625 0l0 -9.203125l2.984375 0q1.296875 -1.640625 2.84375 -4.734375q1.5625 -3.109375 3.046875 -8.0625q1.5 -4.953125 2.640625 -12.09375q1.140625 -7.15625 1.546875 -16.890625l1.59375 -34.328125zm78.453186 65.734375l33.21875 -65.734375l10.78125 0l0 85.3125l-10.78125 0l0 -65.796875l-33.21875 65.796875l-10.71875 0l0 -85.3125l10.71875 0l0 65.734375z" fill-rule="nonzero"/></g></svg>