<?xml version="1.0" encoding="utf-8"?>
<!-- Generator: Adobe Illustrator 28.0.0, SVG Export Plug-In . SVG Version: 6.00 Build 0)  -->
<svg version="1.1" id="Layer_1" xmlns="http://www.w3.org/2000/svg" xmlns:xlink="http://www.w3.org/1999/xlink" x="0px" y="0px"
	 viewBox="0 0 191.8 182" style="enable-background:new 0 0 191.8 182;" xml:space="preserve">
<style type="text/css">
	.st0{fill:#4D4D4F;}
	.st1{fill:none;stroke:#4D4D4F;stroke-width:1.5;stroke-miterlimit:10;}
	.st2{fill:#F49254;}
	.st3{fill:#DD7B38;}
	.st4{fill:url(#SVGID_1_);}
	.st5{fill:url(#SVGID_00000055671409979113938870000000574850502023918212_);}
</style>
<g>
	<g>
		<path class="st0" d="M72.4,154.5v-22.7h5.3v14.7l7.6-6.4l5.7,0l-7.9,6.6l8.3,7.8h-5.7l-7.9-7.6v7.6H72.4z"/>
		<path class="st0" d="M94.2,147.3c0-2.4,0.8-4.2,2.5-5.5c1.6-1.3,4-1.9,7.2-1.9c3.1,0,5.5,0.6,7.2,1.9c0.8,0.6,1.4,1.4,1.8,2.3
			s0.6,2,0.6,3.2c0,2.4-0.8,4.3-2.5,5.6c-1.7,1.3-4.1,1.9-7.2,1.9c-3.1,0-5.5-0.6-7.2-1.9S94.2,149.8,94.2,147.3z M99.6,147.3
			c0,1.8,0.3,3.1,1,3.9c0.7,0.8,1.8,1.2,3.3,1.2c1.5,0,2.6-0.4,3.3-1.2c0.7-0.8,1.1-2.1,1.1-3.8c0-1.7-0.4-3-1.1-3.8
			s-1.8-1.2-3.3-1.2c-1.4,0-2.5,0.4-3.2,1.2C100,144.3,99.6,145.6,99.6,147.3z"/>
		<path class="st0" d="M118.6,135.9c0-0.5,0.3-0.9,1-1.2c0.7-0.3,1.5-0.5,2.4-0.5c0.9,0,1.7,0.2,2.4,0.5c0.6,0.3,1,0.7,1,1.2
			c0,0.5-0.3,0.9-1,1.2c-0.7,0.3-1.4,0.5-2.4,0.5c-0.9,0-1.7-0.2-2.4-0.5C119,136.7,118.6,136.3,118.6,135.9z M119.4,160.3v-20.2
			h5.3v20.2H119.4z"/>
		<path class="st0" d="M132.2,154.5v-12.4h-2.9v-1.9h2.9v-3.9h5.3v3.9h4v1.9h-4v12.4H132.2z"/>
		<path class="st0" d="M144.2,147.3c0-2.4,0.8-4.2,2.5-5.5c1.7-1.3,4-1.9,7.2-1.9c3.1,0,5.5,0.6,7.2,1.9c0.8,0.6,1.4,1.4,1.8,2.3
			s0.6,2,0.6,3.2c0,2.4-0.8,4.3-2.5,5.6c-1.7,1.3-4.1,1.9-7.2,1.9c-3.1,0-5.5-0.6-7.2-1.9S144.2,149.8,144.2,147.3z M149.5,147.3
			c0,1.8,0.3,3.1,1,3.9c0.7,0.8,1.8,1.2,3.3,1.2c1.5,0,2.6-0.4,3.3-1.2s1.1-2.1,1.1-3.8c0-1.7-0.4-3-1.1-3.8s-1.8-1.2-3.3-1.2
			c-1.4,0-2.5,0.4-3.2,1.2S149.5,145.6,149.5,147.3z"/>
	</g>
	<line class="st1" x1="71.9" y1="125.3" x2="181.2" y2="125.3"/>
	<g>
		<polygon class="st2" points="107,37.8 116.5,32.7 60.1,2.1 3.2,32.4 60.1,62.8 		"/>
		<polygon class="st3" points="116.8,88.8 116.7,35.1 66.3,61.9 		"/>
		<polygon class="st2" points="59,64.7 2.9,34.8 2.9,91 2.9,91 59,121.2 		"/>
		<linearGradient id="SVGID_1_" gradientUnits="userSpaceOnUse" x1="40.4164" y1="118.9294" x2="22.0168" y2="153.4001">
			<stop  offset="0" style="stop-color:#F49254;stop-opacity:0.3"/>
			<stop  offset="5.156326e-02" style="stop-color:#F49254;stop-opacity:0.2845"/>
			<stop  offset="1" style="stop-color:#F49254;stop-opacity:0"/>
		</linearGradient>
		<linearGradient id="SVGID_00000016066374284954591230000006404172601167459507_" gradientUnits="userSpaceOnUse" x1="99.0052" y1="87.2629" x2="80.6433" y2="121.663">
			<stop  offset="0" style="stop-color:#F49254;stop-opacity:0.3"/>
			<stop  offset="5.156326e-02" style="stop-color:#F49254;stop-opacity:0.2845"/>
			<stop  offset="1" style="stop-color:#F49254;stop-opacity:0"/>
		</linearGradient>
		<g>
			<path class="st0" d="M77.7,96.9v6.3h0.8l6-6.3h6.1l-7.9,6.7c2.9,0.3,4.5,2,5.8,4.4c0.6,1.2,1.3,2.9,2.3,4.2h-5.5
				c-0.6-0.7-1.2-1.9-1.9-3.4c-1-2-2.5-3-5.1-3h-0.6v6.4h-5.2V96.9H77.7z"/>
			<path class="st0" d="M103.2,112.5c-5.7,0-10-2.9-10-7.9c0-5.2,4.5-8,10.2-8c5.9,0,9.9,3.1,9.9,7.9
				C113.3,110.2,108,112.5,103.2,112.5L103.2,112.5z M103.3,109.7c2.9,0,4.6-2.4,4.6-5.2c0-2.4-1.2-5.2-4.6-5.2
				c-3.4,0-4.7,2.8-4.7,5.2C98.6,107.4,100.3,109.7,103.3,109.7L103.3,109.7z"/>
			<path class="st0" d="M123.6,96.9v5.1c0,2.5-0.2,4.4-0.4,6.5h0.1c1.1-1.8,1.9-3.2,3-4.7l4.8-6.9h6v15.3h-5v-5.1
				c0-2.7,0.1-4,0.4-6.7h-0.1c-1,1.8-1.7,3-2.7,4.5c-1.4,1.9-3.3,4.8-5.1,7.2h-6V96.9H123.6z M125.5,90.7c0.1,1.4,0.9,2.2,2.4,2.2
				c1.6,0,2.4-0.9,2.5-2.2h3.4c-0.3,2.7-2.5,4.1-6.1,4.1c-3.8,0-5.5-1.6-5.7-4.1H125.5z"/>
			<path class="st0" d="M158.6,96.9v2.9h-6v12.4h-5.3V99.8h-6v-2.9H158.6z"/>
			<path class="st0" d="M171.1,112.5c-5.7,0-10-2.9-10-7.9c0-5.2,4.5-8,10.2-8c5.9,0,9.9,3.1,9.9,7.9
				C181.2,110.2,175.9,112.5,171.1,112.5L171.1,112.5z M171.2,109.7c2.9,0,4.6-2.4,4.6-5.2c0-2.4-1.2-5.2-4.6-5.2
				c-3.4,0-4.7,2.8-4.7,5.2C166.5,107.4,168.2,109.7,171.2,109.7L171.2,109.7z"/>
		</g>
	</g>
</g>
</svg>
